<svg xmlns="http://www.w3.org/2000/svg" xmlns:xlink="http://www.w3.org/1999/xlink" width="794" zoomAndPan="magnify" viewBox="0 0 594.95996 842.24997" height="1123" preserveAspectRatio="xMidYMid meet" version="1.0"><defs><g/><clipPath id="f28147c102"><path d="M 0.246094 0 L 594.675781 0 L 594.675781 841.5 L 0.246094 841.5 Z M 0.246094 0 " clip-rule="nonzero"/></clipPath><clipPath id="06ba08c2e0"><path d="M 43.65625 61.804688 L 551.578125 61.804688 L 551.578125 782 L 43.65625 782 Z M 43.65625 61.804688 " clip-rule="nonzero"/></clipPath><clipPath id="6a3cf59404"><path d="M 83.371094 61.804688 L 511.867188 61.804688 C 533.800781 61.804688 551.578125 79.585938 551.578125 101.519531 L 551.578125 741.953125 C 551.578125 763.886719 533.800781 781.667969 511.867188 781.667969 L 83.371094 781.667969 C 61.4375 781.667969 43.65625 763.886719 43.65625 741.953125 L 43.65625 101.519531 C 43.65625 79.585938 61.4375 61.804688 83.371094 61.804688 Z M 83.371094 61.804688 " clip-rule="nonzero"/></clipPath><clipPath id="8797534e82"><path d="M 0.65625 0.804688 L 508.578125 0.804688 L 508.578125 720.703125 L 0.65625 720.703125 Z M 0.65625 0.804688 " clip-rule="nonzero"/></clipPath><clipPath id="457e292ede"><path d="M 40.371094 0.804688 L 468.867188 0.804688 C 490.800781 0.804688 508.578125 18.585938 508.578125 40.519531 L 508.578125 680.953125 C 508.578125 702.886719 490.800781 720.667969 468.867188 720.667969 L 40.371094 720.667969 C 18.4375 720.667969 0.65625 702.886719 0.65625 680.953125 L 0.65625 40.519531 C 0.65625 18.585938 18.4375 0.804688 40.371094 0.804688 Z M 40.371094 0.804688 " clip-rule="nonzero"/></clipPath><clipPath id="69e487e6cc"><rect x="0" width="509" y="0" height="721"/></clipPath><clipPath id="10d3a8970b"><path d="M 43.65625 61.804688 L 551.703125 61.804688 L 551.703125 781.914062 L 43.65625 781.914062 Z M 43.65625 61.804688 " clip-rule="nonzero"/></clipPath><clipPath id="383ca3eb01"><path d="M 83.371094 61.804688 L 511.859375 61.804688 C 533.792969 61.804688 551.574219 79.585938 551.574219 101.519531 L 551.574219 741.941406 C 551.574219 763.875 533.792969 781.65625 511.859375 781.65625 L 83.371094 781.65625 C 61.4375 781.65625 43.65625 763.875 43.65625 741.941406 L 43.65625 101.519531 C 43.65625 79.585938 61.4375 61.804688 83.371094 61.804688 Z M 83.371094 61.804688 " clip-rule="nonzero"/></clipPath><clipPath id="f30fe87e9a"><rect x="0" width="211" y="0" height="83"/></clipPath><clipPath id="1b3ee33f0e"><path d="M 55.167969 230 L 535 230 L 535 518.894531 L 55.167969 518.894531 Z M 55.167969 230 " clip-rule="nonzero"/></clipPath></defs><g clip-path="url(#f28147c102)"><path fill="#ffffff" d="M 0.246094 0 L 595.214844 0 L 595.214844 841.5 L 0.246094 841.5 Z M 0.246094 0 " fill-opacity="1" fill-rule="nonzero"/><path fill="#ffffff" d="M 0.246094 0 L 595.214844 0 L 595.214844 841.5 L 0.246094 841.5 Z M 0.246094 0 " fill-opacity="1" fill-rule="nonzero"/></g><g clip-path="url(#06ba08c2e0)"><g clip-path="url(#6a3cf59404)"><g transform="matrix(1, 0, 0, 1, 43, 61)"><g clip-path="url(#69e487e6cc)"><g clip-path="url(#8797534e82)"><g clip-path="url(#457e292ede)"><path fill="#ffffff" d="M 0.65625 0.804688 L 508.578125 0.804688 L 508.578125 721.027344 L 0.65625 721.027344 Z M 0.65625 0.804688 " fill-opacity="1" fill-rule="nonzero"/></g></g></g></g></g></g><g clip-path="url(#10d3a8970b)"><g clip-path="url(#383ca3eb01)"><path stroke-linecap="butt" transform="matrix(0.749333, 0, 0, 0.749333, 43.656323, 61.804492)" fill="none" stroke-linejoin="miter" d="M 53.000185 0.000260829 L 624.82668 0.000260829 C 654.097516 0.000260829 677.826962 23.729708 677.826962 53.000543 L 677.826962 907.656813 C 677.826962 936.927648 654.097516 960.657095 624.82668 960.657095 L 53.000185 960.657095 C 23.72935 960.657095 -0.0000972672 936.927648 -0.0000972672 907.656813 L -0.0000972672 53.000543 C -0.0000972672 23.729708 23.72935 0.000260829 53.000185 0.000260829 Z M 53.000185 0.000260829 " stroke="#000000" stroke-width="8" stroke-opacity="1" stroke-miterlimit="4"/></g></g><g transform="matrix(1, 0, 0, 1, 183, 575)"><g clip-path="url(#f30fe87e9a)"><g fill="#000000" fill-opacity="1"><g transform="translate(0.586593, 61.427771)"><g><path d="M 23.886719 -24.800781 C 23.886719 -25.753906 23.832031 -26.652344 23.726562 -27.5 C 23.628906 -28.234375 23.410156 -28.894531 23.070312 -29.480469 L 23.574219 -29.773438 L 23.082031 -29.460938 C 22.75 -29.980469 22.300781 -30.402344 21.730469 -30.738281 L 22.027344 -31.242188 L 21.746094 -30.726562 C 21.128906 -31.0625 20.296875 -31.226562 19.25 -31.226562 C 18.285156 -31.226562 17.371094 -31.074219 16.511719 -30.773438 C 15.644531 -30.464844 14.882812 -30.0625 14.226562 -29.554688 L 14.21875 -29.546875 L 14.207031 -29.542969 C 13.472656 -29.019531 12.820312 -28.46875 12.242188 -27.890625 L 11.828125 -28.308594 L 12.261719 -27.910156 C 11.683594 -27.28125 11.183594 -26.652344 10.765625 -26.023438 L 10.308594 -25.335938 L 2.910156 -35.109375 L 3.234375 -35.46875 C 4.175781 -36.519531 5.226562 -37.546875 6.390625 -38.542969 L 6.769531 -38.097656 L 6.378906 -38.53125 C 7.5 -39.542969 8.789062 -40.4375 10.246094 -41.222656 C 11.695312 -42.003906 13.3125 -42.644531 15.097656 -43.148438 L 15.105469 -43.148438 L 15.113281 -43.152344 C 16.898438 -43.597656 18.90625 -43.820312 21.128906 -43.820312 C 24.777344 -43.820312 27.828125 -43.433594 30.277344 -42.652344 L 30.285156 -42.648438 L 30.292969 -42.648438 C 32.730469 -41.796875 34.691406 -40.515625 36.171875 -38.804688 C 37.648438 -37.101562 38.699219 -34.953125 39.320312 -32.359375 C 39.875 -29.808594 40.152344 -26.800781 40.152344 -23.332031 L 40.152344 0.585938 L 25.300781 0.585938 L 24.386719 -3.878906 L 24.960938 -3.996094 L 25.421875 -3.632812 C 24.109375 -1.980469 22.59375 -0.777344 20.871094 -0.03125 C 19.164062 0.707031 17.402344 1.074219 15.582031 1.074219 C 13.769531 1.074219 12.097656 0.792969 10.5625 0.222656 C 8.957031 -0.351562 7.527344 -1.296875 6.265625 -2.613281 C 3.757812 -5.292969 2.589844 -8.671875 2.757812 -12.75 L 2.757812 -12.765625 C 3.042969 -17.078125 4.5625 -20.265625 7.316406 -22.332031 C 9.976562 -24.3125 13.332031 -25.304688 17.375 -25.304688 C 18.605469 -25.304688 19.839844 -25.191406 21.070312 -24.96875 C 22.238281 -24.746094 23.433594 -24.441406 24.652344 -24.050781 L 24.472656 -23.492188 L 23.886719 -23.492188 Z M 25.058594 -24.800781 L 25.058594 -22.691406 L 24.296875 -22.933594 C 23.121094 -23.308594 21.976562 -23.601562 20.859375 -23.8125 C 19.699219 -24.027344 18.535156 -24.132812 17.375 -24.132812 C 13.589844 -24.132812 10.472656 -23.21875 8.019531 -21.394531 C 5.554688 -19.542969 4.191406 -16.640625 3.929688 -12.6875 L 3.34375 -12.726562 L 3.929688 -12.703125 C 3.773438 -8.949219 4.835938 -5.855469 7.113281 -3.421875 C 8.246094 -2.238281 9.53125 -1.390625 10.972656 -0.875 C 12.375 -0.355469 13.910156 -0.0976562 15.582031 -0.0976562 C 17.238281 -0.0976562 18.847656 -0.433594 20.40625 -1.109375 C 21.945312 -1.777344 23.3125 -2.859375 24.503906 -4.363281 L 25.285156 -5.347656 L 26.351562 -0.117188 L 25.777344 0 L 25.777344 -0.585938 L 39.5625 -0.585938 L 39.5625 0 L 38.976562 0 L 38.976562 -23.332031 C 38.976562 -26.714844 38.710938 -29.632812 38.179688 -32.085938 C 37.601562 -34.496094 36.636719 -36.480469 35.285156 -38.039062 C 33.941406 -39.589844 32.148438 -40.757812 29.910156 -41.539062 L 30.101562 -42.09375 L 29.921875 -41.535156 C 27.589844 -42.277344 24.65625 -42.648438 21.128906 -42.648438 C 19 -42.648438 17.089844 -42.4375 15.398438 -42.011719 L 15.253906 -42.582031 L 15.414062 -42.019531 C 13.714844 -41.539062 12.175781 -40.929688 10.800781 -40.191406 C 9.429688 -39.449219 8.214844 -38.609375 7.164062 -37.660156 L 7.15625 -37.65625 L 7.152344 -37.652344 C 6.03125 -36.6875 5.015625 -35.699219 4.109375 -34.6875 L 3.671875 -35.078125 L 4.136719 -35.429688 L 10.746094 -26.703125 L 10.277344 -26.347656 L 9.789062 -26.675781 C 10.242188 -27.351562 10.777344 -28.027344 11.394531 -28.703125 L 11.40625 -28.710938 L 11.414062 -28.722656 C 12.035156 -29.34375 12.738281 -29.933594 13.527344 -30.496094 L 13.867188 -30.019531 L 13.511719 -30.484375 C 14.265625 -31.066406 15.136719 -31.53125 16.121094 -31.878906 C 17.109375 -32.226562 18.152344 -32.402344 19.25 -32.402344 C 20.492188 -32.402344 21.507812 -32.1875 22.304688 -31.761719 L 22.3125 -31.753906 L 22.320312 -31.75 C 23.054688 -31.320312 23.636719 -30.769531 24.070312 -30.089844 L 24.078125 -30.082031 L 24.082031 -30.070312 C 24.503906 -29.351562 24.773438 -28.542969 24.890625 -27.644531 C 25.003906 -26.75 25.058594 -25.800781 25.058594 -24.800781 Z M 24.226562 -14.886719 C 23.597656 -15.175781 22.78125 -15.320312 21.78125 -15.320312 C 20.78125 -15.320312 19.910156 -15.148438 19.171875 -14.804688 L 19.167969 -14.800781 L 19.160156 -14.800781 C 18.523438 -14.519531 18.207031 -14.101562 18.207031 -13.542969 C 18.207031 -12.851562 18.511719 -12.34375 19.121094 -12.019531 L 19.160156 -11.996094 C 19.824219 -11.566406 20.589844 -11.355469 21.453125 -11.355469 C 22.570312 -11.355469 23.457031 -11.613281 24.109375 -12.125 L 24.472656 -11.664062 L 23.886719 -11.664062 L 23.886719 -15.417969 L 24.472656 -15.417969 Z M 25.058594 -15.792969 L 25.058594 -11.378906 L 24.835938 -11.203125 C 23.96875 -10.523438 22.839844 -10.179688 21.453125 -10.179688 C 20.359375 -10.179688 19.386719 -10.457031 18.527344 -11.007812 L 18.84375 -11.503906 L 18.566406 -10.984375 C 17.546875 -11.53125 17.035156 -12.382812 17.035156 -13.542969 C 17.035156 -14.613281 17.585938 -15.390625 18.691406 -15.875 L 18.925781 -15.335938 L 18.675781 -15.867188 C 19.570312 -16.285156 20.605469 -16.492188 21.78125 -16.492188 C 22.953125 -16.492188 23.933594 -16.3125 24.71875 -15.949219 Z M 25.058594 -15.792969 "/></g></g></g><g fill="#000000" fill-opacity="1"><g transform="translate(42.921451, 61.427771)"><g><path d="M 3.425781 -43.25 L 18.726562 -43.25 L 19.101562 -39.210938 L 18.519531 -39.15625 L 18.039062 -39.496094 C 18.628906 -40.320312 19.414062 -41.050781 20.402344 -41.6875 C 21.3125 -42.257812 22.300781 -42.738281 23.371094 -43.132812 L 23.382812 -43.136719 L 23.390625 -43.140625 C 24.390625 -43.472656 25.449219 -43.75 26.558594 -43.972656 L 26.570312 -43.976562 L 26.582031 -43.976562 C 27.648438 -44.144531 28.65625 -44.230469 29.613281 -44.230469 C 32.90625 -44.285156 35.789062 -43.722656 38.265625 -42.539062 L 38.273438 -42.539062 L 38.28125 -42.535156 C 40.695312 -41.300781 42.714844 -39.671875 44.34375 -37.648438 L 44.351562 -37.640625 L 44.355469 -37.632812 C 45.921875 -35.5625 47.09375 -33.191406 47.875 -30.511719 C 48.652344 -27.789062 49.042969 -24.933594 49.042969 -21.945312 C 49.042969 -18.894531 48.625 -15.984375 47.792969 -13.210938 C 46.902344 -10.363281 45.617188 -7.878906 43.941406 -5.753906 C 42.199219 -3.5625 40.0625 -1.851562 37.539062 -0.617188 C 35.011719 0.675781 32.070312 1.320312 28.714844 1.320312 C 27.929688 1.320312 27.066406 1.265625 26.117188 1.152344 C 25.109375 1.042969 24.101562 0.84375 23.09375 0.566406 C 22.0625 0.28125 21.066406 -0.148438 20.097656 -0.71875 C 19.113281 -1.296875 18.242188 -2.050781 17.492188 -2.976562 L 17.945312 -3.34375 L 18.53125 -3.34375 L 18.53125 14.046875 L 2.839844 14.046875 L 2.839844 -43.25 Z M 3.425781 -42.078125 L 3.425781 -42.664062 L 4.011719 -42.664062 L 4.011719 13.460938 L 3.425781 13.460938 L 3.425781 12.875 L 17.945312 12.875 L 17.945312 13.460938 L 17.359375 13.460938 L 17.359375 -4.996094 L 18.402344 -3.714844 C 19.0625 -2.898438 19.828125 -2.238281 20.691406 -1.730469 C 21.570312 -1.210938 22.476562 -0.824219 23.40625 -0.566406 C 24.355469 -0.300781 25.304688 -0.117188 26.253906 -0.0117188 C 27.15625 0.09375 27.976562 0.148438 28.714844 0.148438 C 31.882812 0.148438 34.652344 -0.457031 37.023438 -1.667969 C 39.390625 -2.828125 41.390625 -4.429688 43.019531 -6.480469 C 44.605469 -8.492188 45.824219 -10.847656 46.671875 -13.546875 C 47.46875 -16.210938 47.871094 -19.011719 47.871094 -21.945312 C 47.871094 -24.824219 47.496094 -27.570312 46.75 -30.183594 C 46.007812 -32.722656 44.898438 -34.972656 43.421875 -36.925781 L 43.886719 -37.28125 L 43.429688 -36.914062 C 41.90625 -38.804688 40.011719 -40.332031 37.746094 -41.488281 L 38.015625 -42.011719 L 37.761719 -41.480469 C 35.453125 -42.585938 32.734375 -43.109375 29.613281 -43.054688 C 28.71875 -43.054688 27.769531 -42.976562 26.765625 -42.820312 L 26.675781 -43.398438 L 26.789062 -42.824219 C 25.726562 -42.609375 24.714844 -42.34375 23.761719 -42.027344 L 23.574219 -42.582031 L 23.777344 -42.03125 C 22.78125 -41.664062 21.871094 -41.222656 21.039062 -40.703125 C 20.175781 -40.144531 19.496094 -39.515625 18.996094 -38.816406 L 18.078125 -37.535156 L 17.609375 -42.609375 L 18.191406 -42.664062 L 18.191406 -42.078125 Z M 19.007812 -15.328125 C 19.652344 -14.339844 20.601562 -13.570312 21.855469 -13.019531 L 21.878906 -13.003906 C 23.101562 -12.394531 24.347656 -12.089844 25.613281 -12.089844 C 26.929688 -12.089844 28.085938 -12.363281 29.085938 -12.914062 C 30.046875 -13.421875 30.855469 -14.101562 31.511719 -14.957031 C 32.171875 -15.820312 32.65625 -16.816406 32.960938 -17.9375 C 33.273438 -19.082031 33.429688 -20.28125 33.429688 -21.535156 C 33.429688 -22.679688 33.273438 -23.824219 32.960938 -24.972656 L 33.527344 -25.125 L 32.972656 -24.941406 C 32.609375 -26.019531 32.097656 -26.996094 31.429688 -27.867188 C 30.769531 -28.734375 29.976562 -29.449219 29.0625 -30.007812 L 29.367188 -30.507812 L 29.09375 -29.992188 C 28.144531 -30.488281 27.066406 -30.738281 25.859375 -30.738281 C 24.335938 -30.738281 23 -30.386719 21.839844 -29.683594 L 21.535156 -30.183594 L 21.855469 -29.691406 C 20.6875 -28.929688 19.742188 -27.910156 19.03125 -26.632812 L 18.519531 -26.921875 L 19.105469 -26.921875 L 19.105469 -15.011719 L 18.519531 -15.011719 Z M 17.929688 -14.835938 L 17.929688 -27.074219 L 18.007812 -27.207031 C 18.8125 -28.648438 19.882812 -29.804688 21.214844 -30.675781 L 21.230469 -30.683594 C 22.574219 -31.503906 24.117188 -31.910156 25.859375 -31.910156 C 27.261719 -31.910156 28.523438 -31.617188 29.640625 -31.027344 L 29.65625 -31.019531 L 29.671875 -31.007812 C 30.714844 -30.375 31.609375 -29.5625 32.363281 -28.582031 C 33.109375 -27.605469 33.683594 -26.515625 34.082031 -25.3125 L 34.089844 -25.296875 L 34.09375 -25.28125 C 34.433594 -24.03125 34.601562 -22.785156 34.601562 -21.535156 C 34.601562 -20.179688 34.433594 -18.875 34.09375 -17.628906 C 33.746094 -16.359375 33.195312 -15.230469 32.445312 -14.246094 C 31.683594 -13.253906 30.753906 -12.464844 29.648438 -11.886719 C 28.472656 -11.238281 27.128906 -10.914062 25.613281 -10.914062 C 24.164062 -10.914062 22.742188 -11.261719 21.355469 -11.957031 L 21.617188 -12.480469 L 21.382812 -11.945312 C 19.914062 -12.589844 18.796875 -13.503906 18.027344 -14.691406 Z M 17.929688 -14.835938 "/></g></g></g><g fill="#000000" fill-opacity="1"><g transform="translate(93.005471, 61.427771)"><g><path d="M 3.425781 -43.25 L 18.726562 -43.25 L 19.101562 -39.210938 L 18.519531 -39.15625 L 18.039062 -39.496094 C 18.628906 -40.320312 19.414062 -41.050781 20.402344 -41.6875 C 21.3125 -42.257812 22.300781 -42.738281 23.371094 -43.132812 L 23.382812 -43.136719 L 23.390625 -43.140625 C 24.390625 -43.472656 25.449219 -43.75 26.558594 -43.972656 L 26.570312 -43.976562 L 26.582031 -43.976562 C 27.648438 -44.144531 28.65625 -44.230469 29.613281 -44.230469 C 32.90625 -44.285156 35.789062 -43.722656 38.265625 -42.539062 L 38.273438 -42.539062 L 38.28125 -42.535156 C 40.695312 -41.300781 42.714844 -39.671875 44.34375 -37.648438 L 44.351562 -37.640625 L 44.355469 -37.632812 C 45.921875 -35.5625 47.09375 -33.191406 47.875 -30.511719 C 48.652344 -27.789062 49.042969 -24.933594 49.042969 -21.945312 C 49.042969 -18.894531 48.625 -15.984375 47.792969 -13.210938 C 46.902344 -10.363281 45.617188 -7.878906 43.941406 -5.753906 C 42.199219 -3.5625 40.0625 -1.851562 37.539062 -0.617188 C 35.011719 0.675781 32.070312 1.320312 28.714844 1.320312 C 27.929688 1.320312 27.066406 1.265625 26.117188 1.152344 C 25.109375 1.042969 24.101562 0.84375 23.09375 0.566406 C 22.0625 0.28125 21.066406 -0.148438 20.097656 -0.71875 C 19.113281 -1.296875 18.242188 -2.050781 17.492188 -2.976562 L 17.945312 -3.34375 L 18.53125 -3.34375 L 18.53125 14.046875 L 2.839844 14.046875 L 2.839844 -43.25 Z M 3.425781 -42.078125 L 3.425781 -42.664062 L 4.011719 -42.664062 L 4.011719 13.460938 L 3.425781 13.460938 L 3.425781 12.875 L 17.945312 12.875 L 17.945312 13.460938 L 17.359375 13.460938 L 17.359375 -4.996094 L 18.402344 -3.714844 C 19.0625 -2.898438 19.828125 -2.238281 20.691406 -1.730469 C 21.570312 -1.210938 22.476562 -0.824219 23.40625 -0.566406 C 24.355469 -0.300781 25.304688 -0.117188 26.253906 -0.0117188 C 27.15625 0.09375 27.976562 0.148438 28.714844 0.148438 C 31.882812 0.148438 34.652344 -0.457031 37.023438 -1.667969 C 39.390625 -2.828125 41.390625 -4.429688 43.019531 -6.480469 C 44.605469 -8.492188 45.824219 -10.847656 46.671875 -13.546875 C 47.46875 -16.210938 47.871094 -19.011719 47.871094 -21.945312 C 47.871094 -24.824219 47.496094 -27.570312 46.75 -30.183594 C 46.007812 -32.722656 44.898438 -34.972656 43.421875 -36.925781 L 43.886719 -37.28125 L 43.429688 -36.914062 C 41.90625 -38.804688 40.011719 -40.332031 37.746094 -41.488281 L 38.015625 -42.011719 L 37.761719 -41.480469 C 35.453125 -42.585938 32.734375 -43.109375 29.613281 -43.054688 C 28.71875 -43.054688 27.769531 -42.976562 26.765625 -42.820312 L 26.675781 -43.398438 L 26.789062 -42.824219 C 25.726562 -42.609375 24.714844 -42.34375 23.761719 -42.027344 L 23.574219 -42.582031 L 23.777344 -42.03125 C 22.78125 -41.664062 21.871094 -41.222656 21.039062 -40.703125 C 20.175781 -40.144531 19.496094 -39.515625 18.996094 -38.816406 L 18.078125 -37.535156 L 17.609375 -42.609375 L 18.191406 -42.664062 L 18.191406 -42.078125 Z M 19.007812 -15.328125 C 19.652344 -14.339844 20.601562 -13.570312 21.855469 -13.019531 L 21.878906 -13.003906 C 23.101562 -12.394531 24.347656 -12.089844 25.613281 -12.089844 C 26.929688 -12.089844 28.085938 -12.363281 29.085938 -12.914062 C 30.046875 -13.421875 30.855469 -14.101562 31.511719 -14.957031 C 32.171875 -15.820312 32.65625 -16.816406 32.960938 -17.9375 C 33.273438 -19.082031 33.429688 -20.28125 33.429688 -21.535156 C 33.429688 -22.679688 33.273438 -23.824219 32.960938 -24.972656 L 33.527344 -25.125 L 32.972656 -24.941406 C 32.609375 -26.019531 32.097656 -26.996094 31.429688 -27.867188 C 30.769531 -28.734375 29.976562 -29.449219 29.0625 -30.007812 L 29.367188 -30.507812 L 29.09375 -29.992188 C 28.144531 -30.488281 27.066406 -30.738281 25.859375 -30.738281 C 24.335938 -30.738281 23 -30.386719 21.839844 -29.683594 L 21.535156 -30.183594 L 21.855469 -29.691406 C 20.6875 -28.929688 19.742188 -27.910156 19.03125 -26.632812 L 18.519531 -26.921875 L 19.105469 -26.921875 L 19.105469 -15.011719 L 18.519531 -15.011719 Z M 17.929688 -14.835938 L 17.929688 -27.074219 L 18.007812 -27.207031 C 18.8125 -28.648438 19.882812 -29.804688 21.214844 -30.675781 L 21.230469 -30.683594 C 22.574219 -31.503906 24.117188 -31.910156 25.859375 -31.910156 C 27.261719 -31.910156 28.523438 -31.617188 29.640625 -31.027344 L 29.65625 -31.019531 L 29.671875 -31.007812 C 30.714844 -30.375 31.609375 -29.5625 32.363281 -28.582031 C 33.109375 -27.605469 33.683594 -26.515625 34.082031 -25.3125 L 34.089844 -25.296875 L 34.09375 -25.28125 C 34.433594 -24.03125 34.601562 -22.785156 34.601562 -21.535156 C 34.601562 -20.179688 34.433594 -18.875 34.09375 -17.628906 C 33.746094 -16.359375 33.195312 -15.230469 32.445312 -14.246094 C 31.683594 -13.253906 30.753906 -12.464844 29.648438 -11.886719 C 28.472656 -11.238281 27.128906 -10.914062 25.613281 -10.914062 C 24.164062 -10.914062 22.742188 -11.261719 21.355469 -11.957031 L 21.617188 -12.480469 L 21.382812 -11.945312 C 19.914062 -12.589844 18.796875 -13.503906 18.027344 -14.691406 Z M 17.929688 -14.835938 "/></g></g></g><g fill="#000000" fill-opacity="1"><g transform="translate(143.089491, 61.427771)"><g><path d="M 2.433594 -51.980469 L 18.695312 -51.980469 L 18.695312 0.585938 L 2.433594 0.585938 Z M 3.605469 -50.804688 L 3.605469 -0.585938 L 17.523438 -0.585938 L 17.523438 -50.804688 Z M 3.605469 -50.804688 "/></g></g></g><g fill="#000000" fill-opacity="1"><g transform="translate(165.847711, 61.427771)"><g><path d="M 25.042969 -44.230469 C 27.15625 -44.230469 29.269531 -43.980469 31.378906 -43.480469 C 33.511719 -42.972656 35.425781 -42.15625 37.117188 -41.03125 C 38.820312 -39.894531 40.210938 -38.449219 41.289062 -36.6875 L 41.292969 -36.683594 L 41.296875 -36.675781 C 42.324219 -34.90625 42.867188 -32.769531 42.925781 -30.277344 L 42.925781 -30.265625 C 42.925781 -27.992188 42.464844 -25.996094 41.550781 -24.277344 L 41.546875 -24.273438 L 41.542969 -24.265625 C 40.582031 -22.570312 39.363281 -21.125 37.894531 -19.9375 C 36.371094 -18.753906 34.652344 -17.824219 32.742188 -17.148438 L 32.546875 -17.703125 L 32.757812 -17.152344 C 30.875 -16.433594 28.960938 -15.90625 27.019531 -15.574219 C 25.410156 -15.296875 23.828125 -15.15625 22.269531 -15.15625 C 20.761719 -15.15625 19.253906 -15.105469 17.742188 -14.996094 L 17.703125 -15.582031 L 18.230469 -15.832031 C 18.773438 -14.699219 19.644531 -13.804688 20.835938 -13.160156 L 20.847656 -13.152344 L 20.863281 -13.144531 C 22.019531 -12.441406 23.441406 -12.089844 25.125 -12.089844 C 26.585938 -12.089844 28.03125 -12.546875 29.457031 -13.464844 C 30.835938 -14.382812 31.851562 -15.5 32.515625 -16.820312 L 32.832031 -17.457031 L 43.1875 -9.53125 L 42.925781 -9.082031 C 40.746094 -5.398438 38.144531 -2.742188 35.109375 -1.113281 C 32.085938 0.507812 28.460938 1.320312 24.226562 1.320312 C 20.835938 1.320312 17.746094 0.761719 14.957031 -0.351562 C 12.160156 -1.414062 9.78125 -2.957031 7.820312 -4.976562 C 5.859375 -6.933594 4.347656 -9.339844 3.285156 -12.195312 C 2.226562 -14.980469 1.699219 -18.066406 1.699219 -21.453125 C 1.699219 -24.796875 2.285156 -27.863281 3.457031 -30.65625 C 4.628906 -33.449219 6.28125 -35.855469 8.40625 -37.867188 C 10.472656 -39.878906 12.929688 -41.441406 15.773438 -42.558594 C 18.617188 -43.671875 21.707031 -44.230469 25.042969 -44.230469 Z M 25.042969 -43.054688 C 21.855469 -43.054688 18.90625 -42.527344 16.203125 -41.464844 C 13.503906 -40.40625 11.171875 -38.925781 9.214844 -37.015625 C 7.207031 -35.117188 5.648438 -32.84375 4.539062 -30.199219 C 3.425781 -27.554688 2.871094 -24.640625 2.871094 -21.453125 C 2.871094 -18.207031 3.375 -15.257812 4.382812 -12.605469 C 5.386719 -9.910156 6.8125 -7.640625 8.660156 -5.792969 C 10.503906 -3.898438 12.746094 -2.445312 15.390625 -1.441406 C 18.039062 -0.382812 20.984375 0.148438 24.226562 0.148438 C 28.261719 0.148438 31.707031 -0.617188 34.554688 -2.148438 C 37.394531 -3.671875 39.847656 -6.183594 41.914062 -9.679688 L 42.417969 -9.382812 L 42.0625 -8.914062 L 32.683594 -16.09375 L 33.039062 -16.558594 L 33.5625 -16.296875 C 32.808594 -14.789062 31.652344 -13.515625 30.09375 -12.476562 C 28.472656 -11.4375 26.816406 -10.914062 25.125 -10.914062 C 23.222656 -10.914062 21.597656 -11.324219 20.253906 -12.144531 L 20.558594 -12.644531 L 20.277344 -12.128906 C 18.859375 -12.894531 17.824219 -13.960938 17.171875 -15.328125 L 16.800781 -16.105469 L 17.660156 -16.164062 C 19.195312 -16.277344 20.734375 -16.332031 22.269531 -16.332031 C 23.757812 -16.332031 25.277344 -16.464844 26.820312 -16.730469 C 28.6875 -17.050781 30.527344 -17.554688 32.339844 -18.25 L 32.347656 -18.253906 L 32.355469 -18.253906 C 34.144531 -18.886719 35.742188 -19.75 37.15625 -20.851562 C 38.511719 -21.945312 39.632812 -23.277344 40.523438 -24.84375 L 41.03125 -24.554688 L 40.515625 -24.832031 C 41.339844 -26.375 41.75 -28.1875 41.75 -30.265625 L 42.335938 -30.265625 L 41.75 -30.25 C 41.699219 -32.542969 41.210938 -34.488281 40.28125 -36.089844 L 40.789062 -36.382812 L 40.289062 -36.078125 C 39.300781 -37.6875 38.023438 -39.015625 36.464844 -40.054688 C 34.890625 -41.105469 33.105469 -41.863281 31.109375 -42.339844 C 29.085938 -42.816406 27.066406 -43.054688 25.042969 -43.054688 Z M 16.398438 -24.242188 C 16.976562 -24.242188 17.828125 -24.296875 18.953125 -24.402344 C 20.050781 -24.507812 21.179688 -24.746094 22.335938 -25.113281 L 22.359375 -25.121094 C 23.492188 -25.429688 24.488281 -25.890625 25.359375 -26.5 C 26.136719 -27.050781 26.574219 -27.753906 26.664062 -28.613281 C 26.746094 -29.445312 26.515625 -30.015625 25.976562 -30.328125 C 25.304688 -30.710938 24.53125 -30.902344 23.65625 -30.902344 L 23.65625 -31.488281 L 23.671875 -30.902344 C 21.816406 -30.851562 20.207031 -30.148438 18.851562 -28.789062 L 18.4375 -29.203125 L 18.882812 -28.824219 C 18.273438 -28.113281 17.792969 -27.277344 17.4375 -26.308594 C 17.085938 -25.304688 16.933594 -24.433594 16.980469 -23.695312 L 16.398438 -23.65625 Z M 16.398438 -23.070312 L 15.847656 -23.070312 L 15.8125 -23.617188 C 15.75 -24.511719 15.925781 -25.546875 16.335938 -26.714844 C 16.742188 -27.8125 17.292969 -28.769531 17.992188 -29.585938 L 18.003906 -29.601562 L 18.019531 -29.617188 C 19.601562 -31.199219 21.472656 -32.015625 23.640625 -32.074219 L 23.65625 -32.074219 C 24.738281 -32.074219 25.707031 -31.832031 26.558594 -31.34375 C 27.539062 -30.785156 27.964844 -29.832031 27.828125 -28.488281 C 27.703125 -27.28125 27.105469 -26.296875 26.035156 -25.542969 C 25.054688 -24.851562 23.933594 -24.332031 22.667969 -23.988281 L 22.515625 -24.554688 L 22.691406 -23.996094 C 21.457031 -23.601562 20.246094 -23.347656 19.0625 -23.238281 C 17.902344 -23.125 17.011719 -23.070312 16.398438 -23.070312 Z M 16.398438 -23.070312 "/></g></g></g></g></g><path fill="#000000" d="M 246.566406 393.507812 L 271.921875 405.3125 C 276.597656 407.390625 282.414062 410.378906 287.054688 412.699219 C 293.75 416.046875 316.855469 427.75 316.855469 427.75 C 317.703125 428.257812 318.496094 428.539062 319.3125 429.039062 L 324.140625 431.71875 C 324.769531 432.097656 325.929688 432.847656 326.609375 433.007812 C 326.089844 432.308594 315.097656 426.441406 314.136719 425.640625 C 313.585938 425.179688 312.878906 424.691406 312.277344 424.28125 C 311.558594 423.792969 310.980469 423.421875 310.238281 422.921875 L 295.476562 414.625 C 294.816406 414.226562 293.789062 413.90625 293.367188 413.335938 L 290.871094 412.089844 L 290.691406 411.917969 L 290.511719 411.917969 L 290.332031 411.738281 L 290.152344 411.738281 L 289.972656 411.558594 L 289.792969 411.558594 L 289.609375 411.378906 L 289.429688 411.378906 L 289.25 411.199219 L 289.070312 411.199219 L 288.890625 411.019531 L 288.710938 411.019531 L 288.53125 410.839844 L 288.351562 410.839844 L 288.171875 410.660156 L 287.992188 410.660156 L 287.8125 410.480469 L 287.632812 410.480469 L 287.453125 410.300781 C 287.210938 410.160156 287.261719 410.179688 286.914062 410.121094 L 286.734375 409.941406 L 286.554688 409.941406 L 286.375 409.757812 L 286.195312 409.757812 C 283.546875 409.988281 286.292969 411.589844 281.894531 409.058594 C 281.054688 408.582031 280.207031 408.160156 279.367188 407.652344 L 274.28125 404.882812 C 272.679688 404.082031 270.710938 402.84375 269.011719 402.292969 C 268.105469 401.992188 266.195312 402.292969 265.636719 402.074219 L 260.707031 399.164062 C 258.460938 398.035156 259.578125 398.875 256.769531 397.207031 L 253.023438 395.058594 C 251.195312 394.1875 249.613281 393.820312 247.347656 392.871094 C 245.855469 392.25 243.089844 390.78125 241.527344 390.652344 L 246.546875 393.5 Z M 246.566406 393.507812 " fill-opacity="1" fill-rule="evenodd"/><path fill="#000000" d="M 241.71875 413.886719 C 242.097656 414.15625 241.957031 413.917969 242.078125 414.425781 C 242.457031 414.695312 242.320312 414.457031 242.4375 414.964844 C 242.816406 415.238281 242.679688 414.996094 242.796875 415.507812 L 243.15625 415.867188 L 243.15625 416.046875 L 243.519531 416.40625 C 244.636719 418.09375 248.945312 422.242188 250.664062 423.371094 L 250.84375 423.550781 L 251.203125 423.730469 L 251.5625 424.089844 L 251.742188 424.089844 L 252.101562 424.449219 L 252.460938 424.632812 C 253.210938 424.832031 254.339844 425.710938 255.140625 426.058594 C 256.082031 426.480469 257.019531 426.890625 258.058594 427.25 C 260.339844 428.019531 268.804688 430.109375 271.550781 430.558594 C 272.011719 430.636719 272.679688 430.738281 273.261719 430.816406 C 274 430.925781 274.601562 430.835938 275.320312 430.898438 C 276.039062 430.957031 276.308594 431.15625 277.269531 431.046875 C 277.96875 430.96875 278.308594 430.898438 279.265625 430.886719 C 280.457031 430.878906 281.066406 430.246094 282.125 430.226562 C 282.386719 429.949219 282.066406 430.167969 282.566406 429.898438 C 282.566406 429.898438 283.035156 429.699219 283.074219 429.6875 C 285.164062 428.878906 287.871094 427.53125 288.921875 425.539062 C 288.203125 425.710938 288.0625 425.980469 287.382812 426.320312 C 280.417969 429.726562 272.75 430.386719 265.15625 428.398438 C 262.945312 427.820312 261.746094 427.191406 259.949219 426.460938 C 256.851562 425.199219 252.433594 421.941406 249.84375 419.773438 C 246.976562 417.375 243.648438 413.308594 241.238281 410.328125 C 241.019531 410.050781 240.878906 409.9375 240.648438 409.667969 C 239.960938 408.820312 239.230469 407.679688 238.300781 407.140625 L 238.171875 407.320312 C 238.332031 407.511719 238.210938 407.351562 238.402344 407.628906 C 238.480469 407.75 238.621094 407.96875 238.679688 408.070312 L 240.859375 412.148438 C 241.148438 412.699219 241.617188 413.355469 241.75 413.9375 Z M 241.71875 413.886719 " fill-opacity="1" fill-rule="evenodd"/><path fill="#000000" d="M 277.457031 424.972656 C 280.125 424.972656 281.597656 424.921875 283.894531 423.722656 C 289.710938 420.691406 284.425781 414.167969 282.464844 413.71875 C 283.804688 416.226562 287.171875 420.433594 282.945312 422.421875 C 279.417969 424.082031 273.140625 422.8125 269.972656 421.742188 C 260.5 418.542969 254.992188 411.339844 252.984375 410.859375 C 253.472656 411.789062 255.441406 414.097656 256.152344 414.835938 C 258.167969 416.933594 260.207031 418.863281 262.757812 420.382812 C 266.195312 422.433594 272.113281 424.972656 277.46875 424.972656 Z M 277.457031 424.972656 " fill-opacity="1" fill-rule="evenodd"/><path fill="#000000" d="M 311.769531 432.707031 C 312.277344 432.816406 313.667969 433.777344 314.265625 434.074219 L 314.445312 434.253906 L 314.625 434.253906 L 314.808594 434.433594 L 315.167969 434.617188 C 316.625 434.957031 324.019531 439.421875 325.3125 440.730469 C 326.601562 442.042969 327.75 442.421875 327.859375 443.730469 L 328.21875 444.089844 C 328.660156 444.390625 328.976562 444.691406 329.46875 444.980469 L 329.859375 444.878906 C 325.449219 439.132812 317.085938 433.464844 310.96875 429.71875 C 309.191406 428.628906 307.601562 427.539062 305.761719 426.519531 L 294.628906 420.503906 C 293.050781 419.714844 290.492188 418.234375 288.730469 417.824219 C 289.441406 418.882812 299.144531 424.609375 300.207031 425.289062 C 303.453125 427.390625 307.878906 429.859375 311.109375 432.066406 C 311.726562 432.488281 311.429688 432.117188 311.789062 432.707031 Z M 311.769531 432.707031 " fill-opacity="1" fill-rule="evenodd"/><path fill="#000000" d="M 335.535156 449.417969 C 335.535156 449.6875 335.464844 449.636719 335.714844 449.636719 L 335.894531 449.816406 C 338.882812 450.515625 336.214844 450.394531 340.171875 450.347656 C 343.160156 450.304688 343.53125 449.726562 344.898438 450.277344 C 345.6875 450.597656 350.175781 451.503906 350.785156 448.789062 C 350.996094 447.867188 350.566406 447.648438 350.367188 446.777344 L 349.828125 446.238281 L 349.648438 446.238281 L 349.285156 445.878906 L 343.710938 442.691406 C 339.992188 440.441406 336.0625 438.382812 332.316406 436.214844 C 331.296875 435.625 327.417969 433.207031 326.589844 433.007812 C 326.917969 433.464844 331.996094 436.382812 332.625 436.792969 C 338.125 440.320312 343.671875 443.851562 348.605469 448.148438 C 349.085938 448.566406 349.566406 448.847656 349.636719 449.617188 C 347.617188 449.617188 342.089844 448.726562 338.734375 448.726562 C 338.144531 448.726562 337.375 448.675781 336.804688 448.765625 L 335.515625 449.40625 Z M 335.535156 449.417969 " fill-opacity="1" fill-rule="evenodd"/><path fill="#000000" d="M 197.042969 380.65625 C 198.355469 380.65625 200.304688 380.445312 201.324219 380.835938 C 204.78125 380.765625 208.347656 381.546875 210.988281 381.546875 C 210.316406 380.964844 210.195312 380.964844 209.378906 380.644531 C 205.371094 379.078125 197.972656 378.515625 193.617188 378.507812 L 190.96875 378.539062 C 190.828125 379.097656 190.277344 379.835938 190.9375 380.328125 C 191.597656 380.816406 192.398438 380.234375 192.90625 380.085938 Z M 197.042969 380.65625 " fill-opacity="1" fill-rule="evenodd"/><path fill="#000000" d="M 241.1875 395.835938 C 239.679688 393.589844 233.914062 390.210938 231.414062 388.8125 C 229.117188 387.523438 222.359375 384.222656 219.210938 384.222656 L 230.234375 390 C 231.882812 390.929688 239.96875 395.738281 241.1875 395.847656 Z M 241.1875 395.835938 " fill-opacity="1" fill-rule="evenodd"/><path fill="#000000" d="M 265.996094 413.359375 C 265.046875 413.265625 261.027344 411.726562 260.25 411.277344 C 258.910156 410.507812 256.441406 407.269531 255.351562 406.160156 L 250.945312 400.746094 C 250.3125 399.894531 249.824219 399.175781 249.234375 398.367188 C 248.613281 398.054688 247.125 397.335938 246.375 397.265625 C 247.894531 399.523438 248.566406 398.046875 251.953125 403.125 C 253.871094 406 256.730469 409.859375 259.339844 411.816406 C 260.527344 412.707031 264.085938 415.097656 265.996094 413.347656 Z M 265.996094 413.359375 " fill-opacity="1" fill-rule="evenodd"/><path fill="#000000" d="M 192.226562 374.757812 L 191.867188 374.9375 L 191.6875 375.121094 L 191.328125 375.289062 L 190.789062 375.828125 C 190.726562 376.558594 190.46875 376.597656 190.789062 377.246094 C 191.679688 376.738281 191.878906 376.449219 193.066406 375.96875 C 193.957031 375.609375 195.066406 375.300781 196.214844 375.289062 C 196.523438 375.097656 198.785156 374.9375 199.363281 374.929688 C 200.710938 374.910156 201.722656 375.140625 202.792969 375.109375 C 204.011719 375.078125 205.871094 375.480469 207.027344 375.679688 C 208.1875 375.878906 210.136719 376.539062 211.167969 376.539062 C 209.6875 375.578125 203.992188 374.398438 202.3125 374.148438 C 199.445312 373.71875 199.203125 374.011719 197.226562 374.050781 C 195.246094 374.089844 194.085938 374.769531 192.21875 374.769531 Z M 192.226562 374.757812 " fill-opacity="1" fill-rule="evenodd"/><path fill="#000000" d="M 234.351562 397.277344 L 234.394531 398.167969 C 234.582031 398.367188 234.574219 397.847656 234.574219 398.707031 L 234.574219 398.886719 L 235.28125 401.035156 L 235.460938 401.394531 L 235.640625 401.574219 C 235.84375 402.464844 236.292969 402.574219 236.523438 403.351562 C 236.5625 403.382812 237.5625 404.503906 237.113281 402.453125 C 236.691406 400.542969 235.972656 398.644531 234.933594 397.105469 C 234.5625 397.207031 234.671875 397.148438 234.363281 397.285156 Z M 234.351562 397.277344 " fill-opacity="1" fill-rule="evenodd"/><path fill="#000000" d="M 267.625 410.847656 C 267.652344 409.140625 266.324219 406.851562 265.304688 406.222656 C 265.304688 407.589844 265.675781 407.839844 266.234375 408.671875 L 267.542969 410.75 C 267.542969 410.75 267.59375 410.820312 267.625 410.847656 Z M 267.625 410.847656 " fill-opacity="1" fill-rule="evenodd"/><g clip-path="url(#1b3ee33f0e)"><path fill="#000000" d="M 164.882812 494.300781 L 166.382812 489.722656 C 167.890625 485.214844 169.171875 479.070312 169.171875 474.113281 C 169.871094 474.304688 171.75 476.78125 172.429688 477.460938 C 173.75 478.769531 177.726562 482.835938 179.175781 483.9375 L 181.003906 485.507812 C 181.492188 485.925781 182.402344 486.835938 182.933594 486.976562 C 181.882812 488.414062 172.460938 491.863281 169.78125 492.761719 C 168.910156 493.050781 168.140625 493.332031 167.351562 493.550781 C 166.433594 493.8125 165.742188 494.101562 164.882812 494.300781 Z M 137.007812 497.878906 C 140.90625 497.878906 146.625 497.417969 150.332031 496.910156 C 152.570312 496.601562 154.578125 496.441406 156.667969 496.089844 C 163.734375 494.902344 162.605469 495.480469 163.34375 492.234375 L 165.3125 483.65625 C 166.050781 479.960938 166.703125 472.652344 167.023438 471.253906 C 166.78125 470.90625 166.671875 470.835938 166.382812 470.464844 C 164.59375 468.167969 158.886719 459.941406 158.445312 458.03125 C 157.089844 458.75 153.25 460.082031 151.632812 460.679688 C 149.3125 461.539062 147.0625 462.429688 144.875 463.390625 C 141.21875 464.996094 141.425781 464.527344 141.238281 465.828125 C 141.195312 466.085938 141.175781 466.328125 141.097656 466.765625 C 140.988281 467.445312 140.796875 468.027344 140.609375 468.597656 C 139.148438 472.964844 136.980469 477.628906 134.632812 481.558594 C 132.28125 485.488281 129.574219 489.304688 126.765625 492.640625 L 122.359375 497.519531 C 123.425781 497.519531 123.878906 497.621094 124.6875 497.6875 C 125.425781 497.75 126.253906 497.660156 127.003906 497.6875 C 127.835938 497.730469 128.105469 497.878906 129.144531 497.871094 L 137.007812 497.871094 Z M 120.210938 497.339844 C 112.402344 497.339844 98.472656 494.140625 97.691406 494.121094 C 98.09375 493.523438 99.28125 492.59375 99.941406 492.082031 C 100.789062 491.414062 101.441406 490.824219 102.28125 490.132812 L 108.234375 485.367188 C 110.882812 483.347656 114.234375 480.710938 116.949219 478.890625 L 122.097656 475.460938 C 122.996094 474.863281 123.796875 474.351562 124.726562 473.804688 L 132.902344 469.105469 C 133.769531 468.605469 137.988281 466.425781 138.789062 466.238281 L 137.007812 470.535156 C 131.941406 482 130.074219 484.167969 122.917969 493.78125 C 122.019531 494.992188 121.039062 496.101562 120.210938 497.328125 Z M 105.917969 460.171875 Z M 96.261719 492.152344 C 96.261719 490.921875 96.542969 489.464844 96.621094 488.226562 C 96.8125 485.066406 97.960938 480.371094 98.691406 477.429688 L 104.117188 463.378906 C 104.808594 461.949219 105.476562 462.167969 108.726562 461.550781 C 111.125 461.089844 113.542969 460.679688 116.171875 460.242188 C 125.707031 458.640625 127.773438 458.550781 137.179688 458.550781 C 139.019531 458.550781 141.039062 458.652344 142.597656 458.851562 C 143.265625 458.941406 146.902344 459.210938 147.542969 459.621094 C 143.824219 460.492188 131.402344 466.367188 127.855469 468.527344 C 124.957031 470.285156 122.65625 471.445312 119.597656 473.492188 L 110.453125 479.898438 L 101.660156 487.015625 C 101.320312 487.316406 101.289062 487.285156 100.960938 487.566406 L 96.261719 492.164062 Z M 105.917969 460.171875 C 106.128906 459.269531 107.925781 456.503906 108.40625 455.691406 C 108.855469 454.933594 109.246094 454.394531 109.746094 453.632812 C 112.5625 449.328125 115.402344 445.46875 118.828125 441.632812 L 130.183594 430.109375 C 131.414062 428.957031 130.511719 429.148438 134.0625 429.71875 C 135.140625 429.886719 135.898438 430.027344 136.96875 430.207031 C 138.769531 430.507812 146.695312 431.957031 147.722656 433.035156 C 147.992188 433.316406 148.992188 437.523438 149.234375 438.3125 C 150.273438 441.792969 151.660156 444.9375 153.160156 447.96875 C 153.570312 448.796875 153.929688 449.40625 154.359375 450.167969 C 155.5 452.136719 155.71875 452.90625 156.609375 454.703125 C 156.996094 455.484375 157.558594 456.203125 157.738281 456.960938 C 155.886719 456.960938 153.289062 457.800781 151.679688 458.25 C 150.75 458.511719 149.921875 457.921875 148.871094 457.613281 C 144.136719 456.191406 137.160156 456.074219 131.652344 456.074219 C 126.714844 456.074219 122.398438 456.78125 118.230469 457.480469 L 108.886719 459.402344 C 107.964844 459.632812 106.746094 460.121094 105.917969 460.191406 Z M 339.820312 450.875 C 340.953125 450.875 342.089844 451.105469 343.070312 451.207031 L 349.828125 451.777344 C 350.355469 451.796875 351.105469 451.695312 351.527344 451.707031 C 351.945312 451.714844 351.566406 451.425781 352.554688 452.433594 C 352.933594 452.824219 353.085938 452.964844 353.40625 453.375 C 354.394531 454.664062 355.414062 455.601562 356.613281 457.492188 C 360.332031 463.328125 361.769531 468.1875 356.042969 473.882812 L 354.042969 475.640625 C 353.285156 476.160156 349.746094 477.628906 348.757812 477.859375 C 349.566406 474.371094 348.226562 467.257812 347.246094 463.820312 C 346.507812 461.191406 344.730469 457.761719 343.378906 455.535156 C 342.851562 454.652344 342.339844 453.964844 341.679688 453.125 L 339.8125 450.875 Z M 58.746094 464.816406 C 58.746094 464.816406 64.472656 461.949219 65.171875 461.601562 C 68.609375 459.902344 72.964844 458.09375 76.585938 456.753906 C 79.664062 455.601562 82.921875 454.464844 86.109375 453.40625 C 87.457031 452.953125 94.824219 450.445312 96.09375 450.347656 L 88.71875 458.523438 C 87.359375 459.882812 85.097656 462.269531 83.730469 463.367188 L 76.335938 469.554688 C 75.714844 470.046875 75.816406 470.144531 75.136719 470.066406 C 72.738281 469.785156 66.28125 467.867188 64.332031 467.097656 C 63.320312 466.695312 62.503906 466.367188 61.484375 466.007812 C 60.875 465.789062 60.664062 465.675781 60.054688 465.46875 C 59.363281 465.238281 59.085938 465.296875 58.734375 464.816406 Z M 78.214844 470.535156 C 79.09375 470.535156 80.890625 470.734375 81.660156 470.84375 C 82.839844 471.003906 84.070312 470.816406 85.257812 470.996094 C 87.296875 471.304688 90.417969 470.84375 92.027344 470.585938 C 93.113281 470.40625 97.113281 469.40625 97.773438 469.003906 C 98.230469 468.726562 98.722656 467.105469 99 466.476562 C 100.839844 462.359375 102.800781 458.242188 105.226562 454.472656 C 106.226562 452.933594 107.097656 451.585938 108.125 450.046875 C 108.65625 449.257812 110.945312 446.238281 111.09375 445.6875 C 111.09375 445.6875 101.890625 448.496094 101.378906 448.65625 C 98.660156 449.535156 99.929688 448.628906 98.300781 451.125 C 96.671875 453.625 91.296875 459.53125 89.078125 461.730469 L 78.214844 470.523438 Z M 60.175781 461.421875 C 60.394531 460.492188 62.394531 457.703125 63.101562 456.664062 L 66.46875 452.164062 C 69.097656 448.945312 72.195312 445.648438 75.433594 443.089844 C 78.671875 440.53125 79.941406 439.710938 83.25 437.683594 C 85.28125 436.445312 85.089844 437.0625 87.5 437.125 C 90.765625 437.203125 93.953125 437.59375 97.132812 437.851562 C 98.542969 437.972656 100.222656 438.222656 101.71875 438.453125 C 105.269531 439.003906 106.945312 439.394531 110.304688 440.230469 C 111.414062 440.511719 113.644531 441.210938 114.664062 441.230469 C 114.53125 441.703125 113.554688 442.890625 113.242188 443.210938 C 112.734375 443.738281 113.414062 443.410156 112.402344 443.621094 C 111.195312 443.871094 109.785156 444.03125 108.457031 444.320312 C 99.660156 446.207031 91.386719 448.757812 82.972656 451.535156 C 77.882812 453.214844 71.046875 455.894531 66.421875 458.210938 C 64.292969 459.28125 62.074219 460.152344 60.164062 461.429688 Z M 149.871094 426.039062 C 149.871094 433.304688 152.410156 441.300781 155.527344 447.546875 C 156.167969 448.828125 156.757812 449.875 157.378906 451.066406 L 163.203125 461.5 L 172.789062 473.53125 C 176.707031 477.410156 177.644531 478.511719 181.804688 482.027344 L 187.039062 486.265625 C 194.667969 491.972656 205.679688 498.699219 214.273438 502.277344 C 222.671875 505.765625 228.976562 508.363281 238.070312 510.640625 C 247.503906 513.011719 260.867188 515.449219 271.203125 515.390625 C 272.972656 515.390625 274.46875 515.757812 276.359375 515.539062 C 279.628906 515.167969 283.34375 515.398438 286.644531 514.929688 L 296.085938 513.648438 C 304.042969 512.339844 313.488281 509.34375 320.574219 505.792969 C 321.832031 505.164062 322.910156 504.605469 324.082031 503.9375 C 327.21875 502.136719 331.046875 499.597656 333.695312 497.289062 C 338.464844 493.132812 341.699219 489.753906 345 484.296875 C 345.480469 483.507812 345.617188 483.558594 345.707031 482.328125 C 345.828125 480.757812 346.25 479.121094 346.238281 477.5 C 346.238281 476.542969 346.429688 475.730469 346.347656 475.074219 C 346.027344 472.425781 346.179688 471.222656 345.417969 467.957031 C 345.140625 466.746094 343.609375 461.070312 342.671875 459.980469 C 342.671875 465.027344 339.511719 471.394531 337.542969 474.691406 C 334.414062 479.941406 331.457031 482.835938 327.257812 486.746094 C 326.917969 487.054688 326.878906 487.046875 326.558594 487.304688 C 326.28125 487.523438 326.171875 487.664062 325.898438 487.894531 C 324.929688 488.683594 324.050781 489.292969 323.042969 490.042969 L 316.996094 493.832031 C 316.367188 494.160156 316.066406 494.390625 315.386719 494.722656 C 310.800781 496.988281 308.492188 498.039062 303.285156 499.777344 C 281.265625 507.125 256.511719 505.765625 233.875 500.167969 C 222.371094 497.320312 208.757812 491.824219 198.464844 485.894531 C 192.257812 482.316406 181.554688 475.242188 176.875 470.496094 L 172.949219 466.917969 C 171.78125 465.9375 171.351562 465.179688 170.621094 464.417969 C 164.535156 458.09375 157.796875 449.246094 154.460938 441.082031 C 153.511719 438.761719 152.511719 436.613281 151.769531 433.945312 L 149.980469 426.441406 C 149.980469 426.441406 149.902344 426.261719 149.890625 426.171875 C 149.890625 426.101562 149.863281 426.082031 149.84375 426.039062 Z M 149.871094 426.039062 C 149.664062 425.710938 149.671875 426.441406 149.722656 425.679688 C 149.753906 425.300781 149.742188 425.519531 149.871094 425.320312 Z M 116.101562 439.980469 C 116.410156 439.511719 116.519531 439.292969 116.949219 438.863281 L 123.296875 432.347656 C 125.027344 430.597656 127.484375 428.6875 129.195312 427.167969 C 129.753906 426.667969 130.761719 426.03125 131.113281 425.511719 C 130.195312 425.511719 129.003906 425.761719 128.074219 425.871094 L 119.328125 426.949219 C 115.503906 427.480469 111.753906 428.148438 108.195312 428.859375 C 104.636719 429.566406 100.902344 430.425781 97.632812 431.515625 C 95.902344 432.097656 94.363281 432.617188 92.714844 433.214844 C 92.136719 433.425781 88.71875 434.734375 88.226562 435.164062 C 94.09375 435.164062 98.582031 435.40625 103.570312 436.265625 C 107.847656 436.992188 112.382812 438.023438 116.101562 439.992188 Z M 147.015625 422.460938 C 147.015625 420.421875 147.402344 419.003906 147.554688 417.273438 C 144.933594 419.035156 133.902344 426.140625 132.542969 428.179688 C 133.589844 428.179688 133.792969 428 134.691406 427.988281 L 140.386719 428.539062 C 144.863281 429.160156 145.273438 429.828125 147.363281 430.316406 C 147.363281 429.546875 147.242188 428.539062 147.152344 427.667969 C 146.953125 425.78125 147.003906 424.421875 147.003906 422.460938 Z M 198.472656 375.289062 C 195.164062 375.289062 191.746094 376.359375 190.429688 378.328125 C 194.667969 378.328125 206.96875 378.378906 210.707031 380.914062 C 211.226562 381.265625 211.175781 381.125 211.335938 381.714844 C 208.476562 381.714844 206.257812 381.214844 203.652344 381.175781 C 202.679688 381.164062 202.589844 381.015625 201.691406 380.984375 C 201.042969 380.964844 200.394531 381.035156 199.742188 380.964844 C 198.554688 380.835938 197.40625 380.816406 195.964844 380.816406 C 183.371094 380.816406 176.804688 382.015625 167.582031 388.882812 C 167.0625 389.269531 166.792969 389.5625 166.300781 389.929688 C 164.605469 391.238281 161.855469 394.089844 160.4375 395.855469 L 156.507812 401.402344 C 154.800781 404.242188 151.292969 411.679688 151.292969 415.125 C 151.292969 427.980469 154.140625 436.355469 159.875 446.386719 C 160.617188 447.679688 161.445312 448.9375 162.292969 450.226562 L 164.914062 453.863281 C 165.894531 455.042969 166.664062 456.203125 167.683594 457.34375 C 168.023438 457.722656 168.082031 457.871094 168.402344 458.230469 C 168.722656 458.589844 168.859375 458.691406 169.160156 459.082031 C 170.171875 460.390625 174.046875 464.21875 175.277344 465.46875 C 175.878906 466.066406 176.308594 466.308594 176.886719 466.898438 C 180.933594 470.976562 189.769531 477.300781 194.605469 480.269531 L 200.574219 483.777344 C 207.300781 487.855469 221.171875 493.492188 228.957031 495.78125 C 238.132812 498.480469 245.035156 500 254.800781 501.207031 L 260.546875 501.71875 C 262.835938 502.058594 270.472656 501.96875 272.800781 501.96875 C 287.421875 501.96875 303.113281 498.121094 315.804688 491.183594 C 321.394531 488.125 323.300781 486.214844 327.609375 482.617188 C 330.359375 480.320312 334.765625 474.472656 336.414062 471.414062 C 337.503906 469.394531 340.34375 463.839844 340.34375 461.941406 C 340.34375 456.914062 335.335938 450.328125 335.335938 449.425781 C 335.335938 447.578125 342.601562 448.636719 343.660156 448.789062 L 349.277344 449.246094 C 348.667969 448.335938 342.46875 443.71875 341.519531 443.058594 C 335.023438 438.574219 329.1875 434.855469 322.171875 430.957031 L 315.566406 427.378906 C 314.707031 426.960938 313.988281 426.589844 313.175781 426.191406 C 312.367188 425.789062 311.828125 425.421875 310.980469 425 C 310.980469 425 272.28125 405.78125 271.421875 405.410156 C 264.84375 402.605469 256.230469 398.695312 249.984375 395.578125 C 248.335938 394.757812 247.027344 394.027344 245.398438 393.199219 L 227.40625 383.484375 C 226.667969 383.113281 225.9375 382.703125 225.136719 382.363281 L 217.914062 379.226562 C 211.097656 376.488281 206.25 375.269531 198.464844 375.269531 Z M 529.414062 315.78125 C 526.222656 314.09375 521.277344 310.675781 517.140625 308.578125 C 512.460938 306.199219 506.554688 302.550781 501.417969 300.003906 C 495.941406 297.292969 490.496094 294.515625 484.917969 292.027344 C 483.777344 291.515625 482.75 291.097656 481.582031 290.539062 C 480.992188 290.246094 480.449219 290.039062 479.832031 289.777344 L 478.230469 289.046875 C 478.230469 289.046875 478.152344 289.007812 478.121094 288.988281 C 479.960938 288.558594 487.007812 288.769531 489.925781 288.796875 C 490.933594 288.808594 491.164062 288.988281 492.234375 288.988281 C 493.0625 288.988281 493.914062 288.96875 494.753906 288.976562 L 506.105469 289.957031 C 509.0625 290.378906 511.683594 290.828125 514.292969 291.605469 C 515.609375 291.996094 516.628906 292.417969 517.847656 292.875 C 518.828125 293.246094 518.957031 292.945312 519.417969 293.804688 C 519.71875 294.375 520.007812 294.863281 520.308594 295.425781 L 523.515625 302.039062 C 524.265625 303.730469 529.351562 315.042969 529.414062 315.792969 Z M 462.230469 285.941406 C 462.980469 286.109375 463.699219 286.429688 464.480469 286.730469 C 473.753906 290.257812 484.527344 294.945312 493.324219 299.34375 L 530.132812 320.070312 C 528.882812 320.171875 519.9375 322.398438 518.519531 322.75 C 517.101562 323.097656 498.898438 326.777344 497.292969 326.445312 C 496.871094 326.367188 496.671875 325.96875 496.3125 325.65625 C 496.023438 325.40625 495.570312 325.085938 495.292969 324.886719 C 490.273438 321.371094 485.578125 316.304688 481.492188 311.707031 C 477.09375 306.757812 464.710938 290.605469 462.230469 285.929688 Z M 160.597656 276.117188 C 161.644531 275.554688 163.113281 274.867188 164.703125 274.867188 C 165.632812 274.867188 169.039062 280.714844 169.5 281.324219 C 170.339844 282.460938 171.058594 283.460938 171.949219 284.589844 L 174.527344 287.730469 C 175.667969 289.21875 180.234375 293.484375 181.703125 294.675781 C 185.820312 297.992188 188.320312 300.070312 193.007812 303.210938 C 196.476562 305.527344 200.132812 307.566406 203.671875 309.707031 L 208.289062 312.246094 C 210.976562 313.472656 212.664062 314.902344 215.632812 314.902344 C 215.554688 315.851562 215.105469 316.421875 214.914062 317.222656 L 208.71875 314.664062 C 207.988281 314.292969 200.851562 310.554688 200.851562 310.554688 C 198.535156 309.316406 191.707031 305.230469 189.769531 303.769531 C 185.042969 300.210938 181.945312 298.28125 177.167969 294.035156 L 167.242188 284.480469 C 166.640625 283.882812 166.402344 283.453125 165.8125 282.871094 C 165.8125 282.871094 161.394531 277.453125 161.164062 277.15625 L 160.585938 276.125 Z M 375.382812 269.679688 C 376.640625 269.679688 377.429688 269.589844 378.429688 269.507812 L 381.628906 269.320312 C 382.746094 269.289062 383.917969 269.371094 385.035156 269.328125 C 386.09375 269.300781 386.925781 269.148438 388.246094 269.148438 C 389.5625 269.148438 390.394531 269.300781 391.453125 269.328125 C 393.851562 269.398438 395.191406 269.191406 397.96875 269.609375 C 398.757812 269.730469 400.40625 269.859375 401.105469 269.859375 L 418.367188 299.59375 C 420.644531 303.058594 422.894531 306.917969 425.414062 310.246094 C 430.441406 316.890625 430.488281 316.8125 436.445312 322.800781 C 437.074219 323.4375 439.144531 325.027344 439.535156 325.609375 C 437.386719 325.609375 434.867188 325.136719 432.796875 324.835938 C 424.382812 323.617188 418.40625 322.179688 410.882812 318.691406 C 410.351562 318.453125 409.972656 318.351562 409.511719 318.089844 C 405.40625 315.742188 401.90625 313.863281 398.207031 310.636719 L 389.714844 302.332031 L 383.308594 293.726562 C 383.007812 293.265625 382.777344 292.957031 382.527344 292.535156 C 381.578125 290.945312 380.769531 289.398438 379.898438 287.660156 C 378.308594 284.480469 376.832031 279.984375 376.101562 276.445312 C 375.851562 275.226562 375.863281 274.488281 375.679688 273.105469 C 375.5625 272.148438 375.371094 270.820312 375.371094 269.660156 Z M 403.253906 270.039062 C 403.253906 270.039062 405.882812 273.886719 406.433594 274.714844 C 409.292969 279.003906 412.550781 284.550781 415.277344 289.097656 C 417.257812 292.394531 419.015625 295.644531 421.085938 298.84375 L 424.101562 303.691406 C 425.613281 306.238281 429.441406 311.566406 431.371094 313.945312 L 434.039062 316.992188 C 436.085938 319.3125 439.496094 322.710938 441.964844 324.617188 C 442.972656 325.398438 442.941406 325.945312 444.320312 326.1875 C 445.410156 326.378906 446.609375 326.398438 447.878906 326.558594 C 448.96875 326.695312 450.1875 326.757812 451.476562 326.898438 L 462.0625 327.757812 C 465.6875 328.054688 470.917969 327.925781 474.746094 327.945312 C 475.921875 327.945312 476.503906 327.816406 477.421875 327.765625 C 478.390625 327.714844 479.480469 327.785156 480.472656 327.765625 C 483.789062 327.726562 491.054688 326.867188 494.042969 326.867188 C 493.824219 326.675781 493.613281 326.496094 493.351562 326.296875 C 491.835938 325.167969 488.90625 322.910156 487.648438 321.640625 C 487.15625 321.140625 486.996094 320.980469 486.425781 320.53125 C 483.929688 318.601562 480.800781 314.542969 478.53125 312.164062 L 475.421875 308.476562 C 470.757812 302.582031 463.601562 293.566406 460.261719 286.828125 C 459.234375 284.761719 459.574219 284.8125 458.09375 284.351562 C 458.09375 284.351562 450.027344 281.542969 447.730469 280.78125 C 437.265625 277.296875 422.15625 273.097656 411.140625 271.269531 Z M 472.234375 252.167969 C 459.953125 252.167969 444.550781 255.617188 433.40625 259.976562 C 430.878906 260.964844 416 267.339844 414.339844 268.78125 L 419.265625 269.75 C 430.058594 272.148438 440.375 275.117188 450.816406 278.585938 C 450.816406 278.585938 466.398438 284.242188 467.816406 284.8125 L 474.074219 287.320312 C 475.195312 287.789062 475.0625 287.699219 476.203125 287.398438 C 480.449219 286.28125 488.265625 286.46875 493.144531 286.46875 C 498.691406 286.46875 512.324219 287.429688 517.269531 290.046875 C 517.109375 289.347656 515.890625 287.480469 515.492188 286.820312 C 513.140625 282.871094 511.054688 280.183594 508.386719 276.59375 C 507.984375 276.054688 507.683594 275.695312 507.285156 275.195312 C 507.285156 275.195312 494.082031 260.515625 493.195312 259.625 L 488.097656 254.898438 C 485.9375 252.800781 486.386719 253.1875 482.949219 252.71875 C 478.511719 252.097656 476.671875 252.167969 472.234375 252.167969 Z M 365.558594 275.9375 C 358.152344 275.9375 348.957031 273.566406 342.441406 270.277344 C 341.191406 269.648438 340.140625 268.429688 341.609375 268.429688 C 344.058594 268.429688 347.675781 269.9375 350.15625 270.609375 C 352.214844 271.167969 356.460938 272.539062 358.589844 272.539062 C 358.589844 270.390625 358.230469 268.339844 358.230469 266.28125 C 357.152344 266.28125 355.574219 265.75 354.582031 265.460938 C 353.394531 265.121094 352.324219 264.792969 351.226562 264.523438 C 349.976562 264.210938 349.125 263.960938 347.796875 263.664062 C 335.414062 260.855469 322.414062 260.34375 310.019531 263.453125 C 301.734375 265.53125 296.425781 268.128906 289.382812 272.296875 C 288.292969 272.9375 287.382812 273.628906 286.402344 274.328125 C 284.535156 275.644531 282.59375 277.09375 280.90625 278.652344 C 277.898438 281.441406 276.378906 283.023438 273.671875 286.070312 C 265.765625 294.953125 260.109375 307.066406 256.921875 318.460938 C 256.191406 321.070312 255.640625 323.558594 255.0625 326.425781 C 253.300781 335.140625 253.171875 342.277344 253.171875 351.164062 C 253.171875 361.867188 255.402344 374.191406 258.328125 384.242188 C 259.46875 388.140625 260.636719 391.960938 262.105469 395.65625 C 262.335938 396.246094 262.847656 397.964844 263.148438 398.367188 C 263.554688 398.914062 269.84375 401.433594 270.980469 401.972656 C 271.863281 402.382812 272.730469 402.753906 273.539062 403.164062 C 274.351562 403.574219 275.210938 403.902344 276.097656 404.351562 L 311.597656 422.101562 C 319.574219 426.089844 325.910156 429.808594 333.515625 434.316406 C 334.335938 434.796875 335.035156 435.234375 335.824219 435.753906 C 338.871094 437.792969 341.960938 439.691406 344.878906 441.890625 C 347.796875 444.089844 350.546875 446.339844 353.183594 448.777344 C 354.523438 450.007812 355.652344 451.445312 356.84375 452.804688 C 358.03125 454.164062 359.011719 455.652344 359.992188 457.164062 C 364.46875 464.089844 363.769531 470.144531 358.371094 476.03125 C 357.703125 476.769531 356.953125 477.109375 356.453125 477.859375 C 357.941406 477.859375 358.929688 478.039062 360.558594 478.039062 C 364.558594 478.039062 368.84375 477.980469 372.664062 478.449219 C 374.890625 478.71875 385.246094 480.328125 387.542969 480.1875 C 396.738281 479.660156 398.917969 478.46875 407.453125 474.902344 C 408.503906 474.460938 409.371094 474.144531 410.390625 473.734375 L 413.089844 472.324219 C 416.726562 470.503906 420.335938 468.394531 423.632812 466.066406 C 425.652344 464.648438 427.710938 463.128906 429.582031 461.46875 C 430.019531 461.082031 430.21875 460.980469 430.648438 460.570312 C 433.316406 458.023438 436.875 455.3125 439.15625 452.457031 C 439.734375 451.734375 440.523438 451.085938 441.195312 450.386719 C 443.253906 448.246094 445.011719 445.898438 447 443.679688 C 447.648438 442.960938 448.257812 442.140625 448.828125 441.402344 C 449.46875 440.59375 452.457031 436.625 452.457031 436.625 C 454.875 433.386719 457.085938 430.058594 459.304688 426.667969 C 461.523438 423.28125 463.480469 419.785156 465.558594 416.304688 C 465.871094 415.777344 466 415.425781 466.289062 414.898438 L 468.429688 410.957031 C 474.722656 398.257812 478.570312 388.871094 482.5 375 C 485.746094 363.527344 487.566406 350.082031 486.207031 338.082031 C 486.058594 336.722656 485.957031 335.730469 485.769531 334.414062 C 485.609375 333.304688 485.289062 332.132812 485.289062 330.785156 C 484.128906 330.785156 483.5 330.875 482.601562 330.953125 C 481.699219 331.035156 480.660156 330.84375 479.742188 330.875 L 460.082031 330.875 C 457.195312 330.792969 454.226562 330.195312 451.335938 330.066406 C 450.566406 330.035156 449.910156 329.945312 449.039062 329.855469 L 442.5625 329.183594 C 428.78125 327.855469 416.738281 325.996094 404.863281 319.171875 C 398.046875 315.253906 391.753906 309.746094 386.796875 303.640625 C 386.074219 302.761719 385.457031 301.972656 384.757812 301.03125 C 383.355469 299.152344 382.019531 297.382812 380.808594 295.335938 C 377.320312 289.4375 373.421875 281.164062 373.421875 274.125 C 371.273438 275.566406 368.304688 275.914062 365.558594 275.914062 Z M 373.414062 273.4375 C 372.011719 272.699219 371.234375 273.257812 368.765625 273.257812 C 369.316406 272.21875 369.804688 269.609375 370.085938 268.148438 C 370.40625 266.460938 369.445312 266.472656 375.011719 266.472656 C 374.832031 266.75 374.792969 266.78125 374.582031 267.109375 C 374.480469 267.269531 374.480469 267.28125 374.390625 267.449219 C 373.800781 268.511719 373.621094 268.390625 373.691406 269.359375 C 373.78125 270.519531 373.402344 271.886719 373.402344 273.4375 Z M 250.125 347.234375 C 250.125 348.605469 250.273438 349.523438 250.304688 350.625 C 250.34375 351.882812 250.222656 353.070312 250.402344 354.28125 L 250.652344 357.777344 C 250.804688 361.15625 251.363281 364.574219 251.902344 367.785156 C 253.152344 375.199219 255.390625 384.785156 258.058594 391.648438 C 258.757812 393.46875 259.289062 395.335938 260.128906 397.085938 C 257.28125 396.425781 242.816406 388.523438 239.410156 386.53125 L 234.34375 383.734375 C 233.695312 383.40625 233.183594 383.195312 232.554688 382.84375 C 229.167969 380.945312 225.609375 379.355469 222.058594 377.789062 C 214.484375 374.441406 201.8125 370.453125 193.398438 373.769531 C 191.386719 374.558594 189.1875 375.910156 189.1875 378.316406 C 183.933594 378.316406 179.304688 379.605469 174.636719 381.457031 C 173.910156 381.746094 173.410156 382.09375 172.75 382.246094 C 172.429688 381.765625 172.167969 381.386719 171.78125 380.886719 C 171.390625 380.386719 171.140625 380.195312 170.699219 379.636719 C 170.320312 379.148438 170.050781 378.855469 169.652344 378.367188 L 166.703125 374.339844 C 159.785156 363.964844 154.777344 348.972656 152.960938 336.441406 C 151.78125 328.335938 151.972656 319.152344 153.089844 311.125 C 154.070312 304.121094 155.277344 297.285156 157.476562 290.675781 C 158.21875 288.457031 159.925781 283.800781 161.835938 282.523438 C 162.324219 283.25 162.445312 283.351562 163.042969 283.992188 L 176.175781 296.765625 C 179.316406 299.683594 184.472656 303.390625 187.960938 305.707031 L 191.328125 307.878906 C 195.964844 310.664062 200.792969 313.515625 205.820312 315.542969 C 208.6875 316.703125 210.945312 317.710938 214.015625 318.421875 C 213.554688 320.128906 209.65625 322.109375 208.007812 322.597656 C 206.160156 323.148438 200.351562 323.886719 199.542969 324.316406 C 199.984375 325.15625 200.042969 325.296875 201.074219 325.648438 C 202.523438 326.136719 204.21875 326.105469 205.800781 326.105469 C 213.785156 326.105469 219.203125 320.242188 219.203125 312.34375 C 219.203125 306.617188 216.761719 302.109375 212.664062 298.863281 C 211.90625 298.261719 211.925781 297.894531 210.628906 297.863281 C 210.6875 300.570312 215.984375 304.039062 215.984375 311.976562 L 211.804688 310.964844 C 209.039062 310.175781 204.199219 306.898438 201.582031 305.289062 C 189.988281 298.152344 178.335938 289.796875 170.519531 278.453125 L 168.269531 275.347656 C 170.609375 270.917969 173.160156 266.589844 176.714844 263.0625 C 177.304688 262.484375 177.546875 262.042969 178.144531 261.453125 C 178.746094 260.863281 179.003906 260.65625 179.65625 260.105469 L 181.972656 257.957031 C 186.621094 254.046875 191.65625 250.289062 197.363281 247.980469 C 198.09375 247.683594 198.613281 247.371094 199.453125 247.03125 L 208.269531 243.875 C 222.710938 239.246094 241.078125 240.015625 255.441406 244.273438 C 256.890625 244.703125 258.398438 245.125 259.886719 245.542969 C 264.035156 246.691406 268.253906 248.332031 272.210938 250.019531 C 278.617188 252.769531 284.585938 256.21875 290.378906 260.085938 C 291.171875 260.613281 296.449219 264.632812 297.097656 264.800781 C 296.738281 265.292969 294 266.441406 293.21875 266.820312 C 288.703125 269.078125 282.464844 273.175781 278.816406 276.726562 C 278.335938 277.195312 278.257812 277.304688 277.6875 277.746094 C 276.699219 278.515625 274.5 280.761719 273.640625 281.734375 L 269.933594 286.058594 C 265.136719 292.214844 260.886719 299.082031 257.929688 306.410156 C 254.679688 314.484375 252.164062 322.949219 251.152344 331.972656 C 250.914062 334.074219 250.332031 338.851562 250.273438 341.097656 C 250.253906 341.796875 250.273438 342.546875 250.273438 343.257812 C 250.273438 344.617188 250.09375 345.625 250.09375 347.183594 Z M 358.230469 248.242188 C 361.191406 248.242188 363.699219 248.460938 366.195312 249.390625 C 368.027344 250.070312 367.957031 250.082031 368.144531 251.378906 C 368.925781 256.757812 368.214844 264.882812 367.238281 270.128906 L 366.625 273.445312 C 364.257812 273.445312 362.839844 273.21875 360.679688 272.957031 C 359.539062 272.816406 359.660156 272.957031 359.890625 271.929688 C 361.039062 266.890625 359.589844 257.527344 358.710938 252.238281 C 358.519531 251.078125 358.230469 249.652344 358.230469 248.25 Z M 393.972656 266.640625 C 389.882812 266.640625 384.066406 266.730469 380.238281 267.378906 C 379.398438 267.519531 377.871094 267.871094 377 267.890625 C 377.75 266.769531 379.019531 265.941406 379.859375 264.851562 C 380.699219 263.761719 381.699219 262.722656 382.539062 261.632812 C 383.816406 259.976562 386.816406 256.90625 388.203125 255.507812 C 388.773438 254.9375 389.164062 254.738281 389.722656 254.167969 C 393.292969 250.582031 399.097656 246.683594 403.285156 244.144531 C 403.90625 243.765625 404.605469 243.355469 405.214844 243.035156 C 406.503906 242.363281 407.671875 241.625 409.09375 241.015625 C 411.910156 239.816406 414.417969 238.605469 417.476562 237.597656 C 420.535156 236.589844 423.535156 235.957031 426.941406 235.269531 C 435.597656 233.519531 446.359375 233.621094 454.855469 235.738281 C 460.992188 237.269531 468.898438 240.753906 474.195312 244.273438 C 475.242188 244.972656 481.558594 249.160156 482.230469 250.171875 C 480.550781 249.78125 478.03125 249.640625 475.964844 249.640625 C 474.496094 249.640625 474.535156 249.410156 473.113281 249.449219 C 471.964844 249.480469 471.925781 249.640625 469.71875 249.640625 C 466.160156 249.640625 460.671875 250.25 457.132812 250.808594 C 453.035156 251.46875 449.449219 252.238281 445.769531 253.207031 C 438.046875 255.246094 430.5 258.175781 423.375 261.722656 C 421.214844 262.804688 415.539062 266 413.757812 267.46875 C 411.980469 268.941406 413.109375 268.378906 406.761719 267.550781 C 402.777344 267.03125 398.308594 266.601562 393.949219 266.601562 Z M 376.632812 264.140625 C 374.710938 264.101562 372.722656 263.542969 370.734375 264.503906 L 371.242188 261.085938 C 371.574219 258.027344 371.8125 250.179688 369.535156 248.191406 C 367.257812 246.203125 361.46875 245.921875 357.871094 245.921875 C 354.753906 245.921875 356.203125 250.5 356.414062 252.03125 C 357.003906 256.246094 358.050781 260.273438 358.050781 264.683594 C 356.421875 263.824219 353.753906 262.902344 351.796875 262.351562 C 336.453125 258.117188 321.59375 257.296875 306.121094 261.714844 C 304.773438 262.105469 301.683594 263.402344 300.503906 263.421875 C 300.355469 262.863281 300.375 262.964844 299.90625 262.59375 C 296.757812 260.164062 293.640625 257.765625 290.320312 255.558594 C 289.121094 254.746094 287.882812 253.96875 286.601562 253.199219 C 285.324219 252.429688 284.195312 251.769531 282.875 251.03125 L 278.835938 248.992188 C 276.050781 247.800781 273.28125 246.332031 270.382812 245.304688 C 267.484375 244.273438 264.617188 243.125 261.488281 242.226562 C 239.691406 236 220.632812 234.648438 199.222656 243.425781 C 193.585938 245.734375 188.078125 248.722656 183.351562 252.570312 L 179.976562 255.449219 C 177.214844 257.578125 173.097656 262.59375 171.179688 265.410156 C 169.921875 267.25 168.851562 269.390625 167.933594 271.457031 C 167.59375 272.226562 167.5 273.355469 167.210938 273.957031 C 165.414062 272.746094 166.042969 272.167969 163.464844 272.167969 C 161.125 272.167969 158.636719 273.71875 158.058594 275.535156 C 157.476562 277.355469 159.976562 280.253906 160.785156 281.460938 C 159.027344 282.390625 157.6875 284.050781 156.738281 285.808594 C 156.449219 286.339844 156.269531 286.558594 156.019531 287.058594 C 155.75 287.597656 155.628906 288 155.367188 288.546875 C 152.011719 295.515625 148.953125 312.59375 148.992188 320.410156 C 148.992188 321.980469 148.800781 322.960938 148.8125 324.339844 C 148.84375 335.421875 151.453125 346.207031 154.871094 356.53125 C 157.425781 364.265625 161.414062 372.550781 166.402344 378.945312 C 167.640625 380.535156 168.929688 382.183594 170.621094 383.316406 C 170.160156 383.945312 167.34375 385.554688 166.511719 386.171875 C 165.164062 387.191406 163.835938 388.222656 162.625 389.441406 C 162.003906 390.0625 161.484375 390.402344 160.835938 391.039062 C 154.558594 397.304688 150.382812 405.253906 148.28125 413.867188 C 148.0625 414.757812 147.753906 415.855469 147.753906 416.90625 C 145.535156 416.386719 140.40625 419.355469 138.71875 420.375 C 137.03125 421.394531 135.402344 422.371094 133.863281 423.570312 C 133.640625 423.742188 133.679688 423.742188 133.460938 423.890625 C 133.089844 424.152344 133.230469 424.082031 132.953125 424.113281 C 131.960938 424.222656 130.902344 423.871094 129.882812 423.871094 L 120.777344 424.242188 C 114.773438 424.691406 108.007812 425.851562 102.359375 427.269531 C 95.613281 428.96875 92.214844 430.167969 86.328125 432.6875 L 81.589844 435.105469 C 80.800781 435.585938 80.164062 435.953125 79.371094 436.464844 C 78.933594 436.753906 78.683594 436.863281 78.273438 437.152344 C 71.65625 441.941406 67.71875 445.371094 62.671875 451.933594 C 61.652344 453.265625 60.703125 454.683594 59.746094 456.152344 C 58.675781 457.792969 55.175781 463.699219 55.175781 465.878906 C 55.175781 466.1875 56.097656 466.226562 56.746094 466.808594 C 57.125 467.148438 57.773438 467.515625 58.273438 467.785156 C 67.519531 472.742188 76.835938 474.632812 88.058594 474.632812 C 91.316406 474.632812 93.585938 473.691406 96.453125 473.023438 C 95.933594 475.242188 95.0625 477.609375 94.5625 479.890625 C 94.015625 482.398438 93.703125 484.835938 93.335938 487.425781 C 92.945312 490.152344 92.933594 492.992188 93.835938 495.121094 C 94.246094 496.089844 95.535156 496.378906 96.472656 496.769531 C 99.792969 498.128906 103.320312 498.867188 106.988281 499.476562 C 118.710938 501.417969 132.472656 502.035156 144.523438 501.097656 C 151.011719 500.585938 158.21875 499.769531 164.144531 498.03125 C 170.070312 496.289062 175.507812 494.519531 180.722656 491.914062 L 184.460938 489.933594 C 184.953125 489.632812 185.203125 489.382812 185.601562 489.113281 C 186.960938 490.972656 199.773438 498.808594 203.050781 500.429688 C 203.910156 500.859375 204.46875 501.226562 205.371094 501.675781 L 207.75 502.867188 C 212.707031 505.34375 217.804688 507.394531 223.011719 509.402344 C 233.492188 513.460938 247.066406 516.660156 258.121094 517.71875 C 259.160156 517.816406 260.21875 518.007812 261.347656 518.058594 C 262.246094 518.097656 263.816406 518.257812 264.617188 518.367188 C 266.90625 518.675781 269.3125 518.46875 271.710938 518.597656 C 272.800781 518.65625 273.742188 518.777344 275.109375 518.777344 C 277.757812 518.777344 281.027344 518.449219 283.695312 518.425781 C 284.613281 518.425781 284.675781 518.289062 285.484375 518.246094 C 287.691406 518.136719 289.941406 517.847656 291.941406 517.558594 C 294.148438 517.238281 296.109375 516.957031 298.234375 516.527344 C 302.285156 515.710938 306.132812 514.78125 309.75 513.570312 C 313.367188 512.359375 316.925781 511.101562 320.132812 509.484375 C 323.34375 507.863281 326.488281 506.265625 329.429688 504.304688 C 331.167969 503.144531 332.996094 501.90625 334.566406 500.507812 C 334.964844 500.148438 335.175781 500.039062 335.542969 499.699219 C 336.246094 499.070312 336.84375 498.578125 337.511719 497.917969 L 341.882812 493.351562 C 342.171875 493.011719 342.402344 492.691406 342.671875 492.351562 C 343.242188 491.644531 343.738281 490.945312 344.28125 490.214844 C 345.5 488.566406 346.636719 486.457031 347.6875 484.6875 C 347.96875 484.207031 348.007812 483.988281 348.246094 483.457031 C 348.738281 482.410156 349.078125 482.027344 349.078125 480.539062 C 351.074219 481.5 354.714844 480.820312 356.503906 481.019531 L 360.519531 481.25 C 363.9375 481.429688 367.855469 481.148438 370.933594 481.546875 C 382.527344 483.066406 388.875 484.835938 400.566406 481.269531 C 403.636719 480.339844 410.320312 477.332031 413.269531 475.5625 C 415.636719 474.132812 418.066406 472.933594 420.414062 471.453125 C 423.445312 469.546875 426.300781 467.507812 429.140625 465.347656 L 433.148438 462.03125 C 435.417969 460.261719 438.683594 456.972656 440.804688 454.855469 L 451.308594 443.019531 C 459.933594 431.957031 468.1875 419.492188 474.125 406.679688 C 477.34375 399.726562 480.230469 392.96875 482.691406 385.582031 C 487.835938 370.164062 492.234375 350.703125 488.1875 334.472656 C 487.996094 333.714844 487.898438 333.214844 487.648438 332.503906 C 487.367188 331.703125 487.027344 331.335938 486.855469 330.613281 L 499.421875 329.414062 C 509.175781 328.136719 518.328125 325.886719 527.664062 323.167969 C 528.644531 322.878906 529.3125 322.710938 530.382812 322.5 L 533.320312 322.21875 C 535.449219 322.21875 534.9375 321.199219 534.328125 319.960938 L 524.15625 297.074219 C 523.046875 294.464844 521.816406 292.226562 520.566406 289.757812 C 520.269531 289.167969 520.097656 288.769531 519.769531 288.230469 C 518.097656 285.46875 516.550781 282.671875 514.769531 280.003906 L 498.789062 260.785156 L 494.324219 256.316406 C 489.136719 251.128906 483.359375 246.550781 477.253906 242.476562 C 464.570312 234.019531 448.449219 229.0625 432.128906 231.203125 C 418.90625 232.929688 410.230469 235.867188 399.269531 242.476562 C 393.8125 245.761719 388.914062 249.789062 384.425781 254.257812 C 382.539062 256.128906 377.101562 262.285156 376.609375 264.132812 Z M 376.632812 264.140625 " fill-opacity="1" fill-rule="evenodd"/></g><path fill="#000000" d="M 260.488281 344.738281 C 260.488281 355.109375 260.609375 357.621094 263.304688 367.292969 C 264.484375 371.53125 265.59375 374.371094 266.855469 378.226562 C 267.152344 379.15625 267.773438 381.125 268.714844 381.375 C 268.714844 375.148438 263.886719 363.277344 263.886719 350.824219 C 263.886719 343.148438 264.046875 339.480469 265.335938 331.902344 C 267.683594 318.101562 272.890625 304.621094 280.675781 293.644531 C 282.644531 290.878906 284.835938 288.277344 287.0625 285.738281 C 289.78125 282.660156 296.335938 277.574219 299.625 275.605469 C 303.183594 273.488281 306.5 271.589844 310.339844 269.878906 C 310.800781 269.679688 311.128906 269.460938 311.667969 269.238281 L 316.414062 267.199219 C 314.355469 267.199219 311.289062 268.109375 309.648438 268.648438 C 307.011719 269.53125 303.394531 271.128906 300.875 272.378906 C 299.976562 272.828125 299.074219 273.316406 298.207031 273.816406 C 294.628906 275.867188 293.609375 276.746094 290.742188 278.863281 L 287.421875 281.621094 C 286.09375 282.960938 285.3125 283.339844 284.125 284.761719 C 280.507812 289.089844 280.527344 288.738281 276.640625 294.074219 C 273.621094 298.222656 269.871094 305.359375 267.882812 310.335938 C 265.117188 317.28125 263.726562 321.910156 262.167969 329.636719 C 261.6875 332.015625 261.347656 334.511719 261.058594 336.921875 C 260.769531 339.328125 260.488281 342.058594 260.488281 344.746094 Z M 260.488281 344.738281 " fill-opacity="1" fill-rule="evenodd"/><path fill="#000000" d="M 427.742188 453.023438 C 428.339844 452.976562 428.460938 452.816406 428.851562 452.523438 C 430.550781 451.234375 433.507812 448.058594 435.117188 446.457031 C 435.777344 445.808594 436.078125 445.308594 436.726562 444.667969 C 437.304688 444.101562 438.015625 443.46875 438.496094 442.871094 L 443.503906 437.332031 C 444.0625 436.632812 444.53125 436.054688 445.121094 435.386719 C 445.671875 434.765625 446.089844 434.164062 446.609375 433.476562 C 447.171875 432.738281 447.609375 432.207031 448.167969 431.457031 C 456.476562 420.414062 463.222656 407.089844 466.597656 393.589844 C 467.410156 390.359375 467.878906 387.863281 468.007812 384.503906 C 468.039062 383.695312 467.859375 382.265625 467.777344 381.367188 L 464.5 392.199219 C 462.042969 399.734375 459.972656 404.664062 456.34375 411.917969 C 450.078125 424.441406 442.214844 434.117188 433.527344 444.847656 C 432.328125 446.328125 427.890625 451.414062 427.75 453.015625 Z M 427.742188 453.023438 " fill-opacity="1" fill-rule="evenodd"/><path fill="#000000" d="M 273.890625 346.34375 C 273.890625 349.863281 274.101562 353.183594 274.449219 356.5 C 274.570312 357.640625 274.929688 358.148438 275.140625 359.027344 C 275.871094 358.839844 275.878906 358.277344 275.988281 357.550781 L 276.570312 348.484375 C 276.589844 346.824219 277.128906 343.46875 277.277344 341.6875 C 277.796875 335.589844 279.058594 330.144531 280.386719 324.789062 L 282.765625 317.164062 C 283.265625 315.894531 283.632812 314.8125 284.144531 313.535156 C 285.515625 310.105469 287.210938 306.507812 289.0625 303.441406 L 292.058594 298.933594 C 292.550781 298.253906 292.507812 297.933594 293.539062 297.914062 C 293.289062 294.894531 289.421875 299.191406 288.851562 299.832031 C 288.523438 300.191406 288.222656 300.613281 287.890625 301.019531 C 282.035156 308.507812 277.847656 321.550781 275.78125 330.535156 C 274.75 335.003906 273.878906 341.609375 273.878906 346.324219 Z M 273.890625 346.34375 " fill-opacity="1" fill-rule="evenodd"/><path fill="#000000" d="M 237.972656 407.28125 C 237.972656 409.660156 241.988281 415.238281 243.386719 416.875 C 245.035156 418.824219 246.914062 420.625 248.835938 422.332031 C 251.851562 425.019531 256.332031 427.871094 260.089844 429.488281 C 268.554688 433.144531 278.609375 433.117188 286.511719 428.289062 C 287.0625 427.960938 287.824219 427.410156 288.253906 426.988281 C 288.78125 426.460938 289.191406 425.890625 289.273438 424.972656 L 286.003906 426.53125 C 275.710938 430.957031 266.066406 429.929688 256.449219 424.203125 C 252.742188 422.003906 249.554688 419.105469 246.515625 416.085938 L 239.828125 408.121094 C 239.648438 407.902344 237.992188 405.722656 237.992188 407.28125 Z M 237.972656 407.28125 " fill-opacity="1" fill-rule="evenodd"/><path fill="#000000" d="M 234.933594 247.34375 C 243.167969 247.34375 250.882812 249.371094 258.597656 251.558594 C 259.910156 251.929688 261.007812 252.210938 262.277344 252.527344 C 263.726562 252.890625 264.554688 253.25 266.382812 253.25 C 266.105469 252.210938 264.375 251.871094 263.476562 251.519531 C 257.871094 249.332031 251.511719 247.183594 245.667969 245.742188 C 238.75 244.054688 228.996094 244.234375 222.511719 246.710938 C 215.074219 249.5625 213.726562 253.480469 215.375 252.667969 C 215.535156 252.589844 216.214844 252.148438 216.394531 252.03125 C 217.191406 251.519531 217.652344 251.25 218.5625 250.800781 C 220.023438 250.070312 221.679688 249.441406 223.308594 248.929688 C 224.9375 248.421875 226.816406 248.042969 228.765625 247.78125 C 230.574219 247.53125 233.074219 247.351562 234.941406 247.351562 Z M 234.933594 247.34375 " fill-opacity="1" fill-rule="evenodd"/><path fill="#000000" d="M 329.996094 445.339844 C 329.96875 443.910156 329.046875 443.53125 328.390625 442.660156 C 324.0625 436.992188 305.84375 426.050781 300.273438 423.0625 C 298.484375 422.101562 290.390625 417.636719 288.363281 417.464844 C 288.460938 418.703125 292.101562 420.773438 293.070312 421.34375 C 293.070312 421.34375 305.671875 428.96875 309.238281 431.265625 C 311.007812 432.40625 312.667969 433.496094 314.417969 434.664062 L 319.582031 438.253906 C 321.144531 439.414062 328.679688 445.238281 329.996094 445.347656 Z M 329.996094 445.339844 " fill-opacity="1" fill-rule="evenodd"/><path fill="#000000" d="M 252.261719 400.304688 C 253.152344 400.515625 255.28125 401.734375 256.25 402.214844 C 259.160156 403.652344 262.964844 405.910156 264.84375 408.628906 C 267.125 411.929688 264.445312 413.007812 261.40625 411 C 259.367188 409.660156 256.441406 406.339844 254.980469 404.203125 Z M 246.007812 397.097656 C 246.195312 397.886719 246.335938 397.9375 246.894531 398.355469 L 249.835938 400.785156 C 250.113281 401.09375 250.132812 401.15625 250.375 401.496094 C 250.992188 402.414062 251.5625 403.242188 252.214844 404.121094 C 254.660156 407.378906 259.128906 414.257812 264.234375 414.257812 C 268.785156 414.257812 272.421875 406.460938 254.410156 399.246094 C 253.230469 398.777344 251.664062 398.285156 250.125 398.175781 C 248.585938 398.066406 247.085938 396.6875 246.015625 397.105469 Z M 246.007812 397.097656 " fill-opacity="1" fill-rule="evenodd"/><path fill="#000000" d="M 278.179688 425.320312 C 280.105469 425.320312 282.464844 424.832031 283.804688 424.160156 C 290.3125 420.914062 284.34375 413.527344 282.824219 413.527344 L 282.285156 413.527344 C 282.324219 415.214844 284.605469 415.914062 284.605469 420.144531 C 284.605469 422.09375 280.65625 423 278.527344 423 C 275.769531 423 272.632812 422.261719 270.511719 421.554688 C 260.21875 418.113281 255.621094 411.160156 252.800781 410.5 C 252.800781 411.878906 253.761719 412.417969 254.691406 413.617188 C 260 420.453125 269.3125 425.332031 278.179688 425.332031 Z M 278.179688 425.320312 " fill-opacity="1" fill-rule="evenodd"/><path fill="#000000" d="M 433.457031 433.546875 C 434.765625 433.4375 435.925781 431.546875 436.644531 430.65625 C 438.515625 428.359375 440.195312 426.21875 441.753906 423.613281 C 444.613281 418.84375 447.808594 412.109375 449.339844 406.890625 C 449.949219 404.8125 450.078125 404.0625 450.078125 401.375 C 449.179688 401.613281 449.328125 402.3125 448.890625 403.222656 C 448.539062 403.941406 448.238281 404.640625 447.941406 405.3125 C 447.300781 406.730469 446.769531 408.082031 446.089844 409.539062 L 441.445312 418.472656 C 441.214844 418.882812 441.132812 419.113281 440.882812 419.523438 C 440.464844 420.222656 440.203125 420.761719 439.785156 421.460938 L 435.355469 429.1875 C 434.507812 430.746094 433.449219 431.96875 433.449219 433.535156 Z M 433.457031 433.546875 " fill-opacity="1" fill-rule="evenodd"/><path fill="#000000" d="M 241.359375 256.277344 C 241.667969 256.425781 245.714844 256.636719 246.367188 256.636719 C 249.5625 256.636719 257.429688 258.105469 260.269531 258.816406 L 272.929688 262.234375 C 274.460938 262.671875 275.558594 263.0625 277.457031 263.0625 C 277.308594 262.664062 277.699219 262.8125 276.148438 262.042969 C 274.019531 260.996094 266.234375 258.175781 264.304688 257.625 C 257.191406 255.597656 252.992188 254.835938 245.46875 254.835938 C 244.289062 254.835938 241.6875 255.019531 241.359375 256.265625 Z M 241.359375 256.277344 " fill-opacity="1" fill-rule="evenodd"/><path fill="#000000" d="M 218.851562 384.042969 C 219.050781 384.785156 221.5 385.601562 222.960938 386.363281 C 223.507812 386.652344 223.820312 386.890625 224.449219 387.203125 C 225.488281 387.722656 226.296875 388.222656 227.246094 388.691406 L 238.449219 395.007812 C 238.871094 395.246094 241.148438 396.605469 241.429688 395.976562 C 242.039062 394.617188 233.003906 389.269531 231.542969 388.511719 C 229.40625 387.402344 221.03125 383.265625 218.851562 384.042969 Z M 218.851562 384.042969 " fill-opacity="1" fill-rule="evenodd"/><path fill="#000000" d="M 299.617188 287.730469 C 300.496094 287.660156 301.222656 286.941406 301.804688 286.351562 C 302.222656 285.929688 302.273438 285.890625 302.753906 285.511719 L 307.859375 281.144531 C 309.910156 279.515625 313.128906 277.054688 315.464844 275.707031 C 316.027344 275.375 316.234375 275.347656 316.414062 274.6875 C 313.457031 274.6875 310.878906 276.546875 308.660156 278.015625 L 305.5625 280.453125 C 305.191406 280.792969 304.941406 281.074219 304.582031 281.441406 L 302.792969 283.410156 C 301.953125 284.25 299.894531 286.570312 299.617188 287.738281 Z M 299.617188 287.730469 " fill-opacity="1" fill-rule="evenodd"/><path fill="#000000" d="M 365.738281 261.464844 C 365.738281 264.023438 365.21875 267.441406 365.378906 269.328125 C 366.308594 269.25 366.226562 268.691406 366.515625 267.789062 C 367.257812 265.5 367.855469 263.734375 367.546875 261.085938 C 367.375 259.585938 367.195312 253.457031 365.558594 252.347656 C 365.539062 253.289062 365.265625 253.25 365.449219 254.417969 Z M 365.738281 261.464844 " fill-opacity="1" fill-rule="evenodd"/><path fill="#000000" d="M 271.203125 255.027344 C 271.761719 255.867188 274.910156 257.304688 276.128906 257.785156 C 276.179688 257.804688 284.882812 261.175781 282.34375 258.734375 C 281.554688 257.976562 274.019531 253.628906 271.203125 255.027344 Z M 271.203125 255.027344 " fill-opacity="1" fill-rule="evenodd"/><path fill="#000000" d="M 237.429688 403.882812 C 237.5 403.082031 237.550781 403.554688 237.472656 402.933594 C 237.410156 402.433594 237.351562 402.304688 237.273438 401.902344 C 237.011719 400.683594 236.382812 399.054688 235.832031 397.984375 C 235.523438 397.375 235.253906 396.816406 234.394531 396.738281 C 233.753906 398.066406 234.292969 399.636719 234.824219 400.953125 C 235.0625 401.554688 235.453125 402.132812 235.78125 402.671875 C 236.203125 403.363281 236.433594 403.863281 237.429688 403.882812 Z M 237.429688 403.882812 " fill-opacity="1" fill-rule="evenodd"/><path fill="#000000" d="M 364.308594 263.78125 C 365.628906 262.8125 364.847656 259.253906 364.46875 258.085938 C 363.9375 256.417969 363.820312 256.128906 362.878906 256.097656 C 362.878906 257.605469 363.277344 263.023438 364.308594 263.78125 Z M 364.308594 263.78125 " fill-opacity="1" fill-rule="evenodd"/></svg>