<svg xmlns="http://www.w3.org/2000/svg" xmlns:xlink="http://www.w3.org/1999/xlink" width="794" zoomAndPan="magnify" viewBox="0 0 594.95996 842.24997" height="1123" preserveAspectRatio="xMidYMid meet" version="1.0"><defs><g/><clipPath id="d8040aa581"><path d="M 0.246094 0 L 594.675781 0 L 594.675781 841.5 L 0.246094 841.5 Z M 0.246094 0 " clip-rule="nonzero"/></clipPath><clipPath id="2e2c051a62"><path d="M 43.65625 61.804688 L 551.578125 61.804688 L 551.578125 782 L 43.65625 782 Z M 43.65625 61.804688 " clip-rule="nonzero"/></clipPath><clipPath id="4760e84a56"><path d="M 83.371094 61.804688 L 511.867188 61.804688 C 533.800781 61.804688 551.578125 79.585938 551.578125 101.519531 L 551.578125 741.953125 C 551.578125 763.886719 533.800781 781.667969 511.867188 781.667969 L 83.371094 781.667969 C 61.4375 781.667969 43.65625 763.886719 43.65625 741.953125 L 43.65625 101.519531 C 43.65625 79.585938 61.4375 61.804688 83.371094 61.804688 Z M 83.371094 61.804688 " clip-rule="nonzero"/></clipPath><clipPath id="e799a18115"><path d="M 0.65625 0.804688 L 508.578125 0.804688 L 508.578125 720.703125 L 0.65625 720.703125 Z M 0.65625 0.804688 " clip-rule="nonzero"/></clipPath><clipPath id="2518dbd696"><path d="M 40.371094 0.804688 L 468.867188 0.804688 C 490.800781 0.804688 508.578125 18.585938 508.578125 40.519531 L 508.578125 680.953125 C 508.578125 702.886719 490.800781 720.667969 468.867188 720.667969 L 40.371094 720.667969 C 18.4375 720.667969 0.65625 702.886719 0.65625 680.953125 L 0.65625 40.519531 C 0.65625 18.585938 18.4375 0.804688 40.371094 0.804688 Z M 40.371094 0.804688 " clip-rule="nonzero"/></clipPath><clipPath id="24e7fb6fed"><rect x="0" width="509" y="0" height="721"/></clipPath><clipPath id="126aaec57f"><path d="M 43.65625 61.804688 L 551.703125 61.804688 L 551.703125 781.914062 L 43.65625 781.914062 Z M 43.65625 61.804688 " clip-rule="nonzero"/></clipPath><clipPath id="87afdd49a5"><path d="M 83.371094 61.804688 L 511.859375 61.804688 C 533.792969 61.804688 551.574219 79.585938 551.574219 101.519531 L 551.574219 741.941406 C 551.574219 763.875 533.792969 781.65625 511.859375 781.65625 L 83.371094 781.65625 C 61.4375 781.65625 43.65625 763.875 43.65625 741.941406 L 43.65625 101.519531 C 43.65625 79.585938 61.4375 61.804688 83.371094 61.804688 Z M 83.371094 61.804688 " clip-rule="nonzero"/></clipPath><clipPath id="b2b30f8378"><path d="M 76.441406 198 L 518 198 L 518 545.8125 L 76.441406 545.8125 Z M 76.441406 198 " clip-rule="nonzero"/></clipPath></defs><g clip-path="url(#d8040aa581)"><path fill="#ffffff" d="M 0.246094 0 L 595.214844 0 L 595.214844 841.5 L 0.246094 841.5 Z M 0.246094 0 " fill-opacity="1" fill-rule="nonzero"/><path fill="#ffffff" d="M 0.246094 0 L 595.214844 0 L 595.214844 841.5 L 0.246094 841.5 Z M 0.246094 0 " fill-opacity="1" fill-rule="nonzero"/></g><g clip-path="url(#2e2c051a62)"><g clip-path="url(#4760e84a56)"><g transform="matrix(1, 0, 0, 1, 43, 61)"><g clip-path="url(#24e7fb6fed)"><g clip-path="url(#e799a18115)"><g clip-path="url(#2518dbd696)"><path fill="#ffffff" d="M 0.65625 0.804688 L 508.578125 0.804688 L 508.578125 721.027344 L 0.65625 721.027344 Z M 0.65625 0.804688 " fill-opacity="1" fill-rule="nonzero"/></g></g></g></g></g></g><g clip-path="url(#126aaec57f)"><g clip-path="url(#87afdd49a5)"><path stroke-linecap="butt" transform="matrix(0.749333, 0, 0, 0.749333, 43.656323, 61.804446)" fill="none" stroke-linejoin="miter" d="M 53.000185 0.000321629 L 624.82668 0.000321629 C 654.097516 0.000321629 677.826962 23.729768 677.826962 53.000604 L 677.826962 907.656874 C 677.826962 936.927709 654.097516 960.657156 624.82668 960.657156 L 53.000185 960.657156 C 23.72935 960.657156 -0.0000972672 936.927709 -0.0000972672 907.656874 L -0.0000972672 53.000604 C -0.0000972672 23.729768 23.72935 0.000321629 53.000185 0.000321629 Z M 53.000185 0.000321629 " stroke="#000000" stroke-width="8" stroke-opacity="1" stroke-miterlimit="4"/></g></g><g fill="#000000" fill-opacity="1"><g transform="translate(132.256079, 658.11343)"><g><path d="M 24.472656 -25.410156 C 24.472656 -26.386719 24.417969 -27.308594 24.3125 -28.175781 C 24.210938 -28.929688 23.984375 -29.605469 23.636719 -30.203125 L 24.15625 -30.507812 L 23.648438 -30.183594 C 23.308594 -30.714844 22.847656 -31.152344 22.265625 -31.492188 L 22.566406 -32.011719 L 22.28125 -31.480469 C 21.644531 -31.824219 20.792969 -31.996094 19.726562 -31.996094 C 18.734375 -31.996094 17.796875 -31.839844 16.917969 -31.527344 C 16.027344 -31.214844 15.25 -30.800781 14.574219 -30.28125 L 14.566406 -30.273438 L 14.558594 -30.269531 C 13.804688 -29.730469 13.132812 -29.167969 12.542969 -28.578125 L 12.121094 -29.003906 L 12.5625 -28.597656 C 11.96875 -27.949219 11.460938 -27.304688 11.03125 -26.664062 L 10.5625 -25.960938 L 2.984375 -35.972656 L 3.3125 -36.339844 C 4.277344 -37.417969 5.355469 -38.46875 6.546875 -39.488281 L 6.9375 -39.03125 L 6.535156 -39.480469 C 7.683594 -40.515625 9.007812 -41.433594 10.496094 -42.234375 C 11.984375 -43.035156 13.640625 -43.695312 15.46875 -44.207031 L 15.476562 -44.210938 L 15.484375 -44.210938 C 17.316406 -44.667969 19.371094 -44.898438 21.648438 -44.898438 C 25.386719 -44.898438 28.511719 -44.5 31.023438 -43.699219 L 31.03125 -43.699219 L 31.039062 -43.695312 C 33.535156 -42.824219 35.542969 -41.511719 37.0625 -39.761719 C 38.574219 -38.015625 39.648438 -35.8125 40.285156 -33.152344 C 40.851562 -30.539062 41.136719 -27.457031 41.136719 -23.902344 L 41.136719 0.601562 L 25.921875 0.601562 L 24.988281 -3.976562 L 25.574219 -4.09375 L 26.046875 -3.722656 C 24.703125 -2.027344 23.148438 -0.796875 21.382812 -0.0351562 C 19.636719 0.722656 17.828125 1.101562 15.964844 1.101562 C 14.109375 1.101562 12.394531 0.8125 10.824219 0.230469 C 9.179688 -0.359375 7.710938 -1.328125 6.417969 -2.675781 C 3.851562 -5.421875 2.652344 -8.882812 2.828125 -13.0625 L 2.828125 -13.078125 C 3.117188 -17.496094 4.675781 -20.765625 7.496094 -22.878906 C 10.222656 -24.910156 13.65625 -25.925781 17.800781 -25.925781 C 19.066406 -25.925781 20.328125 -25.8125 21.585938 -25.582031 C 22.785156 -25.355469 24.007812 -25.039062 25.257812 -24.644531 L 25.074219 -24.070312 L 24.472656 -24.070312 Z M 25.675781 -25.410156 L 25.675781 -23.25 L 24.890625 -23.5 C 23.6875 -23.882812 22.515625 -24.183594 21.371094 -24.398438 C 20.183594 -24.617188 18.992188 -24.722656 17.800781 -24.722656 C 13.921875 -24.722656 10.726562 -23.789062 8.21875 -21.917969 C 5.691406 -20.023438 4.292969 -17.050781 4.027344 -13 L 3.425781 -13.039062 L 4.027344 -13.011719 C 3.867188 -9.167969 4.953125 -6 7.289062 -3.507812 C 8.449219 -2.292969 9.765625 -1.425781 11.242188 -0.898438 C 12.679688 -0.367188 14.253906 -0.0976562 15.964844 -0.0976562 C 17.664062 -0.0976562 19.3125 -0.445312 20.90625 -1.136719 C 22.488281 -1.820312 23.886719 -2.929688 25.105469 -4.46875 L 25.90625 -5.480469 L 27 -0.121094 L 26.410156 0 L 26.410156 -0.601562 L 40.535156 -0.601562 L 40.535156 0 L 39.9375 0 L 39.9375 -23.902344 C 39.9375 -27.371094 39.664062 -30.363281 39.117188 -32.875 C 38.527344 -35.34375 37.539062 -37.375 36.15625 -38.972656 C 34.777344 -40.5625 32.9375 -41.757812 30.644531 -42.558594 L 30.839844 -43.128906 L 30.660156 -42.554688 C 28.265625 -43.316406 25.261719 -43.695312 21.648438 -43.695312 C 19.46875 -43.695312 17.511719 -43.480469 15.773438 -43.046875 L 15.628906 -43.628906 L 15.792969 -43.050781 C 14.050781 -42.5625 12.476562 -41.9375 11.066406 -41.179688 C 9.660156 -40.421875 8.417969 -39.554688 7.339844 -38.585938 L 7.332031 -38.582031 L 7.328125 -38.574219 C 6.179688 -37.589844 5.136719 -36.578125 4.207031 -35.539062 L 3.761719 -35.941406 L 4.238281 -36.300781 L 11.011719 -27.359375 L 10.53125 -26.996094 L 10.03125 -27.328125 C 10.496094 -28.023438 11.042969 -28.71875 11.675781 -29.410156 L 11.683594 -29.417969 L 11.695312 -29.425781 C 12.332031 -30.0625 13.050781 -30.671875 13.859375 -31.246094 L 14.207031 -30.757812 L 13.84375 -31.234375 C 14.617188 -31.828125 15.507812 -32.304688 16.515625 -32.660156 C 17.527344 -33.019531 18.597656 -33.195312 19.726562 -33.195312 C 20.996094 -33.195312 22.039062 -32.976562 22.851562 -32.539062 L 22.859375 -32.535156 L 22.871094 -32.53125 C 23.621094 -32.089844 24.21875 -31.523438 24.660156 -30.828125 L 24.667969 -30.820312 L 24.671875 -30.808594 C 25.105469 -30.070312 25.378906 -29.242188 25.503906 -28.324219 C 25.617188 -27.410156 25.675781 -26.4375 25.675781 -25.410156 Z M 24.824219 -15.25 C 24.179688 -15.546875 23.34375 -15.699219 22.316406 -15.699219 C 21.289062 -15.699219 20.398438 -15.519531 19.644531 -15.167969 L 19.636719 -15.164062 L 19.632812 -15.164062 C 18.980469 -14.878906 18.652344 -14.449219 18.652344 -13.875 C 18.652344 -13.167969 18.964844 -12.648438 19.589844 -12.316406 L 19.613281 -12.304688 L 19.632812 -12.289062 C 20.3125 -11.851562 21.097656 -11.632812 21.980469 -11.632812 C 23.125 -11.632812 24.03125 -11.898438 24.703125 -12.425781 L 25.074219 -11.953125 L 24.472656 -11.953125 L 24.472656 -15.796875 L 25.074219 -15.796875 Z M 25.675781 -16.179688 L 25.675781 -11.660156 L 25.445312 -11.480469 C 24.554688 -10.78125 23.402344 -10.433594 21.980469 -10.433594 C 20.859375 -10.433594 19.859375 -10.714844 18.980469 -11.28125 L 19.308594 -11.785156 L 19.023438 -11.253906 C 17.976562 -11.8125 17.453125 -12.6875 17.453125 -13.875 C 17.453125 -14.972656 18.019531 -15.769531 19.148438 -16.261719 L 19.390625 -15.714844 L 19.136719 -16.257812 C 20.054688 -16.683594 21.113281 -16.898438 22.316406 -16.898438 C 23.519531 -16.898438 24.523438 -16.714844 25.324219 -16.34375 Z M 25.675781 -16.179688 "/></g></g></g><g fill="#000000" fill-opacity="1"><g transform="translate(173.959377, 658.11343)"><g><path d="M 51.007812 -39.410156 L 27.019531 4.277344 L 23.464844 4.277344 L -0.84375 -39.738281 L 15.4375 -46.84375 L 26.125 -22.558594 L 25.574219 -22.316406 L 25.027344 -22.558594 L 35.714844 -46.84375 L 51.324219 -39.988281 Z M 49.957031 -39.988281 L 50.484375 -39.699219 L 50.242188 -39.152344 L 35.78125 -45.503906 L 36.023438 -46.054688 L 36.574219 -45.8125 L 25.574219 -20.824219 L 14.578125 -45.8125 L 15.128906 -46.054688 L 15.367188 -45.503906 L 0.242188 -38.898438 L 0 -39.449219 L 0.527344 -39.742188 L 24.347656 3.386719 L 23.820312 3.675781 L 23.820312 3.078125 L 26.664062 3.078125 L 26.664062 3.675781 L 26.136719 3.386719 Z M 49.957031 -39.988281 "/></g></g></g><g fill="#000000" fill-opacity="1"><g transform="translate(224.438085, 658.11343)"><g><path d="M 23.652344 1.269531 C 20.175781 1.269531 17.035156 0.699219 14.230469 -0.445312 C 11.421875 -1.59375 9.039062 -3.203125 7.085938 -5.269531 C 5.132812 -7.335938 3.640625 -9.804688 2.609375 -12.667969 C 1.585938 -15.460938 1.070312 -18.566406 1.070312 -21.980469 C 1.070312 -25.40625 1.726562 -28.636719 3.042969 -31.664062 C 4.355469 -34.636719 6.128906 -37.207031 8.355469 -39.378906 L 8.363281 -39.382812 L 8.367188 -39.390625 C 10.550781 -41.398438 13.132812 -42.890625 16.113281 -43.867188 C 19.074219 -44.777344 22.117188 -45.234375 25.242188 -45.234375 C 28.820312 -45.234375 32.0625 -44.71875 34.96875 -43.695312 C 37.898438 -42.605469 40.394531 -41.054688 42.460938 -39.046875 C 44.472656 -37.03125 46.050781 -34.59375 47.195312 -31.734375 C 48.28125 -28.871094 48.828125 -25.648438 48.828125 -22.066406 C 48.828125 -18.636719 48.167969 -15.4375 46.851562 -12.460938 C 45.539062 -9.4375 43.738281 -6.835938 41.453125 -4.664062 C 38.867188 -2.308594 36.078125 -0.726562 33.085938 0.078125 C 30.082031 0.871094 26.9375 1.269531 23.652344 1.269531 Z M 23.652344 0.0664062 C 26.832031 0.0664062 29.875 -0.316406 32.773438 -1.082031 C 35.578125 -1.835938 38.195312 -3.320312 40.625 -5.535156 C 42.792969 -7.59375 44.503906 -10.066406 45.753906 -12.945312 C 47 -15.765625 47.625 -18.808594 47.625 -22.066406 C 47.625 -25.503906 47.109375 -28.574219 46.082031 -31.285156 C 44.996094 -33.996094 43.511719 -36.296875 41.621094 -38.183594 C 39.675781 -40.074219 37.324219 -41.535156 34.570312 -42.5625 C 31.792969 -43.542969 28.683594 -44.03125 25.242188 -44.03125 C 22.238281 -44.03125 19.316406 -43.59375 16.484375 -42.722656 C 13.671875 -41.804688 11.234375 -40.398438 9.183594 -38.507812 L 8.777344 -38.949219 L 9.195312 -38.519531 C 7.078125 -36.453125 5.394531 -34.011719 4.144531 -31.1875 C 2.898438 -28.308594 2.273438 -25.242188 2.273438 -21.980469 C 2.273438 -18.710938 2.761719 -15.742188 3.742188 -13.074219 C 4.714844 -10.367188 6.121094 -8.042969 7.960938 -6.097656 C 9.792969 -4.152344 12.035156 -2.640625 14.6875 -1.558594 C 17.34375 -0.472656 20.332031 0.0664062 23.652344 0.0664062 Z M 24.90625 -12.386719 C 26.261719 -12.386719 27.453125 -12.644531 28.484375 -13.15625 C 29.46875 -13.625 30.324219 -14.296875 31.046875 -15.175781 C 31.722656 -16.007812 32.242188 -17 32.609375 -18.152344 L 33.179688 -17.96875 L 32.601562 -18.128906 C 32.921875 -19.300781 33.082031 -20.53125 33.082031 -21.816406 C 33.082031 -23.097656 32.921875 -24.328125 32.601562 -25.5 C 32.285156 -26.660156 31.8125 -27.683594 31.1875 -28.574219 L 31.675781 -28.917969 L 31.199219 -28.554688 C 30.527344 -29.429688 29.703125 -30.128906 28.722656 -30.644531 C 27.75 -31.15625 26.589844 -31.410156 25.242188 -31.410156 C 23.933594 -31.410156 22.761719 -31.175781 21.726562 -30.710938 C 20.644531 -30.195312 19.773438 -29.527344 19.105469 -28.707031 L 19.089844 -28.691406 C 18.363281 -27.859375 17.816406 -26.898438 17.453125 -25.804688 L 17.449219 -25.796875 L 17.449219 -25.789062 C 17.027344 -24.628906 16.816406 -23.386719 16.816406 -22.066406 C 16.816406 -19.351562 17.472656 -17.074219 18.792969 -15.226562 L 18.796875 -15.21875 L 18.804688 -15.210938 C 20.023438 -13.378906 22.0625 -12.4375 24.917969 -12.386719 Z M 24.894531 -11.183594 C 21.621094 -11.242188 19.257812 -12.363281 17.804688 -14.542969 L 18.304688 -14.878906 L 17.816406 -14.527344 C 16.347656 -16.582031 15.613281 -19.09375 15.613281 -22.066406 C 15.613281 -23.527344 15.847656 -24.90625 16.320312 -26.199219 L 16.882812 -25.992188 L 16.3125 -26.183594 C 16.730469 -27.429688 17.351562 -28.53125 18.1875 -29.480469 L 18.636719 -29.085938 L 18.171875 -29.464844 C 18.953125 -30.425781 19.972656 -31.207031 21.234375 -31.808594 C 22.425781 -32.34375 23.761719 -32.613281 25.242188 -32.613281 C 26.789062 -32.613281 28.136719 -32.308594 29.28125 -31.707031 C 30.417969 -31.109375 31.375 -30.300781 32.152344 -29.285156 L 32.160156 -29.273438 L 32.167969 -29.265625 C 32.878906 -28.261719 33.410156 -27.109375 33.761719 -25.816406 C 34.109375 -24.539062 34.285156 -23.207031 34.285156 -21.816406 C 34.285156 -20.421875 34.109375 -19.089844 33.761719 -17.8125 L 33.753906 -17.789062 C 33.339844 -16.488281 32.746094 -15.363281 31.972656 -14.410156 C 31.136719 -13.394531 30.152344 -12.621094 29.019531 -12.082031 C 27.820312 -11.484375 26.449219 -11.183594 24.90625 -11.183594 Z M 24.894531 -11.183594 "/></g></g></g><g fill="#000000" fill-opacity="1"><g transform="translate(274.331777, 658.11343)"><g><path d="M 1.488281 -21.980469 C 1.488281 -25.40625 2.144531 -28.636719 3.460938 -31.664062 C 4.773438 -34.636719 6.546875 -37.207031 8.773438 -39.378906 L 8.789062 -39.394531 C 11.195312 -41.570312 13.800781 -43.113281 16.613281 -44.03125 C 19.351562 -44.886719 22.253906 -45.316406 25.324219 -45.316406 C 27.261719 -45.316406 29.195312 -45.117188 31.128906 -44.71875 L 31.136719 -44.71875 L 31.144531 -44.714844 C 33.09375 -44.257812 34.898438 -43.570312 36.5625 -42.652344 C 38.238281 -41.726562 39.738281 -40.546875 41.0625 -39.105469 L 41.070312 -39.09375 L 41.078125 -39.085938 C 42.359375 -37.570312 43.292969 -35.796875 43.871094 -33.765625 L 43.988281 -33.355469 L 32.78125 -25.425781 L 32.472656 -26.066406 C 31.726562 -27.613281 30.769531 -28.917969 29.601562 -29.980469 C 28.4375 -30.988281 27.015625 -31.496094 25.324219 -31.496094 C 24.03125 -31.496094 22.898438 -31.238281 21.925781 -30.726562 C 20.945312 -30.210938 20.121094 -29.515625 19.449219 -28.636719 C 18.765625 -27.742188 18.238281 -26.742188 17.871094 -25.636719 C 17.5 -24.476562 17.316406 -23.285156 17.316406 -22.066406 C 17.316406 -20.734375 17.503906 -19.484375 17.875 -18.320312 L 17.878906 -18.308594 L 17.878906 -18.296875 C 18.195312 -17.144531 18.691406 -16.128906 19.367188 -15.242188 C 20.035156 -14.367188 20.882812 -13.671875 21.917969 -13.15625 C 22.945312 -12.644531 24.164062 -12.386719 25.574219 -12.386719 C 27.0625 -12.386719 28.449219 -12.847656 29.738281 -13.777344 C 31.050781 -14.722656 32.046875 -15.875 32.726562 -17.234375 L 33.042969 -17.867188 L 44.257812 -9.777344 L 43.980469 -9.304688 C 41.75 -5.53125 39.050781 -2.808594 35.886719 -1.140625 C 32.675781 0.523438 28.90625 1.351562 24.574219 1.351562 C 21.039062 1.351562 17.871094 0.78125 15.066406 -0.363281 L 15.296875 -0.917969 L 15.082031 -0.359375 C 12.210938 -1.449219 9.773438 -3.027344 7.761719 -5.097656 C 5.753906 -7.164062 4.203125 -9.628906 3.117188 -12.492188 C 2.03125 -15.34375 1.488281 -18.507812 1.488281 -21.980469 Z M 2.691406 -21.980469 C 2.691406 -18.65625 3.207031 -15.636719 4.238281 -12.917969 C 5.269531 -10.210938 6.730469 -7.882812 8.621094 -5.933594 C 10.511719 -3.992188 12.804688 -2.507812 15.507812 -1.480469 L 15.515625 -1.476562 L 15.523438 -1.476562 C 18.179688 -0.390625 21.195312 0.152344 24.574219 0.152344 C 28.710938 0.152344 32.292969 -0.632812 35.324219 -2.203125 C 38.289062 -3.765625 40.828125 -6.335938 42.945312 -9.917969 L 43.460938 -9.613281 L 43.109375 -9.125 L 32.914062 -16.480469 L 33.265625 -16.96875 L 33.800781 -16.699219 C 33.035156 -15.160156 31.914062 -13.863281 30.441406 -12.800781 C 28.941406 -11.722656 27.320312 -11.183594 25.574219 -11.183594 C 23.976562 -11.183594 22.578125 -11.484375 21.378906 -12.082031 C 20.179688 -12.683594 19.191406 -13.492188 18.410156 -14.511719 C 17.640625 -15.523438 17.078125 -16.675781 16.722656 -17.980469 L 17.300781 -18.136719 L 16.730469 -17.953125 C 16.320312 -19.238281 16.117188 -20.609375 16.117188 -22.066406 C 16.117188 -23.410156 16.320312 -24.726562 16.730469 -26.015625 C 17.140625 -27.25 17.730469 -28.367188 18.496094 -29.367188 C 19.273438 -30.382812 20.230469 -31.191406 21.367188 -31.789062 C 22.515625 -32.394531 23.832031 -32.695312 25.324219 -32.695312 C 27.3125 -32.695312 29.007812 -32.085938 30.410156 -30.867188 C 31.691406 -29.703125 32.742188 -28.273438 33.554688 -26.589844 L 33.015625 -26.328125 L 32.667969 -26.816406 L 42.949219 -34.089844 L 43.292969 -33.597656 L 42.71875 -33.433594 C 42.183594 -35.300781 41.332031 -36.925781 40.160156 -38.308594 L 40.621094 -38.699219 L 40.179688 -38.292969 C 38.941406 -39.636719 37.542969 -40.738281 35.984375 -41.597656 C 34.417969 -42.464844 32.710938 -43.113281 30.871094 -43.546875 L 31.007812 -44.128906 L 30.886719 -43.542969 C 29.03125 -43.925781 27.179688 -44.113281 25.324219 -44.113281 C 22.378906 -44.113281 19.597656 -43.707031 16.984375 -42.890625 C 14.335938 -42.027344 11.875 -40.5625 9.597656 -38.503906 L 9.195312 -38.949219 L 9.613281 -38.519531 C 7.496094 -36.453125 5.8125 -34.011719 4.5625 -31.1875 C 3.316406 -28.308594 2.691406 -25.242188 2.691406 -21.980469 Z M 2.691406 -21.980469 "/></g></g></g><g fill="#000000" fill-opacity="1"><g transform="translate(317.622982, 658.11343)"><g><path d="M 24.472656 -25.410156 C 24.472656 -26.386719 24.417969 -27.308594 24.3125 -28.175781 C 24.210938 -28.929688 23.984375 -29.605469 23.636719 -30.203125 L 24.15625 -30.507812 L 23.648438 -30.183594 C 23.308594 -30.714844 22.847656 -31.152344 22.265625 -31.492188 L 22.566406 -32.011719 L 22.28125 -31.480469 C 21.644531 -31.824219 20.792969 -31.996094 19.726562 -31.996094 C 18.734375 -31.996094 17.796875 -31.839844 16.917969 -31.527344 C 16.027344 -31.214844 15.25 -30.800781 14.574219 -30.28125 L 14.566406 -30.273438 L 14.558594 -30.269531 C 13.804688 -29.730469 13.132812 -29.167969 12.542969 -28.578125 L 12.121094 -29.003906 L 12.5625 -28.597656 C 11.96875 -27.949219 11.460938 -27.304688 11.03125 -26.664062 L 10.5625 -25.960938 L 2.984375 -35.972656 L 3.3125 -36.339844 C 4.277344 -37.417969 5.355469 -38.46875 6.546875 -39.488281 L 6.9375 -39.03125 L 6.535156 -39.480469 C 7.683594 -40.515625 9.007812 -41.433594 10.496094 -42.234375 C 11.984375 -43.035156 13.640625 -43.695312 15.46875 -44.207031 L 15.476562 -44.210938 L 15.484375 -44.210938 C 17.316406 -44.667969 19.371094 -44.898438 21.648438 -44.898438 C 25.386719 -44.898438 28.511719 -44.5 31.023438 -43.699219 L 31.03125 -43.699219 L 31.039062 -43.695312 C 33.535156 -42.824219 35.542969 -41.511719 37.0625 -39.761719 C 38.574219 -38.015625 39.648438 -35.8125 40.285156 -33.152344 C 40.851562 -30.539062 41.136719 -27.457031 41.136719 -23.902344 L 41.136719 0.601562 L 25.921875 0.601562 L 24.988281 -3.976562 L 25.574219 -4.09375 L 26.046875 -3.722656 C 24.703125 -2.027344 23.148438 -0.796875 21.382812 -0.0351562 C 19.636719 0.722656 17.828125 1.101562 15.964844 1.101562 C 14.109375 1.101562 12.394531 0.8125 10.824219 0.230469 C 9.179688 -0.359375 7.710938 -1.328125 6.417969 -2.675781 C 3.851562 -5.421875 2.652344 -8.882812 2.828125 -13.0625 L 2.828125 -13.078125 C 3.117188 -17.496094 4.675781 -20.765625 7.496094 -22.878906 C 10.222656 -24.910156 13.65625 -25.925781 17.800781 -25.925781 C 19.066406 -25.925781 20.328125 -25.8125 21.585938 -25.582031 C 22.785156 -25.355469 24.007812 -25.039062 25.257812 -24.644531 L 25.074219 -24.070312 L 24.472656 -24.070312 Z M 25.675781 -25.410156 L 25.675781 -23.25 L 24.890625 -23.5 C 23.6875 -23.882812 22.515625 -24.183594 21.371094 -24.398438 C 20.183594 -24.617188 18.992188 -24.722656 17.800781 -24.722656 C 13.921875 -24.722656 10.726562 -23.789062 8.21875 -21.917969 C 5.691406 -20.023438 4.292969 -17.050781 4.027344 -13 L 3.425781 -13.039062 L 4.027344 -13.011719 C 3.867188 -9.167969 4.953125 -6 7.289062 -3.507812 C 8.449219 -2.292969 9.765625 -1.425781 11.242188 -0.898438 C 12.679688 -0.367188 14.253906 -0.0976562 15.964844 -0.0976562 C 17.664062 -0.0976562 19.3125 -0.445312 20.90625 -1.136719 C 22.488281 -1.820312 23.886719 -2.929688 25.105469 -4.46875 L 25.90625 -5.480469 L 27 -0.121094 L 26.410156 0 L 26.410156 -0.601562 L 40.535156 -0.601562 L 40.535156 0 L 39.9375 0 L 39.9375 -23.902344 C 39.9375 -27.371094 39.664062 -30.363281 39.117188 -32.875 C 38.527344 -35.34375 37.539062 -37.375 36.15625 -38.972656 C 34.777344 -40.5625 32.9375 -41.757812 30.644531 -42.558594 L 30.839844 -43.128906 L 30.660156 -42.554688 C 28.265625 -43.316406 25.261719 -43.695312 21.648438 -43.695312 C 19.46875 -43.695312 17.511719 -43.480469 15.773438 -43.046875 L 15.628906 -43.628906 L 15.792969 -43.050781 C 14.050781 -42.5625 12.476562 -41.9375 11.066406 -41.179688 C 9.660156 -40.421875 8.417969 -39.554688 7.339844 -38.585938 L 7.332031 -38.582031 L 7.328125 -38.574219 C 6.179688 -37.589844 5.136719 -36.578125 4.207031 -35.539062 L 3.761719 -35.941406 L 4.238281 -36.300781 L 11.011719 -27.359375 L 10.53125 -26.996094 L 10.03125 -27.328125 C 10.496094 -28.023438 11.042969 -28.71875 11.675781 -29.410156 L 11.683594 -29.417969 L 11.695312 -29.425781 C 12.332031 -30.0625 13.050781 -30.671875 13.859375 -31.246094 L 14.207031 -30.757812 L 13.84375 -31.234375 C 14.617188 -31.828125 15.507812 -32.304688 16.515625 -32.660156 C 17.527344 -33.019531 18.597656 -33.195312 19.726562 -33.195312 C 20.996094 -33.195312 22.039062 -32.976562 22.851562 -32.539062 L 22.859375 -32.535156 L 22.871094 -32.53125 C 23.621094 -32.089844 24.21875 -31.523438 24.660156 -30.828125 L 24.667969 -30.820312 L 24.671875 -30.808594 C 25.105469 -30.070312 25.378906 -29.242188 25.503906 -28.324219 C 25.617188 -27.410156 25.675781 -26.4375 25.675781 -25.410156 Z M 24.824219 -15.25 C 24.179688 -15.546875 23.34375 -15.699219 22.316406 -15.699219 C 21.289062 -15.699219 20.398438 -15.519531 19.644531 -15.167969 L 19.636719 -15.164062 L 19.632812 -15.164062 C 18.980469 -14.878906 18.652344 -14.449219 18.652344 -13.875 C 18.652344 -13.167969 18.964844 -12.648438 19.589844 -12.316406 L 19.613281 -12.304688 L 19.632812 -12.289062 C 20.3125 -11.851562 21.097656 -11.632812 21.980469 -11.632812 C 23.125 -11.632812 24.03125 -11.898438 24.703125 -12.425781 L 25.074219 -11.953125 L 24.472656 -11.953125 L 24.472656 -15.796875 L 25.074219 -15.796875 Z M 25.675781 -16.179688 L 25.675781 -11.660156 L 25.445312 -11.480469 C 24.554688 -10.78125 23.402344 -10.433594 21.980469 -10.433594 C 20.859375 -10.433594 19.859375 -10.714844 18.980469 -11.28125 L 19.308594 -11.785156 L 19.023438 -11.253906 C 17.976562 -11.8125 17.453125 -12.6875 17.453125 -13.875 C 17.453125 -14.972656 18.019531 -15.769531 19.148438 -16.261719 L 19.390625 -15.714844 L 19.136719 -16.257812 C 20.054688 -16.683594 21.113281 -16.898438 22.316406 -16.898438 C 23.519531 -16.898438 24.523438 -16.714844 25.324219 -16.34375 Z M 25.675781 -16.179688 "/></g></g></g><g fill="#000000" fill-opacity="1"><g transform="translate(360.997883, 658.11343)"><g><path d="M 1.738281 -22.316406 C 1.738281 -25.324219 2.136719 -28.222656 2.933594 -31.007812 C 3.734375 -33.757812 4.96875 -36.195312 6.632812 -38.316406 C 8.242188 -40.445312 10.289062 -42.144531 12.765625 -43.410156 C 15.1875 -44.679688 18.039062 -45.316406 21.3125 -45.316406 C 22.289062 -45.316406 23.351562 -45.230469 24.496094 -45.058594 C 25.636719 -44.886719 26.78125 -44.628906 27.921875 -44.289062 L 27.945312 -44.28125 C 29.097656 -43.875 30.164062 -43.386719 31.144531 -42.808594 L 31.15625 -42.804688 L 31.167969 -42.796875 C 32.191406 -42.132812 32.980469 -41.34375 33.53125 -40.429688 L 33.015625 -40.117188 L 32.414062 -40.117188 L 32.414062 -53.257812 L 49.078125 -53.257812 L 49.078125 0.601562 L 33.292969 0.601562 L 33 -3.382812 L 33.597656 -3.425781 L 34.050781 -3.03125 C 33.167969 -2.03125 32.195312 -1.234375 31.132812 -0.644531 C 30.089844 -0.0664062 29.042969 0.371094 27.992188 0.664062 C 26.949219 0.953125 25.933594 1.125 24.941406 1.183594 L 24.90625 0.585938 L 24.976562 1.183594 C 24.007812 1.296875 23.121094 1.351562 22.316406 1.351562 C 18.875 1.351562 15.859375 0.691406 13.265625 -0.636719 C 10.679688 -1.898438 8.550781 -3.628906 6.878906 -5.820312 L 7.355469 -6.183594 L 6.886719 -5.804688 C 5.167969 -7.929688 3.875 -10.453125 3.019531 -13.371094 C 2.164062 -16.210938 1.738281 -19.191406 1.738281 -22.316406 Z M 2.941406 -22.316406 C 2.941406 -19.308594 3.351562 -16.441406 4.171875 -13.710938 C 4.984375 -10.945312 6.199219 -8.5625 7.820312 -6.5625 L 7.832031 -6.550781 C 9.390625 -4.507812 11.382812 -2.890625 13.8125 -1.703125 C 16.234375 -0.46875 19.070312 0.152344 22.316406 0.152344 C 23.074219 0.152344 23.914062 0.0976562 24.835938 -0.0117188 L 24.855469 -0.0117188 L 24.871094 -0.015625 C 25.777344 -0.0664062 26.710938 -0.226562 27.671875 -0.496094 C 28.628906 -0.761719 29.589844 -1.160156 30.550781 -1.695312 C 31.492188 -2.21875 32.359375 -2.929688 33.148438 -3.824219 L 34.09375 -4.894531 L 34.449219 -0.0429688 L 33.851562 0 L 33.851562 -0.601562 L 48.476562 -0.601562 L 48.476562 0 L 47.875 0 L 47.875 -52.65625 L 48.476562 -52.65625 L 48.476562 -52.054688 L 33.015625 -52.054688 L 33.015625 -52.65625 L 33.613281 -52.65625 L 33.613281 -37.949219 L 32.5 -39.808594 C 32.046875 -40.566406 31.382812 -41.226562 30.515625 -41.789062 L 30.839844 -42.292969 L 30.535156 -41.773438 C 29.625 -42.3125 28.628906 -42.769531 27.550781 -43.144531 L 27.75 -43.710938 L 27.574219 -43.136719 C 26.488281 -43.464844 25.402344 -43.707031 24.316406 -43.871094 C 23.230469 -44.035156 22.230469 -44.113281 21.3125 -44.113281 C 18.234375 -44.113281 15.570312 -43.523438 13.3125 -42.34375 C 10.996094 -41.15625 9.085938 -39.570312 7.578125 -37.574219 C 6.007812 -35.574219 4.847656 -33.273438 4.089844 -30.675781 C 3.324219 -28 2.941406 -25.214844 2.941406 -22.316406 Z M 17.734375 -22.066406 C 17.734375 -20.78125 17.894531 -19.554688 18.214844 -18.378906 C 18.527344 -17.226562 19.023438 -16.210938 19.699219 -15.324219 L 19.707031 -15.320312 L 19.710938 -15.3125 C 20.378906 -14.386719 21.203125 -13.664062 22.179688 -13.152344 C 23.148438 -12.640625 24.335938 -12.386719 25.742188 -12.386719 C 27.042969 -12.386719 28.351562 -12.699219 29.660156 -13.328125 C 30.898438 -13.898438 31.847656 -14.6875 32.511719 -15.707031 L 33.015625 -15.378906 L 32.414062 -15.378906 L 32.414062 -27.582031 L 33.015625 -27.582031 L 32.5 -27.273438 C 31.710938 -28.585938 30.714844 -29.636719 29.511719 -30.421875 L 29.839844 -30.925781 L 29.527344 -30.410156 C 28.339844 -31.132812 26.96875 -31.496094 25.410156 -31.496094 C 24.121094 -31.496094 23.019531 -31.242188 22.105469 -30.734375 L 22.101562 -30.730469 L 22.09375 -30.726562 C 21.121094 -30.214844 20.328125 -29.523438 19.714844 -28.65625 L 19.707031 -28.648438 L 19.699219 -28.636719 C 19.023438 -27.75 18.527344 -26.757812 18.214844 -25.660156 C 17.894531 -24.492188 17.734375 -23.292969 17.734375 -22.066406 Z M 16.535156 -22.066406 C 16.535156 -23.402344 16.707031 -24.710938 17.058594 -25.992188 C 17.414062 -27.234375 17.976562 -28.359375 18.746094 -29.367188 L 19.222656 -29.003906 L 18.734375 -29.347656 C 19.457031 -30.375 20.390625 -31.1875 21.535156 -31.789062 L 21.816406 -31.257812 L 21.523438 -31.785156 C 22.617188 -32.390625 23.910156 -32.695312 25.410156 -32.695312 C 27.191406 -32.695312 28.773438 -32.277344 30.152344 -31.4375 L 30.167969 -31.429688 C 31.523438 -30.542969 32.644531 -29.363281 33.53125 -27.890625 L 33.613281 -27.746094 L 33.613281 -15.199219 L 33.519531 -15.050781 C 32.730469 -13.839844 31.617188 -12.90625 30.183594 -12.246094 C 28.707031 -11.539062 27.226562 -11.183594 25.742188 -11.183594 C 24.140625 -11.183594 22.765625 -11.484375 21.617188 -12.089844 C 20.476562 -12.691406 19.515625 -13.53125 18.738281 -14.609375 L 19.222656 -14.960938 L 18.746094 -14.597656 C 17.972656 -15.605469 17.410156 -16.761719 17.054688 -18.0625 C 16.707031 -19.339844 16.535156 -20.675781 16.535156 -22.066406 Z M 16.535156 -22.066406 "/></g></g></g><g fill="#000000" fill-opacity="1"><g transform="translate(413.064522, 658.11343)"><g><path d="M 23.652344 1.269531 C 20.175781 1.269531 17.035156 0.699219 14.230469 -0.445312 C 11.421875 -1.59375 9.039062 -3.203125 7.085938 -5.269531 C 5.132812 -7.335938 3.640625 -9.804688 2.609375 -12.667969 C 1.585938 -15.460938 1.070312 -18.566406 1.070312 -21.980469 C 1.070312 -25.40625 1.726562 -28.636719 3.042969 -31.664062 C 4.355469 -34.636719 6.128906 -37.207031 8.355469 -39.378906 L 8.363281 -39.382812 L 8.367188 -39.390625 C 10.550781 -41.398438 13.132812 -42.890625 16.113281 -43.867188 C 19.074219 -44.777344 22.117188 -45.234375 25.242188 -45.234375 C 28.820312 -45.234375 32.0625 -44.71875 34.96875 -43.695312 C 37.898438 -42.605469 40.394531 -41.054688 42.460938 -39.046875 C 44.472656 -37.03125 46.050781 -34.59375 47.195312 -31.734375 C 48.28125 -28.871094 48.828125 -25.648438 48.828125 -22.066406 C 48.828125 -18.636719 48.167969 -15.4375 46.851562 -12.460938 C 45.539062 -9.4375 43.738281 -6.835938 41.453125 -4.664062 C 38.867188 -2.308594 36.078125 -0.726562 33.085938 0.078125 C 30.082031 0.871094 26.9375 1.269531 23.652344 1.269531 Z M 23.652344 0.0664062 C 26.832031 0.0664062 29.875 -0.316406 32.773438 -1.082031 C 35.578125 -1.835938 38.195312 -3.320312 40.625 -5.535156 C 42.792969 -7.59375 44.503906 -10.066406 45.753906 -12.945312 C 47 -15.765625 47.625 -18.808594 47.625 -22.066406 C 47.625 -25.503906 47.109375 -28.574219 46.082031 -31.285156 C 44.996094 -33.996094 43.511719 -36.296875 41.621094 -38.183594 C 39.675781 -40.074219 37.324219 -41.535156 34.570312 -42.5625 C 31.792969 -43.542969 28.683594 -44.03125 25.242188 -44.03125 C 22.238281 -44.03125 19.316406 -43.59375 16.484375 -42.722656 C 13.671875 -41.804688 11.234375 -40.398438 9.183594 -38.507812 L 8.777344 -38.949219 L 9.195312 -38.519531 C 7.078125 -36.453125 5.394531 -34.011719 4.144531 -31.1875 C 2.898438 -28.308594 2.273438 -25.242188 2.273438 -21.980469 C 2.273438 -18.710938 2.761719 -15.742188 3.742188 -13.074219 C 4.714844 -10.367188 6.121094 -8.042969 7.960938 -6.097656 C 9.792969 -4.152344 12.035156 -2.640625 14.6875 -1.558594 C 17.34375 -0.472656 20.332031 0.0664062 23.652344 0.0664062 Z M 24.90625 -12.386719 C 26.261719 -12.386719 27.453125 -12.644531 28.484375 -13.15625 C 29.46875 -13.625 30.324219 -14.296875 31.046875 -15.175781 C 31.722656 -16.007812 32.242188 -17 32.609375 -18.152344 L 33.179688 -17.96875 L 32.601562 -18.128906 C 32.921875 -19.300781 33.082031 -20.53125 33.082031 -21.816406 C 33.082031 -23.097656 32.921875 -24.328125 32.601562 -25.5 C 32.285156 -26.660156 31.8125 -27.683594 31.1875 -28.574219 L 31.675781 -28.917969 L 31.199219 -28.554688 C 30.527344 -29.429688 29.703125 -30.128906 28.722656 -30.644531 C 27.75 -31.15625 26.589844 -31.410156 25.242188 -31.410156 C 23.933594 -31.410156 22.761719 -31.175781 21.726562 -30.710938 C 20.644531 -30.195312 19.773438 -29.527344 19.105469 -28.707031 L 19.089844 -28.691406 C 18.363281 -27.859375 17.816406 -26.898438 17.453125 -25.804688 L 17.449219 -25.796875 L 17.449219 -25.789062 C 17.027344 -24.628906 16.816406 -23.386719 16.816406 -22.066406 C 16.816406 -19.351562 17.472656 -17.074219 18.792969 -15.226562 L 18.796875 -15.21875 L 18.804688 -15.210938 C 20.023438 -13.378906 22.0625 -12.4375 24.917969 -12.386719 Z M 24.894531 -11.183594 C 21.621094 -11.242188 19.257812 -12.363281 17.804688 -14.542969 L 18.304688 -14.878906 L 17.816406 -14.527344 C 16.347656 -16.582031 15.613281 -19.09375 15.613281 -22.066406 C 15.613281 -23.527344 15.847656 -24.90625 16.320312 -26.199219 L 16.882812 -25.992188 L 16.3125 -26.183594 C 16.730469 -27.429688 17.351562 -28.53125 18.1875 -29.480469 L 18.636719 -29.085938 L 18.171875 -29.464844 C 18.953125 -30.425781 19.972656 -31.207031 21.234375 -31.808594 C 22.425781 -32.34375 23.761719 -32.613281 25.242188 -32.613281 C 26.789062 -32.613281 28.136719 -32.308594 29.28125 -31.707031 C 30.417969 -31.109375 31.375 -30.300781 32.152344 -29.285156 L 32.160156 -29.273438 L 32.167969 -29.265625 C 32.878906 -28.261719 33.410156 -27.109375 33.761719 -25.816406 C 34.109375 -24.539062 34.285156 -23.207031 34.285156 -21.816406 C 34.285156 -20.421875 34.109375 -19.089844 33.761719 -17.8125 L 33.753906 -17.789062 C 33.339844 -16.488281 32.746094 -15.363281 31.972656 -14.410156 C 31.136719 -13.394531 30.152344 -12.621094 29.019531 -12.082031 C 27.820312 -11.484375 26.449219 -11.183594 24.90625 -11.183594 Z M 24.894531 -11.183594 "/></g></g></g><g clip-path="url(#b2b30f8378)"><path fill="#000000" d="M 447.089844 538.386719 L 444.675781 537.015625 C 443.867188 536.566406 442.976562 536.179688 442.085938 535.820312 C 436.242188 533.484375 429.28125 532.539062 422.839844 531.820312 C 413.425781 530.773438 404.394531 529.890625 395.273438 528.566406 C 380.9375 526.480469 364.777344 523.503906 351.550781 518.226562 L 346.230469 515.796875 C 346.683594 515.128906 347.378906 514.832031 348.113281 514.382812 C 348.851562 513.933594 349.464844 513.574219 350.183594 513.152344 C 353.46875 511.175781 358.578125 506.410156 360.71875 503.726562 L 373.265625 489.726562 C 375.285156 489.890625 380.273438 491.351562 382.386719 491.980469 L 390.679688 495.066406 C 396.386719 497.625 400.226562 499.1875 406.09375 502.734375 L 413.046875 507.15625 C 418.761719 510.960938 429.308594 519.347656 434.285156 524.339844 L 438.164062 528.054688 C 438.511719 528.402344 438.832031 528.679688 439.144531 529.046875 C 440.652344 530.847656 442 532.042969 443.691406 534.054688 C 444.921875 535.519531 446.054688 536.824219 447.101562 538.394531 Z M 386.59375 465.972656 C 386.484375 467.332031 383.554688 473.8125 382.910156 475.15625 C 382.605469 475.78125 382.570312 476.011719 382.210938 476.609375 C 381.925781 477.078125 381.78125 477.417969 381.53125 477.914062 C 379.4375 482.152344 376.894531 484.835938 374.71875 488.082031 C 376.269531 488.082031 379.621094 488.898438 381.246094 489.304688 C 382.339844 489.578125 383.140625 489.855469 384.1875 490.160156 C 390.726562 492.023438 396.855469 494.976562 402.90625 497.980469 L 410.144531 502.117188 C 412.726562 503.664062 414.621094 505.050781 417.015625 506.632812 C 417.796875 507.148438 418.523438 507.691406 419.222656 508.214844 C 419.917969 508.738281 420.644531 509.242188 421.40625 509.8125 L 434.917969 521.039062 C 435.257812 521.332031 435.5 521.617188 435.828125 521.949219 L 448.558594 535.765625 C 448.476562 534.738281 448.046875 533.320312 447.808594 532.234375 C 446.945312 528.320312 444.96875 521.636719 443.5 517.902344 L 437.738281 505.199219 C 435.855469 501.476562 432.171875 496.089844 429.628906 492.695312 C 429.03125 491.90625 428.480469 491.125 427.828125 490.371094 L 423.996094 485.957031 C 421.589844 482.804688 414.316406 476.726562 410.882812 474.347656 C 407.664062 472.113281 404.222656 469.941406 400.335938 468.40625 C 397.351562 467.222656 393.839844 466.089844 390.371094 466.007812 C 389.515625 465.988281 389.332031 465.816406 388.394531 465.832031 C 387.457031 465.851562 387.410156 466.007812 386.585938 466.007812 Z M 407.859375 468.773438 L 408.648438 469.296875 C 412.453125 471.589844 418.964844 476.304688 421.996094 479.367188 L 428.09375 485.636719 C 428.40625 485.976562 428.398438 486.039062 428.671875 486.371094 L 437.621094 498.367188 C 438.96875 500.417969 440.089844 502.476562 441.304688 504.574219 C 441.828125 505.464844 444.382812 510.558594 444.445312 511.332031 C 445.878906 511.660156 447.171875 512.066406 448.6875 512.359375 C 451.730469 512.964844 454.75 513.464844 457.957031 513.636719 C 458.820312 513.683594 459.703125 513.5625 460.546875 513.683594 C 462.851562 513.996094 464.535156 513.621094 466.527344 513.636719 C 469.054688 513.65625 473.921875 512.964844 476.265625 512.496094 C 485.957031 510.550781 499.6875 504.609375 509.359375 505.574219 C 510.378906 505.675781 511.410156 505.988281 512.347656 506.210938 C 512.035156 505.742188 511.636719 505.390625 511.1875 505.050781 C 510.738281 504.710938 510.5 504.445312 510.011719 504.085938 C 509.527344 503.726562 509.160156 503.414062 508.71875 503.074219 C 503.65625 499.1875 492.210938 492.960938 485.828125 490.351562 C 478.589844 487.390625 472.957031 484.890625 465.175781 482.316406 C 462.9375 481.570312 460.742188 480.828125 458.460938 480.128906 C 449.039062 477.242188 439.796875 475.101562 430.1875 472.957031 C 424.585938 471.707031 417.238281 470.320312 411.515625 469.371094 C 410.558594 469.214844 408.839844 468.785156 407.839844 468.757812 Z M 387.253906 464.152344 C 392.296875 462.972656 397.441406 464.160156 401.925781 465.960938 C 404.441406 466.972656 404.039062 466.449219 406.261719 466.742188 C 407.050781 466.84375 407.804688 466.910156 408.519531 466.953125 C 410.570312 467.082031 415.445312 467.820312 417.722656 468.140625 C 426.917969 469.425781 434.726562 471.230469 443.617188 473.078125 C 454.117188 475.257812 468.796875 480 478.835938 484.027344 C 481.777344 485.203125 486.863281 487.261719 489.566406 488.632812 L 493.136719 490.332031 C 498.804688 493.171875 505.757812 497.144531 510.609375 501.0625 C 511.132812 501.484375 511.4375 501.804688 511.941406 502.203125 C 513.125 503.121094 514.144531 504.507812 514.511719 504.746094 C 512.960938 498.074219 508.855469 491.167969 504.8125 485.753906 L 501.589844 481.726562 L 492.136719 472.046875 C 491.824219 471.773438 491.789062 471.800781 491.484375 471.542969 L 482.867188 464.664062 C 481.988281 464.003906 481.132812 463.398438 480.167969 462.753906 C 475.988281 459.96875 473.820312 458.707031 469.816406 456.28125 C 463.46875 452.4375 455.183594 448.992188 447.550781 447.722656 C 444.324219 447.1875 433.183594 445.835938 430.289062 445.867188 C 429.226562 445.867188 428.949219 445.707031 427.984375 445.691406 C 427.25 445.691406 426.394531 445.746094 425.679688 445.691406 C 417.835938 445.039062 404.761719 446.351562 397.195312 447.886719 L 391.691406 448.980469 C 391.058594 449.222656 391.242188 449.265625 391.078125 450.011719 C 390.5625 452.328125 387.980469 462.671875 387.265625 464.179688 Z M 202.652344 391.570312 C 202.652344 392.738281 202.550781 394.007812 202.722656 395.128906 L 203.734375 408.632812 C 203.890625 409.761719 203.964844 410.957031 204.082031 411.90625 C 204.082031 411.90625 207.070312 435.273438 207.398438 437.289062 C 208.234375 442.296875 209.449219 447.058594 210.828125 451.839844 C 211.109375 452.824219 211.367188 453.542969 211.632812 454.488281 C 212.242188 456.621094 212.875 457.835938 213.738281 459.636719 C 214.167969 460.546875 214.445312 461.226562 214.886719 462.109375 L 220.929688 473.878906 C 221.316406 474.621094 221.832031 475.476562 222.242188 476.195312 L 226.09375 483.0625 C 229.199219 488.621094 232.851562 494.433594 237.125 499.230469 C 240.789062 503.351562 244.453125 507.367188 248.496094 511.109375 C 250.984375 513.417969 253.761719 515.457031 256.597656 517.351562 L 260.980469 520.0625 C 264.066406 521.664062 267.316406 523.335938 270.808594 524.578125 C 272.691406 525.25 274.289062 525.828125 276.3125 526.332031 C 278.332031 526.839844 280.121094 527.214844 282.125 527.613281 C 293.542969 529.84375 309.324219 528.714844 319.355469 525.367188 C 321.898438 524.523438 324.433594 523.640625 326.804688 522.4375 C 332.527344 519.523438 339.730469 516.820312 344.945312 513.207031 C 345.699219 512.683594 346.175781 512.269531 346.957031 511.753906 C 350.292969 509.539062 351.679688 508.894531 354.730469 505.84375 C 355.894531 504.675781 357.082031 503.582031 358.191406 502.375 L 368.710938 490.636719 C 369.058594 490.1875 369.132812 490.148438 369.480469 489.753906 C 370.058594 489.101562 370.417969 488.476562 371.050781 487.859375 C 371.6875 487.246094 372.070312 486.738281 372.648438 485.992188 C 378.371094 478.695312 380.136719 474.519531 383.507812 466.007812 C 385.546875 460.859375 388.082031 449.828125 389.210938 444.171875 C 390.765625 436.414062 391.847656 428.371094 392.921875 420.5 C 393.207031 418.394531 393.410156 416.328125 393.511719 414.167969 L 393.722656 410.914062 C 394.089844 408.246094 393.839844 404.871094 393.839844 402.125 C 393.839844 392.601562 391.839844 383.066406 389.589844 374.046875 L 386.253906 361.214844 C 385.160156 357.050781 383.765625 352.839844 382.625 348.675781 C 382.074219 346.660156 381.292969 344.59375 380.625 342.589844 C 379.292969 338.597656 377.664062 334.710938 376.34375 330.710938 C 376.019531 329.734375 375.582031 328.667969 375.230469 327.703125 C 372.0625 318.960938 368.589844 310.164062 365.183594 301.632812 C 363.65625 297.816406 362.195312 293.945312 360.378906 290.269531 C 359.929688 289.351562 359.515625 288.375 359.054688 287.464844 C 358.597656 286.554688 354.996094 279.484375 354.996094 279.484375 C 353.25 276.011719 351.089844 272.601562 348.941406 269.382812 L 344.0625 262.222656 C 343.558594 261.449219 342.972656 260.640625 342.421875 259.914062 L 332.152344 245.941406 C 330.9375 244.332031 329.835938 242.953125 328.59375 241.417969 L 326.710938 239.171875 C 326.335938 238.730469 326.078125 238.648438 325.648438 238.261719 C 322.285156 235.277344 318.722656 232.914062 314.414062 231.359375 C 311.226562 230.199219 308.3125 230.0625 304.832031 230.0625 C 303.472656 230.0625 298.347656 230.796875 297.457031 231.589844 C 296.363281 232.554688 295.71875 234.292969 292.570312 235.605469 C 288.296875 237.390625 283.4375 236.882812 279.609375 234.355469 C 279.285156 234.144531 279.058594 233.996094 278.753906 233.730469 C 278.46875 233.472656 278.378906 233.199219 277.964844 233.199219 C 276.632812 233.199219 275.640625 233.398438 274.390625 233.574219 C 267.199219 234.621094 263.800781 234.21875 257.785156 238.730469 C 257.40625 239.015625 257.085938 239.230469 256.746094 239.511719 C 255.121094 240.902344 253.546875 242.519531 252.125 244.121094 C 249.222656 247.390625 246.871094 250.996094 244.621094 254.746094 C 241.339844 260.199219 238.886719 266.054688 236.050781 271.734375 C 234.195312 275.441406 231.464844 280.019531 229.886719 283.714844 C 229.511719 284.597656 229.050781 285.3125 228.710938 286.160156 C 228.023438 287.871094 227.242188 289.46875 226.496094 291.207031 C 222.804688 299.820312 219.792969 308.804688 216.375 317.527344 C 213.222656 325.554688 210.613281 334.460938 208.898438 343.03125 C 208.703125 343.984375 208.503906 345.125 208.289062 346.046875 C 207.832031 348.066406 207.519531 350.117188 207.113281 352.132812 L 205.003906 364.53125 C 203.488281 373.617188 202.652344 382.074219 202.652344 391.542969 Z M 200.335938 388.269531 C 200.335938 398.824219 200.886719 402.566406 201.832031 412.503906 C 202.027344 414.496094 202.3125 416.925781 202.597656 418.835938 C 203.191406 422.964844 203.660156 427.054688 204.238281 431.046875 C 206.039062 443.457031 208.007812 452.796875 212.910156 464.269531 C 215.613281 470.59375 218.027344 474.511719 221.160156 480.257812 C 221.507812 480.890625 222.28125 482.003906 222.417969 482.621094 C 221.691406 482.683594 216.273438 484.476562 214.933594 484.855469 C 212.324219 485.597656 209.605469 486.222656 206.886719 486.691406 C 197.921875 488.253906 188.679688 488.054688 179.566406 488.054688 C 164.945312 488.054688 152.140625 484.3125 139.25 479.402344 C 130.195312 475.953125 122.929688 472.039062 115.828125 466.0625 C 115.25 465.574219 114.789062 465.199219 114.257812 464.664062 C 113.898438 464.308594 113.816406 464.289062 113.449219 463.996094 L 103.621094 453.707031 L 96.757812 445.238281 C 95.003906 442.894531 94.65625 442.125 93.148438 439.613281 C 86.40625 428.332031 83.566406 421.75 81.425781 408.292969 C 81.125 406.40625 81.042969 404.761719 80.777344 402.851562 C 80.507812 400.9375 80.535156 399.136719 80.261719 397.269531 C 80.113281 396.285156 80.214844 395.292969 80.058594 394.300781 L 80.058594 385.789062 C 80.058594 377.082031 85.605469 370.003906 89.980469 363.421875 C 91.925781 360.496094 94.582031 356.835938 96.8125 354.089844 C 101.609375 348.195312 106.496094 344.371094 112.859375 340.289062 L 131.425781 329.011719 C 133.125 327.980469 136.789062 326.34375 138.710938 325.582031 C 141.410156 324.503906 143.851562 323.734375 146.882812 322.867188 C 152.652344 321.230469 158.503906 320.292969 165.035156 319.421875 C 178.960938 317.554688 192.253906 317.65625 206.105469 319.992188 C 207.085938 320.15625 208.0625 320.351562 209.164062 320.5625 C 210.117188 320.746094 211.367188 321.058594 212.222656 321.121094 L 208.859375 332.4375 C 207.316406 338.578125 205.71875 346.726562 204.664062 352.984375 C 202.511719 365.746094 200.355469 374.765625 200.355469 388.269531 Z M 330.222656 239.136719 C 333.574219 232.800781 334.035156 231.46875 338.597656 225.253906 C 338.984375 224.730469 339.324219 224.261719 339.738281 223.757812 L 342.859375 219.949219 C 343.164062 219.59375 343.183594 219.5 343.53125 219.132812 C 345.753906 216.796875 347.105469 215.078125 349.714844 212.78125 L 354.289062 209.113281 C 361.746094 203.84375 371.996094 201.03125 381.15625 201.03125 C 389.441406 201.03125 394.648438 201.941406 402.035156 205.214844 C 402.355469 205.351562 402.652344 205.480469 402.933594 205.628906 C 403.21875 205.773438 403.441406 205.921875 403.789062 206.097656 C 408.171875 208.300781 409.761719 209.820312 413.261719 213.285156 C 413.507812 213.535156 413.691406 213.691406 413.914062 213.957031 C 414.214844 214.324219 414.214844 214.40625 414.574219 214.773438 C 416.402344 216.648438 417.980469 218.765625 419.5625 220.832031 L 421.894531 223.941406 C 423.503906 226.074219 424.863281 228.335938 426.285156 230.597656 C 427.039062 231.792969 427.625 232.875 428.359375 234.125 C 431.125 238.789062 433.394531 243.75 435.820312 248.605469 L 441.09375 259.820312 C 441.726562 261.144531 442.222656 262.40625 442.800781 263.71875 C 443.929688 266.285156 444.949219 268.859375 446.023438 271.550781 C 447.101562 274.246094 448.035156 276.800781 449.113281 279.511719 C 449.652344 280.882812 450.066406 282.144531 450.570312 283.492188 L 457.78125 303.996094 C 460.59375 312.433594 463.46875 320.820312 465.203125 329.5625 C 467.089844 339.019531 468.152344 348.820312 469.496094 358.429688 C 470.386719 364.78125 471.175781 371.695312 471.148438 378.882812 C 471.148438 379.976562 471.324219 380.308594 471.324219 381.347656 C 471.324219 382.46875 471.195312 383.113281 471.148438 383.996094 C 471.101562 384.8125 471.148438 385.796875 471.148438 386.632812 C 471.15625 388.894531 470.800781 392.203125 470.53125 394.273438 C 470.304688 396.082031 470.109375 397.582031 469.851562 399.199219 C 468.042969 410.230469 463.183594 422.128906 458.066406 431.625 C 457.40625 432.855469 456.753906 433.867188 456.082031 435.089844 C 455.726562 435.742188 455.402344 436.230469 455.019531 436.828125 C 454.632812 437.425781 454.347656 437.914062 453.933594 438.546875 L 450.699219 443.558594 C 450.609375 443.714844 450.589844 443.769531 450.433594 443.953125 L 449.378906 445.046875 L 443.1875 444.15625 C 437.472656 443.375 428.582031 442.90625 422.675781 442.90625 C 412.636719 442.90625 402.871094 444.089844 393.402344 446.765625 C 392.722656 446.960938 392.253906 447.226562 391.683594 447.355469 C 391.703125 446.34375 393.234375 439.007812 393.445312 437.738281 C 397.046875 416.050781 398.601562 398.90625 393.527344 377.210938 C 389.351562 359.347656 386.730469 350.027344 380.578125 332.761719 C 378.03125 325.636719 375.304688 318.824219 372.707031 311.773438 L 368.683594 301.449219 C 367.148438 297.605469 365.679688 293.917969 363.941406 290.1875 C 358.726562 278.980469 355.4375 273.738281 348.796875 263.773438 C 346.902344 260.925781 344.753906 258.25 342.703125 255.519531 C 342.703125 255.519531 337.476562 248.828125 336.441406 247.4375 C 336.136719 247.035156 335.925781 246.804688 335.640625 246.425781 C 335.375 246.078125 335.152344 245.765625 334.859375 245.398438 C 334.289062 244.707031 333.8125 244.074219 333.214844 243.410156 C 332.492188 242.613281 331.753906 241.175781 331.011719 240.175781 C 330.71875 239.78125 330.453125 239.523438 330.210938 239.164062 Z M 286.875 234.191406 C 285.386719 234.191406 284.667969 234.035156 283.347656 233.601562 L 282.429688 233.207031 C 286.222656 233.207031 286.875 233.125 290.355469 232.730469 C 291.21875 232.628906 292.210938 232.398438 292.984375 232.390625 C 292.246094 233.398438 288.820312 234.199219 286.882812 234.199219 Z M 329.074219 237.65625 L 325.902344 234.558594 C 324.417969 233.234375 322.828125 231.992188 321.054688 231 C 320.53125 230.707031 320.164062 230.46875 319.6875 230.21875 L 316.808594 228.96875 C 309.527344 226.183594 303.804688 226.542969 296.308594 228.601562 C 292.265625 229.714844 285.449219 230.570312 280.785156 230.550781 C 275.21875 230.523438 270.726562 231.167969 265.289062 232.527344 C 259.085938 234.082031 255.332031 237.296875 251.070312 241.554688 C 248.15625 244.46875 245.757812 247.886719 243.601562 251.402344 C 242.8125 252.679688 242.113281 253.882812 241.394531 255.132812 C 238.511719 260.132812 236.179688 265.390625 233.589844 270.578125 L 230.621094 276.183594 C 228.941406 279.613281 227.386719 282.269531 225.726562 285.96875 C 222.363281 293.460938 217.238281 306.496094 214.382812 315.191406 C 213.96875 316.441406 212.984375 318.363281 212.875 319.625 C 212.101562 319.558594 211.265625 319.136719 210.441406 318.925781 C 205.996094 317.792969 201.265625 316.957031 196.671875 316.367188 C 193.613281 315.984375 190.5625 315.808594 187.484375 315.828125 C 186.191406 315.828125 185.613281 315.652344 184.351562 315.660156 C 180.191406 315.6875 175.875 315.957031 171.660156 316.15625 C 168.699219 316.296875 162.628906 317.050781 159.972656 317.5 C 151.761719 318.878906 141.871094 320.875 134.402344 324.570312 L 117.746094 334.128906 C 113.089844 336.917969 108.183594 339.65625 103.960938 343.09375 C 103.316406 343.617188 102.738281 344.03125 102.140625 344.574219 L 97.035156 349.355469 C 95.410156 350.964844 93.957031 352.800781 92.589844 354.640625 C 87.589844 361.34375 80.078125 371.308594 77.816406 379.113281 C 76.402344 383.976562 76.898438 389.179688 76.890625 394.179688 C 76.878906 398.300781 77.652344 405.027344 78.304688 409.101562 C 79.445312 416.226562 80.988281 423.101562 84.148438 429.484375 L 87.433594 435.917969 C 88.398438 437.601562 89.316406 439.394531 90.457031 440.984375 L 92.679688 443.703125 C 92.984375 444.046875 93.183594 444.164062 93.480469 444.558594 C 93.746094 444.917969 93.882812 445.167969 94.140625 445.550781 C 95.867188 448.144531 97.632812 450.710938 99.605469 453.109375 L 104.042969 458.570312 C 106.339844 461.308594 109.34375 464.492188 112.125 466.816406 L 115.542969 469.832031 C 116.847656 470.863281 117.914062 471.746094 119.300781 472.671875 C 121.953125 474.445312 124.519531 476.15625 127.402344 477.601562 L 134.164062 480.734375 C 142.972656 484.6875 156.941406 489 167.039062 490.222656 C 178.5 491.609375 196.707031 491.316406 207.59375 489.503906 C 210.605469 489.007812 213.417969 488.320312 216.191406 487.546875 L 222.144531 485.589844 C 222.839844 485.339844 223.402344 484.890625 223.933594 484.742188 C 226.167969 488.972656 231.265625 496.585938 234.175781 500.226562 C 234.175781 500.226562 243.492188 510.667969 243.839844 511.007812 L 248.71875 515.367188 C 251.417969 517.65625 254.300781 519.75 257.351562 521.570312 C 263.074219 524.992188 269.054688 527.628906 275.476562 529.496094 C 289.65625 533.625 309.828125 532.695312 322.5625 527.675781 C 324.535156 526.894531 326.328125 526.214844 328.117188 525.324219 C 329.910156 524.429688 331.589844 523.429688 333.5 522.785156 C 335.410156 522.140625 338.523438 520.632812 340.226562 519.613281 C 340.949219 519.179688 343.511719 517.554688 344.109375 517.398438 C 344.375 518.410156 346.746094 519.679688 347.683594 520.089844 C 348.300781 520.359375 348.574219 520.476562 349.164062 520.761719 C 356.429688 524.285156 367.054688 526.847656 375.140625 528.585938 C 377.566406 529.109375 379.960938 529.449219 382.367188 529.929688 C 387.144531 530.882812 392.070312 531.4375 397.09375 532.179688 C 404.632812 533.292969 412.121094 534.175781 419.753906 534.910156 C 426.800781 535.582031 435.03125 536.527344 441.292969 538.929688 C 443.453125 539.753906 445.070312 540.621094 446.832031 541.796875 C 448.074219 542.625 449.425781 543.515625 450.445312 544.617188 C 450.855469 545.070312 450.8125 545.785156 451.417969 545.785156 C 455.164062 545.785156 450.304688 527.96875 449.835938 526.085938 C 449.027344 522.859375 447.898438 519.835938 446.789062 516.773438 C 446.566406 516.175781 446.300781 515.597656 446.144531 514.941406 C 448.800781 515.558594 451.105469 516.238281 453.84375 516.644531 C 461.578125 517.773438 471.296875 517.195312 478.550781 515.539062 C 483.191406 514.484375 487.257812 513.011719 491.496094 511.660156 C 497.1875 509.851562 506.511719 506.925781 512.355469 508.894531 C 513.308594 509.214844 514.429688 509.695312 515.09375 510.28125 C 516.671875 511.671875 516.269531 512.222656 517.195312 512.46875 C 518.527344 509.953125 517.234375 502.855469 516.515625 500.609375 C 514.144531 493.136719 509.71875 486.636719 504.859375 480.605469 C 503.234375 478.59375 498.898438 473.847656 497.207031 472.433594 L 495.148438 470.53125 C 494.710938 470.144531 494.527344 470.0625 494.085938 469.621094 C 491.3125 466.863281 487.203125 464.09375 484.027344 461.707031 L 476.890625 456.96875 C 474.511719 455.40625 471.957031 453.84375 469.402344 452.585938 C 464.480469 450.140625 460.996094 448.339844 455.660156 446.546875 C 454.835938 446.269531 453.28125 445.726562 452.425781 445.664062 C 458.324219 436.847656 461.375 432.195312 465.472656 422.257812 C 465.96875 421.042969 466.472656 419.828125 467.003906 418.507812 C 471.378906 407.574219 474.023438 396.359375 474.023438 383.792969 C 474.023438 375.878906 473.746094 370.425781 473.023438 362.695312 C 472.554688 357.703125 471.609375 352.664062 471.054688 347.664062 C 470 338.082031 468.363281 328.484375 465.671875 319.226562 C 463.148438 310.523438 460.234375 302.21875 457.398438 293.699219 C 454.558594 285.175781 450.726562 274.511719 447.035156 265.960938 L 441.9375 254.242188 C 441.671875 253.671875 441.5625 253.3125 441.277344 252.75 C 440.992188 252.191406 440.789062 251.804688 440.585938 251.300781 C 440.585938 251.300781 434.550781 238.933594 434.304688 238.457031 C 434.039062 237.941406 433.816406 237.664062 433.53125 237.085938 C 432.144531 234.308594 430.585938 231.625 428.957031 228.960938 C 428.65625 228.464844 428.417969 228.167969 428.105469 227.664062 C 425.925781 224.085938 422.75 219.765625 420.003906 216.804688 L 417.042969 213.496094 C 415.484375 211.621094 413.480469 209.746094 411.53125 208.292969 C 409.585938 206.839844 405.894531 204.753906 403.699219 203.429688 C 394.402344 197.867188 382.550781 197.390625 371.878906 199.238281 C 364.566406 200.507812 357.503906 203.300781 351.558594 207.769531 C 349.941406 208.984375 348.242188 210.335938 346.820312 211.769531 C 345.882812 212.714844 344.78125 213.644531 343.972656 214.699219 L 339.921875 219.390625 C 337.332031 222.691406 335 225.945312 332.8125 229.59375 C 331.800781 231.277344 329.292969 235.746094 329.136719 237.628906 Z M 329.074219 237.65625 " fill-opacity="1" fill-rule="evenodd"/></g><path fill="#000000" d="M 252.429688 407.410156 C 252.429688 397.628906 253.199219 389.511719 255.332031 380.125 C 257.066406 372.492188 259.464844 365.828125 262.320312 359.402344 C 264.074219 355.457031 267.261719 349.769531 269.851562 346.320312 L 275.464844 339.894531 C 276.394531 338.964844 279.203125 336.816406 280.351562 336.042969 C 282.796875 334.414062 287.066406 332.015625 290.171875 332.015625 C 297.851562 332.015625 301.964844 333.625 308.195312 336.742188 L 315.984375 341.320312 C 330.203125 350.769531 337.367188 364.429688 342.695312 380.742188 C 345.367188 388.941406 347.207031 400.40625 347.207031 409.386719 C 347.207031 416.21875 347.269531 420.015625 346.269531 426.925781 C 345.707031 430.789062 345.082031 434.21875 344.210938 437.730469 C 342.53125 444.46875 339.855469 450.746094 335.953125 455.363281 C 335.6875 455.675781 335.496094 455.804688 335.226562 456.117188 C 334.898438 456.511719 334.859375 456.628906 334.484375 457.015625 C 333.859375 457.652344 333.355469 457.964844 332.746094 458.578125 C 330 461.394531 324.617188 464.5625 321.164062 466.292969 L 316.820312 468.378906 C 314.109375 469.675781 312.503906 470.042969 309.5 470.621094 C 301.726562 472.121094 296.207031 471.992188 288.777344 469.003906 C 285.449219 467.664062 282.429688 465.972656 279.65625 464.113281 L 276.652344 462 C 272.304688 458.882812 268.367188 454.835938 265.160156 450.570312 C 256 438.371094 252.417969 422.945312 252.417969 407.402344 Z M 249.296875 403.945312 C 249.296875 417.496094 249.710938 421.449219 253.089844 433.804688 C 254.292969 438.1875 257.085938 444.285156 259.582031 448.089844 C 260.089844 448.851562 260.410156 449.449219 260.933594 450.203125 L 263.945312 454.285156 C 266.59375 457.53125 269.441406 460.28125 272.683594 462.863281 C 279.296875 468.132812 287.820312 473.011719 296.445312 474.21875 C 300.496094 474.777344 305.117188 474.246094 308.902344 473.5 C 310.066406 473.269531 310.480469 473.03125 311.703125 472.839844 C 314.046875 472.460938 315.027344 472.351562 317.261719 471.476562 C 323.882812 468.867188 327.546875 466.835938 332.941406 462.585938 C 335.164062 460.832031 338.140625 457.742188 339.839844 455.472656 C 346.699219 446.304688 348.546875 434.804688 349.960938 423.699219 C 350.484375 419.628906 350.339844 413.972656 350.339844 409.726562 C 350.339844 400.128906 348.390625 389.308594 345.78125 380.464844 C 343.042969 371.199219 337.488281 358.472656 330.929688 350.953125 C 325.058594 344.234375 321.292969 341.21875 313.558594 336.503906 C 313.054688 336.199219 312.714844 336.035156 312.164062 335.757812 L 307.871094 333.617188 C 302.417969 331.28125 299.300781 330.03125 292.660156 330.03125 C 289.554688 330.03125 283.722656 331.859375 281.234375 333.109375 C 279.460938 333.992188 278.257812 334.738281 276.742188 335.878906 L 273.746094 338.324219 C 273.324219 338.734375 273.097656 338.808594 272.671875 339.222656 L 270.035156 342.035156 C 257.167969 356.636719 249.304688 384.316406 249.304688 403.933594 Z M 249.296875 403.945312 " fill-opacity="1" fill-rule="evenodd"/><path fill="#000000" d="M 385.445312 420.105469 C 385.445312 428.867188 385.417969 430.484375 383.9375 439.382812 C 381.238281 455.621094 375.257812 470.90625 365.898438 483.851562 C 364.492188 485.800781 362.398438 488.566406 360.753906 490.414062 L 354.984375 496.363281 C 354.5625 496.769531 354.34375 496.859375 353.910156 497.265625 L 350.632812 499.921875 C 350.457031 500.050781 340.546875 507.039062 342.742188 507.039062 C 343.769531 507.039062 347.214844 504.96875 348.234375 504.453125 C 349.851562 503.636719 351.753906 502.414062 353.195312 501.335938 C 355.316406 499.746094 356.035156 498.917969 357.59375 497.660156 C 359.035156 496.5 360.3125 494.902344 361.5625 493.550781 C 367.109375 487.554688 372.640625 479.335938 376.304688 472.011719 C 379.972656 464.683594 381.632812 459.664062 384.050781 451.390625 C 386.464844 443.117188 388.230469 432.03125 388.230469 423.242188 C 388.230469 417.375 387.523438 411.960938 386.941406 406.710938 C 386.363281 401.460938 385.96875 395.9375 385.398438 390.4375 C 384.003906 376.824219 380.851562 358.234375 377.078125 345.152344 C 376.378906 342.746094 375.753906 340.65625 374.984375 338.339844 C 374.984375 338.339844 370.757812 326.160156 370.410156 325.101562 C 369.703125 322.980469 368.765625 320.753906 367.929688 318.675781 C 366.972656 316.296875 363.640625 307.964844 361.691406 306.9375 C 361.746094 307.636719 365.558594 317.804688 366.117188 319.496094 C 366.117188 319.496094 371.730469 336.660156 372.464844 338.875 L 377.609375 359.46875 C 379.859375 369.570312 382.238281 386.027344 383.132812 396.664062 C 383.34375 399.191406 383.71875 401.839844 383.949219 404.421875 L 384.839844 412.109375 C 385.152344 414.351562 385.425781 417.882812 385.425781 420.097656 Z M 385.445312 420.105469 " fill-opacity="1" fill-rule="evenodd"/><path fill="#000000" d="M 211.386719 431.984375 C 211.875 431.109375 211.011719 425.511719 210.84375 424.28125 C 210.292969 420.199219 208.730469 406.710938 208.75 403.117188 C 208.769531 400.5625 208.4375 398.253906 208.722656 395.671875 L 208.90625 382.332031 C 208.90625 381.421875 209.035156 381.273438 209.082031 380.519531 C 209.226562 377.855469 209.042969 375.234375 209.367188 372.890625 C 209.503906 371.867188 209.566406 367.503906 209.835938 365.609375 L 210.660156 358.675781 C 212.527344 346.007812 216.042969 332.992188 219.855469 321.195312 C 222.398438 313.324219 225.21875 305.972656 228.296875 298.625 C 231.375 291.28125 234.523438 284.21875 238.035156 277.195312 C 238.871094 275.523438 239.695312 273.609375 240.632812 272.039062 L 249 257.15625 C 249.488281 256.347656 249.957031 255.574219 250.453125 254.8125 C 250.976562 254.011719 251.4375 253.203125 251.96875 252.367188 C 253.871094 249.40625 258.730469 242.457031 261.878906 240.835938 C 262.503906 240.515625 262.808594 240.589844 262.980469 239.953125 C 259.675781 240.726562 256.902344 242.996094 254.835938 245.65625 C 254.484375 246.105469 254.246094 246.289062 253.917969 246.710938 C 251.75 249.515625 250.949219 250.425781 248.875 253.542969 C 245.824219 258.121094 244.042969 261.375 241.359375 265.816406 L 231.394531 285.535156 C 231.125 286.058594 231.035156 286.378906 230.785156 286.914062 C 229.464844 289.753906 225.054688 299.929688 223.730469 303.609375 C 223.042969 305.511719 222.234375 307.351562 221.546875 309.335938 L 219.488281 315.191406 C 213.664062 331.328125 209.082031 349.492188 207.300781 366.5 L 206.773438 374.066406 C 206.5 379.140625 206.445312 384.289062 206.445312 389.574219 L 206.269531 401.296875 L 207.214844 412.226562 C 208.023438 418.292969 209.035156 423.140625 210.246094 428.988281 L 210.855469 431.347656 C 211.109375 432.019531 210.925781 431.808594 211.386719 431.972656 Z M 211.386719 431.984375 " fill-opacity="1" fill-rule="evenodd"/><path fill="#000000" d="M 256.875 394.207031 C 256.875 400.304688 256.875 402.398438 257.5625 408.695312 C 257.894531 411.730469 258.433594 414.976562 259.003906 417.816406 C 259.703125 421.308594 260.261719 422.890625 261.21875 426.15625 C 261.59375 427.421875 262.992188 431.746094 263.761719 432.847656 L 264.453125 433.472656 C 264.984375 432.527344 263.222656 425.925781 262.964844 424.894531 C 262.3125 422.21875 261.789062 419.5 261.320312 416.648438 C 260.851562 413.800781 260.4375 411.023438 260.152344 408.089844 C 258.757812 393.59375 259.234375 384.804688 264.304688 370.8125 C 266.140625 365.726562 267.769531 362.464844 270.222656 357.757812 L 273.847656 351.816406 C 274.472656 350.871094 275.078125 349.898438 275.777344 348.96875 C 276.476562 348.039062 277.128906 347.175781 277.828125 346.238281 L 280.039062 343.664062 C 280.425781 343.167969 280.773438 342.917969 281.242188 342.550781 C 281.390625 342.433594 281.226562 342.53125 281.527344 342.339844 C 282.417969 341.789062 282.375 342.210938 282.585938 341.421875 C 280.683594 341.421875 279.625 342.285156 278.496094 343.269531 C 277.769531 343.914062 277.359375 344.078125 276.550781 345.117188 C 276.082031 345.722656 275.824219 345.886719 275.375 346.414062 L 272.148438 350.605469 C 270.707031 352.515625 269.613281 354.449219 268.355469 356.542969 C 267.097656 358.640625 266.058594 360.800781 264.949219 363.023438 C 260.621094 371.65625 256.875 384.371094 256.875 394.199219 Z M 256.875 394.207031 " fill-opacity="1" fill-rule="evenodd"/><path fill="#000000" d="M 212.699219 439.082031 C 212.699219 445.625 216.605469 457.695312 218.84375 463.285156 C 220.304688 466.925781 221.738281 470.207031 223.410156 473.566406 C 226.265625 479.28125 230.871094 486.546875 234.964844 491.695312 C 237.695312 495.121094 238.761719 496.117188 242.074219 499.425781 C 246.667969 504.023438 249.699219 505.667969 254.945312 508.820312 C 256.074219 509.5 258.574219 511.0625 260.007812 511.183594 C 259.949219 510.503906 259.75 510.492188 259.308594 510.0625 C 258.417969 509.199219 257.1875 508.371094 256.195312 507.570312 C 254.015625 505.824219 248.515625 501.890625 246.863281 500.253906 L 244.886719 498.441406 C 244.519531 498.074219 239.429688 492.675781 239.429688 492.675781 C 235.480469 487.769531 234.3125 486.425781 230.640625 480.6875 C 228.839844 477.886719 227.984375 476.175781 226.515625 473.757812 C 225.550781 472.167969 224.851562 470.492188 224.027344 468.828125 C 219.210938 459.214844 216.605469 449.957031 213.671875 439.761719 C 213.261719 438.335938 213.460938 438.65625 212.867188 438.585938 C 212.753906 438.785156 212.699219 438.757812 212.699219 439.082031 Z M 212.699219 439.082031 " fill-opacity="1" fill-rule="evenodd"/><path fill="#000000" d="M 302.207031 232.546875 C 302.792969 232.828125 304.328125 233.050781 305.136719 233.234375 C 306.101562 233.464844 307.035156 233.628906 308.039062 233.960938 C 312.410156 235.402344 317.554688 239.652344 320.621094 243.136719 L 323.257812 245.941406 C 323.625 246.335938 323.691406 246.519531 324.085938 246.933594 L 333.59375 259.363281 C 337.816406 265.714844 344.074219 275.9375 347.425781 281.976562 L 349.355469 285.488281 C 350.523438 287.75 353.175781 292.585938 354.589844 294.765625 C 354.921875 295.28125 354.984375 295.546875 355.621094 295.722656 C 355.621094 293.9375 352.324219 287.59375 351.476562 285.515625 C 349.730469 281.195312 343.722656 270.753906 341.371094 266.917969 L 337.222656 260.34375 C 335.429688 257.597656 330.550781 250.71875 328.128906 248 C 324.332031 243.742188 323.902344 242.953125 319.390625 238.757812 C 315.753906 235.375 310.492188 231.542969 304.851562 231.542969 C 303.507812 231.542969 302.316406 231.324219 302.214844 232.535156 Z M 302.207031 232.546875 " fill-opacity="1" fill-rule="evenodd"/><path fill="#000000" d="M 407.527344 461.675781 C 408.273438 462.035156 416.417969 461.878906 418.0625 462.019531 C 421.363281 462.285156 424.816406 462.660156 427.9375 463.183594 C 439.496094 465.132812 443.8125 466.199219 454.273438 469.65625 C 457.921875 470.863281 462.511719 472.8125 466.222656 474.191406 C 467.621094 474.703125 468.980469 475.164062 470.320312 475.699219 C 471.664062 476.230469 473.023438 476.699219 474.296875 477.160156 C 475.308594 477.527344 477.84375 478.925781 478.890625 478.335938 C 478.019531 477.039062 474.4375 475.367188 472.902344 474.59375 C 467.070312 471.671875 458.121094 468.261719 451.839844 466.144531 C 443.886719 463.46875 427.515625 460.023438 418.558594 460.023438 C 415.757812 460.023438 411.074219 459.820312 408.519531 460.703125 C 407.976562 460.886719 407.574219 460.941406 407.519531 461.675781 Z M 407.527344 461.675781 " fill-opacity="1" fill-rule="evenodd"/><path fill="#000000" d="M 365.824219 213.238281 C 369.820312 209.765625 371.464844 210.234375 375.882812 211.261719 C 375.214844 211.84375 372.21875 212.523438 371.402344 212.714844 C 369.546875 213.148438 368.085938 213.238281 365.824219 213.238281 Z M 378.355469 210.105469 C 377.289062 209.394531 377.28125 208.871094 374.660156 208.191406 C 373.144531 207.796875 371.144531 207.75 369.746094 208.082031 C 367.203125 208.671875 363.8125 211.144531 363.363281 213.074219 C 361.121094 213.074219 357.484375 211.75 356.601562 211.75 C 356.226562 211.75 356.410156 211.804688 355.941406 211.914062 C 355.941406 213.230469 356.59375 213.542969 357.476562 214.011719 C 358.355469 214.480469 359.292969 214.738281 360.25 215.03125 C 366.644531 217 372.761719 216.023438 378.585938 213.128906 C 380.007812 212.421875 381.726562 211.4375 382.773438 210.398438 C 386.886719 206.316406 387.238281 203.632812 381.136719 208.429688 C 380.367188 209.039062 379.347656 209.875 378.363281 210.105469 Z M 378.355469 210.105469 " fill-opacity="1" fill-rule="evenodd"/><path fill="#000000" d="M 275.503906 517.113281 C 275.503906 518.730469 277.394531 519.273438 279.480469 520.0625 C 285.863281 522.464844 298.90625 523.089844 306.375 522.113281 C 308.828125 521.792969 310.601562 521.699219 312.695312 521.011719 C 314.496094 520.421875 316.296875 519.761719 317.921875 518.980469 C 318.234375 518.832031 323.828125 516.285156 321.660156 516.285156 C 320.054688 516.285156 317.574219 517.085938 315.984375 517.535156 C 315.066406 517.800781 314.175781 518.015625 313.382812 518.234375 C 309.757812 519.226562 308.496094 519.070312 304.96875 519.539062 C 302.996094 519.796875 297.785156 520 295.757812 519.769531 C 294.691406 519.648438 293.652344 519.816406 292.578125 519.648438 L 286.542969 519.089844 C 284.667969 518.933594 282.6875 518.613281 280.957031 518.253906 C 279.351562 517.921875 277.257812 517.113281 275.511719 517.113281 Z M 275.503906 517.113281 " fill-opacity="1" fill-rule="evenodd"/><path fill="#000000" d="M 284.074219 454.921875 C 283.917969 453 280.65625 447.941406 279.617188 445.847656 L 277.644531 442.050781 C 277.203125 441.167969 276.75 440.433594 276.265625 439.464844 C 271.257812 429.445312 269.625 420.296875 267.089844 409.386719 L 266.757812 409.386719 C 266.492188 410.542969 266.125 411.253906 266.355469 412.75 L 266.703125 416.363281 C 268.449219 428.34375 271.765625 438.546875 278.488281 448.449219 C 278.800781 448.898438 279.003906 449.136719 279.316406 449.597656 L 282.714844 454.113281 C 283.027344 454.496094 283.449219 454.855469 284.0625 454.910156 Z M 284.074219 454.921875 " fill-opacity="1" fill-rule="evenodd"/><path fill="#000000" d="M 331.875 401.304688 C 331.875 405.46875 332.207031 408.953125 332.207031 413.019531 C 332.207031 419.195312 331.644531 425.558594 330.746094 430.863281 C 329.742188 436.792969 329.515625 437.453125 328.246094 442.710938 C 327.816406 444.496094 327.621094 445.222656 327.75 446.839844 C 328.449219 446.785156 328.667969 446.425781 328.964844 445.910156 C 333.242188 438.253906 334.511719 424.777344 334.511719 415.996094 C 334.511719 411.472656 334.125 405.78125 333.058594 401.609375 C 332.875 400.902344 332.582031 400.441406 332.527344 399.835938 L 332.03125 399.835938 C 332.011719 400.578125 331.867188 400.488281 331.867188 401.316406 Z M 331.875 401.304688 " fill-opacity="1" fill-rule="evenodd"/><path fill="#000000" d="M 382.808594 482.132812 C 383.011719 482.90625 383.65625 482.757812 385.1875 483.382812 C 388.238281 484.613281 389.875 485.257812 392.976562 486.8125 C 395.375 488.007812 398.011719 489.304688 400.316406 490.683594 C 403.429688 492.558594 406.664062 494.3125 409.6875 496.316406 C 410.449219 496.824219 412.625 498.285156 413.046875 498.5625 C 413.472656 498.835938 413.785156 499.003906 414.160156 499.257812 C 415.464844 500.167969 419.910156 503.542969 421.222656 503.570312 C 420.996094 502.726562 420.25 502.101562 419.644531 501.519531 L 419.222656 501.125 C 416.648438 498.800781 416.660156 498.746094 413.644531 496.484375 C 410.632812 494.222656 407.75 492.566406 404.605469 490.683594 C 399.757812 487.757812 388.21875 481.96875 383.316406 481.96875 C 383.121094 481.96875 382.855469 482.085938 382.820312 482.132812 Z M 382.808594 482.132812 " fill-opacity="1" fill-rule="evenodd"/><path fill="#000000" d="M 101.441406 371.445312 C 101.441406 372.023438 101.472656 372.519531 102.433594 372.605469 C 102.820312 370.941406 105.898438 368.421875 107.210938 367.492188 C 109.757812 365.691406 111.933594 364.84375 113.550781 363.769531 C 115.25 362.628906 115.25 358.519531 123.535156 356.277344 C 124.332031 356.054688 125.703125 355.761719 125.125 354.703125 C 124.957031 354.410156 124.886719 354.382812 124.589844 354.226562 C 121.238281 352.386719 115.847656 356.378906 114.082031 359.523438 C 112.742188 361.914062 114.292969 361.472656 112.695312 361.757812 C 112.207031 361.847656 112.0625 361.886719 111.648438 362.023438 C 107.835938 363.320312 101.453125 367.914062 101.453125 371.445312 Z M 101.441406 371.445312 " fill-opacity="1" fill-rule="evenodd"/><path fill="#000000" d="M 459.785156 352.96875 L 461.035156 355.835938 C 461.375 357.023438 461.640625 357.996094 461.863281 359.300781 C 462.246094 361.628906 461.777344 365.113281 462.402344 367.171875 C 462.917969 368.863281 463.761719 372.707031 463.515625 374.332031 L 462.78125 379.875 C 462.613281 380.980469 462.679688 380.722656 462.753906 381.660156 C 464.964844 381.613281 466.050781 375.535156 466.050781 373.910156 C 466.050781 369.828125 464.542969 367.21875 464.5625 364.835938 C 464.5625 363.769531 464.652344 362.234375 464.542969 361.230469 C 464.25 358.464844 463.5625 355.246094 461.863281 353.1875 C 461.421875 352.65625 459.785156 351.726562 459.785156 352.957031 Z M 459.785156 352.96875 " fill-opacity="1" fill-rule="evenodd"/><path fill="#000000" d="M 264.296875 393.382812 L 264.46875 398.8125 C 264.542969 399.824219 264.625 401.316406 265.289062 401.792969 C 266.003906 401.269531 265.785156 399.210938 266.042969 397.433594 C 266.363281 395.257812 266.546875 390.78125 266.90625 387.902344 C 267.105469 386.257812 267.300781 384.839844 267.601562 383.324219 C 268.191406 380.398438 268.742188 377.667969 269.625 374.957031 C 270.054688 373.632812 270.449219 372.320312 270.863281 371.078125 C 271.222656 369.992188 272.039062 368.253906 272.039062 366.976562 C 271.101562 367.050781 270.617188 368.171875 270.109375 369.175781 C 268.265625 372.871094 267.65625 374.378906 266.492188 378.414062 C 265.324219 382.449219 264.285156 388.269531 264.285156 393.371094 Z M 264.296875 393.382812 " fill-opacity="1" fill-rule="evenodd"/><path fill="#000000" d="M 373.578125 502.101562 L 377.261719 503.195312 C 381.246094 504.371094 391.160156 508.242188 395.144531 509.878906 C 396.25 510.328125 397.425781 510.890625 398.609375 511.367188 C 399.167969 511.597656 399.71875 511.835938 400.382812 512.066406 C 401.660156 512.515625 401.382812 512.40625 402.253906 512.332031 C 402.171875 511.304688 401.007812 510.667969 399.941406 510.035156 C 398.875 509.398438 398.046875 508.914062 396.871094 508.324219 C 393.90625 506.835938 375.269531 499.671875 373.578125 502.109375 Z M 373.578125 502.101562 " fill-opacity="1" fill-rule="evenodd"/><path fill="#000000" d="M 452.199219 387.277344 C 452.199219 387.875 452.253906 387.699219 452.527344 388.105469 C 454.476562 387.9375 456.15625 381.394531 456.15625 379.03125 C 456.15625 376.171875 456.074219 374.398438 455.613281 371.65625 C 455.375 370.25 455.117188 368.796875 454.652344 367.511719 C 454.484375 367.0625 454.382812 366.601562 454.015625 366.335938 C 452.90625 367.078125 453.191406 369.964844 453.191406 371.113281 C 453.191406 374.398438 453.320312 379.203125 452.886719 382.191406 C 452.757812 383.113281 452.640625 383.738281 452.519531 384.628906 C 452.398438 385.519531 452.199219 386.21875 452.199219 387.277344 Z M 452.199219 387.277344 " fill-opacity="1" fill-rule="evenodd"/><path fill="#000000" d="M 434.726562 485.101562 C 434.910156 485.800781 435.398438 485.71875 436.140625 485.992188 C 436.804688 486.242188 437.28125 486.398438 437.960938 486.65625 C 439.183594 487.125 440.257812 487.613281 441.441406 488.117188 C 442.625 488.621094 443.636719 489.148438 444.847656 489.652344 C 446.0625 490.160156 447.136719 490.71875 448.265625 491.1875 C 451.527344 492.519531 455.828125 494.011719 458.902344 495.390625 C 459.519531 495.664062 460.007812 495.875 460.667969 496.097656 C 461.054688 496.226562 461.191406 496.300781 461.585938 496.371094 C 461.917969 496.4375 462.347656 496.722656 462.117188 496.132812 C 461.375 494.222656 448.652344 488.964844 445.839844 487.832031 C 444.371094 487.242188 435.921875 483.476562 434.726562 485.101562 Z M 434.726562 485.101562 " fill-opacity="1" fill-rule="evenodd"/><path fill="#000000" d="M 135.394531 336.796875 L 135.558594 337.789062 C 136.332031 337.726562 136.558594 337.210938 137 336.757812 C 138.515625 335.222656 139.351562 334.738281 141.382812 333.726562 C 147.160156 330.832031 148.695312 331.695312 153.691406 331.695312 C 153.921875 330.71875 153.710938 330.316406 152.367188 329.550781 C 146.480469 326.207031 135.394531 333.277344 135.394531 336.804688 Z M 135.394531 336.796875 " fill-opacity="1" fill-rule="evenodd"/><path fill="#000000" d="M 147.097656 465.804688 C 148.144531 465.804688 149.953125 465.722656 150.558594 464.8125 C 150.082031 464.105469 149.089844 464.050781 148.207031 463.867188 C 147.179688 463.644531 146.515625 463.480469 145.636719 463.140625 C 143.726562 462.402344 142.335938 461.179688 141.144531 461.035156 C 138.671875 460.738281 138.113281 460.519531 135.871094 459.710938 C 135.042969 459.40625 134.320312 459.113281 133.554688 458.726562 C 132.179688 458.007812 130.523438 456.796875 130.652344 458.351562 C 130.820312 460.335938 137.367188 463.167969 139.859375 463.480469 C 142.53125 463.820312 143.203125 465.796875 147.105469 465.796875 Z M 147.097656 465.804688 " fill-opacity="1" fill-rule="evenodd"/><path fill="#000000" d="M 447.089844 429.511719 C 447.089844 430.042969 447.851562 430.070312 448.707031 429.484375 C 450.460938 428.289062 451.621094 426.910156 452.722656 425.089844 C 454.054688 422.902344 455.15625 418.699219 455.15625 415.976562 C 455.15625 414.910156 454.863281 414.699219 454.164062 414.332031 C 454.128906 414.351562 454.070312 414.339844 454.0625 414.398438 L 453.464844 414.949219 C 453.042969 415.554688 451.066406 421.015625 450.710938 421.917969 C 449.855469 424.058594 447.082031 428.730469 447.082031 429.5 Z M 447.089844 429.511719 " fill-opacity="1" fill-rule="evenodd"/><path fill="#000000" d="M 454.503906 329.542969 L 456.679688 337.101562 C 457.285156 339.65625 457.542969 344.160156 458.628906 344.886719 C 459.242188 344.566406 459.324219 344.4375 459.621094 343.242188 C 460.566406 339.417969 458.8125 334.074219 456.910156 330.929688 C 456.597656 330.417969 456.359375 330.132812 455.953125 329.734375 C 455.367188 329.175781 455.203125 329.121094 454.503906 329.542969 Z M 454.503906 329.542969 " fill-opacity="1" fill-rule="evenodd"/><path fill="#000000" d="M 444.785156 388.601562 C 445.941406 387.753906 445.941406 383.425781 445.941406 381.503906 C 445.941406 380.171875 444.949219 372.585938 443.140625 372.097656 C 442.542969 373.339844 443.105469 379.039062 443.277344 380.703125 C 443.433594 382.15625 443.507812 383.597656 443.628906 384.96875 C 443.691406 385.695312 443.746094 386.273438 443.859375 387.046875 C 443.984375 387.9375 444.023438 388.390625 444.785156 388.589844 Z M 444.785156 388.601562 " fill-opacity="1" fill-rule="evenodd"/><path fill="#000000" d="M 429.785156 455.078125 C 430.097656 455.507812 430.300781 455.433594 430.933594 455.574219 L 440.203125 457.84375 C 441.488281 458.148438 450.433594 460.152344 451.050781 459.855469 C 450.910156 459.480469 451.050781 459.71875 450.785156 459.460938 L 449.257812 458.679688 C 444.582031 457.007812 442.332031 456.300781 437.300781 455.308594 C 436.371094 455.121094 430.667969 453.808594 429.785156 455.078125 Z M 429.785156 455.078125 " fill-opacity="1" fill-rule="evenodd"/><path fill="#000000" d="M 336.15625 442.878906 C 339.160156 441.285156 340.113281 432.710938 340.113281 429.839844 C 340.113281 428.617188 340.289062 427.753906 339.453125 427.203125 C 338.257812 428.003906 337.605469 433.527344 337.378906 434.859375 L 336.082031 440.992188 C 335.863281 442.058594 335.714844 442.050781 336.15625 442.878906 Z M 336.15625 442.878906 " fill-opacity="1" fill-rule="evenodd"/><path fill="#000000" d="M 109.683594 353.628906 C 109.800781 353.1875 110.1875 352.8125 110.480469 352.453125 C 111.273438 351.476562 112.6875 350.292969 113.734375 349.601562 C 114.589844 349.042969 115.496094 348.65625 116.542969 348.289062 C 118.042969 347.765625 118.574219 347.863281 119.574219 347.195312 C 119.328125 346.671875 119.078125 345.714844 117.269531 345.714844 C 114.523438 345.714844 113.015625 346.753906 111.214844 348.5625 C 110.242188 349.539062 109.113281 350.851562 108.929688 352.378906 C 108.773438 353.710938 109.417969 353.621094 109.691406 353.636719 Z M 109.683594 353.628906 " fill-opacity="1" fill-rule="evenodd"/><path fill="#000000" d="M 154.847656 476.359375 C 155.894531 476.359375 159.625 476.421875 159.625 474.878906 C 159.625 473.941406 157.960938 474.125 157.015625 474.023438 C 155.1875 473.832031 152.671875 473.664062 150.925781 473.195312 C 150.089844 472.96875 149.070312 472.480469 148.097656 472.40625 C 148.097656 473.566406 148.117188 473.785156 148.796875 474.347656 C 150.328125 475.613281 152.671875 476.367188 154.847656 476.367188 Z M 154.847656 476.359375 " fill-opacity="1" fill-rule="evenodd"/><path fill="#000000" d="M 118.582031 458.046875 C 118.582031 461.070312 124.773438 466.6875 129.292969 465.628906 C 129.210938 464.648438 128.257812 464.480469 126.730469 463.582031 C 125.207031 462.679688 119.777344 459.214844 119.246094 457.21875 L 118.75 457.21875 C 118.667969 457.585938 118.582031 457.597656 118.582031 458.046875 Z M 118.582031 458.046875 " fill-opacity="1" fill-rule="evenodd"/><path fill="#000000" d="M 132.757812 467.285156 C 132.757812 470.28125 138.957031 472.230469 142.648438 472.230469 C 143.851562 472.230469 143.632812 472.296875 144.460938 471.734375 C 143.953125 470.769531 143.191406 470.667969 141.65625 470.253906 C 139.09375 469.554688 137.761719 468.921875 135.410156 467.917969 C 134.292969 467.441406 132.757812 466.164062 132.757812 467.285156 Z M 132.757812 467.285156 " fill-opacity="1" fill-rule="evenodd"/><path fill="#000000" d="M 96.824219 366.167969 C 95.390625 363.464844 90.367188 366.351562 88.621094 370.996094 C 87.65625 373.558594 88.988281 375.09375 89.785156 373.15625 C 90.082031 372.429688 90.097656 372.449219 90.4375 371.832031 C 92.332031 368.476562 93.671875 368.183594 96.152344 366.664062 C 96.464844 366.472656 96.511719 366.378906 96.8125 366.179688 Z M 96.824219 366.167969 " fill-opacity="1" fill-rule="evenodd"/><path fill="#000000" d="M 141.492188 348.839844 C 141.492188 349.464844 141.675781 349.511719 142.152344 349.832031 C 143.089844 349.207031 142.511719 349.328125 144.238281 348.453125 C 145.113281 348.011719 145.792969 347.820312 146.746094 347.496094 C 147.804688 347.148438 151 346.367188 151.714844 345.539062 C 151.386719 344.914062 151.449219 344.867188 150.605469 344.664062 C 146.113281 343.617188 141.492188 346.816406 141.492188 348.839844 Z M 141.492188 348.839844 " fill-opacity="1" fill-rule="evenodd"/><path fill="#000000" d="M 154.847656 455.40625 C 155.226562 455.40625 155.042969 455.351562 155.511719 455.242188 C 155.28125 454.242188 154.242188 454.046875 153.085938 453.550781 C 151.238281 452.761719 144.984375 450.132812 143.640625 450.132812 C 142.117188 450.132812 144.570312 452.078125 144.828125 452.246094 C 147.1875 453.78125 151.863281 455.40625 154.859375 455.40625 Z M 154.847656 455.40625 " fill-opacity="1" fill-rule="evenodd"/><path fill="#000000" d="M 99.292969 360.882812 C 99.292969 361.984375 99.617188 362.417969 100.285156 362.859375 C 101.894531 360.460938 100.835938 359.734375 104.898438 357.40625 C 105.980469 356.78125 106.476562 356.542969 106.550781 355.597656 C 105.492188 354.484375 103.878906 354.933594 102.703125 355.53125 C 100.9375 356.425781 99.304688 358.84375 99.304688 360.875 Z M 99.292969 360.882812 " fill-opacity="1" fill-rule="evenodd"/><path fill="#000000" d="M 396.816406 480.15625 C 396.9375 480.617188 397.066406 480.625 397.433594 480.855469 L 406.921875 486.371094 C 407.316406 486.589844 410.449219 488.578125 410.21875 487.527344 C 409.933594 486.214844 402.734375 481.855469 400.613281 480.808594 C 400.117188 480.5625 399.269531 480.191406 398.773438 480.007812 C 397.992188 479.714844 397.277344 479.484375 396.816406 480.15625 Z M 396.816406 480.15625 " fill-opacity="1" fill-rule="evenodd"/><path fill="#000000" d="M 122.875 343.5625 C 122.875 344.085938 122.816406 345.070312 123.480469 344.941406 C 123.664062 344.90625 124.140625 344.34375 124.316406 344.179688 C 126.511719 342.164062 131.113281 341.992188 131.113281 340.429688 C 131.113281 339.664062 128.421875 338.230469 125.078125 340.65625 C 124.324219 341.210938 122.863281 342.421875 122.863281 343.5625 Z M 122.875 343.5625 " fill-opacity="1" fill-rule="evenodd"/><path fill="#000000" d="M 345.882812 223.636719 C 345.882812 226.0625 349.703125 220.6875 349.84375 220.5 C 350.457031 219.703125 351.035156 218.894531 351.707031 218.074219 C 352.835938 216.6875 353.839844 215.710938 352.3125 215.710938 C 350.402344 215.710938 345.882812 220.6875 345.882812 223.628906 Z M 345.882812 223.636719 " fill-opacity="1" fill-rule="evenodd"/><path fill="#000000" d="M 154.847656 465.972656 C 155.417969 468.398438 160.398438 468.507812 162.886719 468.074219 C 163.703125 467.9375 164.226562 467.808594 164.246094 466.796875 C 163.566406 466.613281 163.996094 466.558594 162.335938 466.238281 C 159.773438 465.742188 158.605469 465.316406 155.675781 465.316406 C 155.207031 465.316406 155.042969 465.695312 154.847656 465.980469 Z M 154.847656 465.972656 " fill-opacity="1" fill-rule="evenodd"/><path fill="#000000" d="M 456.488281 408.890625 C 457.441406 408.871094 457.597656 408.382812 457.964844 407.730469 C 458.261719 407.21875 458.589844 406.5625 458.839844 405.964844 C 459.296875 404.898438 460.878906 400.488281 459.289062 399.320312 C 458.746094 399.46875 458.765625 399.503906 458.507812 400.027344 C 457.808594 401.472656 456.746094 405.855469 456.433594 407.53125 C 456.265625 408.394531 456.414062 408.0625 456.488281 408.890625 Z M 456.488281 408.890625 " fill-opacity="1" fill-rule="evenodd"/><path fill="#000000" d="M 450.058594 402.125 C 451.214844 401.855469 451.875 400.304688 452.363281 399.320312 C 453.253906 397.519531 453.6875 396.910156 453.6875 394.703125 C 453.6875 393.867188 453.417969 393.832031 453.355469 393.058594 C 451.8125 393.472656 450.488281 398.070312 450.09375 399.523438 C 449.78125 400.652344 449.5625 401.175781 450.066406 402.132812 Z M 450.058594 402.125 " fill-opacity="1" fill-rule="evenodd"/><path fill="#000000" d="M 164.566406 458.046875 C 169.167969 458.046875 170.078125 455.730469 164.734375 455.574219 C 163.226562 455.527344 161.847656 455.40625 160.121094 455.40625 C 160.058594 456.144531 159.875 456.050781 160.386719 456.613281 C 160.726562 456.972656 161.011719 457.128906 161.488281 457.339844 C 162.324219 457.722656 163.410156 458.046875 164.566406 458.046875 Z M 164.566406 458.046875 " fill-opacity="1" fill-rule="evenodd"/><path fill="#000000" d="M 339.949219 409.882812 L 340.105469 415.820312 C 340.125 416.464844 340.234375 417.042969 340.34375 417.734375 C 340.480469 418.625 340.417969 419.046875 341.273438 419.121094 C 341.382812 418.636719 341.464844 418.636719 341.601562 418.136719 L 342.089844 414.175781 C 342.089844 412.613281 341.28125 409.183594 340.445312 408.566406 C 340.050781 408.851562 339.949219 409.203125 339.949219 409.890625 Z M 339.949219 409.882812 " fill-opacity="1" fill-rule="evenodd"/><path fill="#000000" d="M 347.371094 232.867188 C 347.371094 233.371094 347.960938 234.300781 349.492188 232.351562 C 350.402344 231.195312 352.460938 228.066406 352.148438 226.597656 C 351.175781 226.597656 350.824219 226.902344 350.292969 227.378906 C 349.757812 227.855469 349.417969 228.25 348.96875 228.859375 C 348.226562 229.851562 347.371094 231.222656 347.371094 232.867188 Z M 347.371094 232.867188 " fill-opacity="1" fill-rule="evenodd"/><path fill="#000000" d="M 127.484375 354.777344 C 128.015625 354.640625 128.421875 354.273438 129.191406 354.015625 C 130.820312 353.472656 131.433594 353.324219 132.960938 352.507812 C 133.464844 352.230469 134.410156 352.003906 134.410156 351.320312 C 134.410156 350.375 132.832031 350.496094 132.105469 350.496094 C 130.679688 350.496094 126.941406 352.433594 127.492188 354.789062 Z M 127.484375 354.777344 " fill-opacity="1" fill-rule="evenodd"/><path fill="#000000" d="M 451.214844 361.214844 C 451.757812 360.855469 451.730469 360.789062 451.859375 360.046875 C 452.171875 358.261719 452.289062 355.6875 451.351562 354.144531 C 450.542969 352.8125 450.488281 352.628906 449.40625 352.628906 C 449.40625 354.539062 449.964844 355.347656 450.066406 357.078125 C 450.121094 358.144531 450.378906 360.632812 451.222656 361.203125 Z M 451.214844 361.214844 " fill-opacity="1" fill-rule="evenodd"/><path fill="#000000" d="M 445.28125 414.996094 C 445.28125 417.441406 447.816406 413.3125 448.277344 412.707031 C 448.773438 412.050781 449.269531 411.554688 449.507812 410.628906 C 449.726562 409.789062 449.734375 408.382812 448.746094 408.382812 C 448.136719 408.382812 447.925781 409.257812 447.625 409.734375 C 447.285156 410.277344 447.007812 410.683594 446.667969 411.253906 C 446.246094 411.960938 445.28125 414.011719 445.28125 414.976562 Z M 445.28125 414.996094 " fill-opacity="1" fill-rule="evenodd"/><path fill="#000000" d="M 441.320312 404.273438 C 441.320312 405.828125 442.242188 406.121094 442.792969 404.753906 C 443.636719 402.636719 443.792969 402.125 443.792969 399.816406 C 443.792969 399.089844 443.507812 397.839844 442.636719 397.839844 C 441.726562 397.839844 441.726562 399.660156 441.617188 400.617188 C 441.488281 401.773438 441.3125 402.914062 441.3125 404.273438 Z M 441.320312 404.273438 " fill-opacity="1" fill-rule="evenodd"/><path fill="#000000" d="M 460.4375 393.710938 C 460.4375 394.089844 460.492188 393.90625 460.601562 394.375 C 461.082031 394.363281 461.191406 394.585938 461.75 393.546875 C 462.761719 391.707031 463.476562 389.160156 462.851562 387 C 462.660156 386.347656 462.699219 386.285156 462.082031 386.117188 C 461.070312 386.863281 460.4375 392.242188 460.4375 393.703125 Z M 460.4375 393.710938 " fill-opacity="1" fill-rule="evenodd"/><path fill="#000000" d="M 165.0625 475.542969 C 165.191406 477.09375 167.902344 477.683594 169.1875 477.683594 C 170.371094 477.683594 172.539062 477.554688 172.816406 476.359375 C 171.660156 475.578125 167.25 475.199219 165.890625 475.199219 C 165.632812 475.199219 165.238281 475.421875 165.0625 475.53125 Z M 165.0625 475.542969 " fill-opacity="1" fill-rule="evenodd"/><path fill="#000000" d="M 156.824219 329.542969 C 156.824219 330.445312 157.796875 330.039062 159.800781 330.039062 C 160.582031 330.039062 160.929688 329.9375 161.609375 329.875 C 162.132812 329.828125 163.097656 329.828125 162.960938 328.945312 C 162.878906 328.402344 162.59375 328.238281 162.160156 328 C 159.515625 326.507812 156.824219 328.183594 156.824219 329.542969 Z M 156.824219 329.542969 " fill-opacity="1" fill-rule="evenodd"/><path fill="#000000" d="M 344.570312 227.257812 C 343.027344 226.902344 341.980469 227.625 340.941406 229.070312 C 340.507812 229.675781 339.390625 231.929688 340.4375 232.554688 C 341.574219 233.226562 344.523438 227.800781 344.570312 227.269531 Z M 344.570312 227.257812 " fill-opacity="1" fill-rule="evenodd"/><path fill="#000000" d="M 344.074219 243.097656 C 345.183594 242.839844 345.480469 241.746094 346.03125 240.265625 C 346.269531 239.625 346.40625 239.257812 346.628906 238.546875 C 347.601562 235.421875 343.382812 237.582031 343.503906 241.242188 C 343.539062 242.382812 343.625 242.417969 344.074219 243.097656 Z M 344.074219 243.097656 " fill-opacity="1" fill-rule="evenodd"/><path fill="#000000" d="M 173.148438 468.609375 C 173.148438 469.703125 175.992188 469.933594 176.535156 470.007812 C 177.179688 470.097656 179.832031 470.035156 180.394531 469.269531 C 180.246094 468.710938 180.300781 468.820312 179.734375 468.617188 C 179.027344 468.359375 173.148438 467.238281 173.148438 468.617188 Z M 173.148438 468.609375 " fill-opacity="1" fill-rule="evenodd"/><path fill="#000000" d="M 114.460938 373.589844 C 116.453125 373.128906 117.8125 371.308594 119.117188 370.003906 C 119.375 369.746094 119.53125 369.617188 119.785156 369.351562 C 120.183594 368.945312 120.210938 369.027344 120.226562 368.3125 C 118.253906 368.355469 116.1875 370.433594 114.910156 371.730469 C 114.21875 372.429688 114 372.722656 114.460938 373.589844 Z M 114.460938 373.589844 " fill-opacity="1" fill-rule="evenodd"/><path fill="#000000" d="M 171.660156 328.054688 C 172.707031 328.054688 175.019531 327.402344 175.285156 326.40625 C 174.433594 325.128906 170.988281 325.882812 170.160156 326.5625 C 169.078125 327.457031 170.207031 328.054688 171.660156 328.054688 Z M 171.660156 328.054688 " fill-opacity="1" fill-rule="evenodd"/><path fill="#000000" d="M 425.496094 506.550781 C 425.558594 507.378906 426.277344 507.761719 426.773438 508.242188 C 427.269531 508.71875 427.9375 509.1875 428.535156 509.609375 C 429.1875 510.089844 429.75 510.429688 430.410156 510.871094 C 431.90625 511.863281 433.652344 512.808594 431.144531 510.300781 C 429.914062 509.070312 427.324219 506.550781 425.496094 506.550781 Z M 425.496094 506.550781 " fill-opacity="1" fill-rule="evenodd"/><path fill="#000000" d="M 336 239.136719 C 336 240.082031 336.660156 241.261719 337.855469 239.339844 C 338.203125 238.769531 338.902344 236.941406 338.964844 236.167969 C 337.195312 235.753906 336 238.382812 336 239.136719 Z M 336 239.136719 " fill-opacity="1" fill-rule="evenodd"/><path fill="#000000" d="M 154.519531 345.050781 C 155.328125 345.234375 155.675781 345.539062 156.574219 345.136719 C 157.660156 344.65625 158.890625 343.066406 156.988281 343.066406 C 155.703125 343.066406 154.546875 343.753906 154.519531 345.042969 Z M 154.519531 345.050781 " fill-opacity="1" fill-rule="evenodd"/><path fill="#000000" d="M 128.808594 455.902344 C 129.488281 455.902344 129.230469 455.507812 128.925781 455.152344 C 128.230469 454.304688 127.503906 453.925781 126.5 453.925781 C 126.539062 455.40625 128.769531 455.902344 128.808594 455.902344 Z M 128.808594 455.902344 " fill-opacity="1" fill-rule="evenodd"/><path fill="#000000" d="M 441.15625 411.859375 C 441.320312 412.023438 441.753906 411.621094 441.351562 411.765625 C 441.351562 411.765625 440.882812 411.582031 441.15625 411.859375 Z M 441.15625 411.859375 " fill-opacity="1" fill-rule="evenodd"/><path fill="#000000" d="M 329.898438 520.402344 C 330.066406 520.570312 330.496094 520.164062 330.09375 520.3125 C 330.09375 520.3125 329.625 520.128906 329.898438 520.402344 Z M 329.898438 520.402344 " fill-opacity="1" fill-rule="evenodd"/><path fill="#000000" d="M 328.90625 520.570312 L 328.953125 520.523438 C 328.953125 520.523438 328.890625 520.558594 328.90625 520.570312 Z M 328.90625 520.570312 " fill-opacity="1" fill-rule="evenodd"/></svg>