<svg xmlns="http://www.w3.org/2000/svg" xmlns:xlink="http://www.w3.org/1999/xlink" width="794" zoomAndPan="magnify" viewBox="0 0 594.95996 842.24997" height="1123" preserveAspectRatio="xMidYMid meet" version="1.0"><defs><g/><clipPath id="3da4afb896"><path d="M 0.246094 0 L 594.675781 0 L 594.675781 841.5 L 0.246094 841.5 Z M 0.246094 0 " clip-rule="nonzero"/></clipPath><clipPath id="5c4b69d830"><rect x="0" width="316" y="0" height="168"/></clipPath><clipPath id="57785f68a5"><path d="M 59.554688 156 L 535.378906 156 L 535.378906 605.941406 L 59.554688 605.941406 Z M 59.554688 156 " clip-rule="nonzero"/></clipPath></defs><g clip-path="url(#3da4afb896)"><path fill="#ffffff" d="M 0.246094 0 L 595.214844 0 L 595.214844 841.5 L 0.246094 841.5 Z M 0.246094 0 " fill-opacity="1" fill-rule="nonzero"/><path fill="#ffffff" d="M 0.246094 0 L 595.214844 0 L 595.214844 841.5 L 0.246094 841.5 Z M 0.246094 0 " fill-opacity="1" fill-rule="nonzero"/></g><g transform="matrix(1, 0, 0, 1, 141, 609)"><g clip-path="url(#5c4b69d830)"><g fill="#000000" fill-opacity="1"><g transform="translate(5.009491, 125.388298)"><g><path d="M 48.835938 -15.585938 C 52.636719 -15.671875 55.28125 -14.675781 56.769531 -12.585938 C 58.1875 -10.601562 58.640625 -8.355469 58.128906 -5.84375 C 57.664062 -3.566406 56.515625 -1.34375 54.675781 0.820312 C 52.804688 3.027344 50.492188 4.546875 47.746094 5.378906 L 47.160156 3.445312 L 47.976562 5.292969 C 43.398438 7.320312 37.515625 8.664062 30.335938 9.332031 C 23.949219 9.992188 17.625 9.917969 11.371094 9.109375 C 7.289062 8.546875 4.375 7.484375 2.632812 5.914062 C -0.734375 2.96875 -2.210938 -1.101562 -1.796875 -6.296875 C -1.636719 -8.71875 -1.128906 -10.738281 -0.277344 -12.355469 L -0.246094 -12.414062 L -0.210938 -12.472656 C 0.953125 -14.367188 2.785156 -17.125 5.28125 -20.742188 C 7.796875 -24.386719 10.3125 -27.703125 12.828125 -30.695312 C 15.320312 -33.652344 17.789062 -36.503906 20.246094 -39.246094 C 29.714844 -49.859375 35.285156 -56.480469 36.945312 -59.113281 C 37.25 -59.597656 37.738281 -60.617188 38.417969 -62.179688 L 40.269531 -61.371094 L 40.722656 -59.40625 C 33.867188 -57.824219 26.980469 -57.9375 20.054688 -59.742188 C 16.859375 -60.5625 14.671875 -62.601562 13.496094 -65.855469 C 12.851562 -67.65625 12.761719 -69.417969 13.234375 -71.140625 C 13.6875 -72.792969 14.648438 -74.355469 16.121094 -75.828125 L 17.550781 -74.402344 L 16.066406 -75.773438 C 19.847656 -79.859375 25.371094 -82.886719 32.636719 -84.855469 C 39.316406 -86.636719 45.996094 -87.304688 52.679688 -86.859375 L 52.917969 -86.84375 L 53.144531 -86.773438 C 54.398438 -86.382812 55.394531 -86 56.136719 -85.628906 C 57.03125 -85.179688 57.960938 -84.386719 58.929688 -83.242188 L 59.371094 -82.722656 L 59.511719 -80 L 57.496094 -79.890625 L 58.246094 -81.765625 C 58.476562 -81.675781 58.933594 -81.570312 59.617188 -81.449219 C 60.59375 -81.28125 61.363281 -81.078125 61.933594 -80.839844 C 62.503906 -80.601562 63.105469 -80.261719 63.730469 -79.8125 C 64.433594 -79.308594 65.070312 -78.632812 65.636719 -77.78125 L 65.664062 -77.742188 L 65.6875 -77.699219 C 66.746094 -75.9375 67.253906 -73.199219 67.214844 -69.480469 C 67.175781 -65.894531 66.339844 -62.03125 64.703125 -57.886719 C 63.121094 -53.871094 61.1875 -49.953125 58.90625 -46.125 C 56.644531 -42.328125 54.214844 -38.726562 51.617188 -35.328125 C 49.066406 -31.984375 46.890625 -29.164062 45.089844 -26.859375 C 43.304688 -24.574219 41.898438 -22.738281 40.867188 -21.351562 C 39.894531 -20.046875 39.1875 -18.945312 38.738281 -18.046875 C 38.429688 -17.457031 38.285156 -16.992188 38.300781 -16.65625 C 38.308594 -16.5 38.382812 -16.359375 38.523438 -16.226562 L 37.148438 -14.75 L 37.347656 -16.761719 L 49.085938 -15.574219 L 48.882812 -13.566406 Z M 48.804688 -11.546875 L 36.265625 -12.808594 L 35.769531 -13.273438 C 34.832031 -14.148438 34.332031 -15.207031 34.269531 -16.449219 C 34.214844 -17.515625 34.5 -18.648438 35.125 -19.851562 C 35.679688 -20.964844 36.515625 -22.265625 37.625 -23.761719 C 38.675781 -25.175781 40.105469 -27.035156 41.910156 -29.34375 C 43.699219 -31.636719 45.863281 -34.449219 48.410156 -37.78125 C 50.910156 -41.054688 53.253906 -44.527344 55.4375 -48.195312 C 57.609375 -51.832031 59.445312 -55.558594 60.949219 -59.367188 C 62.398438 -63.050781 63.144531 -66.433594 63.175781 -69.523438 C 63.207031 -72.480469 62.890625 -74.515625 62.226562 -75.625 L 63.957031 -76.664062 L 62.277344 -75.542969 C 61.984375 -75.984375 61.683594 -76.3125 61.382812 -76.527344 C 61.003906 -76.796875 60.671875 -76.992188 60.382812 -77.113281 C 60.089844 -77.234375 59.605469 -77.355469 58.925781 -77.472656 C 57.964844 -77.640625 57.234375 -77.820312 56.746094 -78.019531 L 55.546875 -78.496094 L 55.371094 -81.832031 L 57.390625 -81.9375 L 55.847656 -80.632812 C 55.238281 -81.355469 54.730469 -81.816406 54.332031 -82.015625 C 53.785156 -82.289062 52.988281 -82.589844 51.941406 -82.917969 L 52.542969 -84.84375 L 52.410156 -82.832031 C 46.171875 -83.246094 39.929688 -82.621094 33.691406 -80.957031 C 27.171875 -79.191406 22.289062 -76.550781 19.03125 -73.03125 L 19.007812 -73 L 18.976562 -72.972656 C 17.140625 -71.136719 16.582031 -69.21875 17.296875 -67.226562 C 17.988281 -65.3125 19.246094 -64.121094 21.074219 -63.648438 C 27.359375 -62.011719 33.605469 -61.90625 39.816406 -63.339844 L 43.71875 -64.242188 L 42.121094 -60.566406 C 41.363281 -58.824219 40.777344 -57.621094 40.359375 -56.957031 C 38.578125 -54.136719 32.875 -47.332031 23.253906 -36.554688 C 20.828125 -33.839844 18.382812 -31.023438 15.917969 -28.09375 C 13.484375 -25.199219 11.046875 -21.984375 8.605469 -18.449219 C 6.148438 -14.890625 4.355469 -12.191406 3.226562 -10.355469 L 1.507812 -11.414062 L 3.292969 -10.472656 C 2.710938 -9.363281 2.355469 -7.863281 2.226562 -5.976562 C 1.921875 -2.128906 2.957031 0.835938 5.335938 2.914062 C 6.460938 3.929688 8.648438 4.660156 11.886719 5.105469 C 17.832031 5.875 23.859375 5.941406 29.960938 5.3125 C 36.707031 4.6875 42.164062 3.449219 46.34375 1.597656 L 46.457031 1.550781 L 46.574219 1.511719 C 48.5625 0.910156 50.238281 -0.191406 51.597656 -1.792969 C 52.988281 -3.429688 53.847656 -5.046875 54.171875 -6.648438 C 54.449219 -8.011719 54.222656 -9.210938 53.484375 -10.238281 C 52.824219 -11.167969 51.304688 -11.601562 48.929688 -11.546875 Z M 50.175781 -11.332031 L 49.207031 -11.332031 L 49.207031 -15.371094 L 50.175781 -15.371094 Z M 50.175781 -15.371094 L 50.175781 -11.332031 L 49.207031 -11.332031 L 49.207031 -15.371094 Z M 50.175781 -15.371094 "/></g></g></g><g fill="#000000" fill-opacity="1"><g transform="translate(65.410345, 125.388298)"><g><path d="M 24.542969 -15.574219 C 28.636719 -15.152344 31.671875 -14.941406 33.648438 -14.941406 C 35.601562 -14.941406 38.613281 -15.21875 42.683594 -15.78125 L 43.152344 -15.847656 L 43.597656 -15.699219 C 45.53125 -15.054688 46.710938 -14.089844 47.136719 -12.804688 C 47.445312 -11.882812 47.546875 -10.933594 47.445312 -9.964844 C 47.398438 -9.5 47.421875 -9.050781 47.515625 -8.621094 C 47.496094 -8.71875 47.457031 -8.804688 47.410156 -8.875 L 47.414062 -8.878906 C 47.582031 -8.75 47.863281 -8.613281 48.261719 -8.472656 C 49.214844 -8.15625 49.84375 -7.511719 50.148438 -6.539062 C 50.359375 -5.871094 50.359375 -5.09375 50.144531 -4.210938 C 49.828125 -2.894531 49.117188 -1.511719 48.011719 -0.0664062 C 45.40625 3.328125 42.308594 5.703125 38.722656 7.058594 L 38.613281 7.097656 L 38.496094 7.128906 C 33.21875 8.445312 29.046875 9.21875 25.988281 9.441406 C 20.976562 9.8125 15.53125 9.628906 9.65625 8.894531 L 9.601562 8.886719 L 9.542969 8.878906 C 6.027344 8.238281 3.367188 7.144531 1.566406 5.597656 C -0.460938 3.855469 -1.40625 1.632812 -1.261719 -1.074219 L 0.753906 -0.96875 L -1.265625 -0.96875 C -1.265625 -16.324219 2.09375 -31.734375 8.808594 -47.210938 C 10.976562 -52.195312 13.429688 -57.433594 16.175781 -62.921875 C 16.632812 -63.832031 16.902344 -64.875 16.992188 -66.046875 C 17.097656 -67.464844 17.1875 -68.851562 17.257812 -70.199219 C 17.339844 -71.746094 17.585938 -73.144531 18.003906 -74.394531 C 18.566406 -76.078125 19.722656 -77.25 21.472656 -77.90625 C 36.71875 -83.992188 48.867188 -86.324219 57.917969 -84.902344 L 57.605469 -82.90625 L 57.652344 -84.925781 C 61.484375 -84.835938 64.0625 -83.433594 65.390625 -80.726562 C 66.597656 -78.273438 66.742188 -75.570312 65.832031 -72.621094 C 64.976562 -69.855469 63.335938 -67.277344 60.90625 -64.886719 C 58.40625 -62.425781 55.289062 -60.914062 51.554688 -60.347656 L 51.25 -62.34375 L 51.8125 -60.402344 C 47.675781 -59.210938 45.183594 -58.421875 44.34375 -58.03125 C 42.957031 -57.367188 41.972656 -56.503906 41.390625 -55.445312 L 41.328125 -55.335938 C 40.332031 -53.773438 39.40625 -52.28125 38.554688 -50.859375 C 37.808594 -49.613281 37.277344 -48.273438 36.964844 -46.839844 L 34.992188 -47.269531 L 36.980469 -46.90625 L 36.550781 -44.539062 L 34.5625 -44.898438 L 35.425781 -46.722656 C 36.433594 -46.246094 37.730469 -46.109375 39.3125 -46.308594 C 41.273438 -46.558594 43.089844 -46.808594 44.761719 -47.058594 C 46.6875 -47.34375 48.285156 -47.355469 49.5625 -47.089844 C 50.222656 -46.953125 50.773438 -46.660156 51.214844 -46.210938 C 51.652344 -45.769531 51.9375 -45.21875 52.074219 -44.5625 C 52.25 -43.6875 52.132812 -42.605469 51.71875 -41.320312 C 51.050781 -39.234375 49.851562 -36.925781 48.128906 -34.394531 C 46.269531 -31.667969 43.664062 -29.691406 40.316406 -28.46875 L 40.164062 -28.410156 L 40.003906 -28.378906 C 38.183594 -28.03125 36.953125 -27.769531 36.316406 -27.601562 C 35.59375 -27.414062 35.035156 -27.277344 34.636719 -27.199219 L 34.582031 -27.1875 L 34.523438 -27.179688 C 33.96875 -27.101562 32.476562 -26.988281 30.054688 -26.839844 L 29.933594 -28.855469 L 31.671875 -27.832031 C 28.40625 -22.269531 26.4375 -18.011719 25.765625 -15.058594 C 25.71875 -14.847656 25.691406 -14.675781 25.683594 -14.542969 C 25.683594 -14.511719 25.679688 -14.492188 25.683594 -14.480469 C 25.679688 -14.507812 25.671875 -14.546875 25.660156 -14.589844 C 25.585938 -14.855469 25.425781 -15.085938 25.179688 -15.277344 C 24.917969 -15.484375 24.636719 -15.585938 24.332031 -15.585938 L 24.4375 -15.585938 Z M 24.125 -11.558594 L 24.332031 -13.566406 L 24.332031 -11.546875 C 23.707031 -11.546875 23.160156 -11.730469 22.691406 -12.097656 C 22.242188 -12.453125 21.933594 -12.921875 21.769531 -13.511719 C 21.589844 -14.15625 21.609375 -14.972656 21.828125 -15.953125 C 22.589844 -19.3125 24.710938 -23.957031 28.191406 -29.878906 L 28.738281 -30.804688 L 29.808594 -30.871094 C 32.125 -31.011719 33.503906 -31.113281 33.953125 -31.175781 L 34.238281 -29.179688 L 33.84375 -31.160156 C 34.164062 -31.222656 34.644531 -31.339844 35.285156 -31.507812 C 36.011719 -31.699219 37.332031 -31.980469 39.242188 -32.347656 L 39.625 -30.363281 L 38.929688 -32.257812 C 41.464844 -33.1875 43.421875 -34.65625 44.792969 -36.667969 C 46.296875 -38.875 47.324219 -40.839844 47.875 -42.554688 C 48.074219 -43.171875 48.152344 -43.570312 48.117188 -43.757812 C 48.140625 -43.628906 48.214844 -43.503906 48.339844 -43.378906 C 48.46875 -43.246094 48.605469 -43.167969 48.742188 -43.136719 C 47.9375 -43.304688 46.808594 -43.28125 45.359375 -43.0625 C 43.65625 -42.808594 41.8125 -42.558594 39.824219 -42.304688 C 37.460938 -42.003906 35.417969 -42.261719 33.699219 -43.074219 L 32.300781 -43.738281 L 33.011719 -47.664062 L 33.019531 -47.695312 C 33.425781 -49.5625 34.117188 -51.3125 35.09375 -52.9375 C 35.960938 -54.386719 36.90625 -55.910156 37.917969 -57.503906 L 39.625 -56.417969 L 37.855469 -57.394531 C 38.851562 -59.207031 40.453125 -60.640625 42.652344 -61.699219 C 43.679688 -62.171875 46.359375 -63.035156 50.691406 -64.28125 L 50.820312 -64.316406 L 50.949219 -64.335938 C 53.820312 -64.773438 56.195312 -65.917969 58.074219 -67.765625 C 60.019531 -69.679688 61.320312 -71.695312 61.972656 -73.8125 C 62.570312 -75.742188 62.5 -77.453125 61.769531 -78.949219 C 61.160156 -80.191406 59.753906 -80.835938 57.554688 -80.886719 L 57.421875 -80.890625 L 57.292969 -80.914062 C 48.96875 -82.21875 37.503906 -79.957031 22.890625 -74.125 C 22.34375 -73.921875 21.992188 -73.585938 21.835938 -73.117188 C 21.535156 -72.210938 21.351562 -71.167969 21.289062 -69.988281 C 21.21875 -68.609375 21.125 -67.195312 21.015625 -65.742188 C 20.890625 -64.042969 20.480469 -62.5 19.785156 -61.117188 C 17.074219 -55.691406 14.648438 -50.523438 12.511719 -45.601562 C 6.019531 -30.640625 2.773438 -15.761719 2.773438 -0.96875 L 2.773438 -0.914062 L 2.769531 -0.863281 C 2.695312 0.523438 3.171875 1.652344 4.195312 2.53125 C 5.445312 3.605469 7.46875 4.394531 10.265625 4.90625 L 9.90625 6.890625 L 10.15625 4.886719 C 15.765625 5.589844 20.945312 5.765625 25.695312 5.414062 C 28.519531 5.207031 32.460938 4.472656 37.519531 3.210938 L 38.007812 5.167969 L 37.292969 3.28125 C 40.164062 2.195312 42.667969 0.261719 44.800781 -2.519531 C 45.5625 -3.511719 46.035156 -4.394531 46.21875 -5.15625 C 46.25 -5.285156 46.265625 -5.382812 46.269531 -5.453125 C 46.269531 -5.433594 46.277344 -5.390625 46.296875 -5.328125 C 46.40625 -4.988281 46.613281 -4.765625 46.917969 -4.664062 C 44.996094 -5.34375 43.878906 -6.371094 43.574219 -7.746094 C 43.382812 -8.605469 43.335938 -9.484375 43.429688 -10.386719 C 43.472656 -10.777344 43.429688 -11.160156 43.304688 -11.527344 C 43.332031 -11.453125 43.359375 -11.394531 43.398438 -11.351562 C 43.390625 -11.363281 43.363281 -11.382812 43.320312 -11.414062 C 43.109375 -11.5625 42.777344 -11.714844 42.324219 -11.867188 L 42.960938 -13.78125 L 43.238281 -11.78125 C 38.980469 -11.195312 35.785156 -10.902344 33.648438 -10.902344 C 31.53125 -10.902344 28.359375 -11.121094 24.125 -11.558594 Z M 24.125 -11.558594 "/></g></g></g><g fill="#000000" fill-opacity="1"><g transform="translate(121.827541, 125.388298)"><g><path d="M 57.339844 -83.144531 L 58.0625 -82.960938 L 58.320312 -82.808594 C 60.257812 -81.644531 61.949219 -80.34375 63.394531 -78.898438 C 64.785156 -77.503906 66.066406 -76.035156 67.234375 -74.488281 C 68.46875 -72.859375 69.441406 -71.09375 70.152344 -69.1875 L 68.265625 -68.480469 L 70.128906 -69.25 C 73.183594 -61.855469 70.691406 -53.753906 62.648438 -44.9375 C 59.363281 -41.351562 55.667969 -38.289062 51.558594 -35.753906 L 50.496094 -37.46875 L 51.671875 -39.113281 C 52.523438 -38.503906 53.3125 -38.066406 54.035156 -37.808594 C 55.027344 -37.449219 56.398438 -36.796875 58.136719 -35.851562 C 60.339844 -34.65625 61.753906 -32.511719 62.382812 -29.417969 C 62.945312 -26.648438 62.8125 -23.574219 61.988281 -20.195312 C 61.1875 -16.90625 59.742188 -13.542969 57.664062 -10.101562 C 55.570312 -6.636719 52.851562 -3.539062 49.515625 -0.804688 C 41.914062 5.503906 33.09375 8.164062 23.058594 7.175781 L 23.257812 5.167969 L 23.257812 7.1875 C 21.519531 7.1875 20.3125 6.984375 19.632812 6.578125 C 19.246094 6.34375 18.933594 6.148438 18.691406 5.988281 C 18.769531 6.039062 18.839844 6.078125 18.90625 6.101562 C 18.898438 6.097656 18.878906 6.09375 18.847656 6.085938 C 18.695312 6.050781 18.484375 6.019531 18.210938 5.992188 L 18.410156 3.984375 L 19.671875 5.558594 C 17.597656 7.21875 15.238281 8.257812 12.585938 8.671875 C 9.953125 9.082031 7.457031 8.871094 5.09375 8.042969 C 2.6875 7.199219 0.664062 5.769531 -0.976562 3.75 C -2.675781 1.65625 -3.527344 -1.03125 -3.527344 -4.308594 L -3.527344 -4.421875 L -3.511719 -4.539062 C -3.273438 -6.621094 -2.855469 -8.300781 -2.261719 -9.574219 L -0.429688 -8.722656 L -2.347656 -8.082031 C -2.628906 -8.9375 -2.773438 -9.9375 -2.773438 -11.089844 L -2.773438 -11.277344 L -2.738281 -11.464844 C -0.28125 -24.53125 2.03125 -34.550781 4.210938 -41.515625 C 8.65625 -55.445312 13.496094 -65.976562 18.722656 -73.117188 C 23.167969 -79.402344 29.335938 -83.464844 37.226562 -85.304688 C 44.832031 -87.070312 51.695312 -86.289062 57.816406 -82.957031 L 56.851562 -81.183594 Z M 56.359375 -79.226562 L 56.109375 -79.289062 L 55.886719 -79.410156 C 50.664062 -82.253906 44.75 -82.90625 38.144531 -81.371094 C 31.246094 -79.765625 25.859375 -76.21875 21.980469 -70.730469 C 17.011719 -63.945312 12.375 -53.804688 8.0625 -40.3125 C 5.933594 -33.496094 3.65625 -23.632812 1.230469 -10.71875 L -0.753906 -11.089844 L 1.265625 -11.089844 C 1.265625 -10.375 1.339844 -9.796875 1.484375 -9.359375 L 1.738281 -8.597656 L 1.398438 -7.867188 C 0.988281 -6.988281 0.6875 -5.726562 0.5 -4.074219 L -1.507812 -4.308594 L 0.511719 -4.308594 C 0.511719 -1.984375 1.0625 -0.148438 2.160156 1.203125 C 3.320312 2.628906 4.742188 3.640625 6.429688 4.230469 C 8.15625 4.839844 10 4.988281 11.960938 4.679688 C 13.90625 4.378906 15.636719 3.621094 17.152344 2.40625 L 17.792969 1.894531 L 18.613281 1.976562 C 19.664062 2.078125 20.4375 2.296875 20.929688 2.625 C 21.121094 2.753906 21.378906 2.914062 21.710938 3.113281 C 21.636719 3.070312 21.585938 3.042969 21.554688 3.035156 C 21.617188 3.050781 21.714844 3.070312 21.839844 3.085938 C 22.1875 3.128906 22.660156 3.148438 23.257812 3.148438 L 23.355469 3.148438 L 23.453125 3.160156 C 32.371094 4.035156 40.207031 1.671875 46.957031 -3.929688 C 49.9375 -6.367188 52.351562 -9.121094 54.207031 -12.1875 C 56.074219 -15.277344 57.359375 -18.265625 58.066406 -21.152344 C 58.746094 -23.945312 58.867188 -26.433594 58.425781 -28.617188 C 58.046875 -30.476562 57.308594 -31.707031 56.210938 -32.304688 C 54.648438 -33.152344 53.46875 -33.71875 52.667969 -34.007812 C 51.59375 -34.394531 50.480469 -35 49.324219 -35.828125 L 46.855469 -37.589844 L 49.4375 -39.1875 C 53.226562 -41.53125 56.636719 -44.355469 59.664062 -47.660156 C 66.554688 -55.210938 68.800781 -61.894531 66.398438 -67.707031 L 66.375 -67.769531 C 65.796875 -69.308594 65.011719 -70.738281 64.015625 -72.054688 C 62.957031 -73.449219 61.800781 -74.78125 60.539062 -76.042969 C 59.328125 -77.253906 57.894531 -78.355469 56.242188 -79.34375 L 57.28125 -81.078125 L 56.792969 -79.117188 Z M 22.875 -7.988281 C 24.015625 -8.273438 25.03125 -8.335938 25.921875 -8.179688 C 26.304688 -8.113281 26.8125 -8.132812 27.449219 -8.238281 L 27.507812 -8.246094 L 27.570312 -8.253906 C 29.320312 -8.433594 31.8125 -9.613281 35.050781 -11.796875 L 36.175781 -10.121094 L 34.75 -11.546875 C 36.617188 -13.417969 37.605469 -15.175781 37.714844 -16.824219 C 37.773438 -17.699219 37.746094 -18.386719 37.628906 -18.882812 C 37.59375 -19.042969 37.550781 -19.164062 37.503906 -19.246094 L 37.527344 -19.238281 C 37.101562 -19.566406 36.453125 -19.730469 35.585938 -19.730469 C 34.417969 -19.730469 33.109375 -19.550781 31.648438 -19.195312 C 29.910156 -18.769531 28.21875 -18.519531 26.582031 -18.441406 L 26.488281 -20.457031 L 28.507812 -20.457031 L 28.507812 -19.992188 L 28.445312 -19.753906 C 28.074219 -18.265625 27.699219 -16.960938 27.324219 -15.835938 C 26.976562 -14.785156 26.660156 -13.773438 26.382812 -12.796875 C 25.761719 -10.523438 25.28125 -8.171875 24.933594 -5.742188 L 22.933594 -6.03125 L 22.933594 -8.046875 L 23.363281 -8.046875 L 23.363281 -6.03125 Z M 23.613281 -4.011719 L 20.605469 -4.011719 L 20.933594 -6.316406 C 21.304688 -8.910156 21.828125 -11.441406 22.5 -13.90625 C 22.796875 -14.9375 23.125 -16.007812 23.496094 -17.113281 C 23.835938 -18.140625 24.183594 -19.347656 24.527344 -20.730469 L 26.488281 -20.242188 L 24.46875 -20.242188 L 24.46875 -22.382812 L 26.390625 -22.472656 C 27.769531 -22.539062 29.203125 -22.753906 30.691406 -23.117188 C 32.464844 -23.550781 34.09375 -23.769531 35.585938 -23.769531 C 37.371094 -23.769531 38.84375 -23.324219 39.996094 -22.433594 C 41.355469 -21.382812 41.9375 -19.425781 41.746094 -16.554688 C 41.566406 -13.898438 40.1875 -11.277344 37.605469 -8.695312 L 37.46875 -8.554688 L 37.304688 -8.445312 C 33.507812 -5.890625 30.402344 -4.488281 27.988281 -4.238281 L 27.777344 -6.246094 L 28.109375 -4.253906 C 27.023438 -4.070312 26.058594 -4.054688 25.222656 -4.203125 C 24.894531 -4.261719 24.4375 -4.214844 23.855469 -4.070312 Z M 43.125 -60.015625 C 42.578125 -60.089844 41.941406 -59.863281 41.210938 -59.332031 C 40.234375 -58.625 39.183594 -57.453125 38.058594 -55.816406 C 36.640625 -53.753906 35.527344 -50.53125 34.71875 -46.148438 L 32.730469 -46.515625 L 31.9375 -48.371094 C 33.503906 -49.042969 35.054688 -49.621094 36.589844 -50.109375 C 37.992188 -50.550781 39.300781 -51.046875 40.527344 -51.589844 C 43.347656 -52.808594 45.332031 -54.230469 46.476562 -55.859375 L 46.53125 -55.933594 L 46.585938 -56 C 47.203125 -56.730469 47.597656 -57.359375 47.765625 -57.894531 C 47.863281 -58.195312 47.871094 -58.4375 47.792969 -58.613281 L 49.636719 -59.433594 L 48.019531 -58.222656 C 47.355469 -59.109375 46.203125 -59.949219 44.5625 -60.738281 L 45.4375 -62.558594 L 46.765625 -61.039062 C 45.703125 -60.109375 44.457031 -59.773438 43.03125 -60.03125 L 43.390625 -62.019531 Z M 43.660156 -64.019531 L 43.707031 -64.015625 L 43.753906 -64.003906 C 43.902344 -63.976562 44.023438 -64 44.109375 -64.078125 L 45.113281 -64.953125 L 46.3125 -64.375 C 48.546875 -63.300781 50.195312 -62.058594 51.25 -60.644531 L 51.390625 -60.464844 L 51.480469 -60.253906 C 52.398438 -58.191406 51.796875 -55.902344 49.671875 -53.394531 L 48.128906 -54.695312 L 49.78125 -53.535156 C 48.199219 -51.285156 45.660156 -49.40625 42.164062 -47.898438 C 40.804688 -47.292969 39.355469 -46.746094 37.8125 -46.257812 C 36.402344 -45.8125 34.972656 -45.277344 33.527344 -44.660156 L 30.0625 -43.171875 L 30.746094 -46.878906 C 31.660156 -51.828125 32.988281 -55.566406 34.726562 -58.101562 C 37.707031 -62.445312 40.683594 -64.417969 43.660156 -64.019531 Z M 41.777344 -64.46875 L 42.097656 -64.46875 L 42.097656 -60.429688 L 41.777344 -60.429688 Z M 41.777344 -60.429688 L 41.777344 -64.46875 L 42.097656 -64.46875 L 42.097656 -60.429688 Z M 41.777344 -60.429688 "/></g></g></g><g fill="#000000" fill-opacity="1"><g transform="translate(184.812398, 125.388298)"><g><path d="M 20.8125 0.765625 C 20.382812 2.667969 19.425781 4.203125 17.941406 5.378906 C 16.558594 6.472656 14.746094 7.207031 12.503906 7.589844 C 8.589844 8.308594 4.859375 7.863281 1.316406 6.253906 C -0.753906 5.363281 -2.285156 4.242188 -3.273438 2.886719 C -4.375 1.375 -4.773438 -0.335938 -4.472656 -2.253906 L -2.476562 -1.9375 L -4.484375 -1.730469 C -4.945312 -6.191406 -2.722656 -15.523438 2.183594 -29.730469 C 9.4375 -50.835938 16.726562 -65.96875 24.050781 -75.125 C 26.101562 -77.648438 27.914062 -79.316406 29.496094 -80.128906 C 30.914062 -80.855469 32.535156 -81.523438 34.355469 -82.128906 C 36.113281 -82.71875 37.949219 -83.265625 39.851562 -83.78125 C 43.679688 -84.808594 47.308594 -85.527344 50.746094 -85.933594 C 54.449219 -86.375 57.800781 -85.925781 60.796875 -84.589844 C 63.820312 -83.242188 66.175781 -81.25 67.863281 -78.613281 C 69.503906 -76.054688 70.519531 -73.058594 70.914062 -69.625 C 71.296875 -66.3125 71.183594 -62.859375 70.578125 -59.261719 C 69.976562 -55.691406 68.890625 -52.089844 67.316406 -48.457031 C 65.746094 -44.824219 63.761719 -41.4375 61.363281 -38.292969 C 56.070312 -31.332031 49.832031 -26.824219 42.65625 -24.761719 L 42.097656 -26.703125 L 43.839844 -27.726562 L 44.917969 -25.894531 L 43.175781 -24.871094 L 44.867188 -25.972656 C 45.773438 -24.582031 46.871094 -23.046875 48.167969 -21.367188 C 49.503906 -19.632812 50.839844 -17.863281 52.175781 -16.058594 C 53.542969 -14.210938 54.78125 -12.363281 55.890625 -10.515625 C 57.046875 -8.585938 57.902344 -6.753906 58.453125 -5.027344 C 59.164062 -2.84375 59.21875 -0.898438 58.621094 0.804688 C 58 2.570312 56.722656 3.972656 54.789062 5.007812 L 53.835938 3.230469 L 54.882812 4.957031 C 51.863281 6.785156 49.332031 7.164062 47.296875 6.09375 L 47.230469 6.058594 L 47.167969 6.019531 C 46.480469 5.589844 45.804688 5.0625 45.132812 4.433594 C 44.761719 4.085938 44.207031 3.78125 43.464844 3.515625 L 44.144531 1.613281 L 44.703125 3.554688 C 42.183594 4.28125 39.917969 4.308594 37.90625 3.636719 C 35.851562 2.953125 34.136719 1.570312 32.769531 -0.503906 C 31.324219 -2.78125 30.222656 -4.878906 29.457031 -6.789062 C 28.742188 -8.574219 28.136719 -10.078125 27.636719 -11.289062 L 29.503906 -12.058594 L 27.6875 -11.175781 C 26.46875 -13.679688 25.089844 -15.832031 23.550781 -17.640625 L 25.085938 -18.949219 L 26.957031 -18.1875 C 26.183594 -16.289062 25.300781 -13.855469 24.3125 -10.882812 C 23.085938 -7.066406 21.714844 -3.097656 20.199219 1.019531 L 18.304688 0.324219 L 18.304688 -1.695312 L 21.367188 -1.695312 Z M 16.871094 -0.121094 L 18.84375 0.324219 L 18.84375 2.34375 L 15.410156 2.34375 L 16.410156 -0.375 C 17.90625 -4.441406 19.265625 -8.367188 20.480469 -12.160156 C 21.5 -15.214844 22.410156 -17.734375 23.21875 -19.710938 L 24.472656 -22.789062 L 26.625 -20.257812 C 28.386719 -18.191406 29.949219 -15.753906 31.316406 -12.941406 L 31.34375 -12.886719 L 31.367188 -12.828125 C 31.875 -11.601562 32.488281 -10.085938 33.207031 -8.285156 C 33.878906 -6.609375 34.855469 -4.753906 36.140625 -2.726562 C 36.996094 -1.429688 38.011719 -0.582031 39.183594 -0.191406 C 40.402344 0.214844 41.871094 0.167969 43.585938 -0.324219 L 44.210938 -0.503906 L 44.824219 -0.285156 C 46.09375 0.167969 47.117188 0.757812 47.894531 1.488281 C 48.375 1.9375 48.84375 2.304688 49.308594 2.59375 L 48.238281 4.308594 L 49.175781 2.519531 C 49.867188 2.882812 51.070312 2.542969 52.789062 1.503906 L 52.882812 1.449219 C 53.894531 0.910156 54.535156 0.246094 54.8125 -0.535156 C 55.109375 -1.378906 55.039062 -2.46875 54.605469 -3.800781 C 54.148438 -5.230469 53.421875 -6.777344 52.425781 -8.4375 C 51.382812 -10.175781 50.21875 -11.914062 48.929688 -13.65625 C 47.609375 -15.441406 46.289062 -17.191406 44.96875 -18.902344 C 43.609375 -20.667969 42.445312 -22.289062 41.484375 -23.773438 L 41.457031 -23.808594 L 39.039062 -27.925781 L 41.542969 -28.644531 C 47.859375 -30.457031 53.398438 -34.488281 58.152344 -40.738281 C 60.347656 -43.625 62.167969 -46.730469 63.613281 -50.0625 C 65.054688 -53.394531 66.046875 -56.683594 66.597656 -59.929688 C 67.136719 -63.152344 67.242188 -66.230469 66.902344 -69.164062 C 66.582031 -71.976562 65.765625 -74.398438 64.464844 -76.433594 C 63.210938 -78.390625 61.4375 -79.882812 59.152344 -80.902344 C 56.832031 -81.933594 54.191406 -82.277344 51.21875 -81.925781 C 47.980469 -81.542969 44.539062 -80.859375 40.902344 -79.878906 C 39.074219 -79.386719 37.316406 -78.863281 35.632812 -78.300781 C 34.007812 -77.757812 32.574219 -77.167969 31.339844 -76.535156 C 30.261719 -75.980469 28.882812 -74.671875 27.203125 -72.601562 C 20.171875 -63.8125 13.101562 -49.082031 6 -28.414062 C 1.289062 -14.769531 -0.867188 -6.011719 -0.46875 -2.144531 L -0.441406 -1.882812 L -0.480469 -1.625 C -0.609375 -0.8125 -0.453125 -0.101562 -0.0117188 0.507812 C 0.542969 1.265625 1.542969 1.957031 2.988281 2.578125 C 5.761719 3.835938 8.710938 4.179688 11.828125 3.609375 C 14.742188 3.113281 16.425781 1.871094 16.871094 -0.121094 Z M 42.4375 -61.527344 C 41.082031 -58.453125 40.15625 -56.316406 39.660156 -55.113281 L 36.320312 -47.035156 L 34.453125 -47.804688 L 36.457031 -47.535156 C 36.234375 -45.898438 36.042969 -44.730469 35.886719 -44.03125 L 33.917969 -44.46875 L 32.488281 -45.894531 L 34.246094 -47.652344 L 36.394531 -48.664062 L 37.253906 -46.835938 L 36.273438 -48.601562 C 37.574219 -49.324219 38.769531 -49.976562 39.855469 -50.558594 C 40.757812 -51.035156 41.566406 -51.636719 42.285156 -52.355469 C 43.710938 -53.78125 44.980469 -56.203125 46.101562 -59.632812 L 48.023438 -59.003906 L 46.003906 -59.003906 C 46.003906 -59.949219 46.164062 -60.890625 46.492188 -61.824219 C 46.691406 -62.390625 46.816406 -62.953125 46.875 -63.511719 L 46.882812 -63.59375 L 46.894531 -63.671875 C 46.953125 -63.972656 46.941406 -64.1875 46.867188 -64.316406 C 46.773438 -64.476562 46.546875 -64.628906 46.179688 -64.78125 L 46.945312 -66.648438 L 46.742188 -64.640625 C 46.503906 -64.664062 46.132812 -64.511719 45.632812 -64.183594 C 44.894531 -63.695312 44.046875 -62.894531 43.09375 -61.78125 C 42.261719 -60.808594 41.425781 -60.324219 40.59375 -60.324219 L 40.59375 -62.34375 Z M 38.746094 -63.15625 L 39.277344 -64.359375 L 40.59375 -64.359375 C 40.238281 -64.359375 39.960938 -64.28125 39.757812 -64.125 C 39.8125 -64.167969 39.902344 -64.261719 40.027344 -64.410156 C 42.640625 -67.453125 45.011719 -68.871094 47.144531 -68.65625 L 47.4375 -68.628906 L 47.710938 -68.515625 C 48.921875 -68.019531 49.804688 -67.296875 50.359375 -66.34375 C 50.933594 -65.359375 51.101562 -64.226562 50.871094 -62.949219 L 48.882812 -63.3125 L 50.890625 -63.109375 C 50.804688 -62.234375 50.609375 -61.359375 50.304688 -60.492188 C 50.128906 -59.988281 50.039062 -59.492188 50.039062 -59.003906 L 50.039062 -58.683594 L 49.941406 -58.375 C 48.621094 -54.339844 47.019531 -51.378906 45.140625 -49.5 C 44.140625 -48.496094 43.011719 -47.664062 41.757812 -46.992188 C 40.691406 -46.425781 39.515625 -45.785156 38.234375 -45.070312 L 38.175781 -45.039062 L 36.285156 -44.148438 L 35.425781 -45.976562 L 36.851562 -44.546875 L 30.441406 -38.136719 L 31.945312 -44.90625 C 32.078125 -45.496094 32.246094 -46.554688 32.453125 -48.078125 L 32.488281 -48.335938 L 35.925781 -56.648438 C 36.433594 -57.886719 37.375 -60.054688 38.746094 -63.15625 Z M 38.746094 -63.15625 "/></g></g></g><g fill="#000000" fill-opacity="1"><g transform="translate(247.474248, 125.388298)"><g><path d="M 60.488281 -74.785156 C 63.453125 -73.214844 65.332031 -70.886719 66.128906 -67.796875 L 66.238281 -67.371094 L 66.160156 -66.941406 C 64.726562 -58.921875 63.441406 -50.957031 62.292969 -43.046875 C 61.140625 -35.078125 60.023438 -28.402344 58.9375 -23.019531 C 57.867188 -17.707031 57.136719 -13.738281 56.746094 -11.117188 C 56.347656 -8.433594 55.894531 -5.753906 55.390625 -3.070312 L 55.371094 -2.980469 L 54.699219 -0.628906 L 52.757812 -1.183594 L 54.746094 -0.824219 C 54.597656 -0.015625 54.453125 0.738281 54.304688 1.4375 C 54.164062 2.101562 54.023438 2.820312 53.882812 3.589844 L 53.785156 4.140625 L 53.417969 4.558594 C 51.003906 7.316406 47.769531 8.695312 43.714844 8.695312 C 39.550781 8.695312 36.203125 7.597656 33.671875 5.402344 L 34.992188 3.875 L 33.753906 5.46875 C 31.757812 3.917969 31.304688 1.09375 32.394531 -2.996094 C 32.71875 -4.160156 32.929688 -5.691406 33.03125 -7.589844 C 33.140625 -9.671875 33.269531 -11.410156 33.414062 -12.808594 L 35.425781 -12.597656 L 33.40625 -12.597656 L 33.40625 -12.8125 L 35.425781 -12.8125 L 36.117188 -10.917969 C 34.144531 -10.191406 32.371094 -9.257812 30.800781 -8.113281 C 29.082031 -6.863281 28.015625 -6.078125 27.589844 -5.761719 C 26.941406 -5.273438 26.128906 -4.910156 25.144531 -4.664062 C 24.351562 -4.464844 23.625 -4.324219 22.96875 -4.242188 L 22.898438 -4.234375 L 22.824219 -4.230469 C 22.261719 -4.199219 21.800781 -4.144531 21.449219 -4.0625 C 21.246094 -4.015625 21.125 -3.980469 21.09375 -3.957031 L 19.917969 -5.597656 L 21.683594 -4.617188 C 17.238281 3.351562 13.089844 7.839844 9.230469 8.84375 L 8.722656 6.890625 L 9.320312 8.820312 C 6.941406 9.558594 4.554688 9.742188 2.167969 9.371094 C -0.558594 8.949219 -2.691406 7.375 -4.234375 4.65625 L -2.476562 3.660156 L -3.855469 5.132812 C -5.488281 3.605469 -6.128906 1.039062 -5.777344 -2.566406 C -5.476562 -5.675781 -4.433594 -9.710938 -2.65625 -14.679688 C -0.761719 -19.847656 1.941406 -26.035156 5.453125 -33.238281 C 8.960938 -40.4375 12.347656 -46.71875 15.609375 -52.085938 C 22.667969 -63.65625 30.425781 -73.414062 38.886719 -81.363281 L 39.152344 -81.613281 L 39.484375 -81.753906 C 40.820312 -82.316406 42.261719 -82.964844 43.8125 -83.707031 C 45.640625 -84.578125 47.457031 -85.054688 49.273438 -85.140625 C 51.019531 -85.21875 52.820312 -85.019531 54.667969 -84.539062 C 56.574219 -84.039062 58.210938 -83.28125 59.570312 -82.261719 C 61.335938 -80.925781 62.359375 -79.347656 62.640625 -77.535156 C 62.914062 -75.777344 62.457031 -73.917969 61.269531 -71.957031 L 59.542969 -73 Z M 58.597656 -71.21875 L 56.707031 -72.21875 L 57.816406 -74.046875 C 58.496094 -75.171875 58.773438 -76.128906 58.652344 -76.917969 C 58.535156 -77.652344 58.035156 -78.359375 57.148438 -79.03125 C 56.210938 -79.734375 55.042969 -80.265625 53.648438 -80.628906 C 52.195312 -81.007812 50.800781 -81.167969 49.460938 -81.105469 C 48.191406 -81.046875 46.886719 -80.699219 45.554688 -80.0625 C 43.945312 -79.292969 42.445312 -78.617188 41.050781 -78.03125 L 40.269531 -79.890625 L 41.652344 -78.421875 C 33.457031 -70.722656 25.925781 -61.242188 19.058594 -49.988281 C 15.863281 -44.730469 12.535156 -38.558594 9.082031 -31.46875 C 5.632812 -24.390625 2.988281 -18.339844 1.148438 -13.316406 C -0.519531 -8.664062 -1.488281 -4.949219 -1.757812 -2.171875 C -1.980469 0.109375 -1.761719 1.5625 -1.09375 2.1875 L -0.871094 2.398438 L -0.71875 2.664062 C 0.179688 4.253906 1.347656 5.15625 2.785156 5.378906 C 4.558594 5.65625 6.339844 5.515625 8.121094 4.960938 L 8.167969 4.949219 L 8.210938 4.9375 C 9.472656 4.609375 10.898438 3.554688 12.492188 1.773438 C 14.261719 -0.195312 16.148438 -2.980469 18.15625 -6.582031 L 18.375 -6.976562 L 18.746094 -7.242188 C 19.566406 -7.828125 20.855469 -8.167969 22.613281 -8.261719 L 22.71875 -6.246094 L 22.46875 -8.25 C 22.960938 -8.308594 23.527344 -8.421875 24.167969 -8.582031 C 24.621094 -8.695312 24.953125 -8.832031 25.167969 -8.992188 C 25.605469 -9.320312 26.691406 -10.113281 28.421875 -11.375 C 30.296875 -12.742188 32.398438 -13.855469 34.730469 -14.707031 L 37.441406 -15.703125 L 37.441406 -12.492188 L 37.433594 -12.386719 C 37.292969 -11.058594 37.167969 -9.386719 37.0625 -7.378906 C 36.949219 -5.183594 36.691406 -3.378906 36.296875 -1.957031 C 35.929688 -0.578125 35.789062 0.515625 35.871094 1.328125 C 35.921875 1.816406 36.042969 2.132812 36.234375 2.28125 L 36.273438 2.316406 L 36.316406 2.351562 C 38.089844 3.886719 40.554688 4.65625 43.714844 4.65625 C 46.550781 4.65625 48.769531 3.738281 50.378906 1.902344 L 51.898438 3.230469 L 49.910156 2.867188 C 50.058594 2.0625 50.207031 1.308594 50.351562 0.605469 C 50.492188 -0.0585938 50.632812 -0.773438 50.773438 -1.546875 L 50.789062 -1.644531 L 51.464844 -4 L 53.40625 -3.445312 L 51.421875 -3.820312 C 51.917969 -6.449219 52.363281 -9.082031 52.753906 -11.710938 C 53.152344 -14.398438 53.894531 -18.4375 54.980469 -23.816406 C 56.046875 -29.128906 57.15625 -35.730469 58.296875 -43.628906 C 59.449219 -51.582031 60.746094 -59.589844 62.183594 -67.648438 L 64.171875 -67.292969 L 62.21875 -66.792969 C 61.71875 -68.726562 60.511719 -70.203125 58.597656 -71.21875 Z M 38.40625 -44.015625 C 36.886719 -39.671875 35.363281 -35.671875 33.84375 -32.011719 C 32.339844 -28.398438 31.050781 -25.230469 29.980469 -22.515625 L 28.101562 -23.257812 L 28.027344 -25.273438 L 36.53125 -25.597656 L 36.609375 -23.578125 L 34.605469 -23.832031 C 35.183594 -28.445312 35.832031 -33.027344 36.550781 -37.570312 C 37.269531 -42.082031 37.949219 -46.59375 38.59375 -51.105469 L 40.59375 -50.820312 L 42.273438 -49.699219 L 38.179688 -43.5625 L 36.5 -44.683594 Z M 34.679688 -45.589844 L 38.914062 -51.941406 L 42.589844 -50.535156 C 41.945312 -46.003906 41.261719 -41.46875 40.539062 -36.9375 C 39.824219 -32.4375 39.183594 -27.902344 38.613281 -23.328125 L 38.398438 -21.628906 L 25.089844 -21.121094 L 26.222656 -24 C 27.304688 -26.738281 28.601562 -29.925781 30.113281 -33.5625 C 31.605469 -37.152344 33.101562 -41.082031 34.59375 -45.351562 Z M 33.59375 -25.167969 C 34.503906 -25.167969 35.414062 -25.234375 36.324219 -25.363281 L 36.609375 -23.363281 L 34.589844 -23.363281 L 34.589844 -23.472656 L 36.609375 -23.472656 L 36.761719 -21.460938 C 35.839844 -21.386719 34.988281 -21.316406 34.207031 -21.246094 C 34.027344 -21.230469 33.886719 -21.214844 33.785156 -21.203125 C 33.746094 -21.199219 33.71875 -21.195312 33.703125 -21.195312 C 33.730469 -21.199219 33.765625 -21.207031 33.8125 -21.21875 C 33.949219 -21.25 34.078125 -21.300781 34.207031 -21.363281 C 34.480469 -21.5 34.714844 -21.691406 34.902344 -21.9375 C 35.144531 -22.25 35.28125 -22.609375 35.3125 -23.003906 C 35.351562 -23.46875 35.238281 -23.894531 34.980469 -24.285156 C 34.628906 -24.808594 34.148438 -25.105469 33.539062 -25.164062 C 33.511719 -25.167969 33.496094 -25.167969 33.488281 -25.167969 C 33.511719 -25.167969 33.546875 -25.167969 33.59375 -25.167969 Z M 33.59375 -21.128906 C 33.402344 -21.128906 33.25 -21.136719 33.136719 -21.148438 C 32.480469 -21.210938 31.976562 -21.511719 31.621094 -22.042969 C 31.363281 -22.433594 31.25 -22.859375 31.289062 -23.328125 C 31.320312 -23.726562 31.457031 -24.082031 31.699219 -24.398438 C 31.890625 -24.644531 32.125 -24.835938 32.402344 -24.976562 C 32.539062 -25.042969 32.683594 -25.097656 32.835938 -25.136719 C 33.007812 -25.179688 33.34375 -25.222656 33.839844 -25.269531 C 34.640625 -25.339844 35.511719 -25.414062 36.453125 -25.484375 L 38.628906 -25.652344 L 38.628906 -21.613281 L 36.894531 -21.367188 C 35.792969 -21.207031 34.695312 -21.128906 33.59375 -21.128906 Z M 33.59375 -21.128906 "/></g></g></g></g></g><g clip-path="url(#57785f68a5)"><path fill="#000000" d="M 532.199219 493.695312 C 529.636719 492.871094 523.996094 490.71875 514.765625 485.378906 C 507.792969 481.375 504.820312 445.144531 502.359375 415.890625 C 500.203125 389.820312 498.152344 365.289062 493.640625 353.078125 C 484.207031 327.519531 457.648438 322.898438 452.109375 322.285156 C 449.957031 320.027344 447.699219 317.972656 445.445312 316.125 C 424.625 299.5 368.429688 308.222656 327.308594 314.6875 C 310.488281 317.359375 295.824219 319.617188 289.058594 319.203125 C 288.75 319.203125 288.542969 319.203125 288.238281 319.203125 C 287.929688 319 287.519531 318.792969 287.109375 318.691406 C 282.902344 318.179688 275.316406 313.148438 262.597656 292.003906 C 255.113281 279.585938 245.167969 259.058594 245.0625 258.851562 L 244.34375 257.414062 L 239.320312 257.722656 L 242.601562 253.308594 L 242.191406 252.179688 C 242.191406 251.976562 235.527344 231.140625 227.9375 214.921875 C 220.246094 198.601562 204.453125 181.152344 203.738281 180.433594 L 202.199219 178.792969 L 197.6875 182.28125 L 199.121094 177.253906 L 197.992188 176.226562 C 197.171875 175.507812 178.40625 158.46875 152.566406 156.417969 C 127.03125 154.363281 107.339844 162.371094 106.519531 162.679688 L 104.160156 163.601562 L 110.007812 176.738281 C 108.160156 174.894531 106.519531 173.660156 105.085938 173.351562 C 103.648438 173.046875 102.519531 173.457031 101.90625 173.96875 C 99.855469 175.40625 98.417969 178.792969 102.007812 193.367188 C 103.855469 200.757812 106.210938 207.53125 106.316406 208.046875 C 103.957031 210.097656 102.007812 212.046875 100.777344 213.894531 C 94.625 223.441406 82.214844 238.835938 75.34375 244.585938 C 69.601562 249.308594 63.65625 255.980469 60.988281 262.445312 C 60.988281 262.445312 60.988281 262.546875 60.988281 262.648438 C 60.066406 264.804688 59.554688 266.960938 59.554688 269.015625 C 59.554688 274.351562 63.039062 279.792969 65.910156 283.382812 C 67.140625 284.921875 68.78125 286.257812 70.527344 287.078125 C 70.527344 287.078125 70.527344 287.179688 70.628906 287.285156 C 70.730469 287.386719 73.191406 290.464844 78.011719 292.519531 C 78.832031 292.828125 79.960938 293.03125 81.601562 293.03125 C 84.984375 293.03125 90.421875 292.3125 99.035156 291.082031 C 107.546875 289.851562 117.289062 288.515625 121.183594 289.027344 C 126.515625 289.746094 132.566406 290.363281 139.234375 289.132812 C 141.179688 292.929688 145.695312 302.578125 149.179688 315.511719 C 148.667969 316.023438 148.460938 316.84375 148.976562 317.460938 C 149.179688 317.769531 149.488281 317.972656 149.898438 318.074219 C 151.332031 323.925781 152.566406 330.289062 153.28125 337.0625 C 153.898438 342.710938 154.207031 348.664062 154.511719 354.410156 C 155.847656 378.121094 157.179688 402.550781 174.921875 422.667969 C 180.457031 428.925781 186.40625 433.648438 192.148438 437.242188 C 193.890625 446.683594 196.96875 469.882812 193.175781 477.375 C 191.019531 481.683594 177.894531 487.535156 166.410156 492.667969 C 153.386719 498.414062 141.078125 503.957031 137.695312 509.601562 C 133.183594 517.09375 135.746094 529.515625 138.617188 538.753906 C 139.847656 542.753906 143.644531 545.527344 147.746094 545.527344 C 151.847656 545.527344 148.15625 545.527344 148.359375 545.527344 C 153.386719 545.21875 160.5625 544.5 166.820312 542.652344 C 171.84375 541.113281 174.714844 535.878906 173.382812 530.746094 C 173.074219 529.71875 173.074219 529.308594 173.074219 529.105469 C 173.382812 528.898438 174.203125 528.589844 174.921875 528.285156 C 176.152344 527.769531 177.6875 527.257812 179.433594 526.230469 C 181.894531 524.792969 183.125 523.460938 183.945312 522.023438 C 184.148438 521.917969 184.253906 521.714844 184.457031 521.40625 C 184.664062 520.996094 184.765625 520.6875 184.664062 520.277344 C 184.867188 519.457031 184.96875 518.738281 185.074219 517.917969 C 185.277344 516.171875 185.484375 514.632812 187.226562 512.476562 C 188.660156 510.730469 193.890625 509.398438 198.917969 508.0625 C 202.503906 507.140625 206.300781 506.113281 210.09375 504.777344 C 210.503906 504.777344 210.914062 504.574219 211.121094 504.367188 C 215.425781 502.726562 219.527344 500.671875 222.808594 497.59375 C 218.503906 534.953125 211.425781 588.636719 210.300781 597.15625 C 210.09375 599.105469 211.222656 600.953125 213.066406 601.570312 L 225.375 605.46875 C 225.785156 605.570312 226.195312 605.675781 226.605469 605.675781 C 227.015625 605.675781 227.628906 605.570312 228.144531 605.367188 L 239.421875 600.644531 C 241.167969 599.925781 242.191406 598.078125 241.882812 596.128906 C 240.039062 586.480469 240.242188 578.472656 242.5 576.320312 C 244.753906 574.164062 243.933594 574.882812 244.652344 574.265625 C 248.550781 570.570312 250.191406 568.722656 252.855469 560.820312 C 254.703125 555.175781 253.675781 551.789062 252.242188 547.578125 C 251.113281 544.296875 249.78125 540.085938 249.269531 533.003906 C 248.550781 520.789062 246.703125 492.152344 255.933594 478.914062 C 260.035156 472.960938 263.726562 461.875 266.597656 449.867188 C 273.46875 450.480469 292.339844 451.917969 313.769531 451.917969 C 335.203125 451.917969 316.4375 451.917969 317.769531 451.917969 C 335.101562 451.816406 349.972656 450.6875 362.175781 448.632812 C 363.097656 450.070312 375.402344 469.367188 382.070312 487.535156 C 386.683594 500.160156 366.070312 542.34375 346.996094 574.675781 C 346.382812 575.804688 346.277344 577.140625 346.6875 578.269531 C 347.203125 579.5 348.226562 580.320312 349.457031 580.628906 C 352.226562 581.347656 357.046875 582.273438 362.585938 582.273438 C 368.121094 582.273438 374.378906 581.347656 379.914062 578.0625 C 380.839844 577.550781 381.554688 576.628906 381.863281 575.496094 C 382.480469 573.136719 383.195312 570.878906 383.914062 568.621094 C 384.222656 568.3125 384.324219 568.003906 384.324219 567.492188 C 384.324219 566.980469 384.324219 567.390625 384.324219 567.285156 C 388.527344 555.6875 394.988281 545.835938 400.320312 537.519531 C 404.425781 531.261719 407.910156 525.820312 409.859375 520.789062 C 413.039062 512.476562 413.652344 494.824219 413.652344 482.199219 C 419.292969 497.695312 423.703125 513.503906 424.523438 522.84375 C 425.855469 538.34375 404.628906 591.921875 402.167969 597.976562 C 401.554688 599.617188 401.964844 601.464844 403.296875 602.59375 C 405.246094 604.03125 408.117188 604.648438 411.601562 604.648438 C 420.113281 604.648438 431.90625 601.054688 439.394531 598.285156 C 441.136719 597.667969 442.164062 595.921875 442.058594 594.179688 C 441.648438 588.738281 440.417969 575.394531 439.289062 569.339844 C 438.777344 566.980469 441.238281 557.226562 446.878906 543.167969 C 452.109375 529.824219 457.953125 518.53125 461.644531 514.222656 C 468.003906 506.730469 462.980469 496.363281 458.058594 486.199219 C 457.851562 485.6875 457.542969 485.175781 457.339844 484.660156 L 457.542969 484.046875 L 456.722656 483.328125 C 456.722656 483.328125 456.621094 483.328125 456.519531 483.222656 C 454.46875 478.8125 452.519531 474.5 452.109375 470.90625 C 451.492188 465.261719 453.957031 461.667969 458.46875 455 C 459.902344 452.84375 461.644531 450.277344 463.390625 447.402344 C 466.054688 476.449219 476.824219 494.515625 498.359375 506.832031 C 503.691406 509.910156 508.511719 511.039062 512.816406 511.039062 C 523.996094 511.039062 531.6875 503.339844 534.25 500.160156 C 535.070312 499.132812 535.378906 497.695312 535.070312 496.464844 C 534.660156 495.128906 533.738281 494.105469 532.40625 493.695312 Z M 448.929688 326.082031 C 449.03125 326.289062 449.238281 326.390625 449.339844 326.59375 C 453.238281 330.804688 456.621094 335.421875 459.59375 340.453125 C 447.800781 351.433594 437.445312 364.160156 427.496094 376.582031 C 418.984375 387.050781 410.269531 397.929688 400.734375 407.476562 C 399.398438 408.808594 397.859375 409.9375 396.21875 411.066406 C 395.195312 411.785156 394.167969 412.503906 393.246094 413.328125 C 393.554688 409.117188 394.476562 405.011719 396.117188 401.113281 C 416.113281 383.972656 424.214844 342.503906 429.136719 317.460938 C 429.34375 316.332031 429.546875 315.304688 429.753906 314.175781 C 434.777344 315.511719 439.085938 317.359375 442.265625 319.921875 C 444.625 321.769531 446.777344 323.824219 448.929688 326.082031 Z M 464.722656 434.46875 C 464.109375 434.46875 463.59375 434.878906 463.183594 435.292969 C 452.726562 430.363281 437.855469 433.855469 423.394531 437.242188 C 414.988281 439.191406 406.988281 441.140625 400.117188 441.347656 C 399.605469 440.320312 399.089844 439.292969 398.679688 438.269531 C 405.960938 437.035156 414.0625 434.878906 422.574219 432.519531 C 439.496094 427.902344 457.03125 423.078125 468.210938 426.566406 C 467.082031 429.441406 465.851562 432.109375 464.722656 434.46875 Z M 453.441406 488.355469 C 454.160156 489.792969 454.777344 491.128906 455.492188 492.566406 C 452.316406 496.363281 434.984375 504.058594 425.035156 502.007812 C 424.214844 498.824219 423.191406 495.542969 422.164062 492.257812 C 422.984375 492.359375 423.910156 492.460938 424.832031 492.566406 C 428.625 493.078125 432.726562 493.589844 436.828125 493.589844 C 440.933594 493.589844 446.46875 492.871094 450.261719 490.304688 C 451.289062 489.691406 452.109375 488.664062 452.929688 487.636719 C 452.929688 487.636719 453.03125 487.535156 453.136719 487.433594 C 453.238281 487.742188 453.441406 488.046875 453.546875 488.355469 Z M 451.390625 484.558594 C 451.085938 484.867188 450.777344 485.277344 450.46875 485.6875 C 449.851562 486.507812 449.136719 487.328125 448.519531 487.742188 C 442.46875 491.742188 432.832031 490.511719 425.140625 489.589844 C 423.703125 489.382812 422.371094 489.175781 421.039062 489.074219 C 418.882812 482.710938 416.523438 476.246094 413.960938 470.085938 C 422.679688 464.441406 436.828125 465.160156 446.980469 469.164062 C 446.980469 469.882812 446.980469 470.703125 447.085938 471.421875 C 447.496094 475.421875 449.339844 479.941406 451.496094 484.351562 C 451.496094 484.351562 451.496094 484.457031 451.496094 484.558594 Z M 408.527344 487.742188 C 404.015625 487.125 393.554688 486.816406 387.195312 488.871094 C 387.09375 487.742188 386.785156 486.613281 386.476562 485.6875 C 386.171875 484.96875 385.863281 484.148438 385.65625 483.429688 C 385.65625 483.429688 385.65625 483.429688 385.761719 483.429688 C 392.117188 480.964844 404.9375 480.761719 408.628906 481.480469 C 408.628906 483.429688 408.628906 485.585938 408.628906 487.84375 Z M 387.296875 491.949219 C 393.144531 489.691406 404.835938 490.304688 408.421875 490.71875 C 408.320312 496.054688 408.011719 501.699219 407.5 506.730469 C 404.835938 506.316406 401.757812 506.113281 398.578125 505.804688 C 393.863281 505.496094 389.042969 505.085938 385.246094 503.957031 C 386.476562 499.441406 387.195312 495.335938 387.195312 491.847656 Z M 447.289062 465.980469 C 436.625 462.082031 422.371094 461.566406 412.9375 467.109375 C 412.832031 466.800781 412.628906 466.597656 412.421875 466.390625 C 411.910156 465.160156 411.398438 463.929688 410.886719 462.796875 C 412.628906 462.492188 414.371094 462.082031 416.320312 461.667969 C 427.394531 459.308594 440.007812 456.640625 448.007812 461.976562 C 448.109375 461.976562 448.316406 462.082031 448.417969 462.183594 C 447.90625 463.414062 447.496094 464.644531 447.289062 465.980469 Z M 379.609375 469.882812 C 378.273438 467.109375 376.839844 464.542969 375.609375 462.082031 C 376.941406 461.773438 378.480469 461.566406 380.121094 461.257812 C 387.8125 459.820312 397.246094 458.078125 401.449219 454.175781 C 402.476562 456.230469 403.605469 458.386719 404.628906 460.746094 C 397.757812 468.339844 385.351562 469.675781 380.121094 469.882812 C 379.914062 469.882812 379.8125 469.882812 379.710938 469.882812 Z M 359.40625 443.914062 C 377.660156 414.867188 386.171875 379.761719 382.171875 349.6875 C 381.761719 346.40625 381.660156 343.121094 381.453125 339.835938 C 381.25 333.675781 381.042969 327.210938 378.480469 320.949219 C 378.480469 320.746094 378.171875 320.027344 377.863281 319 C 377.042969 316.023438 376.429688 314.175781 376.019531 312.945312 C 383.605469 312.226562 391.09375 311.710938 398.269531 311.507812 C 398.269531 311.507812 398.269531 311.609375 398.269531 311.710938 C 402.167969 337.476562 400.117188 371.449219 393.453125 395.261719 C 387.402344 406.65625 386.683594 419.175781 391.296875 433.136719 C 384.121094 438.472656 372.53125 441.757812 359.199219 443.914062 Z M 344.636719 316.945312 C 353.765625 315.613281 363.40625 314.277344 372.941406 313.25 C 373.453125 314.6875 374.480469 318.179688 374.992188 319.921875 C 375.503906 321.566406 375.609375 321.976562 375.710938 322.179688 C 378.070312 327.929688 378.273438 333.78125 378.480469 340.039062 C 378.582031 343.324219 378.683594 346.710938 379.199219 350.101562 C 383.195312 380.171875 374.378906 415.277344 355.714844 444.117188 C 355.714844 444.222656 355.609375 444.324219 355.507812 444.425781 C 353.457031 444.734375 351.304688 444.9375 349.152344 445.144531 C 356.839844 429.75 357.457031 403.164062 357.457031 394.851562 C 357.457031 386.535156 357.457031 387.871094 357.558594 384.175781 C 357.867188 361.699219 358.277344 336.347656 344.742188 316.84375 Z M 470.15625 421.640625 C 469.851562 422.359375 469.644531 423.078125 469.335938 423.796875 C 457.238281 419.894531 439.1875 424.820312 421.753906 429.644531 C 413.039062 432.109375 404.730469 434.367188 397.347656 435.496094 C 395.605469 431.082031 394.375 426.773438 393.757812 422.667969 L 394.375 422.460938 C 399.503906 420.410156 404.730469 418.355469 409.65625 415.480469 C 416.523438 411.582031 423.703125 405.730469 430.675781 400.085938 C 439.1875 393.207031 447.1875 386.742188 454.46875 383.664062 C 461.132812 380.789062 467.695312 379.148438 472.925781 378.839844 C 475.285156 394.441406 474.363281 409.734375 470.054688 421.640625 Z M 472.105469 375.761719 C 471.902344 375.761719 471.59375 375.761719 471.386719 375.964844 C 466.054688 376.476562 459.59375 378.222656 453.339844 380.996094 C 445.75 384.277344 437.546875 390.847656 428.832031 397.828125 C 421.960938 403.371094 414.882812 409.117188 408.21875 412.914062 C 403.5 415.585938 398.375 417.636719 393.453125 419.585938 C 393.453125 418.867188 393.453125 418.253906 393.347656 417.535156 C 394.683594 416.097656 396.425781 414.867188 398.167969 413.632812 C 399.808594 412.402344 401.554688 411.171875 403.089844 409.734375 C 412.730469 400.085938 421.550781 389.207031 430.0625 378.632812 C 439.804688 366.523438 449.957031 354 461.339844 343.324219 C 466.773438 353.382812 470.566406 364.570312 472.621094 375.863281 L 472.210938 375.863281 Z M 426.882812 313.558594 C 426.675781 314.6875 426.472656 315.816406 426.265625 316.945312 C 421.960938 338.707031 415.292969 373.089844 400.628906 392.078125 C 400.527344 391.464844 400.21875 390.847656 399.605469 390.4375 C 399.195312 390.128906 398.679688 390.027344 398.167969 390.027344 C 403.605469 366.417969 405.039062 335.421875 401.554688 311.507812 C 410.988281 311.507812 419.703125 311.917969 426.984375 313.558594 Z M 316.949219 331.933594 C 317.15625 332.652344 317.769531 333.0625 318.386719 333.0625 C 319 333.0625 318.589844 333.0625 318.796875 333.0625 L 324.332031 331.726562 C 324.847656 334.601562 325.460938 337.679688 326.078125 340.65625 C 327 345.171875 327.820312 349.382812 328.128906 352.664062 C 331.410156 392.078125 324.128906 422.359375 305.773438 445.144531 C 305.363281 445.65625 305.363281 446.375 305.667969 446.890625 C 304.027344 446.890625 302.492188 446.890625 300.953125 446.890625 C 317.464844 412.8125 311.824219 386.535156 305.257812 356.257812 C 303.003906 345.992188 300.746094 335.421875 299.105469 323.824219 C 305.773438 323.105469 314.179688 321.875 323.921875 320.335938 C 323.410156 322.59375 323.511719 325.570312 323.921875 328.851562 L 318.078125 330.289062 C 317.257812 330.496094 316.746094 331.316406 316.949219 332.136719 Z M 261.472656 446.785156 C 261.472656 447.300781 261.472656 447.8125 261.777344 448.222656 C 261.0625 451.40625 260.242188 454.484375 259.421875 457.460938 C 257.472656 457.460938 255.011719 457.871094 252.140625 458.386719 C 245.78125 459.410156 237.371094 460.746094 230.910156 458.078125 C 230.707031 452.945312 230.296875 446.375 229.679688 439.703125 C 229.886719 439.703125 230.195312 439.808594 230.398438 439.703125 C 247.320312 436.625 258.496094 437.960938 262.804688 443.605469 C 262.703125 444.117188 262.597656 444.632812 262.496094 445.042969 C 261.984375 445.453125 261.574219 446.070312 261.472656 446.785156 Z M 199.632812 464.75 C 199.632812 461.773438 199.53125 458.796875 199.222656 455.820312 C 203.328125 458.078125 208.453125 459 213.375 459 C 218.296875 459 222.707031 458.179688 225.988281 456.84375 C 225.988281 458.796875 226.09375 460.644531 226.09375 462.183594 C 226.09375 463.722656 226.09375 464.234375 225.886719 465.878906 C 220.347656 467.519531 207.019531 469.777344 199.632812 464.75 Z M 190.097656 430.054688 C 190.097656 429.851562 190.097656 429.75 190.097656 429.441406 C 189.890625 417.738281 190.097656 410.246094 190.917969 407.066406 C 194.917969 390.949219 204.351562 377.300781 214.300781 362.929688 C 224.964844 347.535156 235.9375 331.625 240.242188 311.917969 C 240.652344 310 241.167969 308.53125 241.78125 307.503906 C 241.988281 307.09375 242.292969 306.582031 242.703125 305.964844 C 243.421875 306.785156 244.039062 307.503906 244.757812 308.222656 C 238.601562 321.769531 236.550781 336.859375 234.605469 351.332031 C 233.269531 360.980469 231.9375 371.039062 229.375 380.480469 C 228.859375 382.535156 228.449219 384.585938 228.039062 386.640625 C 227.324219 390.4375 226.503906 394.335938 224.863281 397.726562 C 221.886719 403.679688 217.375 409.425781 212.964844 414.96875 C 207.734375 421.539062 202.402344 428.414062 199.429688 435.597656 C 196.351562 434.058594 193.175781 432.210938 189.996094 429.851562 Z M 247.21875 274.351562 C 243.933594 277.019531 238.601562 282.253906 235.628906 286.566406 C 234.707031 284.71875 233.679688 282.871094 232.757812 280.921875 C 238.089844 275.273438 242.5 272.195312 245.882812 271.785156 C 246.292969 272.605469 246.808594 273.53125 247.21875 274.453125 Z M 248.652344 277.121094 C 249.882812 279.484375 251.214844 281.945312 252.445312 284.308594 C 248.859375 284.921875 245.167969 288.722656 242.089844 292.003906 C 241.269531 292.828125 240.550781 293.648438 239.832031 294.261719 C 238.910156 292.828125 238.089844 291.285156 237.167969 289.644531 C 239.21875 286.460938 244.140625 280.816406 248.550781 277.226562 Z M 244.34375 294.058594 C 247.21875 291.082031 251.523438 286.566406 253.984375 287.386719 C 253.984375 287.386719 254.085938 287.386719 254.191406 287.386719 C 255.011719 288.925781 255.933594 290.464844 256.753906 291.902344 C 256.753906 291.902344 256.753906 292.109375 256.652344 292.210938 C 255.730469 294.777344 254.085938 296.933594 252.242188 299.292969 C 250.804688 301.039062 249.371094 302.886719 248.34375 304.9375 C 246.808594 303.296875 245.167969 301.449219 243.523438 299.394531 C 242.910156 298.574219 242.292969 297.753906 241.578125 296.828125 C 242.398438 296.109375 243.320312 295.085938 244.34375 294.058594 Z M 262.292969 301.039062 C 262.085938 301.140625 261.882812 301.242188 261.777344 301.449219 C 259.832031 304.21875 257.371094 308.734375 256.035156 311.609375 C 254.191406 310.378906 252.445312 308.941406 250.601562 307.195312 C 251.523438 305.039062 253.0625 303.191406 254.601562 301.140625 C 256.035156 299.292969 257.574219 297.34375 258.703125 295.085938 C 259.933594 297.136719 261.164062 299.085938 262.394531 300.933594 Z M 269.164062 310.582031 C 268.035156 313.148438 267.214844 315.097656 266.804688 316.535156 C 263.828125 315.714844 261.164062 314.6875 258.601562 313.25 C 259.726562 310.789062 262.1875 306.273438 264.035156 303.605469 C 265.777344 306.167969 267.523438 308.53125 269.164062 310.582031 Z M 215.324219 417.019531 C 219.835938 411.273438 224.453125 405.421875 227.628906 399.265625 C 229.476562 395.464844 230.296875 391.359375 231.117188 387.359375 C 231.527344 385.304688 231.9375 383.355469 232.449219 381.40625 C 235.117188 371.757812 236.449219 361.59375 237.78125 351.84375 C 239.628906 338.398438 241.472656 324.542969 246.703125 311.917969 C 246.703125 324.851562 251.730469 340.039062 257.0625 356.15625 C 262.597656 372.886719 268.238281 390.128906 268.648438 405.730469 C 268.136719 406.140625 267.726562 406.859375 267.726562 407.578125 C 267.726562 411.890625 267.214844 418.148438 266.1875 425.335938 C 256.140625 419.382812 241.269531 417.328125 228.347656 425.335938 C 227.527344 419.074219 226.707031 414.148438 225.886719 412.609375 C 225.273438 411.375 223.835938 410.964844 222.605469 411.480469 C 221.375 412.09375 220.964844 413.53125 221.476562 414.761719 C 222.503906 416.816406 224.246094 429.953125 225.273438 442.988281 C 224.554688 442.988281 214.605469 442.679688 202.300781 437.140625 C 205.070312 430.261719 210.300781 423.488281 215.425781 417.019531 Z M 228.554688 428.722656 C 241.167969 420.203125 256.035156 422.460938 265.574219 428.722656 C 265.0625 432.417969 264.34375 436.214844 263.625 440.011719 C 257.882812 434.878906 246.5 433.75 229.988281 436.832031 C 229.785156 436.832031 229.679688 436.832031 229.476562 437.035156 C 229.167969 434.265625 228.964844 431.492188 228.65625 428.824219 Z M 226.503906 506.421875 C 226.503906 506.421875 226.707031 506.316406 226.707031 506.214844 C 228.65625 503.648438 240.039062 504.164062 243.730469 505.1875 C 243.730469 505.292969 243.832031 505.394531 243.933594 505.601562 C 243.730469 509.808594 243.628906 514.117188 243.628906 518.429688 C 238.707031 520.378906 230.808594 520.996094 224.65625 520.585938 C 225.273438 515.761719 225.785156 511.039062 226.398438 506.421875 Z M 224.347656 523.5625 C 225.476562 523.5625 226.707031 523.664062 228.039062 523.664062 C 233.066406 523.664062 239.117188 523.152344 243.730469 521.507812 C 243.730469 523.152344 243.832031 524.792969 243.933594 526.332031 C 239.320312 527.769531 234.398438 528.589844 229.679688 529.515625 C 227.628906 529.925781 225.578125 530.234375 223.425781 530.746094 C 223.734375 528.386719 224.042969 525.921875 224.347656 523.5625 Z M 223.117188 533.929688 C 225.476562 533.414062 227.9375 533.003906 230.296875 532.59375 C 234.910156 531.773438 239.628906 530.953125 244.140625 529.617188 C 244.140625 530.847656 244.242188 532.082031 244.34375 533.210938 C 244.550781 536.800781 245.0625 539.777344 245.578125 542.242188 C 239.9375 543.679688 228.964844 546.246094 221.578125 546.859375 C 222.09375 542.652344 222.605469 538.34375 223.21875 534.03125 Z M 221.167969 549.835938 C 228.859375 549.324219 240.550781 546.554688 246.292969 545.117188 C 246.703125 546.554688 247.113281 547.886719 247.523438 549.015625 C 247.933594 550.351562 248.34375 551.480469 248.550781 552.609375 C 247.832031 552.917969 246.910156 553.328125 245.882812 553.738281 C 239.011719 556.714844 226.195312 562.359375 219.425781 562.566406 C 219.9375 558.460938 220.453125 554.25 221.066406 549.835938 Z M 244.242188 502.109375 C 240.449219 501.289062 231.730469 500.570312 226.914062 502.519531 C 227.21875 499.851562 227.527344 497.183594 227.835938 494.617188 C 229.679688 494.617188 232.039062 494.410156 234.5 494.105469 C 238.296875 493.589844 243.421875 492.976562 245.167969 494.308594 C 244.757812 496.875 244.449219 499.441406 244.140625 502.109375 Z M 231.015625 461.257812 C 233.886719 462.285156 237.066406 462.59375 240.140625 462.59375 C 244.550781 462.59375 248.960938 461.875 252.652344 461.257812 C 254.90625 460.847656 256.960938 460.539062 258.496094 460.4375 C 257.882812 462.386719 257.265625 464.132812 256.652344 465.878906 C 255.113281 466.390625 253.574219 467.109375 251.933594 467.726562 C 244.859375 470.597656 237.578125 473.574219 230.296875 471.832031 C 230.707031 467.210938 231.015625 463.824219 231.015625 462.183594 C 231.015625 460.539062 231.015625 461.566406 231.015625 461.257812 Z M 272.445312 407.578125 C 272.445312 406.757812 272.035156 406.140625 271.519531 405.628906 C 271.109375 389.511719 265.367188 372.066406 259.832031 355.128906 C 254.804688 339.628906 249.984375 325.054688 249.679688 312.839844 C 257.0625 319.101562 264.238281 321.566406 274.085938 322.796875 C 280.339844 358.617188 278.800781 397.929688 270.1875 430.773438 C 271.625 421.539062 272.445312 413.121094 272.445312 407.578125 Z M 276.339844 318.179688 C 273.980469 317.871094 271.828125 317.5625 269.777344 317.152344 C 270.085938 316.125 270.804688 314.484375 271.417969 313.148438 C 273.160156 315.097656 274.800781 316.742188 276.339844 318.179688 Z M 241.269531 262.445312 C 241.988281 263.777344 243.113281 266.140625 244.449219 268.910156 C 240.652344 269.730469 236.347656 272.707031 231.320312 277.945312 C 229.269531 273.734375 227.21875 269.320312 225.066406 264.804688 C 224.453125 263.367188 223.734375 262.035156 223.117188 260.597656 C 223.117188 260.597656 223.117188 260.390625 223.117188 260.289062 C 230.089844 255.363281 233.988281 252.179688 236.140625 249.921875 C 236.449219 250.949219 236.757812 251.769531 236.960938 252.386719 L 229.066406 263.164062 L 241.167969 262.445312 Z M 210.8125 196.960938 C 210.605469 197.164062 210.503906 197.472656 210.503906 197.78125 C 210.195312 200.246094 201.273438 208.148438 198.402344 210.816406 C 197.378906 211.742188 196.761719 212.355469 196.25 212.765625 C 194.917969 211.023438 193.480469 209.378906 192.046875 207.941406 C 197.6875 204.453125 204.351562 199.320312 207.734375 193.058594 C 208.761719 194.292969 209.785156 195.625 210.8125 197.0625 Z M 210.300781 245.507812 C 200.042969 274.863281 180.867188 293.441406 153.386719 312.535156 C 151.4375 305.65625 149.179688 299.703125 147.335938 295.085938 C 157.28125 289.4375 168.460938 282.355469 176.664062 273.015625 C 184.046875 264.601562 197.992188 241.710938 199.738281 226.210938 C 203.328125 232.0625 206.914062 238.632812 210.300781 245.507812 Z M 227.527344 226.625 C 226.195312 227.957031 222.605469 231.035156 219.9375 233.296875 C 216.351562 236.375 214.09375 238.222656 212.761719 239.554688 C 211.53125 237.09375 210.195312 234.730469 208.964844 232.472656 C 213.375 231.449219 217.066406 227.753906 220.347656 224.46875 C 221.988281 222.824219 223.527344 221.285156 224.863281 220.363281 C 225.785156 222.414062 226.707031 224.570312 227.527344 226.625 Z M 214.503906 242.121094 C 215.941406 240.683594 219.324219 237.8125 221.886719 235.65625 C 225.167969 232.882812 227.324219 231.035156 228.757812 229.703125 C 229.886719 232.578125 231.015625 235.449219 231.9375 238.117188 C 229.066406 241.09375 221.886719 247.871094 217.375 248.894531 C 216.351562 246.84375 215.324219 244.789062 214.300781 242.839844 C 214.300781 242.636719 214.402344 242.328125 214.300781 242.121094 Z M 233.167969 241.199219 C 233.886719 243.148438 234.5 244.996094 235.117188 246.636719 C 233.886719 248.179688 230.5 251.359375 221.683594 257.519531 C 220.757812 255.566406 219.835938 253.515625 218.8125 251.566406 C 223.628906 250.023438 229.785156 244.585938 233.167969 241.09375 Z M 223.628906 217.589844 C 221.886719 218.617188 220.144531 220.363281 218.195312 222.3125 C 214.914062 225.597656 211.324219 229.292969 207.324219 229.601562 C 204.351562 224.367188 201.273438 219.4375 198.097656 215.128906 C 198.300781 215.128906 198.402344 214.921875 198.507812 214.921875 C 198.8125 214.71875 199.019531 214.410156 199.121094 214.101562 C 199.53125 213.792969 199.941406 213.382812 200.351562 212.972656 C 206.8125 207.121094 211.324219 202.8125 212.863281 199.730469 C 216.65625 205.070312 220.554688 211.125 223.324219 216.871094 C 223.324219 217.078125 223.527344 217.28125 223.628906 217.488281 Z M 201.480469 185.363281 C 202.503906 186.492188 203.941406 188.234375 205.683594 190.390625 C 202.609375 197.164062 194.710938 202.707031 189.890625 205.683594 C 188.660156 204.554688 187.328125 203.425781 186.097656 202.503906 C 183.84375 200.859375 181.6875 199.421875 179.738281 198.089844 C 187.019531 186.183594 190.097656 180.230469 191.226562 177.046875 C 192.25 177.765625 192.96875 178.382812 193.585938 178.894531 L 188.96875 195.113281 L 201.582031 185.464844 Z M 179.023438 204.554688 L 179.023438 205.273438 C 179.328125 205.890625 179.433594 206.507812 179.535156 207.121094 C 181.484375 215.640625 179.328125 231.652344 175.125 239.964844 C 173.996094 242.121094 172.5625 244.6875 171.433594 246.535156 C 168.460938 242.941406 164.5625 240.070312 161.484375 238.117188 C 161.484375 238.117188 161.484375 238.117188 161.589844 238.015625 C 165.179688 232.578125 165.792969 221.902344 165.894531 216.050781 C 165.894531 208.457031 165.28125 200.554688 164.050781 194.394531 C 167.023438 195.933594 170.816406 198.089844 175.433594 201.167969 C 175.636719 201.375 175.84375 201.578125 176.046875 201.683594 C 176.046875 201.683594 176.253906 201.683594 176.253906 201.683594 C 177.175781 202.296875 178.203125 202.914062 179.125 203.632812 C 179.023438 203.941406 178.917969 204.246094 179.023438 204.554688 Z M 90.726562 263.164062 C 90.726562 263.164062 90.726562 263.164062 90.726562 263.0625 C 90.421875 262.445312 90.113281 261.828125 89.804688 261.316406 C 100.777344 253 113.492188 255.566406 125.902344 257.929688 C 140.464844 260.800781 155.539062 263.675781 163.332031 245.304688 C 164.871094 246.535156 166.511719 247.972656 167.742188 249.613281 C 158.101562 267.472656 139.027344 264.703125 120.464844 261.933594 C 108.777344 260.1875 97.699219 258.542969 90.726562 263.164062 Z M 158.921875 164.832031 C 158.921875 163.910156 158.921875 162.988281 158.921875 162.164062 C 162.410156 162.882812 165.691406 163.808594 168.765625 164.832031 C 168.5625 172.121094 165.691406 180.539062 163.433594 186.800781 C 163.230469 187.3125 163.023438 187.824219 162.921875 188.339844 C 160.769531 187.414062 159.023438 186.800781 157.589844 186.492188 C 159.332031 180.640625 159.230469 172.222656 159.023438 164.832031 Z M 188.558594 175.097656 C 188.046875 177.046875 185.6875 182.28125 177.074219 196.34375 C 175.945312 195.625 174.921875 195.011719 173.996094 194.394531 C 177.6875 190.390625 180.046875 184.644531 182.199219 179.511719 C 183.226562 177.046875 184.148438 174.789062 185.175781 172.839844 C 186.40625 173.660156 187.535156 174.378906 188.558594 175.097656 Z M 179.328125 178.28125 C 177.277344 183.410156 174.816406 189.058594 171.332031 192.753906 C 169.175781 191.519531 167.332031 190.492188 165.589844 189.671875 C 165.792969 189.058594 166 188.441406 166.203125 187.824219 C 168.355469 181.667969 171.226562 173.457031 171.636719 165.964844 C 175.742188 167.605469 179.328125 169.453125 182.507812 171.300781 C 181.378906 173.351562 180.355469 175.816406 179.328125 178.382812 Z M 152.050781 161.242188 C 153.28125 161.242188 154.511719 161.445312 155.742188 161.652344 C 155.742188 162.679688 155.742188 163.808594 155.742188 164.9375 C 155.949219 172.328125 156.050781 180.640625 154.308594 185.976562 C 153.898438 185.976562 153.589844 185.976562 153.28125 185.976562 C 152.667969 183.515625 151.847656 181.050781 150.921875 178.792969 C 147.746094 170.582031 140.054688 165.757812 134.824219 166.269531 C 134.414062 164.9375 134.003906 163.089844 133.695312 161.550781 C 139.234375 161.035156 145.488281 160.832031 152.050781 161.34375 Z M 130.414062 191.828125 C 130.414062 190.699219 130.515625 189.46875 130.207031 188.441406 C 129.082031 185.15625 128.464844 181.5625 127.851562 177.871094 C 127.234375 174.378906 126.621094 170.785156 125.59375 167.398438 C 125.492188 166.886719 125.285156 166.476562 125.183594 165.964844 C 124.875 164.9375 124.570312 163.808594 124.160156 162.679688 C 126.210938 162.269531 128.464844 161.960938 130.824219 161.652344 C 131.132812 163.398438 131.746094 165.757812 132.261719 167.503906 C 130.925781 169.65625 130.003906 175.40625 131.851562 191.109375 C 131.644531 191.109375 131.441406 191.210938 131.335938 191.316406 C 131.335938 191.316406 130.925781 191.519531 130.515625 191.828125 Z M 121.082031 163.398438 C 121.492188 164.527344 121.902344 165.65625 122.210938 166.886719 C 122.3125 167.398438 122.519531 167.808594 122.621094 168.324219 C 123.644531 171.609375 124.261719 174.996094 124.773438 178.382812 C 125.390625 182.078125 126.105469 185.875 127.234375 189.46875 C 127.441406 190.1875 127.234375 191.726562 127.234375 192.648438 C 127.234375 192.957031 127.234375 193.367188 127.234375 193.675781 C 126.210938 194.292969 125.082031 195.011719 123.75 195.730469 L 110.621094 166.167969 C 112.777344 165.449219 116.46875 164.320312 121.082031 163.292969 Z M 104.570312 178.382812 C 107.339844 180.128906 113.597656 188.75 119.339844 198.5 C 116.363281 200.449219 113.1875 202.503906 110.316406 204.660156 C 106.417969 192.855469 104.058594 181.667969 104.570312 178.28125 Z M 104.878906 216.460938 C 107.441406 212.460938 115.851562 206.507812 123.234375 201.785156 C 115.132812 214.613281 103.855469 224.671875 92.472656 233.191406 C 97.394531 227.136719 102.007812 220.875 104.878906 216.460938 Z M 78.421875 248.179688 C 80.0625 246.84375 81.910156 244.996094 83.960938 242.941406 C 99.546875 232.269531 118.003906 218.207031 128.671875 198.707031 C 128.671875 198.707031 128.671875 198.601562 128.671875 198.5 C 130.003906 197.679688 131.335938 196.960938 132.363281 196.34375 C 132.566406 197.679688 133.796875 198.601562 135.132812 198.398438 C 136.464844 198.191406 137.386719 196.960938 137.183594 195.625 C 136.363281 189.363281 135.746094 182.28125 135.644531 177.152344 C 136.667969 176.945312 137.386719 176.945312 138.925781 179.101562 C 140.976562 182.078125 141.285156 190.597656 140.976562 195.214844 C 140.976562 196.550781 141.898438 197.679688 143.234375 197.78125 C 143.234375 197.78125 143.335938 197.78125 143.4375 197.78125 C 144.667969 197.78125 145.796875 196.753906 145.898438 195.523438 C 145.898438 194.085938 146.71875 181.769531 143.027344 176.328125 C 140.359375 172.429688 137.695312 172.019531 135.953125 172.222656 C 135.953125 171.710938 136.054688 171.300781 136.15625 170.992188 C 138.925781 171.199219 144.257812 174.175781 146.71875 180.433594 C 149.589844 188.03125 151.4375 198.707031 151.4375 198.808594 C 151.640625 200.039062 152.667969 200.859375 153.796875 200.859375 C 154.921875 200.859375 154.101562 200.859375 154.207031 200.859375 C 155.539062 200.65625 156.460938 199.421875 156.152344 198.089844 C 156.152344 197.882812 155.640625 194.90625 154.71875 191.007812 C 156.050781 191.210938 158 191.726562 160.664062 192.855469 C 163.742188 204.964844 164.253906 228.777344 159.230469 236.476562 C 159.230469 236.476562 159.128906 236.683594 159.023438 236.785156 C 157.28125 235.859375 156.152344 235.347656 155.949219 235.246094 C 154.71875 234.730469 153.28125 235.246094 152.769531 236.476562 C 152.257812 237.707031 152.769531 239.144531 154 239.660156 C 154 239.660156 157.179688 241.09375 160.871094 243.558594 C 154.207031 260.390625 141.898438 258.03125 126.515625 255.054688 C 114.109375 252.589844 99.957031 249.921875 87.957031 259.058594 C 87.957031 259.058594 87.855469 259.160156 87.753906 259.261719 C 87.035156 258.75 86.316406 258.339844 85.496094 258.03125 C 81.394531 256.695312 76.574219 258.75 71.960938 261.214844 C 69.5 262.546875 67.652344 262.648438 66.527344 262.445312 C 69.089844 257.519531 73.910156 252.386719 78.625 248.382812 Z M 64.371094 268.910156 C 64.371094 268.191406 64.371094 267.472656 64.679688 266.753906 C 66.832031 267.371094 70.011719 267.472656 74.21875 265.320312 C 77.5 263.574219 81.5 261.726562 83.855469 262.546875 C 84.882812 262.855469 85.601562 263.675781 86.316406 265.113281 C 88.882812 270.554688 89.394531 281.535156 89.496094 283.28125 C 84.371094 284.613281 79.242188 285.027344 73.808594 283.179688 C 72.167969 282.664062 70.730469 281.636719 69.707031 280.304688 C 67.757812 277.839844 64.476562 273.222656 64.476562 269.015625 Z M 121.800781 284.203125 C 117.183594 283.589844 107.546875 284.921875 98.214844 286.257812 C 97.085938 286.460938 95.855469 286.566406 94.625 286.769531 C 97.597656 285.746094 100.46875 284.511719 103.339844 283.382812 C 111.238281 279.996094 118.722656 276.917969 126.925781 277.738281 C 128.261719 277.839844 129.492188 276.917969 129.59375 275.582031 C 129.695312 274.25 128.773438 273.015625 127.441406 272.914062 C 118.003906 271.886719 109.597656 275.480469 101.394531 278.867188 C 98.929688 279.894531 96.574219 280.921875 94.113281 281.742188 C 93.90625 278.558594 93.292969 271.375 91.652344 265.933594 C 91.855469 265.933594 92.164062 265.933594 92.367188 265.730469 C 98.316406 261.726562 108.878906 263.265625 119.953125 264.910156 C 126.621094 265.933594 133.695312 266.960938 140.464844 266.960938 C 152.050781 266.960938 162.71875 263.882812 169.585938 252.386719 C 170.101562 253.207031 170.511719 254.132812 170.714844 255.054688 C 173.175781 263.472656 159.640625 275.378906 148.871094 280.816406 C 146 282.253906 143.335938 283.179688 140.769531 283.898438 C 140.257812 283.898438 139.644531 283.898438 139.128906 284.203125 C 139.128906 284.203125 139.027344 284.308594 138.925781 284.410156 C 132.671875 285.640625 127.03125 285.128906 121.699219 284.410156 Z M 151.128906 285.128906 C 162.410156 279.484375 179.023438 265.933594 175.433594 253.71875 C 174.921875 252.179688 174.304688 250.640625 173.382812 249.308594 C 174.511719 247.765625 175.945312 245.304688 177.894531 241.507812 C 182.40625 232.472656 184.664062 215.847656 182.613281 206.609375 C 182.613281 206.402344 182.613281 206.199219 182.507812 205.992188 C 182.714844 206.199219 183.023438 206.300781 183.226562 206.507812 C 187.945312 209.894531 192.457031 215.230469 196.867188 221.800781 C 197.992188 235.246094 182.507812 261.828125 174.40625 271.066406 C 166.613281 279.996094 155.847656 286.875 146.105469 292.3125 C 145.285156 290.566406 144.667969 289.027344 144.054688 287.898438 C 146.308594 287.179688 148.667969 286.257812 151.128906 285.027344 Z M 154.207031 315.714844 C 181.789062 296.625 201.378906 278.148438 212.144531 249.308594 C 215.015625 255.15625 217.886719 261.109375 220.554688 266.960938 C 221.167969 268.296875 221.785156 269.527344 222.398438 270.863281 C 221.273438 276.300781 214.300781 290.363281 209.890625 294.160156 C 193.585938 307.710938 176.765625 323.003906 158.308594 340.757812 C 158.203125 339.425781 158.101562 338.089844 157.898438 336.757812 C 157.179688 329.265625 155.742188 322.179688 154.101562 315.816406 Z M 159.230469 354.207031 C 159.023438 351.023438 158.921875 347.839844 158.613281 344.660156 C 177.6875 326.183594 195.019531 310.378906 211.835938 296.417969 C 216.042969 292.929688 221.886719 281.945312 224.347656 274.863281 C 226.914062 280.203125 229.269531 285.128906 231.628906 289.542969 C 231.527344 291.082031 229.679688 293.75 227.9375 296.417969 C 226.503906 298.574219 224.964844 300.832031 223.835938 303.089844 C 218.605469 313.558594 211.632812 323.925781 204.761719 333.984375 C 188.046875 358.722656 170.816406 384.175781 175.125 415.480469 C 161.589844 397.417969 160.359375 375.453125 159.230469 354.207031 Z M 179.125 420.203125 C 172.152344 387.769531 189.996094 361.289062 207.324219 335.730469 C 214.195312 325.570312 221.273438 315.097656 226.605469 304.527344 C 227.628906 302.371094 229.167969 300.214844 230.5 298.164062 C 231.730469 296.316406 232.859375 294.675781 233.679688 293.132812 C 235.835938 296.933594 237.78125 300.113281 239.832031 302.578125 C 240.140625 302.988281 240.449219 303.398438 240.757812 303.707031 C 240.140625 304.734375 239.628906 305.554688 239.320312 306.066406 C 238.191406 307.914062 238.089844 308.121094 237.371094 311.40625 C 233.167969 330.496094 222.296875 346.199219 211.835938 361.390625 C 201.789062 376.066406 192.25 389.820312 188.046875 406.449219 C 187.226562 409.734375 186.917969 416.714844 187.019531 427.796875 C 184.355469 425.644531 181.6875 423.179688 179.125 420.304688 Z M 225.167969 447.8125 C 225.273438 447.8125 225.375 447.8125 225.476562 447.8125 C 225.578125 449.761719 225.785156 451.816406 225.886719 453.664062 C 219.835938 456.539062 206.300781 457.5625 198.917969 452.023438 C 198.507812 447.503906 197.890625 443.398438 197.378906 440.320312 C 212.042969 447.710938 224.347656 447.8125 225.167969 447.8125 Z M 196.660156 480.660156 C 202.503906 483.121094 213.683594 489.894531 216.65625 495.128906 C 216.761719 495.335938 216.863281 495.542969 216.964844 495.746094 C 215.015625 497.082031 212.761719 498.210938 210.503906 499.132812 C 207.632812 493.078125 198.8125 488.253906 192.148438 484.867188 C 194.097656 483.429688 195.738281 481.992188 196.761719 480.554688 Z M 141.695312 511.964844 C 142.414062 510.730469 144.054688 509.292969 146.308594 507.859375 C 152.050781 512.886719 162 518.222656 168.5625 521.714844 C 169.996094 522.433594 171.226562 523.152344 172.355469 523.765625 C 170.101562 524.691406 167.742188 525.921875 168.152344 529.71875 C 160.460938 531.363281 150.71875 530.132812 140.566406 526.230469 C 139.539062 519.867188 139.949219 514.941406 141.796875 511.859375 Z M 165.28125 537.828125 C 159.539062 539.574219 152.667969 540.191406 147.949219 540.496094 C 145.796875 540.601562 143.847656 539.265625 143.128906 537.109375 C 142.308594 534.542969 141.695312 532.082031 141.183594 529.824219 C 148.15625 532.285156 154.921875 533.519531 161.074219 533.519531 C 167.230469 533.519531 166.304688 533.210938 168.664062 532.800781 C 168.871094 535.058594 167.535156 537.214844 165.28125 537.828125 Z M 176.867188 521.816406 C 176.5625 522.023438 176.152344 522.226562 175.84375 522.332031 C 174.613281 521.507812 172.5625 520.484375 169.996094 519.148438 C 163.742188 515.863281 154.617188 510.9375 148.976562 506.316406 C 151.027344 505.1875 153.28125 503.957031 155.742188 502.828125 C 158 505.90625 165.179688 510.730469 174.304688 516.582031 C 176.046875 517.710938 177.894531 518.941406 179.328125 519.867188 C 178.917969 520.484375 178.203125 521.203125 176.867188 521.917969 Z M 183.226562 509.191406 C 180.765625 512.167969 180.253906 514.632812 180.046875 516.582031 C 178.917969 515.863281 177.585938 515.042969 175.945312 513.914062 C 170.511719 510.425781 160.972656 504.265625 158.511719 501.390625 C 161.691406 499.953125 164.972656 498.414062 168.152344 496.976562 C 171.636719 495.4375 175.023438 493.898438 178.203125 492.460938 C 181.585938 495.4375 183.945312 499.851562 185.894531 503.546875 C 186.40625 504.472656 186.917969 505.394531 187.429688 506.316406 C 185.6875 507.140625 184.253906 508.0625 183.226562 509.191406 Z M 197.378906 503.238281 C 194.816406 503.957031 192.351562 504.574219 190.300781 505.1875 C 189.789062 504.265625 189.277344 503.238281 188.660156 502.109375 C 186.816406 498.519531 184.558594 494.308594 181.175781 491.128906 C 184.148438 489.691406 186.816406 488.253906 189.070312 486.917969 C 195.019531 489.894531 204.863281 494.824219 207.53125 500.363281 C 204.148438 501.597656 200.558594 502.519531 197.378906 503.339844 Z M 222.503906 490.203125 C 221.683594 491.539062 220.554688 492.769531 219.425781 493.796875 C 219.425781 493.796875 219.425781 493.695312 219.425781 493.589844 C 216.144531 487.636719 204.558594 480.660156 198.199219 477.886719 C 199.121094 475.320312 199.632812 471.933594 199.738281 468.136719 C 203.53125 470.085938 208.144531 470.804688 212.65625 470.804688 C 217.171875 470.804688 222.503906 469.984375 225.886719 469.058594 C 225.476562 473.988281 224.65625 481.070312 223.734375 489.28125 C 223.324219 489.484375 222.914062 489.792969 222.605469 490.203125 Z M 226.503906 600.644531 L 215.121094 597.050781 C 215.324219 595.203125 215.734375 592.640625 216.042969 589.765625 C 219.425781 591.304688 223.21875 591.714844 226.808594 591.714844 C 230.398438 591.714844 231.117188 591.613281 233.066406 591.40625 C 234.195312 591.40625 235.21875 591.304688 236.246094 591.203125 C 236.449219 593.050781 236.757812 594.792969 236.960938 596.230469 Z M 241.167969 570.570312 C 240.550781 571.1875 239.730469 571.90625 239.011719 572.726562 C 235.9375 575.804688 235.425781 582.167969 235.9375 588.121094 C 234.910156 588.121094 233.886719 588.121094 232.859375 588.328125 C 227.425781 588.738281 221.375 589.148438 216.554688 586.480469 C 217.273438 580.628906 218.195312 573.445312 219.222656 565.542969 C 219.324219 565.542969 219.425781 565.542969 219.527344 565.542969 C 219.632812 565.542969 219.527344 565.542969 219.527344 565.542969 C 226.808594 565.335938 240.039062 559.589844 247.21875 556.40625 C 247.832031 556.097656 248.34375 555.894531 248.859375 555.6875 C 248.859375 556.714844 248.550781 557.742188 248.140625 559.074219 C 245.78125 566.15625 244.550781 567.390625 241.167969 570.570312 Z M 245.78125 491.128906 C 242.808594 490 238.296875 490.511719 234.195312 491.128906 C 231.9375 491.433594 229.785156 491.640625 228.246094 491.640625 C 228.964844 485.378906 229.578125 479.632812 230.089844 475.011719 C 231.628906 475.320312 233.269531 475.527344 234.808594 475.527344 C 241.269531 475.527344 247.523438 472.960938 253.164062 470.703125 C 253.882812 470.394531 254.496094 470.1875 255.214844 469.882812 C 254.191406 472.34375 253.0625 474.398438 251.933594 476.039062 C 249.0625 480.144531 247.21875 485.378906 245.882812 491.230469 Z M 267.625 444.632812 C 267.828125 444.632812 267.933594 444.632812 268.136719 444.632812 C 268.753906 444.632812 269.367188 444.222656 269.574219 443.605469 C 281.261719 408.398438 284.132812 363.546875 277.160156 323.105469 C 280.648438 323.414062 284.441406 323.722656 288.648438 323.925781 C 290.59375 324.027344 293.160156 323.925781 296.03125 323.722656 C 297.671875 335.523438 299.925781 346.199219 302.183594 356.464844 C 308.746094 386.640625 314.386719 412.609375 297.570312 446.375 C 283.929688 445.964844 272.855469 445.144531 267.523438 444.632812 C 267.523438 444.632812 267.523438 444.425781 267.523438 444.425781 Z M 308.132812 446.890625 C 326.898438 423.488281 334.484375 392.59375 331.101562 352.359375 C 330.792969 348.96875 329.972656 344.558594 328.949219 340.039062 C 328.332031 337.0625 327.71875 333.984375 327.203125 331.007812 L 335.203125 329.058594 C 336.023438 328.851562 336.535156 328.03125 336.332031 327.210938 C 336.125 326.390625 335.304688 325.875 334.484375 326.082031 L 326.792969 328.03125 C 326.382812 324.746094 326.382812 321.976562 326.898438 320.230469 C 326.898438 320.128906 326.898438 319.921875 326.898438 319.820312 C 327.203125 319.820312 327.511719 319.820312 327.820312 319.71875 C 332.230469 319 336.84375 318.28125 341.5625 317.5625 C 341.5625 317.871094 341.5625 318.28125 341.871094 318.589844 C 342.894531 320.027344 343.816406 321.566406 344.742188 323.105469 C 344.023438 323.105469 343.511719 323.617188 343.304688 324.234375 C 342.585938 324.132812 341.871094 324.441406 341.5625 325.15625 C 341.253906 325.980469 341.5625 326.800781 342.382812 327.109375 C 342.691406 327.210938 342.996094 327.3125 343.40625 327.3125 C 343.921875 327.3125 344.433594 327.210938 344.945312 326.902344 C 345.457031 326.59375 345.867188 326.082031 346.074219 325.570312 C 354.996094 343.015625 354.6875 364.058594 354.378906 384.484375 C 354.378906 388.179688 354.277344 391.667969 354.277344 395.160156 C 354.277344 403.574219 353.664062 431.492188 345.457031 445.863281 C 333.050781 446.992188 320.027344 447.199219 308.132812 447.09375 Z M 393.246094 437.960938 C 394.785156 441.65625 396.628906 445.554688 398.886719 449.457031 C 399.195312 450.070312 399.605469 450.6875 399.914062 451.304688 C 397.039062 455 386.992188 456.84375 379.503906 458.28125 C 377.453125 458.691406 375.609375 459 374.070312 459.308594 C 371.097656 453.972656 368.53125 449.761719 367.199219 447.503906 C 378.480469 445.246094 387.195312 442.066406 393.246094 437.960938 Z M 381.042969 472.753906 C 386.785156 472.445312 398.578125 470.804688 405.960938 463.515625 C 406.78125 465.363281 407.601562 467.109375 408.320312 469.058594 C 408.320312 470.597656 408.527344 473.988281 408.527344 478.296875 C 402.886719 477.375 390.582031 478.09375 384.632812 480.453125 C 384.632812 480.453125 384.632812 480.453125 384.53125 480.453125 C 383.402344 477.785156 382.273438 475.21875 381.042969 472.652344 Z M 384.53125 507.035156 C 388.632812 508.269531 393.554688 508.578125 398.476562 508.988281 C 401.65625 509.191406 404.628906 509.398438 407.191406 509.910156 C 406.886719 512.269531 406.476562 514.425781 406.066406 516.273438 C 405.65625 516.273438 405.039062 516.273438 404.425781 516.273438 C 399.398438 516.480469 388.015625 516.992188 381.453125 516.273438 C 382.683594 513.09375 383.710938 510.011719 384.53125 507.035156 Z M 387.707031 548.402344 C 384.835938 548.09375 381.964844 548.402344 379.09375 548.707031 C 374.789062 549.222656 370.6875 549.632812 367.097656 547.992188 C 368.941406 544.296875 370.890625 540.496094 372.738281 536.699219 C 376.53125 537.519531 380.734375 537.929688 385.042969 537.929688 C 389.351562 537.929688 391.296875 537.726562 394.578125 537.316406 C 392.324219 540.703125 390.066406 544.398438 387.8125 548.402344 Z M 379.402344 566.054688 C 379.300781 566.054688 379.09375 566.054688 378.992188 566.054688 C 373.25 566.363281 363.917969 566.875 358.074219 564.515625 C 360.429688 560.410156 362.890625 555.6875 365.558594 550.761719 C 368.019531 551.890625 370.480469 552.300781 373.042969 552.300781 C 375.609375 552.300781 377.25 552.097656 379.300781 551.789062 C 381.660156 551.480469 383.914062 551.273438 385.964844 551.378906 C 383.503906 555.894531 381.25 560.820312 379.300781 566.054688 Z M 351.507812 576.011719 C 352.945312 573.652344 354.6875 570.675781 356.636719 567.183594 C 360.738281 568.929688 366.171875 569.339844 371.097656 569.339844 C 376.019531 569.339844 376.222656 569.238281 378.375 569.132812 C 377.863281 570.675781 377.453125 572.316406 377.042969 573.957031 C 368.121094 578.886719 356.945312 577.242188 351.507812 576.011719 Z M 396.628906 533.929688 C 396.628906 533.929688 396.527344 533.929688 396.425781 533.929688 C 388.117188 535.160156 380.53125 535.058594 373.863281 533.824219 C 376.121094 528.898438 378.375 523.972656 380.222656 519.148438 C 383.09375 519.558594 386.785156 519.660156 390.582031 519.660156 C 394.375 519.660156 401.144531 519.457031 404.425781 519.25 C 404.628906 519.25 404.730469 519.25 404.9375 519.25 C 403.195312 523.5625 400.117188 528.386719 396.527344 533.929688 Z M 446.160156 531.875 C 446.058594 531.875 445.855469 531.875 445.75 531.875 C 444.726562 531.976562 443.496094 532.285156 442.058594 532.59375 C 437.855469 533.519531 432.113281 534.648438 428.113281 533.414062 C 428.832031 529.515625 429.242188 526.128906 429.136719 523.460938 C 432.113281 524.382812 436.113281 524.691406 440.109375 524.691406 C 444.109375 524.691406 447.1875 524.484375 449.75 524.28125 C 448.519531 526.640625 447.390625 529.207031 446.160156 531.875 Z M 427.496094 536.390625 C 428.933594 536.800781 430.574219 537.007812 432.214844 537.007812 C 435.804688 537.007812 439.699219 536.1875 442.675781 535.570312 C 443.394531 535.367188 444.109375 535.261719 444.726562 535.160156 C 442.367188 540.804688 440.109375 546.65625 438.265625 551.890625 C 438.265625 551.890625 438.164062 551.890625 438.058594 551.890625 C 435.703125 551.890625 433.445312 552.300781 431.292969 552.8125 C 428.316406 553.429688 425.652344 553.945312 422.984375 553.328125 C 424.832031 547.375 426.371094 541.625 427.496094 536.496094 Z M 417.34375 570.46875 C 418.574219 570.675781 419.804688 570.878906 420.933594 570.878906 C 423.5 570.878906 425.753906 570.367188 428.113281 569.851562 C 430.0625 569.441406 432.011719 569.03125 434.164062 568.828125 C 434.164062 569.339844 434.164062 569.851562 434.164062 570.261719 C 434.777344 573.445312 435.394531 578.886719 435.90625 584.015625 C 430.675781 585.25 419.804688 587.199219 411.910156 585.25 C 413.550781 580.835938 415.398438 575.804688 417.242188 570.46875 Z M 434.472656 565.746094 C 431.804688 565.851562 429.652344 566.363281 427.496094 566.875 C 424.421875 567.59375 421.753906 568.109375 418.371094 567.59375 C 419.703125 563.796875 420.933594 560 422.164062 556.203125 C 423.292969 556.507812 424.523438 556.613281 425.652344 556.613281 C 427.804688 556.613281 429.855469 556.203125 432.011719 555.792969 C 433.753906 555.484375 435.597656 555.074219 437.34375 554.96875 C 436.007812 559.179688 434.984375 562.976562 434.574219 565.851562 Z M 406.78125 599.105469 C 407.707031 596.847656 409.242188 592.945312 410.988281 588.226562 C 413.757812 588.945312 416.730469 589.25 419.804688 589.25 C 425.960938 589.25 432.316406 588.121094 436.417969 587.199219 C 436.726562 589.96875 436.933594 592.433594 437.035156 593.972656 C 422.882812 599.003906 410.886719 601.054688 406.78125 599.207031 Z M 457.75 511.039062 C 455.902344 513.195312 453.648438 516.789062 451.390625 521.203125 C 450.878906 521.203125 450.261719 521.203125 449.648438 521.304688 C 444.828125 521.613281 433.652344 522.332031 428.933594 520.175781 C 428.421875 515.964844 427.394531 510.835938 425.960938 505.292969 C 426.882812 505.292969 427.804688 505.496094 428.726562 505.496094 C 438.878906 505.496094 452.007812 499.953125 456.929688 495.644531 C 459.59375 501.800781 461.03125 507.550781 457.851562 511.140625 Z M 454.261719 452.226562 C 452.519531 454.792969 450.980469 457.152344 449.75 459.410156 C 440.726562 453.355469 427.394531 456.128906 415.703125 458.589844 C 413.550781 459 411.5 459.515625 409.65625 459.824219 C 407.5 455.101562 405.246094 450.789062 403.089844 446.992188 C 402.578125 446.070312 402.066406 445.246094 401.65625 444.425781 C 408.527344 444.015625 416.113281 442.167969 424.113281 440.320312 C 438.265625 437.035156 452.828125 433.546875 462.363281 438.269531 C 462.46875 438.269531 462.570312 438.269531 462.671875 438.371094 C 462.671875 438.371094 462.671875 438.472656 462.671875 438.574219 C 459.59375 444.324219 456.722656 448.632812 454.261719 452.226562 Z M 472.824219 428.3125 C 472.824219 430.160156 472.824219 432.007812 472.722656 434.058594 C 472.414062 446.171875 472.105469 460.953125 473.851562 472.859375 C 470.15625 463.824219 468.210938 452.945312 467.695312 439.808594 C 469.441406 436.523438 471.183594 432.726562 472.925781 428.414062 Z M 500.613281 502.625 C 491.488281 497.386719 484.515625 491.230469 479.285156 483.429688 C 474.875 471.523438 475.386719 449.457031 475.695312 434.058594 C 475.796875 428.210938 475.902344 423.488281 475.695312 419.996094 C 480.414062 404.601562 480.308594 385.304688 475.386719 366.417969 C 473.335938 358.617188 470.671875 351.332031 467.285156 344.558594 C 483.488281 366.832031 484.414062 393.925781 485.234375 420.304688 C 486.257812 453.457031 487.285156 484.765625 516.714844 505.703125 C 512.203125 506.730469 506.664062 506.214844 500.410156 502.625 Z M 520.507812 504.472656 C 490.460938 484.457031 489.539062 453.253906 488.410156 420.203125 C 487.386719 388.796875 486.359375 356.359375 460.003906 331.625 C 459.902344 331.523438 459.699219 331.417969 459.59375 331.316406 C 458.878906 330.289062 458.058594 329.265625 457.238281 328.238281 C 466.363281 330.496094 482.464844 336.960938 489.027344 354.820312 C 493.230469 366.316406 495.386719 391.773438 497.4375 416.300781 C 501.023438 458.691406 503.792969 484.765625 512.304688 489.589844 C 520.507812 494.308594 526.046875 496.671875 529.535156 497.902344 C 527.585938 500.058594 524.507812 502.726562 520.507812 504.472656 Z M 520.507812 504.472656 " fill-opacity="1" fill-rule="nonzero"/></g><path fill="#000000" d="M 133.695312 243.558594 C 137.488281 243.558594 140.566406 238.941406 140.566406 233.398438 C 140.566406 227.855469 137.488281 223.234375 133.695312 223.234375 C 129.902344 223.234375 126.824219 227.753906 126.824219 233.398438 C 126.824219 239.042969 129.902344 243.558594 133.695312 243.558594 Z M 135.132812 226.726562 C 136.464844 226.726562 137.59375 228.367188 137.59375 230.320312 C 137.59375 232.269531 136.464844 233.910156 135.132812 233.910156 C 133.796875 233.910156 132.773438 232.269531 132.773438 230.320312 C 132.773438 228.367188 133.902344 226.726562 135.132812 226.726562 Z M 135.132812 226.726562 " fill-opacity="1" fill-rule="nonzero"/><path fill="#000000" d="M 79.960938 253 C 80.371094 253 80.679688 252.898438 80.984375 252.589844 C 83.753906 250.128906 86.933594 248.074219 90.316406 246.433594 C 91.035156 246.125 91.445312 245.203125 91.035156 244.378906 C 90.625 243.558594 89.804688 243.25 88.984375 243.660156 C 85.292969 245.304688 81.910156 247.5625 78.832031 250.332031 C 78.214844 250.847656 78.113281 251.871094 78.730469 252.488281 C 79.035156 252.796875 79.449219 253 79.859375 253 Z M 79.960938 253 " fill-opacity="1" fill-rule="nonzero"/><path fill="#000000" d="M 94.625 243.355469 C 94.933594 243.355469 95.136719 243.355469 95.445312 243.148438 L 97.1875 242.121094 C 97.90625 241.710938 98.109375 240.789062 97.699219 240.070312 C 97.289062 239.351562 96.367188 239.144531 95.648438 239.554688 L 93.90625 240.582031 C 93.1875 240.992188 92.984375 241.917969 93.394531 242.636719 C 93.703125 243.148438 94.214844 243.355469 94.726562 243.355469 Z M 94.625 243.355469 " fill-opacity="1" fill-rule="nonzero"/></svg>