<svg xmlns="http://www.w3.org/2000/svg" xmlns:xlink="http://www.w3.org/1999/xlink" width="794" zoomAndPan="magnify" viewBox="0 0 594.95996 842.24997" height="1123" preserveAspectRatio="xMidYMid meet" version="1.0"><defs><g/><clipPath id="a5952ec722"><path d="M 0.246094 0 L 594.675781 0 L 594.675781 841.5 L 0.246094 841.5 Z M 0.246094 0 " clip-rule="nonzero"/></clipPath><clipPath id="ba8782e9c7"><path d="M 34.199219 63.097656 L 561.339844 63.097656 L 561.339844 578.640625 L 34.199219 578.640625 Z M 34.199219 63.097656 " clip-rule="nonzero"/></clipPath><clipPath id="ed73ecebbb"><rect x="0" width="214" y="0" height="169"/></clipPath></defs><g clip-path="url(#a5952ec722)"><path fill="#ffffff" d="M 0.246094 0 L 595.214844 0 L 595.214844 841.5 L 0.246094 841.5 Z M 0.246094 0 " fill-opacity="1" fill-rule="nonzero"/><path fill="#ffffff" d="M 0.246094 0 L 595.214844 0 L 595.214844 841.5 L 0.246094 841.5 Z M 0.246094 0 " fill-opacity="1" fill-rule="nonzero"/></g><path fill="#100f0d" d="M 414.28125 136.269531 C 414.398438 136.269531 414.515625 136.269531 414.632812 136.273438 C 425.046875 136.570312 428.515625 148.648438 428.550781 148.769531 C 428.550781 148.777344 428.554688 148.789062 428.554688 148.800781 C 430.683594 155.558594 431.035156 161.777344 429.660156 166.933594 C 429.828125 165.972656 429.933594 164.984375 429.933594 163.976562 C 429.933594 154.59375 422.324219 146.988281 412.9375 146.988281 C 404.757812 146.988281 397.933594 152.769531 396.3125 160.46875 C 396.925781 148.644531 404.226562 136.269531 414.28125 136.269531 Z M 408.863281 165.210938 C 405.960938 165.210938 403.605469 162.859375 403.605469 159.960938 C 403.605469 157.058594 405.960938 154.707031 408.863281 154.707031 C 411.761719 154.707031 414.117188 157.058594 414.117188 159.960938 C 414.117188 162.859375 411.761719 165.210938 408.863281 165.210938 Z M 412.714844 182.195312 C 413.160156 182.195312 413.621094 182.179688 414.078125 182.152344 C 419.953125 181.773438 425.21875 178.789062 428.523438 173.96875 C 432.90625 167.574219 433.5625 158.441406 430.355469 148.246094 C 430.179688 147.625 426.277344 134.722656 414.6875 134.394531 C 403.308594 134.042969 395.003906 147.675781 394.421875 160.589844 C 394.121094 167.195312 396.289062 173.273438 400.371094 177.273438 C 403.671875 180.507812 407.914062 182.195312 412.714844 182.195312 " fill-opacity="1" fill-rule="nonzero"/><path fill="#100f0d" d="M 93.398438 122.367188 C 95.960938 113.265625 106.613281 113.121094 107.066406 113.121094 C 107.582031 113.121094 108.003906 112.699219 108.003906 112.179688 C 108.003906 108.445312 109.132812 105.457031 111.355469 103.296875 C 115.585938 99.1875 122.460938 99.34375 122.53125 99.34375 C 122.8125 99.359375 123.113281 99.222656 123.296875 98.988281 C 123.480469 98.757812 123.546875 98.449219 123.46875 98.164062 C 123.441406 98.066406 120.886719 88.25 125.375 80.558594 C 127.78125 76.4375 131.792969 73.625 137.300781 72.199219 C 156.679688 67.191406 164.59375 82.8125 164.921875 83.480469 C 165.0625 83.765625 165.335938 83.960938 165.648438 83.996094 C 165.960938 84.039062 166.277344 83.917969 166.484375 83.675781 C 166.707031 83.417969 172.054688 77.378906 183.050781 80.5625 C 196.449219 84.445312 194.851562 97.71875 194.777344 98.28125 C 194.722656 98.691406 194.941406 99.085938 195.316406 99.257812 C 195.691406 99.429688 196.136719 99.339844 196.414062 99.035156 C 196.632812 98.785156 201.945312 93.074219 211.632812 99.199219 C 221.273438 105.292969 216.632812 114.046875 216.429688 114.414062 C 216.234375 114.769531 216.285156 115.207031 216.558594 115.503906 C 216.828125 115.804688 217.257812 115.894531 217.628906 115.734375 C 223.863281 113.039062 231.101562 116.019531 233.695312 120.386719 C 235.476562 123.386719 234.75 126.375 231.640625 128.808594 C 222.316406 136.105469 206.835938 131.488281 206.679688 131.4375 C 206.453125 131.367188 206.214844 131.386719 206.003906 131.484375 C 190.679688 138.625 176.136719 130.96875 175.988281 130.890625 C 175.710938 130.738281 175.371094 130.742188 175.089844 130.894531 C 162.621094 137.707031 149.097656 132.148438 148.960938 132.09375 C 148.703125 131.980469 148.410156 131.996094 148.160156 132.125 C 136.339844 138.328125 123.097656 132.171875 122.964844 132.105469 C 122.835938 132.046875 122.699219 132.015625 122.558594 132.015625 C 122.460938 132.015625 122.363281 132.03125 122.269531 132.0625 C 111.234375 135.664062 99.945312 133.316406 95.40625 128.960938 C 93.386719 127.027344 92.714844 124.808594 93.398438 122.367188 Z M 122.5 133.964844 C 123.941406 134.597656 129.46875 136.8125 136.296875 136.8125 C 140.164062 136.8125 144.453125 136.101562 148.644531 133.988281 C 151.097656 134.925781 163.511719 139.097656 175.554688 132.78125 C 178.230469 134.097656 191.769531 140.015625 206.476562 133.339844 C 208.96875 134.039062 223.398438 137.648438 232.800781 130.289062 C 236.636719 127.289062 237.574219 123.226562 235.3125 119.425781 C 232.59375 114.851562 225.5 111.574219 218.882812 113.316406 C 219.953125 109.894531 220.855469 102.804688 212.640625 97.613281 C 204.855469 92.691406 199.34375 94.726562 196.726562 96.402344 C 196.652344 92.015625 195.160156 82.109375 183.574219 78.753906 C 173.925781 75.960938 168.117188 79.707031 165.980469 81.550781 C 163.628906 77.761719 154.601562 65.785156 136.828125 70.378906 C 130.8125 71.933594 126.410156 75.042969 123.742188 79.625 C 119.761719 86.460938 120.808594 94.519531 121.390625 97.492188 C 119.042969 97.625 113.773438 98.335938 110.054688 101.933594 C 107.628906 104.289062 106.3125 107.429688 106.140625 111.292969 C 103.195312 111.550781 94.0625 113.058594 91.585938 121.855469 C 90.710938 124.976562 91.582031 127.902344 94.101562 130.316406 C 99.675781 135.664062 112.085938 137.242188 122.5 133.964844 " fill-opacity="1" fill-rule="nonzero"/><path fill="#100f0d" d="M 547.886719 431.726562 C 546.550781 434.355469 543.335938 435.964844 538.058594 436.660156 C 528.453125 437.917969 495.917969 438.472656 486.792969 432.59375 C 486.132812 432.167969 485.574219 431.714844 485.089844 431.234375 C 485.082031 431.226562 485.082031 431.214844 485.074219 431.210938 C 485.058594 431.195312 485.046875 431.191406 485.03125 431.179688 C 480.011719 426.125 484.007812 418.132812 488.269531 410.917969 C 488.542969 410.457031 488.796875 410.027344 489.023438 409.628906 C 490.585938 406.925781 498.8125 394.105469 514.386719 394.105469 C 515.257812 394.105469 516.15625 394.144531 517.070312 394.226562 C 525.394531 394.992188 533.371094 399.714844 539.523438 407.515625 C 544.195312 413.429688 551.207031 425.1875 547.886719 431.726562 Z M 456.273438 431.015625 C 451.417969 429.835938 448.378906 428.152344 447.710938 426.273438 C 446.953125 424.140625 447.664062 421.121094 449.714844 417.773438 C 453.609375 411.417969 462.21875 404.242188 469.894531 403.230469 C 479.035156 402.023438 485.359375 407.597656 487.039062 409.289062 C 486.910156 409.515625 486.789062 409.722656 486.644531 409.960938 C 483.398438 415.460938 477.699219 425.109375 482.894531 431.628906 C 479.082031 433.042969 465.65625 433.292969 456.273438 431.015625 Z M 517.246094 392.355469 C 500.402344 390.816406 490.910156 403.140625 488.046875 407.621094 C 485.757812 405.402344 479.183594 400.097656 469.644531 401.363281 C 461.414062 402.453125 452.230469 410.058594 448.113281 416.789062 C 445.722656 420.683594 444.972656 424.183594 445.9375 426.902344 C 446.847656 429.472656 450.175781 431.46875 455.832031 432.84375 C 460.742188 434.035156 466.976562 434.621094 472.457031 434.617188 C 477.675781 434.617188 482.207031 434.085938 484.269531 433.046875 C 484.722656 433.4375 485.214844 433.816406 485.773438 434.175781 C 492.046875 438.214844 507.695312 439.355469 520.65625 439.355469 C 528.296875 439.355469 535.011719 438.957031 538.296875 438.527344 C 544.242188 437.746094 547.925781 435.800781 549.566406 432.578125 C 554.1875 423.484375 542.367188 408.074219 541.003906 406.347656 C 534.523438 398.136719 526.089844 393.167969 517.246094 392.355469 " fill-opacity="1" fill-rule="nonzero"/><path fill="#100f0d" d="M 523.101562 400.574219 C 522.628906 400.371094 522.078125 400.59375 521.875 401.070312 C 521.667969 401.542969 521.886719 402.097656 522.363281 402.304688 C 522.445312 402.335938 530.320312 405.859375 538.660156 419.511719 C 538.835938 419.800781 539.148438 419.960938 539.464844 419.960938 C 539.632812 419.960938 539.800781 419.914062 539.953125 419.824219 C 540.394531 419.550781 540.535156 418.972656 540.265625 418.527344 C 531.574219 404.300781 523.449219 400.71875 523.101562 400.574219 " fill-opacity="1" fill-rule="nonzero"/><path fill="#100f0d" d="M 469.09375 407.820312 C 468.695312 407.929688 459.226562 410.605469 453.308594 420.464844 C 453.039062 420.910156 453.183594 421.488281 453.628906 421.753906 C 453.785156 421.847656 453.953125 421.890625 454.113281 421.890625 C 454.433594 421.890625 454.746094 421.726562 454.921875 421.433594 C 460.4375 412.246094 469.5 409.660156 469.589844 409.636719 C 470.089844 409.5 470.386719 408.980469 470.25 408.480469 C 470.109375 407.980469 469.59375 407.6875 469.09375 407.820312 " fill-opacity="1" fill-rule="nonzero"/><path fill="#100f0d" d="M 103.195312 538.828125 C 100.976562 539.042969 98.316406 539.960938 96.65625 540.609375 C 96.882812 538.777344 96.96875 536.230469 95.9375 535.128906 C 95.507812 534.667969 94.914062 534.457031 94.265625 534.546875 C 92.449219 534.78125 90.480469 536.886719 89.21875 538.503906 C 88.539062 535.269531 87.21875 530.335938 85.367188 529.457031 C 84.832031 529.199219 84.253906 529.222656 83.738281 529.515625 C 81.800781 530.609375 80.40625 534.578125 79.664062 537.242188 C 77.867188 534.890625 74.902344 532.773438 73.285156 533.019531 C 72.535156 533.128906 72.046875 533.6875 72.003906 534.464844 C 71.945312 535.617188 72.195312 537.679688 72.441406 539.363281 C 70.328125 538.035156 67.5625 537.335938 66.496094 537.648438 C 65.8125 537.847656 65.570312 538.375 65.570312 538.800781 C 65.570312 539.828125 67.171875 543.324219 68.128906 545.320312 C 68.355469 545.789062 68.914062 545.984375 69.382812 545.757812 C 69.851562 545.535156 70.050781 544.972656 69.824219 544.503906 C 68.96875 542.714844 68.039062 540.597656 67.644531 539.484375 C 69.054688 539.714844 72.03125 540.832031 73.007812 542.363281 C 73.25 542.742188 73.726562 542.898438 74.144531 542.734375 C 74.566406 542.566406 74.808594 542.128906 74.726562 541.6875 C 74.484375 540.34375 73.890625 536.695312 73.878906 534.921875 C 75.113281 535.277344 78.253906 537.640625 79.136719 540.039062 C 79.285156 540.429688 79.671875 540.679688 80.089844 540.652344 C 80.507812 540.621094 80.851562 540.316406 80.941406 539.910156 C 81.609375 536.804688 83.179688 532.085938 84.613281 531.183594 C 85.5 531.703125 86.957031 536.207031 87.777344 540.996094 C 87.84375 541.378906 88.136719 541.683594 88.519531 541.757812 C 88.90625 541.839844 89.289062 541.671875 89.5 541.34375 C 90.738281 539.40625 93.113281 536.59375 94.550781 536.402344 C 94.992188 536.714844 95.082031 539.203125 94.539062 541.9375 C 94.46875 542.285156 94.597656 542.640625 94.875 542.859375 C 95.152344 543.082031 95.527344 543.128906 95.847656 542.980469 C 95.890625 542.960938 100.253906 541.003906 103.378906 540.703125 C 103.429688 540.699219 103.46875 540.695312 103.503906 540.695312 C 103.464844 541.445312 102.308594 543.582031 100.929688 545.417969 C 100.617188 545.832031 100.699219 546.421875 101.113281 546.734375 C 101.28125 546.863281 101.480469 546.925781 101.679688 546.925781 C 101.964844 546.925781 102.246094 546.796875 102.429688 546.550781 C 103.839844 544.683594 106.066406 541.304688 105.152344 539.667969 C 104.945312 539.304688 104.417969 538.703125 103.195312 538.828125 " fill-opacity="1" fill-rule="nonzero"/><path fill="#100f0d" d="M 518.308594 515.410156 C 517.671875 515.046875 516.792969 515.136719 515.949219 515.386719 C 516.222656 514.46875 516.34375 513.460938 515.957031 512.695312 C 515.636719 512.0625 515.023438 511.664062 514.226562 511.578125 C 512.300781 511.371094 509.84375 512.71875 508.285156 513.75 C 508.144531 510.902344 507.703125 507.398438 506.421875 506.597656 C 505.992188 506.324219 505.480469 506.296875 505.007812 506.511719 C 503.527344 507.195312 501.882812 510.253906 500.839844 512.503906 C 499.289062 509.824219 496.53125 507.859375 494.804688 507.53125 C 493.695312 507.308594 493.148438 507.785156 492.925781 508.089844 C 492.1875 509.074219 492.683594 511.527344 493.339844 513.683594 C 491.558594 512.976562 489.480469 512.523438 488.429688 513.007812 C 487.960938 513.230469 487.660156 513.628906 487.601562 514.109375 C 487.433594 515.425781 489.554688 518.585938 490.832031 520.351562 C 491.015625 520.605469 491.304688 520.742188 491.59375 520.742188 C 491.785156 520.742188 491.980469 520.683594 492.144531 520.5625 C 492.566406 520.261719 492.660156 519.671875 492.355469 519.25 C 491.179688 517.617188 489.90625 515.574219 489.558594 514.675781 C 490.515625 514.683594 492.851562 515.292969 494.453125 516.335938 C 494.792969 516.558594 495.238281 516.535156 495.554688 516.28125 C 495.871094 516.027344 495.992188 515.601562 495.847656 515.21875 C 494.933594 512.761719 494.308594 510.140625 494.402344 509.359375 C 495.449219 509.492188 499.011719 511.765625 499.917969 515.117188 C 500.027344 515.507812 500.367188 515.785156 500.769531 515.808594 C 501.179688 515.828125 501.546875 515.601562 501.699219 515.226562 C 502.835938 512.449219 504.539062 509.25 505.539062 508.394531 C 506 509.339844 506.414062 512.457031 506.464844 515.5625 C 506.46875 515.921875 506.679688 516.246094 507.007812 516.398438 C 507.332031 516.550781 507.710938 516.503906 507.992188 516.28125 C 508.992188 515.484375 512.25 513.253906 514.019531 513.449219 C 514.125 513.457031 514.246094 513.484375 514.277344 513.542969 C 514.511719 514.015625 513.960938 515.628906 513.308594 516.757812 C 513.097656 517.125 513.15625 517.589844 513.460938 517.890625 C 513.757812 518.191406 514.222656 518.257812 514.59375 518.042969 C 515.394531 517.582031 516.339844 517.199219 516.917969 517.074219 C 516.605469 517.617188 515.964844 518.453125 515.300781 519.152344 C 514.945312 519.527344 514.957031 520.125 515.332031 520.480469 C 515.707031 520.839844 516.304688 520.824219 516.664062 520.449219 C 517.605469 519.460938 519.15625 517.621094 518.980469 516.398438 C 518.917969 515.972656 518.675781 515.621094 518.308594 515.410156 " fill-opacity="1" fill-rule="nonzero"/><g clip-path="url(#ba8782e9c7)"><path fill="#100f0d" d="M 436.390625 462.683594 C 437.847656 471.6875 441.4375 486.007812 444.316406 497.511719 C 445.132812 500.753906 445.898438 503.808594 446.554688 506.492188 C 449.40625 518.148438 453.085938 520.640625 455.289062 522.128906 C 455.460938 522.246094 455.625 522.359375 455.78125 522.46875 C 456.164062 522.742188 456.640625 523.078125 457.183594 523.464844 C 459.554688 525.136719 463.132812 527.65625 466.46875 530.300781 C 470.402344 533.421875 473.09375 546.078125 469.863281 550.601562 C 467.566406 553.8125 463.808594 553.304688 461.9375 552.796875 C 462.742188 551.464844 463.238281 549.9375 463.421875 548.527344 C 464.199219 542.550781 461.882812 532.609375 455.660156 530.257812 C 455.179688 530.074219 454.632812 530.320312 454.453125 530.804688 C 454.269531 531.289062 454.511719 531.835938 455 532.015625 C 460.042969 533.925781 462.253906 542.925781 461.558594 548.285156 C 461.214844 550.933594 459.5625 553.898438 457.066406 554.441406 C 455.296875 554.824219 453 554.40625 451.167969 553.949219 C 451.84375 550.550781 451.417969 544.488281 449.695312 540.347656 C 448.539062 537.574219 446.960938 535.898438 444.996094 535.375 C 444.496094 535.238281 443.976562 535.535156 443.84375 536.039062 C 443.707031 536.542969 444.007812 537.058594 444.507812 537.191406 C 446.210938 537.648438 447.320312 539.550781 447.953125 541.070312 C 449.800781 545.5 449.957031 552.003906 449.140625 554.355469 C 449.136719 554.363281 449.132812 554.371094 449.128906 554.378906 C 449.125 554.386719 449.128906 554.390625 449.125 554.398438 C 449.070312 554.5625 449.007812 554.707031 448.9375 554.824219 C 447.621094 557.125 437.308594 558.394531 431.179688 556.398438 C 425.488281 554.546875 423.304688 551.304688 421.617188 546.679688 C 421.398438 546.074219 421.085938 545.191406 420.695312 544.101562 C 418.078125 536.769531 411.945312 519.59375 408.539062 513.714844 C 404.976562 507.566406 387.988281 469.65625 385.796875 464.761719 C 389.453125 460.257812 392.789062 455.496094 395.757812 450.5 C 397.261719 447.960938 398.726562 445.316406 400.09375 442.636719 C 408.761719 425.65625 414.425781 407.449219 418.246094 388.59375 C 424.964844 405.539062 434.308594 449.808594 436.390625 462.683594 Z M 382.851562 426.488281 C 382.839844 425.96875 382.414062 425.585938 381.886719 425.574219 C 381.363281 425.589844 380.957031 426.023438 380.96875 426.542969 C 381.320312 438.71875 378.453125 460.011719 375.632812 474.644531 C 372.722656 489.789062 373.648438 518.214844 374.765625 529.371094 C 375.835938 540.097656 378.648438 547.378906 383.113281 551.019531 C 385.316406 552.8125 388.09375 559.773438 388.246094 565.722656 C 388.320312 568.519531 387.753906 570.609375 386.652344 571.601562 C 383.789062 574.1875 380.03125 573.527344 378.199219 572.980469 C 379.433594 570.859375 379.726562 567.527344 378.964844 563.523438 C 378.046875 558.6875 375.578125 553.125 372.644531 551.855469 C 372.171875 551.648438 371.613281 551.867188 371.40625 552.34375 C 371.203125 552.820312 371.421875 553.375 371.898438 553.582031 C 373.855469 554.429688 376.199219 559.046875 377.117188 563.875 C 377.902344 567.988281 377.5 571.320312 376.039062 572.777344 C 373.027344 575.785156 368.601562 574.613281 366.925781 574.007812 C 367.757812 569.191406 366.953125 556.488281 358.8125 554.105469 C 358.3125 553.957031 357.789062 554.242188 357.644531 554.742188 C 357.5 555.238281 357.785156 555.761719 358.285156 555.910156 C 365.746094 558.097656 365.789062 571.210938 364.929688 574.335938 C 364.15625 577.171875 355.226562 576.808594 351.867188 576.675781 C 345.621094 576.421875 338.5625 573.898438 337.054688 571.386719 C 335.984375 569.601562 335.824219 559.042969 335.707031 551.328125 C 335.652344 547.675781 335.597656 544.226562 335.46875 541.804688 C 335.058594 534.136719 332.722656 517.65625 329.515625 503.347656 C 329.515625 503.332031 329.511719 503.316406 329.507812 503.304688 C 329.507812 503.300781 329.507812 503.292969 329.503906 503.289062 L 329.503906 503.285156 C 326.464844 489.695312 320.222656 450.910156 320.164062 450.519531 C 320.078125 450.007812 319.59375 449.65625 319.085938 449.738281 C 318.570312 449.824219 318.222656 450.304688 318.304688 450.816406 C 318.367188 451.203125 324.417969 488.820312 327.519531 503.023438 C 319.222656 506.132812 310.417969 508.675781 301.207031 510.636719 C 300.988281 510.527344 300.726562 510.503906 300.476562 510.59375 C 300.324219 510.644531 300.203125 510.746094 300.101562 510.859375 C 281.4375 514.722656 261.144531 516.210938 240.066406 515.214844 C 246.578125 511.8125 260.75 504.269531 271.742188 492.621094 C 288.773438 474.574219 284.25 444.828125 275.203125 424.84375 C 274.988281 424.367188 274.425781 424.160156 273.957031 424.371094 C 273.484375 424.585938 273.273438 425.144531 273.488281 425.617188 C 282.296875 445.074219 286.765625 473.960938 270.371094 491.328125 C 259.308594 503.050781 244.847656 510.597656 238.671875 513.816406 C 237.582031 514.386719 236.71875 514.835938 236.136719 515.167969 C 234.082031 516.34375 233.066406 517.644531 233.121094 519.042969 C 233.175781 520.414062 234.238281 521.625 236.199219 522.554688 C 237.929688 523.375 250.5 525.6875 268.070312 528.867188 C 275.53125 530.21875 282.578125 531.492188 286.019531 532.199219 C 295.566406 534.164062 303.144531 544.0625 303.28125 554.730469 C 303.390625 563.371094 297.480469 566.042969 295.320312 566.730469 C 295.726562 564.671875 295.785156 562.378906 295.453125 559.984375 C 294.652344 554.160156 291.238281 547.15625 284.054688 544.957031 C 283.558594 544.804688 283.03125 545.085938 282.878906 545.585938 C 282.726562 546.078125 283.007812 546.605469 283.503906 546.757812 C 289.839844 548.695312 292.867188 554.992188 293.589844 560.238281 C 294.351562 565.769531 292.789062 570.816406 289.703125 572.792969 C 284.421875 576.183594 278.894531 575.136719 276.441406 574.390625 C 276.625 574.171875 276.804688 573.9375 276.972656 573.695312 C 279.785156 569.667969 280.355469 563.296875 278.335938 558.539062 C 277.023438 555.449219 274.074219 551.550781 267.488281 550.503906 C 266.976562 550.421875 266.492188 550.773438 266.410156 551.285156 C 266.328125 551.800781 266.679688 552.28125 267.191406 552.359375 C 272.929688 553.273438 275.476562 556.625 276.601562 559.273438 C 278.625 564.035156 277.542969 569.589844 275.429688 572.617188 C 271.546875 578.183594 261.894531 576.398438 261.746094 576.371094 C 238.375 573.242188 196.125 562.8125 185.121094 557.445312 C 172.636719 551.359375 178.988281 537.839844 179.265625 537.261719 C 179.972656 535.800781 180.785156 534.597656 181.5 533.535156 C 182.824219 531.574219 183.964844 529.878906 183.636719 527.710938 C 183.109375 524.179688 177.613281 523.511719 177.410156 523.488281 C 166.417969 521.917969 145.003906 510.757812 142.617188 479.753906 C 141.71875 468.109375 142.378906 452.414062 144.964844 435.535156 C 145.175781 435.339844 145.300781 435.0625 145.269531 434.757812 C 145.242188 434.53125 145.21875 434.324219 145.191406 434.101562 C 149.503906 406.976562 158.78125 377.039062 174.59375 356.046875 C 192.042969 332.886719 217.285156 318.226562 235.71875 307.519531 C 243.5625 302.964844 250.335938 299.03125 255.054688 295.335938 C 269.261719 284.203125 279.578125 272.863281 291.527344 259.734375 C 292.964844 258.15625 294.421875 256.554688 295.910156 254.925781 C 302.75 247.445312 310.332031 241.789062 316.148438 238.019531 C 318.847656 246.390625 323.3125 255.0625 329.464844 263.820312 C 340.667969 279.753906 356.132812 291.59375 373.003906 297.148438 C 373.890625 297.449219 387.332031 301.929688 401.839844 302.617188 C 396.738281 304.085938 392.414062 308.101562 390.140625 313.679688 C 389.015625 316.449219 388.519531 319.640625 388.664062 323.171875 C 388.820312 326.984375 390.496094 330.925781 393.148438 333.71875 C 396.3125 337.058594 400.847656 338.824219 406.277344 338.824219 C 406.300781 338.824219 406.316406 338.824219 406.339844 338.824219 C 412.542969 338.808594 417.652344 336.0625 420.363281 331.28125 C 422.40625 327.675781 423.34375 322.996094 422.921875 318.445312 C 422.863281 317.824219 422.78125 317.207031 422.671875 316.601562 C 421.410156 309.441406 416.523438 304.140625 410.273438 302.523438 C 415.546875 302.132812 420.652344 301.023438 425.070312 298.832031 C 424.335938 315.601562 423.539062 332.53125 421.957031 349.257812 C 421.957031 349.292969 421.953125 349.324219 421.953125 349.355469 C 420.8125 361.398438 419.261719 373.339844 417.03125 385.03125 C 416.984375 385.15625 416.953125 385.285156 416.953125 385.417969 C 413.164062 405.128906 407.425781 424.136719 398.417969 441.777344 C 397.066406 444.425781 395.625 447.035156 394.140625 449.539062 C 389.671875 457.0625 384.351562 464.0625 378.335938 470.390625 C 380.863281 456.066406 383.167969 437.574219 382.851562 426.488281 Z M 403.210938 521.882812 C 411.558594 527.3125 412.597656 539.964844 410.804688 543.859375 C 409.726562 546.183594 407.558594 547.074219 406.113281 547.414062 C 407.050781 544.074219 406.628906 539.941406 404.839844 536.398438 C 403.035156 532.828125 400.207031 530.570312 397.078125 530.203125 C 396.554688 530.136719 396.09375 530.511719 396.035156 531.027344 C 395.972656 531.542969 396.339844 532.011719 396.855469 532.070312 C 399.347656 532.367188 401.644531 534.253906 403.160156 537.25 C 405.121094 541.128906 405.28125 545.78125 403.546875 548.824219 C 401.21875 552.917969 395.519531 553.347656 392.605469 553.28125 C 394.09375 551.210938 394.871094 548.726562 394.855469 545.953125 C 394.824219 538.304688 389.628906 533.0625 381.929688 532.914062 C 381.925781 532.914062 381.917969 532.914062 381.910156 532.914062 C 381.402344 532.914062 380.984375 533.320312 380.96875 533.835938 C 380.960938 534.351562 381.378906 534.78125 381.894531 534.792969 C 388.496094 534.921875 392.949219 539.414062 392.972656 545.964844 C 392.996094 550.789062 390.375 553.585938 387.835938 555.164062 C 386.824219 552.660156 385.574219 550.59375 384.300781 549.558594 C 380.238281 546.25 377.660156 539.394531 376.640625 529.183594 C 376.363281 526.421875 376.101562 522.589844 375.898438 518.164062 C 376.875 518.027344 393.789062 515.757812 403.210938 521.882812 Z M 308.042969 545 C 302.25 542.386719 302.726562 535.75 303.867188 527.988281 C 304.738281 522.054688 302.914062 515.136719 302.074219 512.382812 C 311.113281 510.4375 319.761719 507.925781 327.925781 504.878906 C 330.976562 518.824219 333.191406 534.511719 333.589844 541.90625 C 333.71875 544.292969 333.769531 547.726562 333.824219 551.359375 C 333.824219 551.398438 333.828125 551.4375 333.828125 551.476562 C 321.6875 548.960938 310.722656 546.210938 308.042969 545 Z M 113.527344 491.425781 C 106.242188 477.863281 104.316406 468.179688 102.28125 457.933594 C 99.453125 443.71875 96.53125 429.019531 79.164062 402.613281 C 76.296875 398.414062 72.457031 390.757812 74.375 388.085938 C 75.386719 386.675781 78.167969 386.566406 82.421875 387.757812 C 82.78125 387.859375 83.164062 387.738281 83.398438 387.457031 C 83.636719 387.171875 83.6875 386.773438 83.523438 386.441406 C 78.65625 376.421875 73.867188 365.089844 74.183594 363.273438 C 74.902344 362.429688 79.917969 359.035156 86.523438 359.1875 C 93.734375 359.324219 100.039062 363.449219 105.257812 371.449219 C 105.488281 371.796875 105.921875 371.957031 106.324219 371.832031 C 106.726562 371.707031 106.996094 371.332031 106.988281 370.910156 C 106.953125 369.507812 107.183594 365.566406 108.617188 364.21875 C 108.957031 363.902344 109.328125 363.773438 109.789062 363.8125 C 120.726562 364.75 126.648438 376.835938 130.972656 385.664062 C 136.097656 396.117188 139.566406 408.089844 141.890625 423.347656 C 142.390625 426.640625 142.855469 430.179688 143.300781 434.113281 C 140.539062 451.589844 139.816406 467.882812 140.738281 479.898438 C 141.769531 493.28125 146.25 503.097656 151.957031 510.128906 C 148.203125 510.699219 125.210938 513.175781 113.527344 491.425781 Z M 195.085938 330.230469 C 193.875 330.230469 191.664062 331.75 189.980469 333.054688 C 190.371094 330.25 190.492188 328.6875 190.496094 328.605469 C 190.519531 328.285156 190.382812 327.976562 190.128906 327.785156 C 189.875 327.589844 189.539062 327.539062 189.242188 327.648438 C 185.710938 328.90625 183.289062 330.515625 182.019531 332.4375 C 181.140625 330.078125 180.324219 330.183594 179.90625 330.238281 C 179.0625 330.347656 177.527344 331.8125 175.332031 334.59375 C 174.023438 332.378906 171.292969 330.070312 169.203125 329.230469 C 168.105469 328.789062 167.226562 328.777344 166.597656 329.199219 C 165.1875 330.140625 165.382812 332.96875 165.785156 335.144531 C 165.445312 335.109375 165.117188 335.160156 164.800781 335.285156 C 164.519531 335.398438 164.292969 335.570312 164.085938 335.765625 C 163.496094 334.933594 162.476562 333.992188 160.789062 333.769531 C 160.085938 333.675781 159.441406 333.773438 158.863281 333.988281 C 159.28125 332.523438 159.449219 330.976562 158.816406 329.960938 C 158.480469 329.414062 157.777344 328.769531 156.382812 328.835938 C 155.304688 328.878906 154.261719 329.257812 153.292969 329.804688 C 153.277344 323.816406 153.1875 282.695312 153.394531 271.035156 C 153.550781 262.421875 157.132812 242.394531 186.992188 242.394531 C 187.503906 242.394531 187.984375 242.410156 188.476562 242.421875 C 188.613281 242.5625 188.785156 242.675781 188.992188 242.710938 C 209.0625 245.984375 210.621094 269.363281 210.621094 276.449219 L 210.621094 320.035156 C 210.621094 320.25 210.703125 320.4375 210.824219 320.59375 C 206.121094 323.761719 201.367188 327.203125 196.699219 330.964844 C 196.175781 330.488281 195.636719 330.230469 195.085938 330.230469 Z M 220.800781 314.1875 C 218.082031 315.859375 215.304688 317.617188 212.503906 319.46875 L 212.503906 276.449219 C 212.503906 269.921875 211.222656 250.25 196.46875 243.082031 C 217.492188 246.371094 220.46875 260.902344 220.703125 272.167969 C 221.015625 287.042969 220.832031 310.492188 220.800781 314.1875 Z M 148.609375 334.121094 C 146.941406 329.566406 143.714844 326.695312 141.605469 327.15625 C 140.425781 327.421875 139.433594 329.753906 138.648438 334.105469 C 137.648438 332.160156 136.371094 330.347656 135.0625 330.28125 C 133.738281 330.242188 131.378906 332.140625 129.535156 333.902344 C 130.011719 330.035156 130.34375 326 130.347656 325.945312 C 130.375 325.621094 130.226562 325.300781 129.960938 325.109375 C 129.695312 324.914062 129.351562 324.875 129.046875 325.003906 C 124.460938 326.914062 121.632812 331.644531 120.34375 334.332031 C 118.992188 332.1875 116.585938 329.339844 115.050781 328.476562 C 114.878906 328.378906 114.710938 328.300781 114.546875 328.242188 C 114.511719 320.425781 114.238281 261.164062 114.554688 238.027344 C 114.554688 237.867188 114.507812 237.726562 114.441406 237.597656 C 135.46875 219.644531 184.210938 178.011719 190.363281 172.753906 C 201.09375 182.683594 236.742188 216.140625 253.929688 232.28125 C 253.726562 232.460938 253.589844 232.71875 253.605469 233.011719 C 254.800781 263.601562 254.921875 289.355469 254.933594 293.023438 C 254.585938 293.300781 254.246094 293.578125 253.894531 293.855469 C 249.28125 297.46875 242.558594 301.371094 234.773438 305.894531 C 230.992188 308.089844 226.917969 310.464844 222.691406 313.027344 C 222.738281 306.976562 222.875 285.894531 222.585938 272.128906 C 222.144531 250.851562 210.5 240.511719 186.992188 240.511719 C 155.460938 240.511719 151.675781 261.832031 151.511719 271 C 151.289062 283.542969 151.410156 330.074219 151.414062 330.542969 C 151.414062 330.71875 151.476562 330.878906 151.5625 331.015625 C 150.347656 332.023438 149.328125 333.195312 148.609375 334.121094 Z M 110.03125 334.746094 C 108.28125 333.082031 105.753906 330.859375 104.554688 330.710938 C 104.167969 330.664062 103.769531 330.785156 103.445312 331.050781 C 102.746094 331.636719 102.335938 333.125 102.097656 334.582031 C 100.363281 332.171875 97.082031 328.652344 91.960938 327.171875 C 91.625 327.078125 91.265625 327.171875 91.023438 327.421875 C 90.78125 327.671875 90.695312 328.039062 90.804688 328.367188 C 90.816406 328.414062 91.863281 331.652344 92.5 334.53125 C 90.027344 332.0625 89.269531 332.0625 88.980469 332.0625 C 88.644531 332.0625 87.699219 332.0625 85.425781 335.402344 C 84.371094 332.921875 82.671875 329.097656 81.832031 328.261719 C 81.449219 327.878906 80.921875 327.757812 80.382812 327.933594 C 78.8125 328.445312 76.8125 332.199219 75.78125 336.253906 C 74.394531 334.441406 72.070312 332.015625 69.746094 332.109375 C 67.949219 332.179688 66.171875 333.640625 64.824219 335.109375 C 65.136719 332.339844 65.230469 328.886719 64.054688 327.476562 C 63.628906 326.964844 63 326.773438 62.328125 326.945312 C 59.921875 327.554688 55.960938 333.847656 54.480469 336.972656 C 53.800781 336.386719 52.828125 335.664062 51.703125 335.125 L 51.703125 245.835938 L 104.4375 245.835938 C 104.554688 245.835938 104.671875 245.808594 104.78125 245.765625 C 104.824219 245.746094 104.859375 245.71875 104.898438 245.695312 C 104.949219 245.667969 105.003906 245.648438 105.046875 245.613281 C 105.8125 244.960938 108.570312 242.609375 112.65625 239.121094 C 112.355469 263.484375 112.640625 322.855469 112.667969 328.640625 C 111.515625 329.78125 110.589844 332.617188 110.03125 334.746094 Z M 37.226562 238.957031 L 96.925781 238.957031 L 102.109375 243.953125 L 41.671875 243.953125 Z M 113.855469 166.164062 C 132.386719 164.59375 175.226562 161.105469 187.269531 160.125 C 172.097656 172.25 102.683594 232.128906 96.953125 237.074219 L 37.300781 237.074219 C 49.171875 224.878906 109.5625 170.058594 113.855469 166.164062 Z M 263.914062 239.078125 C 257.011719 232.59375 203.339844 182.171875 191.027344 170.804688 C 190.675781 170.484375 190.140625 170.472656 189.777344 170.78125 C 188.992188 171.457031 113.429688 235.992188 104.476562 243.625 L 98.699219 238.054688 C 107.175781 230.738281 181.363281 166.785156 190.308594 160.140625 L 268.933594 233.058594 Z M 259.765625 251.488281 C 260.710938 252.710938 260.785156 254.601562 259.988281 257.101562 C 259.890625 257.40625 259.957031 257.742188 260.164062 257.988281 C 260.367188 258.234375 260.683594 258.363281 261.003906 258.320312 C 261.027344 258.316406 263.445312 258.054688 264.765625 259.21875 C 265.367188 259.75 265.65625 260.507812 265.65625 261.535156 C 265.65625 261.863281 265.832031 262.171875 266.117188 262.339844 C 266.402344 262.511719 266.757812 262.519531 267.046875 262.363281 C 267.738281 261.992188 269.792969 261.1875 270.96875 261.933594 C 272.035156 262.613281 272.167969 264.472656 272.09375 265.914062 C 272.078125 266.207031 272.199219 266.492188 272.421875 266.679688 C 272.644531 266.871094 272.945312 266.945312 273.230469 266.882812 C 273.28125 266.875 278.207031 265.847656 280.761719 268.488281 C 280.792969 268.519531 280.832031 268.535156 280.871094 268.5625 C 273.304688 276.667969 265.808594 284.171875 256.808594 291.515625 C 256.78125 286.113281 256.648438 270.054688 256.058594 249.789062 C 257.070312 249.882812 258.796875 250.234375 259.765625 251.488281 Z M 418.726562 330.355469 C 416.324219 334.589844 411.925781 336.929688 406.335938 336.941406 C 406.316406 336.941406 406.300781 336.941406 406.277344 336.941406 C 402.851562 336.941406 398.046875 336.152344 394.515625 332.425781 C 392.167969 329.949219 390.683594 326.460938 390.546875 323.09375 C 390.410156 319.835938 390.863281 316.90625 391.886719 314.390625 C 394.335938 308.367188 399.402344 304.355469 405.101562 303.921875 C 405.476562 303.890625 405.851562 303.878906 406.226562 303.878906 C 413.414062 303.878906 419.453125 309.203125 420.820312 316.929688 C 420.914062 317.484375 420.992188 318.050781 421.046875 318.617188 C 421.429688 322.796875 420.585938 327.074219 418.726562 330.355469 Z M 333.9375 240.847656 C 333.953125 241 333.996094 241.148438 334.089844 241.285156 C 334.953125 242.484375 335.863281 243.699219 336.808594 244.902344 C 348.257812 259.492188 364.28125 270.273438 381.929688 275.253906 C 389.996094 277.53125 399.105469 279.832031 408.453125 279.832031 C 410.996094 279.832031 413.550781 279.664062 416.109375 279.277344 C 419.433594 278.773438 423.519531 277.585938 426.113281 275.96875 C 425.785156 282.34375 425.503906 288.808594 425.214844 295.503906 C 425.199219 295.894531 425.179688 296.285156 425.164062 296.675781 C 407.144531 306.539062 373.945312 295.484375 373.605469 295.363281 C 357.105469 289.929688 341.976562 278.34375 331.007812 262.738281 C 324.84375 253.972656 320.410156 245.3125 317.789062 236.980469 C 321.296875 234.789062 323.96875 233.394531 325.140625 232.804688 C 327.472656 235.816406 330.421875 238.511719 333.9375 240.847656 Z M 320.574219 213.535156 C 322.308594 213.472656 323.96875 213.3125 325.535156 213.054688 C 343.347656 210.113281 351.773438 202.976562 353.71875 197.28125 C 354.34375 195.457031 354.527344 189.089844 354.816406 177.054688 C 355.390625 153.457031 356.351562 113.957031 363.550781 97.882812 C 363.761719 97.410156 363.550781 96.851562 363.078125 96.644531 C 362.601562 96.429688 362.050781 96.644531 361.835938 97.113281 C 354.480469 113.53125 353.511719 153.269531 352.933594 177.011719 C 352.691406 187.082031 352.496094 195.035156 351.9375 196.671875 C 350.25 201.617188 342.238281 208.386719 325.226562 211.199219 C 308.757812 213.921875 281.730469 205.207031 267.390625 192.554688 C 252.910156 179.78125 253.136719 168.546875 253.269531 161.835938 C 253.367188 156.863281 259.648438 151.566406 267.601562 144.867188 C 270.335938 142.558594 273.167969 140.171875 276.121094 137.503906 C 286.125 128.453125 304.472656 107.386719 312.304688 98.390625 C 313.941406 96.511719 315.15625 95.117188 315.789062 94.414062 C 318.699219 91.167969 322.316406 90.761719 327.320312 90.203125 C 328.246094 90.097656 329.210938 89.988281 330.222656 89.855469 C 336.699219 89.011719 359.253906 87.167969 359.480469 87.148438 C 359.84375 87.117188 360.132812 86.882812 360.261719 86.570312 C 360.269531 86.585938 360.269531 86.609375 360.277344 86.628906 C 360.511719 87.09375 361.078125 87.28125 361.542969 87.050781 C 373.492188 81.074219 390.195312 75.53125 423.472656 79.710938 C 448.265625 82.824219 463.644531 92.667969 470.453125 99.464844 C 470.457031 99.46875 470.460938 99.472656 470.464844 99.476562 C 471.667969 100.679688 472.613281 101.796875 473.285156 102.757812 C 476.082031 106.75 480.058594 126.703125 482.210938 139.199219 C 480.894531 138.101562 479.671875 137.875 478.542969 137.816406 C 473.671875 137.554688 471.464844 144.429688 470.636719 147.019531 C 469.023438 152.039062 465.875 164.519531 471.332031 172.105469 C 473.328125 174.882812 476.011719 176.390625 478.921875 176.390625 C 479.074219 176.390625 479.234375 176.390625 479.390625 176.378906 C 480.664062 176.308594 481.910156 175.929688 483.054688 175.320312 C 483.164062 175.4375 483.292969 175.535156 483.460938 175.585938 C 491.15625 177.789062 496.777344 179.882812 500.832031 181.65625 C 497.414062 181.066406 494.042969 180.816406 491.410156 180.617188 C 481.796875 179.902344 474.207031 180.46875 468.199219 182.359375 C 464.433594 183.542969 457.902344 187.785156 460.152344 195.402344 C 460.3125 195.910156 464.222656 207.894531 479.316406 213.300781 C 483.003906 214.617188 486.171875 215.195312 489.015625 215.195312 C 489.097656 215.195312 489.179688 215.183594 489.261719 215.183594 C 488.851562 217.765625 487.710938 224.1875 486.179688 226.636719 C 485.292969 228.0625 481.996094 231.800781 471.421875 233.507812 C 471.367188 233.511719 471.308594 233.519531 471.25 233.535156 C 467.285156 234.164062 462.3125 234.503906 456.070312 234.339844 C 446.832031 234.09375 439.6875 231.953125 434.351562 229.234375 C 434.296875 229.195312 434.234375 229.164062 434.167969 229.140625 C 426.664062 225.269531 422.777344 220.273438 421.742188 217.898438 C 421.691406 217.773438 421.613281 217.671875 421.519531 217.585938 C 422.851562 216.824219 423.929688 216.644531 424.019531 216.628906 C 424.527344 216.554688 424.882812 216.082031 424.808594 215.566406 C 424.738281 215.050781 424.257812 214.695312 423.746094 214.765625 C 423.566406 214.792969 419.277344 215.453125 416.5 219.921875 C 416.230469 220.359375 416.363281 220.941406 416.808594 221.214844 C 416.960938 221.3125 417.132812 221.355469 417.304688 221.355469 C 417.617188 221.355469 417.925781 221.199219 418.101562 220.914062 C 418.691406 219.96875 419.351562 219.234375 420.019531 218.652344 C 421.570312 222.207031 425.953125 226.960938 433.019531 230.628906 C 435.03125 237.75 441.605469 241.75 445.371094 243.507812 C 445.429688 243.542969 445.492188 243.566406 445.554688 243.589844 C 446.949219 244.230469 447.925781 244.550781 448.0625 244.59375 C 448.066406 244.597656 448.070312 244.59375 448.070312 244.597656 C 448.835938 245.648438 449.828125 247.65625 450.847656 251.527344 C 452.78125 258.875 461.679688 261.613281 467.1875 261.664062 C 467.238281 261.664062 467.292969 261.664062 467.34375 261.664062 C 471.097656 261.664062 474.289062 260.449219 476.351562 258.234375 C 478.4375 255.984375 479.328125 252.855469 479 248.921875 C 478.867188 247.382812 478.625 245.988281 478.3125 244.695312 C 478.421875 244.695312 478.527344 244.699219 478.644531 244.699219 C 480.941406 244.699219 485.023438 244.355469 487.058594 242.078125 C 489.160156 239.722656 490.503906 235.316406 491.027344 233.34375 C 492.789062 234.445312 494.796875 235.273438 496.867188 235.707031 C 495.375 240.011719 493.648438 244.226562 491.714844 248.238281 C 490.308594 251.152344 488.566406 254.523438 486.304688 257.417969 C 484.003906 260.363281 480.800781 262.332031 475.933594 263.804688 C 473.695312 264.480469 471.289062 264.972656 468.578125 265.3125 C 457.617188 266.683594 447.3125 266.539062 437.929688 264.886719 C 429.65625 263.429688 421.5 260.910156 413.609375 258.476562 C 407.164062 256.484375 400.492188 254.429688 393.765625 252.945312 C 387.296875 251.519531 380.632812 250.773438 374.191406 250.050781 C 364.78125 248.996094 355.058594 247.90625 345.9375 244.675781 C 337.636719 241.730469 323.347656 234.421875 320.96875 218.550781 C 320.679688 216.636719 320.566406 215.195312 320.574219 213.535156 Z M 456.882812 87.15625 C 458.21875 82.253906 460.589844 78.914062 463.949219 77.230469 C 469.234375 74.570312 475.296875 76.898438 475.359375 76.921875 C 475.625 77.027344 475.917969 77.003906 476.167969 76.867188 C 476.414062 76.726562 476.585938 76.484375 476.632812 76.207031 C 476.710938 75.746094 478.714844 64.984375 492.285156 64.984375 C 505.964844 64.984375 510.082031 79.402344 510.25 80.011719 C 510.320312 80.257812 510.484375 80.464844 510.703125 80.585938 C 510.925781 80.710938 511.1875 80.738281 511.429688 80.664062 C 517.160156 78.929688 521.992188 79.171875 525.785156 81.386719 C 531.320312 84.613281 532.8125 91.039062 532.828125 91.105469 C 532.886719 91.363281 533.054688 91.585938 533.285156 91.71875 C 533.515625 91.847656 533.789062 91.878906 534.046875 91.789062 C 541.890625 89.167969 551.332031 93.472656 554.21875 98.929688 C 556.128906 102.546875 554.953125 106.234375 550.902344 109.316406 C 538.308594 118.898438 522.179688 114.074219 522.015625 114.023438 C 521.765625 113.945312 521.488281 113.980469 521.257812 114.113281 C 521.03125 114.246094 520.871094 114.472656 520.816406 114.734375 C 520.804688 114.792969 519.394531 120.902344 507.382812 121.703125 C 506.332031 121.769531 505.289062 121.785156 504.265625 121.753906 C 499.453125 114.597656 495.511719 109.101562 493.433594 107.152344 C 486.785156 100.90625 473.867188 98.425781 471.667969 98.039062 C 468.441406 94.859375 463.453125 91.070312 456.640625 87.582031 C 456.753906 87.464844 456.84375 87.320312 456.882812 87.15625 Z M 474.144531 159.65625 C 474.144531 157.476562 475.441406 155.707031 477.042969 155.707031 C 478.640625 155.707031 479.941406 157.476562 479.941406 159.65625 C 479.941406 161.835938 478.640625 163.605469 477.042969 163.605469 C 475.441406 163.605469 474.144531 161.835938 474.144531 159.65625 Z M 485.050781 147.359375 C 486.050781 149.851562 486.730469 152.71875 487.101562 155.613281 C 485.421875 152.171875 482.550781 149.902344 479.292969 149.902344 C 474.816406 149.902344 471.085938 154.175781 470.148438 159.886719 C 470.296875 154.984375 471.585938 150.214844 472.425781 147.59375 C 473.519531 144.183594 475.308594 139.691406 478.285156 139.691406 C 478.335938 139.691406 478.386719 139.691406 478.441406 139.691406 C 479.796875 139.765625 482.0625 139.890625 485.050781 147.359375 Z M 536.800781 174.417969 C 539.976562 178.320312 540.703125 185.222656 538.652344 192.003906 C 535.578125 202.175781 527.257812 210.207031 515.722656 214.257812 C 516.15625 212.4375 516.476562 210.644531 516.65625 208.9375 C 517.585938 200.117188 514.363281 190.371094 514.222656 189.960938 C 514.171875 189.816406 514.089844 189.695312 513.988281 189.601562 C 513.78125 188.816406 513.472656 188.046875 513.019531 187.304688 C 512.59375 186.605469 512.035156 185.964844 511.351562 185.402344 C 510.855469 184.953125 505.042969 179.917969 484.910156 174.046875 C 485.796875 173.273438 486.574219 172.339844 487.171875 171.269531 C 490.175781 165.9375 490.007812 154.664062 486.800781 146.660156 C 486.054688 144.789062 485.328125 143.328125 484.625 142.164062 C 484.171875 139.425781 478.816406 107.375 474.828125 101.675781 C 474.550781 101.28125 474.226562 100.855469 473.863281 100.414062 C 478.375 101.4375 487.257812 103.933594 492.148438 108.527344 C 496.070312 112.210938 507.867188 130.527344 518.277344 146.6875 C 526.152344 158.914062 533.589844 170.46875 536.800781 174.417969 Z M 511.410156 188.28125 C 513.90625 192.394531 511.207031 198.367188 507.84375 202.589844 C 506.023438 204.878906 503.707031 207.082031 501.320312 208.789062 C 495.339844 213.058594 489.679688 215.011719 479.953125 211.527344 C 465.773438 206.449219 461.984375 194.949219 461.953125 194.851562 C 459.675781 187.136719 468.394531 184.273438 468.765625 184.152344 C 472.917969 182.847656 477.894531 182.199219 483.847656 182.199219 C 486.171875 182.199219 488.640625 182.300781 491.269531 182.492188 C 495.945312 182.84375 503.011719 183.371094 508.199219 185.667969 C 509.214844 186.121094 510.597656 186.9375 511.410156 188.28125 Z M 473.421875 235.023438 C 480.992188 233.515625 484.761719 230.949219 486.566406 229.125 C 487.289062 230.230469 488.257812 231.261719 489.386719 232.171875 C 489.105469 233.3125 487.773438 238.449219 485.652344 240.824219 C 483.992188 242.6875 479.855469 242.894531 477.78125 242.800781 C 476.535156 238.964844 474.6875 236.425781 473.421875 235.023438 Z M 447.449219 241.710938 C 446.820312 241.492188 446.300781 241.550781 445.925781 241.664062 C 442.753906 240.132812 437.65625 236.972656 435.425781 231.785156 C 440.925781 234.238281 447.804688 236 456.019531 236.21875 C 457.070312 236.25 458.085938 236.261719 459.0625 236.261719 C 459.25 236.261719 459.421875 236.257812 459.605469 236.257812 C 460.570312 236.941406 464.777344 240.328125 465.257812 247.640625 C 465.289062 248.136719 465.703125 248.519531 466.195312 248.519531 C 466.214844 248.519531 466.238281 248.519531 466.257812 248.519531 C 466.773438 248.484375 467.167969 248.035156 467.136719 247.515625 C 466.753906 241.730469 464.230469 238.113281 462.386719 236.203125 C 465.714844 236.09375 468.628906 235.820312 471.167969 235.425781 C 472.28125 236.449219 476.429688 240.777344 477.125 249.078125 C 477.40625 252.460938 476.683594 255.109375 474.96875 256.953125 C 473.246094 258.804688 470.503906 259.816406 467.207031 259.78125 C 462.464844 259.738281 454.324219 257.332031 452.667969 251.050781 C 451.199219 245.46875 449.492188 242.414062 447.449219 241.710938 Z M 505.246094 232.21875 C 503.828125 233.769531 501.457031 234.4375 498.546875 234.089844 C 494.132812 233.566406 489.628906 230.820312 487.816406 227.5625 C 489.617188 224.597656 490.835938 217.378906 491.1875 215.066406 C 495.402344 214.605469 498.917969 212.816406 502.410156 210.320312 C 504.941406 208.515625 507.390625 206.1875 509.320312 203.765625 C 510.371094 202.441406 512.695312 199.226562 513.753906 195.550781 C 514.53125 199.140625 515.269531 204.128906 514.785156 208.742188 C 513.917969 216.992188 509.722656 227.300781 505.246094 232.21875 Z M 426.742188 264.78125 L 426.730469 264.902344 C 426.554688 267.769531 426.390625 270.640625 426.238281 273.523438 C 424.425781 275.304688 419.609375 276.84375 415.828125 277.414062 C 404.222656 279.171875 392.507812 276.285156 382.441406 273.441406 C 365.171875 268.570312 349.492188 258.019531 338.289062 243.738281 C 338.148438 243.558594 338.011719 243.375 337.871094 243.195312 C 340.167969 244.414062 342.644531 245.503906 345.3125 246.449219 C 354.632812 249.757812 364.46875 250.855469 373.980469 251.921875 C 380.375 252.636719 386.984375 253.378906 393.359375 254.78125 C 400.011719 256.25 406.644531 258.296875 413.058594 260.273438 C 417.546875 261.660156 422.121094 263.066406 426.765625 264.296875 C 426.757812 264.460938 426.75 264.621094 426.742188 264.78125 Z M 559.980469 357.351562 C 558.554688 358.0625 556.992188 359.292969 555.816406 360.320312 L 556.429688 354.21875 C 556.460938 353.878906 556.308594 353.546875 556.03125 353.351562 C 555.753906 353.160156 555.390625 353.128906 555.082031 353.277344 C 551.078125 355.203125 548.648438 358.226562 547.433594 360.113281 C 545.355469 355.753906 544.324219 355.753906 543.910156 355.753906 C 543.066406 355.753906 541.742188 356.816406 540.460938 358.09375 C 539.792969 354.78125 536.5625 351.828125 534.710938 351.160156 C 533.152344 350.601562 532.625 351.613281 532.535156 351.824219 C 532.125 352.785156 531.332031 355.191406 530.785156 356.902344 C 529.171875 354.683594 528.59375 354.683594 528.257812 354.683594 C 528.003906 354.683594 527.4375 354.683594 523.515625 357.351562 C 523.273438 353.011719 524.738281 350.695312 524.75 350.671875 C 524.96875 350.347656 524.960938 349.917969 524.730469 349.597656 C 524.5 349.28125 524.097656 349.144531 523.71875 349.246094 C 518.050781 350.816406 515.898438 353.375 515.117188 355.425781 C 513.773438 353.203125 512.300781 351.226562 511.257812 351.054688 C 510.117188 350.863281 507.796875 352.390625 505.679688 354.0625 C 505.117188 350.953125 503.050781 348.050781 501.445312 347.066406 C 500.4375 346.453125 499.730469 346.601562 499.3125 346.835938 C 498.683594 347.1875 498.367188 347.886719 498.367188 348.917969 C 498.367188 351.046875 497.996094 352.886719 497.675781 354.089844 C 495.707031 351.957031 494.390625 350.796875 493.746094 350.636719 C 493.367188 350.542969 492.644531 350.363281 489.5625 353.265625 C 489.96875 350.488281 490.160156 348.757812 490.164062 348.734375 C 490.199219 348.414062 490.070312 348.097656 489.820312 347.894531 C 489.5625 347.691406 489.226562 347.632812 488.921875 347.742188 C 484.953125 349.117188 482.792969 351.667969 481.730469 353.363281 C 480.585938 351.378906 479.0625 349.101562 477.945312 348.730469 C 476.875 348.363281 475.160156 349.558594 472.839844 352.257812 C 471.429688 347.261719 465.796875 345.210938 465.527344 345.113281 C 465.179688 344.992188 464.792969 345.082031 464.53125 345.347656 C 464.277344 345.613281 464.199219 346.003906 464.335938 346.347656 C 464.984375 347.980469 464.898438 350.144531 464.695312 351.734375 C 463.433594 350.082031 461.535156 348.039062 459.847656 348.039062 C 458.671875 348.039062 457.316406 349.050781 456.132812 350.230469 C 456.835938 347.597656 457.542969 344.933594 457.542969 344.933594 C 457.621094 344.632812 457.550781 344.3125 457.347656 344.078125 C 457.144531 343.84375 456.84375 343.726562 456.53125 343.757812 C 450.964844 344.375 448.382812 347.4375 447.265625 349.460938 C 445.921875 347.382812 444.105469 345.058594 442.699219 345.058594 C 442.695312 345.058594 442.6875 345.058594 442.679688 345.058594 C 441.664062 345.074219 440.515625 346.285156 439.503906 347.742188 C 438.78125 344.007812 435.761719 341.339844 435.59375 341.195312 C 435.3125 340.949219 434.917969 340.894531 434.585938 341.050781 C 434.25 341.203125 434.035156 341.535156 434.035156 341.90625 C 434.035156 343.003906 432.746094 345.816406 431.574219 348.050781 C 430.925781 346.914062 429.96875 345.570312 428.902344 345.132812 C 427.628906 344.605469 425.691406 345.765625 424.054688 347.070312 C 425.597656 329.96875 426.347656 312.679688 427.09375 295.585938 C 427.101562 295.355469 427.113281 295.132812 427.121094 294.902344 C 427.148438 294.894531 427.175781 294.898438 427.199219 294.886719 C 427.234375 294.875 430.574219 293.574219 433.058594 294.824219 C 434.25 295.417969 435.070312 296.542969 435.507812 298.160156 C 435.640625 298.640625 436.125 298.9375 436.609375 298.835938 C 436.632812 298.832031 439.445312 298.285156 441.46875 300.054688 C 443.183594 301.558594 443.917969 304.3125 443.640625 308.238281 C 443.617188 308.574219 443.773438 308.894531 444.050781 309.082031 C 444.328125 309.269531 444.6875 309.296875 444.988281 309.152344 C 445.027344 309.136719 448.941406 307.285156 451.875 308.621094 C 453.289062 309.261719 454.28125 310.589844 454.824219 312.558594 C 454.910156 312.871094 455.152344 313.117188 455.46875 313.210938 C 455.773438 313.300781 456.113281 313.226562 456.359375 313.007812 C 456.398438 312.972656 460.316406 309.53125 464.097656 309.984375 C 465.773438 310.183594 467.21875 311.144531 468.398438 312.84375 C 468.558594 313.078125 468.820312 313.222656 469.105469 313.246094 C 469.394531 313.265625 469.671875 313.152344 469.867188 312.945312 C 470.019531 312.777344 473.71875 308.929688 480.695312 313.113281 C 481.226562 313.433594 481.960938 313.433594 483.007812 313.429688 C 484.761719 313.410156 487.230469 313.425781 488.816406 315.054688 C 490.054688 316.324219 490.640625 318.46875 490.558594 321.429688 C 490.550781 321.773438 490.734375 322.101562 491.035156 322.273438 C 491.335938 322.441406 491.710938 322.433594 492.003906 322.246094 C 492.035156 322.230469 495.042969 320.347656 497.414062 321.222656 C 498.59375 321.652344 499.46875 322.746094 500.007812 324.464844 C 500.132812 324.859375 500.496094 325.125 500.90625 325.125 C 501.320312 325.125 501.683594 324.851562 501.808594 324.460938 C 501.8125 324.4375 502.601562 321.988281 504.609375 321.3125 C 506.039062 320.824219 507.824219 321.320312 509.921875 322.796875 C 510.136719 322.949219 510.414062 323 510.671875 322.941406 C 510.929688 322.882812 511.152344 322.714844 511.285156 322.484375 C 511.816406 321.523438 513.695312 318.972656 515.960938 318.65625 C 517.28125 318.46875 518.625 319.058594 519.972656 320.40625 C 520.316406 320.75 520.863281 320.773438 521.238281 320.460938 C 521.269531 320.433594 524.394531 317.871094 527.628906 318.296875 C 529.261719 318.507812 530.691406 319.46875 531.875 321.140625 C 532.089844 321.445312 532.46875 321.597656 532.828125 321.519531 C 533.191406 321.449219 533.476562 321.171875 533.5625 320.804688 C 533.566406 320.773438 534.328125 317.550781 536.679688 316.101562 C 537.8125 315.398438 539.171875 315.234375 540.710938 315.613281 C 540.976562 315.675781 541.25 315.625 541.472656 315.46875 C 541.699219 315.3125 541.84375 315.070312 541.871094 314.800781 C 541.984375 313.792969 542.632812 310.945312 544.289062 309.902344 C 545.082031 309.402344 546.03125 309.355469 547.199219 309.765625 C 547.445312 309.851562 547.714844 309.828125 547.945312 309.710938 C 547.996094 309.683594 552.972656 307.136719 556.515625 308.527344 C 557.925781 309.078125 558.90625 310.171875 559.511719 311.863281 C 559.6875 312.351562 560.230469 312.605469 560.71875 312.429688 C 561.207031 312.253906 561.460938 311.71875 561.285156 311.226562 C 560.492188 309.023438 559.121094 307.523438 557.199219 306.773438 C 553.429688 305.300781 548.765625 307.242188 547.441406 307.867188 C 545.871094 307.40625 544.476562 307.554688 543.28125 308.308594 C 541.304688 309.558594 540.484375 312.160156 540.171875 313.597656 C 538.515625 313.378906 537.011719 313.679688 535.6875 314.5 C 533.910156 315.59375 532.867188 317.390625 532.296875 318.714844 C 531.015625 317.410156 529.527344 316.644531 527.855469 316.429688 C 524.765625 316.035156 521.953125 317.65625 520.699219 318.515625 C 519.09375 317.132812 517.410156 316.550781 515.695312 316.792969 C 513.039062 317.164062 511.082031 319.445312 510.1875 320.71875 C 507.894531 319.308594 505.8125 318.910156 503.988281 319.535156 C 502.5625 320.019531 501.59375 321.042969 500.964844 321.972656 C 500.238281 320.734375 499.265625 319.890625 498.050781 319.449219 C 496.011719 318.707031 493.816406 319.335938 492.421875 319.929688 C 492.28125 317.210938 491.523438 315.132812 490.164062 313.742188 C 488.027344 311.542969 485.015625 311.535156 483.007812 311.550781 C 482.5 311.550781 481.8125 311.550781 481.664062 311.5 C 475.332031 307.703125 471.050781 309.730469 469.324219 310.957031 C 467.933594 309.300781 466.253906 308.34375 464.308594 308.117188 C 461 307.730469 457.804688 309.59375 456.191406 310.75 C 455.433594 308.917969 454.238281 307.625 452.644531 306.902344 C 450.128906 305.765625 447.253906 306.367188 445.578125 306.910156 C 445.613281 303.109375 444.644531 300.324219 442.6875 298.621094 C 440.730469 296.917969 438.332031 296.800781 437.078125 296.886719 C 436.449219 295.140625 435.386719 293.882812 433.90625 293.140625 C 431.433594 291.898438 428.523438 292.515625 427.210938 292.902344 C 427.628906 283.304688 428.042969 274.148438 428.609375 265.019531 L 428.617188 264.898438 C 428.621094 264.859375 428.621094 264.820312 428.621094 264.785156 C 431.59375 265.535156 434.585938 266.207031 437.605469 266.742188 C 442.84375 267.664062 448.359375 268.125 454.109375 268.125 C 458.859375 268.125 463.769531 267.808594 468.8125 267.179688 C 471.632812 266.824219 474.136719 266.3125 476.476562 265.605469 C 481.742188 264.015625 485.234375 261.847656 487.789062 258.574219 C 490.160156 255.542969 491.957031 252.0625 493.40625 249.054688 C 495.425781 244.871094 497.226562 240.476562 498.765625 235.984375 C 499.183594 236.023438 499.597656 236.058594 500 236.058594 C 502.78125 236.058594 505.097656 235.167969 506.636719 233.484375 C 510.042969 229.75 513.273438 223.085938 515.152344 216.4375 C 527.882812 212.335938 537.09375 203.65625 540.453125 192.550781 C 542.710938 185.074219 541.871094 177.671875 538.261719 173.230469 C 535.117188 169.355469 527.703125 157.851562 519.855469 145.667969 C 514.921875 138.007812 509.921875 130.234375 505.527344 123.644531 C 506.1875 123.640625 506.84375 123.625 507.503906 123.578125 C 518.183594 122.867188 521.421875 118.128906 522.332031 116.066406 C 526 116.996094 540.238281 119.796875 552.042969 110.8125 C 556.84375 107.164062 558.238281 102.511719 555.878906 98.050781 C 552.765625 92.160156 542.886719 87.449219 534.390625 89.722656 C 533.726562 87.621094 531.691406 82.660156 526.757812 79.773438 C 522.691406 77.390625 517.648438 77 511.769531 78.609375 C 510.546875 75.160156 505.324219 63.101562 492.285156 63.101562 C 479.710938 63.101562 475.972656 71.773438 475.042969 74.839844 C 472.929688 74.21875 467.851562 73.167969 463.117188 75.539062 C 459.585938 77.308594 457.019531 80.585938 455.476562 85.292969 C 453.96875 84.261719 451.015625 82.832031 446.726562 83.285156 C 440.183594 80.910156 432.53125 78.953125 423.714844 77.839844 C 389.933594 73.605469 372.90625 79.265625 360.699219 85.367188 C 360.488281 85.472656 360.34375 85.648438 360.261719 85.851562 C 360.109375 85.484375 359.746094 85.234375 359.328125 85.273438 C 359.097656 85.289062 336.5 87.140625 329.976562 87.992188 C 328.976562 88.121094 328.023438 88.230469 327.109375 88.332031 C 321.894531 88.914062 317.773438 89.378906 314.386719 93.15625 C 313.753906 93.863281 312.53125 95.265625 310.886719 97.15625 C 303.074219 106.125 284.777344 127.132812 274.855469 136.105469 C 271.929688 138.753906 269.113281 141.132812 266.386719 143.425781 C 257.746094 150.710938 251.503906 155.976562 251.386719 161.796875 C 251.257812 168.375 251.011719 180.617188 266.144531 193.964844 C 279 205.304688 301.832031 213.546875 318.691406 213.566406 C 318.683594 215.3125 318.804688 216.824219 319.105469 218.832031 C 319.785156 223.359375 321.457031 227.53125 324.011719 231.269531 C 322.597656 231.992188 319.757812 233.503906 316.136719 235.796875 C 316.105469 235.816406 316.070312 235.832031 316.046875 235.855469 C 310.007812 239.683594 301.847656 245.644531 294.519531 253.65625 C 293.03125 255.28125 291.570312 256.886719 290.132812 258.46875 C 287.402344 261.472656 284.757812 264.375 282.132812 267.207031 C 282.125 267.199219 282.121094 267.1875 282.113281 267.179688 C 279.6875 264.667969 275.882812 264.679688 273.988281 264.875 C 273.917969 262.667969 273.238281 261.144531 271.972656 260.34375 C 270.488281 259.40625 268.609375 259.765625 267.398438 260.179688 C 267.179688 259.226562 266.714844 258.429688 266.011719 257.808594 C 264.835938 256.773438 263.246094 256.484375 262.125 256.421875 C 262.707031 253.886719 262.414062 251.84375 261.253906 250.339844 C 259.765625 248.410156 257.292969 247.980469 256 247.890625 C 255.863281 243.359375 255.703125 238.625 255.515625 233.769531 C 260.234375 238.199219 263.222656 241.007812 263.355469 241.132812 C 263.542969 241.3125 263.796875 241.40625 264.058594 241.386719 C 264.316406 241.371094 264.558594 241.25 264.722656 241.050781 L 270.949219 233.578125 C 271.269531 233.195312 271.234375 232.625 270.867188 232.285156 L 191.027344 158.242188 C 191.027344 158.238281 191.023438 158.238281 191.019531 158.234375 C 190.980469 158.199219 190.929688 158.171875 190.886719 158.144531 C 190.835938 158.113281 190.785156 158.078125 190.730469 158.058594 C 190.6875 158.042969 190.644531 158.035156 190.597656 158.027344 C 190.523438 158.007812 190.453125 158 190.375 158 C 190.355469 158 190.335938 157.988281 190.3125 157.992188 C 189.757812 158.039062 134.726562 162.507812 113.378906 164.316406 C 113.175781 164.332031 112.980469 164.417969 112.828125 164.554688 C 109.921875 167.195312 41.511719 229.238281 34.421875 237.398438 C 34.375 237.453125 34.335938 237.515625 34.304688 237.582031 C 34.296875 237.59375 34.285156 237.605469 34.28125 237.617188 C 34.234375 237.714844 34.210938 237.820312 34.199219 237.925781 C 34.199219 237.957031 34.199219 237.984375 34.199219 238.015625 C 34.199219 238.097656 34.210938 238.175781 34.234375 238.257812 C 34.242188 238.289062 34.25 238.316406 34.261719 238.347656 C 34.265625 238.367188 34.265625 238.386719 34.277344 238.40625 C 34.316406 238.488281 34.367188 238.566406 34.425781 238.636719 C 34.429688 238.636719 34.429688 238.636719 34.429688 238.636719 L 40.542969 245.519531 C 40.722656 245.71875 40.980469 245.835938 41.25 245.835938 L 49.820312 245.835938 L 49.820312 288.070312 C 47.847656 287.484375 45.75 287.695312 44.625 287.890625 C 43.78125 285.996094 42.597656 284.71875 41.097656 284.089844 C 39.34375 283.359375 37.242188 283.539062 34.847656 284.625 C 34.375 284.839844 34.164062 285.398438 34.378906 285.871094 C 34.59375 286.34375 35.152344 286.554688 35.625 286.339844 C 37.523438 285.476562 39.121094 285.304688 40.371094 285.828125 C 41.5625 286.324219 42.503906 287.492188 43.167969 289.300781 C 43.335938 289.757812 43.824219 290.011719 44.292969 289.882812 C 44.328125 289.875 47.453125 289.066406 49.820312 290.050781 L 49.820312 334.476562 C 49.210938 334.355469 48.585938 334.304688 47.949219 334.382812 C 46.355469 334.574219 44.984375 335.453125 43.859375 337.007812 C 42.414062 335.378906 39.285156 332.3125 35.472656 331.328125 C 34.96875 331.191406 34.457031 331.5 34.324219 332.003906 C 34.195312 332.507812 34.5 333.019531 35 333.152344 C 39.523438 334.316406 43.175781 339.125 43.214844 339.171875 C 43.40625 339.425781 43.710938 339.570312 44.035156 339.546875 C 44.351562 339.523438 44.636719 339.335938 44.792969 339.058594 C 45.722656 337.355469 46.855469 336.410156 48.167969 336.253906 C 51.058594 335.902344 54.109375 339.207031 54.140625 339.242188 C 54.382812 339.503906 54.75 339.609375 55.089844 339.511719 C 55.429688 339.421875 55.691406 339.140625 55.761719 338.789062 C 56.109375 337.042969 61.050781 329.328125 62.6875 328.792969 C 63.550781 330.148438 63.054688 335.175781 62.410156 338.421875 C 62.320312 338.867188 62.558594 339.316406 62.984375 339.480469 C 63.40625 339.648438 63.886719 339.492188 64.128906 339.105469 C 65.34375 337.167969 67.964844 334.066406 69.824219 333.988281 C 71.683594 333.902344 74.242188 337.082031 75.453125 339.09375 C 75.625 339.378906 75.933594 339.546875 76.261719 339.546875 C 76.320312 339.546875 76.378906 339.542969 76.441406 339.53125 C 76.828125 339.453125 77.128906 339.144531 77.1875 338.753906 C 77.871094 334.339844 79.808594 330.765625 80.730469 329.898438 C 81.457031 331.039062 83.09375 334.652344 84.371094 337.777344 C 84.507812 338.101562 84.8125 338.328125 85.167969 338.359375 C 85.523438 338.382812 85.859375 338.214844 86.046875 337.910156 C 87.128906 336.148438 88.441406 334.425781 89.011719 334 C 89.753906 334.417969 91.699219 336.34375 93.203125 338.039062 C 93.46875 338.34375 93.894531 338.441406 94.265625 338.289062 C 94.636719 338.136719 94.867188 337.769531 94.847656 337.367188 C 94.726562 335.238281 93.777344 331.722656 93.148438 329.589844 C 99.09375 332.121094 101.859375 337.761719 101.890625 337.824219 C 102.078125 338.214844 102.503906 338.425781 102.921875 338.34375 C 103.34375 338.257812 103.65625 337.902344 103.679688 337.472656 C 103.796875 335.433594 104.175781 333.347656 104.539062 332.667969 C 105.488281 333.144531 107.949219 335.296875 109.886719 337.234375 C 110.128906 337.480469 110.488281 337.570312 110.816406 337.472656 C 111.144531 337.378906 111.394531 337.109375 111.472656 336.773438 C 112.179688 333.625 113.304688 330.550781 113.925781 330.007812 C 115.257812 330.382812 119.257812 335.59375 119.472656 336.683594 C 119.527344 337.117188 119.871094 337.457031 120.304688 337.503906 C 120.738281 337.550781 121.148438 337.296875 121.292969 336.882812 C 121.316406 336.8125 123.640625 330.414062 128.320312 327.492188 C 128.125 329.660156 127.742188 333.484375 127.289062 336.425781 C 127.226562 336.835938 127.4375 337.234375 127.808594 337.414062 C 128.179688 337.59375 128.625 337.515625 128.90625 337.214844 C 131.398438 334.554688 134.234375 332.195312 134.941406 332.15625 C 135.582031 332.339844 137.144531 335.011719 138.214844 337.761719 C 138.371094 338.160156 138.78125 338.40625 139.203125 338.351562 C 139.632812 338.300781 139.96875 337.96875 140.023438 337.542969 C 140.5 333.945312 141.4375 329.738281 142.109375 328.984375 C 142.109375 328.984375 142.113281 328.984375 142.113281 328.984375 C 143.078125 328.984375 146.113281 331.355469 147.351562 336.449219 C 147.4375 336.820312 147.742188 337.097656 148.117188 337.160156 C 148.492188 337.21875 148.863281 337.046875 149.0625 336.726562 C 150.078125 335.097656 153.378906 330.839844 156.457031 330.71875 C 157.046875 330.699219 157.179688 330.886719 157.21875 330.953125 C 157.757812 331.820312 156.792969 334.753906 155.589844 336.972656 C 155.34375 337.425781 155.511719 337.996094 155.964844 338.246094 C 156.417969 338.492188 156.988281 338.328125 157.238281 337.875 C 157.253906 337.851562 158.6875 335.386719 160.539062 335.632812 C 162.414062 335.882812 162.960938 337.59375 162.988281 337.683594 C 162.996094 337.71875 163.023438 337.746094 163.039062 337.777344 C 162.992188 337.972656 162.964844 338.125 162.960938 338.179688 C 162.890625 338.691406 163.25 339.164062 163.765625 339.238281 C 163.808594 339.242188 163.851562 339.246094 163.894531 339.246094 C 164.355469 339.246094 164.757812 338.902344 164.824219 338.429688 C 164.890625 337.941406 165.183594 337.15625 165.492188 337.035156 C 165.632812 336.976562 165.988281 337.070312 166.523438 337.507812 C 166.84375 337.761719 167.289062 337.789062 167.628906 337.566406 C 167.972656 337.34375 168.132812 336.929688 168.027344 336.535156 C 167.285156 333.714844 167.210938 331.117188 167.609375 330.78125 C 167.726562 330.746094 168.296875 330.785156 169.390625 331.417969 C 171.402344 332.582031 173.8125 334.960938 174.183594 336.636719 C 174.265625 337 174.546875 337.277344 174.902344 337.355469 C 175.265625 337.429688 175.632812 337.296875 175.855469 337 C 177.265625 335.128906 179.070312 333.007812 179.921875 332.304688 C 180.246094 332.941406 180.683594 334.378906 181.023438 335.933594 C 181.074219 336.621094 181.253906 337.066406 181.292969 337.152344 C 181.484375 337.589844 181.972656 337.820312 182.429688 337.675781 C 182.890625 337.535156 183.167969 337.074219 183.082031 336.605469 C 183.019531 336.273438 182.960938 335.964844 182.898438 335.667969 C 182.886719 335.269531 182.953125 334.738281 183.226562 334.128906 C 183.734375 333 185.066406 331.417969 188.472656 329.964844 C 188.34375 331.113281 188.125 332.890625 187.761719 335.1875 C 187.699219 335.578125 187.890625 335.964844 188.234375 336.15625 C 188.582031 336.347656 189.007812 336.304688 189.308594 336.042969 C 191.71875 333.957031 194.417969 332.121094 195.082031 332.113281 C 195.085938 332.113281 195.128906 332.121094 195.207031 332.167969 C 187.269531 338.714844 179.644531 346.21875 173.089844 354.914062 C 158.289062 374.566406 149.140625 401.945312 144.398438 427.640625 C 144.191406 426.0625 143.976562 424.535156 143.75 423.0625 C 141.398438 407.613281 137.871094 395.464844 132.664062 384.835938 C 128.394531 376.128906 121.945312 362.96875 109.949219 361.9375 C 108.953125 361.851562 108.050781 362.167969 107.324219 362.851562 C 106.019531 364.078125 105.476562 366.328125 105.253906 368.15625 C 98.707031 359.425781 91.566406 357.402344 86.5625 357.304688 C 79.445312 357.164062 73.605469 360.828125 72.605469 362.242188 C 71.25 364.152344 76.199219 375.539062 80.960938 385.460938 C 76.859375 384.605469 74.195312 385.105469 72.847656 386.988281 C 69.539062 391.601562 76.777344 402.457031 77.601562 403.664062 C 94.757812 429.746094 97.644531 444.261719 100.433594 458.300781 C 102.5 468.691406 104.449219 478.503906 111.871094 492.316406 C 121.230469 509.746094 137.480469 512.382812 146.457031 512.382812 C 150.28125 512.382812 152.785156 511.902344 152.867188 511.886719 C 153.023438 511.855469 153.15625 511.777344 153.273438 511.683594 C 161.09375 520.476562 170.792969 524.445312 177.167969 525.355469 C 178.28125 525.484375 181.515625 526.25 181.777344 527.988281 C 181.992188 529.4375 181.132812 530.714844 179.941406 532.480469 C 179.1875 533.597656 178.335938 534.863281 177.570312 536.445312 C 174.75 542.28125 172.996094 553.632812 184.296875 559.136719 C 196.269531 564.976562 239.851562 575.339844 261.441406 578.226562 C 261.609375 578.257812 263.242188 578.5625 265.453125 578.5625 C 268.273438 578.5625 272.035156 578.058594 274.894531 575.859375 C 275.949219 576.265625 278.410156 577.058594 281.519531 577.058594 C 284.261719 577.058594 287.507812 576.4375 290.722656 574.378906 C 292.554688 573.199219 293.9375 571.238281 294.765625 568.808594 C 294.808594 568.804688 294.855469 568.800781 294.898438 568.792969 C 295.003906 568.773438 305.3125 566.648438 305.164062 554.710938 C 305.019531 543.191406 296.773438 532.496094 286.398438 530.359375 C 282.9375 529.644531 275.878906 528.367188 268.40625 527.015625 C 255.847656 524.742188 238.644531 521.628906 237.003906 520.851562 C 235.773438 520.269531 235.023438 519.566406 235.003906 518.972656 C 234.980469 518.394531 235.652344 517.664062 236.84375 516.941406 C 242.183594 517.253906 247.480469 517.414062 252.71875 517.414062 C 269.296875 517.414062 285.269531 515.835938 300.214844 512.761719 C 300.980469 515.25 302.832031 522.097656 302.007812 527.710938 C 301.035156 534.292969 299.710938 543.304688 307.265625 546.714844 C 310.128906 548.011719 321.246094 550.800781 333.859375 553.40625 C 334.019531 563.335938 334.28125 570.429688 335.4375 572.355469 C 337.476562 575.75 345.539062 578.300781 351.789062 578.554688 C 353.078125 578.605469 354.355469 578.640625 355.585938 578.640625 C 360.5625 578.640625 364.820312 578.070312 366.308594 575.792969 C 367.296875 576.148438 369.007812 576.652344 370.960938 576.652344 C 372.890625 576.652344 375.03125 576.144531 376.890625 574.535156 C 377.753906 574.855469 379.46875 575.386719 381.492188 575.386719 C 383.53125 575.386719 385.871094 574.84375 387.914062 572.996094 C 389.449219 571.609375 390.214844 569.078125 390.128906 565.675781 C 390.058594 562.886719 389.429688 559.761719 388.496094 556.964844 C 389.4375 556.410156 390.277344 555.777344 391.019531 555.082031 C 391.472656 555.128906 392.230469 555.183594 393.183594 555.183594 C 396.621094 555.183594 402.515625 554.445312 405.183594 549.753906 C 405.234375 549.664062 405.269531 549.558594 405.320312 549.464844 C 406.789062 549.292969 410.742188 548.480469 412.511719 544.644531 C 414.566406 540.191406 413.570312 526.378906 404.234375 520.308594 C 394.613281 514.046875 377.96875 515.992188 375.820312 516.277344 C 375.3125 503.15625 375.425781 485.699219 377.484375 475 C 377.574219 474.542969 377.660156 474.078125 377.75 473.605469 C 377.851562 473.5625 377.949219 473.5 378.035156 473.417969 C 380.273438 471.160156 382.40625 468.804688 384.453125 466.375 C 387.808594 473.855469 403.414062 508.621094 406.914062 514.65625 C 410.234375 520.386719 416.324219 537.449219 418.921875 544.734375 C 419.3125 545.828125 419.632812 546.714844 419.847656 547.324219 C 421.675781 552.335938 424.199219 556.105469 430.59375 558.1875 C 432.824219 558.914062 435.703125 559.269531 438.601562 559.269531 C 443.917969 559.269531 449.253906 558.066406 450.570312 555.757812 C 450.574219 555.753906 450.578125 555.746094 450.582031 555.738281 C 452.109375 556.125 453.832031 556.476562 455.492188 556.476562 C 456.167969 556.476562 456.832031 556.417969 457.464844 556.28125 C 458.75 556 459.839844 555.308594 460.726562 554.390625 C 461.757812 554.75 463.09375 555.042969 464.535156 555.042969 C 466.929688 555.042969 469.566406 554.253906 471.390625 551.691406 C 475.222656 546.335938 472.28125 532.507812 467.640625 528.828125 C 464.261719 526.152344 460.660156 523.609375 458.269531 521.925781 C 457.726562 521.542969 457.253906 521.207031 456.878906 520.9375 C 456.710938 520.820312 456.53125 520.699219 456.339844 520.570312 C 454.363281 519.234375 451.058594 516.996094 448.382812 506.042969 C 447.726562 503.359375 446.964844 500.304688 446.148438 497.050781 C 443.269531 485.582031 439.691406 471.308594 438.25 462.382812 C 436.042969 448.753906 425.726562 400.078125 418.894531 385.320312 C 421.121094 373.667969 422.664062 361.777344 423.804688 349.785156 C 425.589844 348.136719 427.628906 346.78125 428.183594 346.871094 C 428.964844 347.195312 430.136719 349.199219 430.683594 350.449219 C 430.824219 350.773438 431.136719 350.992188 431.496094 351.011719 C 431.863281 351.03125 432.1875 350.847656 432.359375 350.539062 C 432.644531 350.042969 434.636719 346.496094 435.511719 343.855469 C 436.761719 345.398438 438.453125 348.199219 437.476562 351.214844 C 437.324219 351.683594 437.558594 352.1875 438.011719 352.375 C 438.460938 352.5625 438.984375 352.371094 439.207031 351.9375 C 440.457031 349.515625 442.0625 347.238281 442.710938 346.953125 C 443.386719 347.226562 445.167969 349.523438 446.601562 351.980469 C 446.789062 352.308594 447.160156 352.492188 447.542969 352.4375 C 447.917969 352.386719 448.230469 352.109375 448.324219 351.742188 C 448.378906 351.539062 449.609375 347.097656 455.351562 345.851562 C 454.777344 347.996094 453.703125 352.039062 453.203125 353.878906 C 453.085938 354.320312 453.300781 354.78125 453.714844 354.976562 C 454.125 355.167969 454.625 355.039062 454.882812 354.660156 C 456.488281 352.371094 458.863281 349.917969 459.847656 349.917969 C 460.820312 349.917969 462.992188 352.351562 464.414062 354.621094 C 464.613281 354.941406 464.980469 355.109375 465.351562 355.054688 C 465.722656 354.996094 466.023438 354.726562 466.121094 354.363281 C 466.164062 354.191406 467.03125 350.839844 466.609375 347.71875 C 468.484375 348.8125 471.238281 351.003906 471.277344 354.519531 C 471.28125 354.917969 471.539062 355.269531 471.914062 355.398438 C 472.292969 355.527344 472.714844 355.398438 472.957031 355.085938 C 474.679688 352.878906 476.699219 350.839844 477.425781 350.5625 C 478.0625 351.015625 479.617188 353.328125 480.933594 355.800781 C 481.105469 356.128906 481.453125 356.304688 481.832031 356.292969 C 482.199219 356.269531 482.523438 356.023438 482.648438 355.675781 C 482.710938 355.519531 483.984375 352.121094 488.097656 350.117188 C 487.929688 351.390625 487.660156 353.363281 487.277344 355.785156 C 487.210938 356.191406 487.417969 356.59375 487.789062 356.777344 C 488.152344 356.957031 488.597656 356.882812 488.882812 356.585938 C 490.523438 354.894531 492.613281 352.984375 493.398438 352.550781 C 494.105469 353.054688 495.925781 354.925781 497.375 356.554688 C 497.589844 356.796875 497.914062 356.914062 498.234375 356.859375 C 498.554688 356.808594 498.824219 356.589844 498.949219 356.292969 C 499 356.160156 500.25 353.070312 500.25 348.917969 C 500.25 348.753906 500.261719 348.636719 500.273438 348.554688 C 501.355469 348.964844 504.082031 352.410156 503.945312 355.894531 C 503.925781 356.269531 504.136719 356.613281 504.46875 356.777344 C 504.804688 356.945312 505.207031 356.894531 505.492188 356.652344 C 507.519531 354.941406 510.128906 353.082031 510.929688 352.925781 C 511.652344 353.390625 513.535156 356.304688 514.898438 358.847656 C 515.121094 359.261719 515.609375 359.441406 516.054688 359.277344 C 516.5 359.109375 516.746094 358.640625 516.640625 358.179688 C 516.601562 358.003906 515.8125 354.15625 522.28125 351.691406 C 521.777344 353.289062 521.332031 355.796875 521.800781 359.164062 C 521.84375 359.484375 522.058594 359.761719 522.355469 359.894531 C 522.65625 360.027344 523.003906 359.988281 523.269531 359.804688 C 525.101562 358.527344 527.308594 357.082031 528.152344 356.660156 C 528.640625 357.136719 529.589844 358.429688 530.304688 359.542969 C 530.503906 359.847656 530.859375 360.011719 531.222656 359.964844 C 531.585938 359.914062 531.886719 359.660156 531.996094 359.3125 C 532.007812 359.261719 533.417969 354.75 534.113281 352.941406 C 534.75 353.191406 536.136719 354.144531 537.308594 355.738281 C 537.996094 356.683594 539.074219 358.527344 538.558594 360.277344 C 538.433594 360.699219 538.617188 361.152344 539.003906 361.367188 C 539.390625 361.578125 539.875 361.496094 540.164062 361.164062 C 541.617188 359.511719 543.234375 357.996094 543.804688 357.6875 C 544.355469 358.226562 545.523438 360.34375 546.476562 362.5625 C 546.625 362.90625 546.960938 363.128906 547.335938 363.128906 C 547.679688 363.132812 548.050781 362.914062 548.199219 362.574219 C 548.222656 362.527344 550.074219 358.507812 554.375 355.8125 L 553.695312 362.621094 C 553.65625 363.019531 553.871094 363.398438 554.234375 363.566406 C 554.359375 363.628906 554.496094 363.65625 554.632812 363.65625 C 554.878906 363.65625 555.121094 363.558594 555.304688 363.375 C 555.335938 363.34375 558.394531 360.242188 560.816406 359.042969 C 561.28125 358.808594 561.472656 358.246094 561.242188 357.777344 C 561.011719 357.3125 560.453125 357.125 559.980469 357.351562 " fill-opacity="1" fill-rule="nonzero"/></g><g transform="matrix(1, 0, 0, 1, 193, 636)"><g clip-path="url(#ed73ecebbb)"><g fill="#000000" fill-opacity="1"><g transform="translate(3.828892, 125.38898)"><g><path d="M 68.980469 -43.527344 C 68.683594 -40.335938 68.109375 -37.074219 67.257812 -33.738281 C 66.398438 -30.371094 65.164062 -27.078125 63.554688 -23.863281 C 61.960938 -20.671875 60.070312 -17.59375 57.882812 -14.628906 C 55.695312 -11.660156 53.265625 -8.914062 50.59375 -6.390625 C 47.886719 -3.835938 44.992188 -1.695312 41.902344 0.0390625 L 40.914062 -1.722656 L 41.941406 0.015625 C 35.191406 4.003906 28.628906 5.414062 22.246094 4.246094 L 22.609375 2.261719 L 24.445312 3.105469 C 22.898438 6.460938 20.554688 8.601562 17.421875 9.527344 C 14.488281 10.394531 11.589844 10.394531 8.726562 9.523438 C 5.890625 8.660156 3.414062 7.046875 1.296875 4.6875 C -0.914062 2.21875 -2.019531 -1.082031 -2.019531 -5.222656 C -2.019531 -8.933594 -1.761719 -12.738281 -1.246094 -16.628906 C -0.734375 -20.507812 -0.0390625 -24.242188 0.839844 -27.828125 C 2.222656 -33.726562 3.9375 -39.269531 5.980469 -44.457031 C 10.660156 -55.871094 13.3125 -63.828125 13.933594 -68.324219 C 14.964844 -75.214844 17.007812 -79.574219 20.066406 -81.40625 C 24.617188 -84.074219 28.972656 -85.210938 33.140625 -84.808594 C 37.109375 -84.425781 40.707031 -83.46875 43.9375 -81.929688 C 49.089844 -79.464844 54.621094 -75.355469 60.519531 -69.601562 C 67.304688 -63.046875 70.125 -54.347656 68.980469 -43.503906 Z M 64.964844 -43.925781 C 65.972656 -53.464844 63.550781 -61.0625 57.703125 -66.710938 C 52.117188 -72.15625 46.953125 -76.011719 42.199219 -78.285156 C 39.398438 -79.617188 36.25 -80.453125 32.753906 -80.789062 C 29.457031 -81.105469 25.917969 -80.160156 22.140625 -77.945312 C 20.175781 -76.765625 18.773438 -73.375 17.933594 -67.769531 C 17.265625 -62.9375 14.535156 -54.671875 9.738281 -42.972656 C 7.765625 -37.96875 6.105469 -32.601562 4.761719 -26.867188 C 3.917969 -23.421875 3.25 -19.832031 2.753906 -16.101562 C 2.265625 -12.386719 2.019531 -8.757812 2.019531 -5.222656 C 2.019531 -2.113281 2.78125 0.292969 4.304688 1.988281 C 5.917969 3.792969 7.785156 5.015625 9.902344 5.660156 C 11.992188 6.296875 14.117188 6.292969 16.277344 5.65625 C 18.242188 5.074219 19.742188 3.660156 20.777344 1.414062 L 21.433594 -0.0078125 L 22.972656 0.273438 C 28.367188 1.261719 34.003906 0.015625 39.886719 -3.460938 L 39.925781 -3.484375 C 42.726562 -5.054688 45.355469 -7 47.820312 -9.328125 C 50.316406 -11.6875 52.585938 -14.25 54.632812 -17.027344 C 56.683594 -19.804688 58.453125 -22.683594 59.945312 -25.667969 C 61.421875 -28.625 62.558594 -31.648438 63.347656 -34.738281 C 64.144531 -37.867188 64.683594 -40.921875 64.960938 -43.902344 Z M 23.738281 -13.210938 C 27.253906 -15.003906 30.078125 -16.832031 32.210938 -18.695312 C 34.488281 -20.683594 36.640625 -22.507812 38.664062 -24.171875 L 39.945312 -22.609375 L 38.519531 -24.039062 C 41.382812 -26.902344 43.484375 -30.304688 44.816406 -34.242188 C 46.261719 -38.511719 46.539062 -42.210938 45.648438 -45.34375 C 44.777344 -48.402344 42.753906 -50.996094 39.574219 -53.128906 L 39.539062 -53.152344 L 39.507812 -53.175781 C 38.464844 -53.9375 36.890625 -54.988281 34.773438 -56.328125 L 35.855469 -58.035156 L 37.703125 -57.226562 C 36.761719 -55.070312 36.070312 -52.8125 35.632812 -50.453125 C 35.148438 -47.847656 34.496094 -45.316406 33.679688 -42.859375 L 31.761719 -43.5 L 33.691406 -42.90625 L 30.785156 -33.433594 L 28.855469 -34.023438 L 30.824219 -33.570312 L 28.453125 -23.339844 L 26.488281 -23.796875 L 28.496094 -23.59375 C 28.34375 -22.082031 28.117188 -20.625 27.816406 -19.222656 C 27.535156 -17.9375 27.292969 -16.597656 27.085938 -15.207031 L 25.085938 -15.503906 L 27.09375 -15.292969 L 26.664062 -11.203125 L 24.65625 -11.414062 Z M 22.257812 -7.925781 L 23.085938 -15.761719 L 23.089844 -15.804688 C 23.3125 -17.28125 23.570312 -18.707031 23.867188 -20.078125 C 24.140625 -21.332031 24.34375 -22.636719 24.476562 -23.996094 L 24.492188 -24.125 L 26.90625 -34.546875 L 29.839844 -44.113281 L 29.847656 -44.136719 C 30.609375 -46.417969 31.210938 -48.769531 31.664062 -51.191406 C 32.15625 -53.855469 32.9375 -56.40625 34.003906 -58.84375 L 34.949219 -61 L 36.933594 -59.742188 C 39.128906 -58.351562 40.78125 -57.25 41.894531 -56.433594 L 40.699219 -54.804688 L 41.824219 -56.480469 C 45.824219 -53.800781 48.394531 -50.457031 49.53125 -46.445312 C 50.652344 -42.507812 50.355469 -38.007812 48.640625 -32.945312 C 47.105469 -28.414062 44.683594 -24.492188 41.375 -21.183594 L 41.304688 -21.113281 L 41.226562 -21.050781 C 39.234375 -19.414062 37.113281 -17.613281 34.867188 -15.652344 C 32.480469 -13.570312 29.382812 -11.554688 25.574219 -9.613281 Z M 22.257812 -7.925781 "/></g></g></g><g fill="#000000" fill-opacity="1"><g transform="translate(67.782734, 125.38898)"><g><path d="M 20.335938 -72.609375 C 25.144531 -78.101562 30.523438 -81.542969 36.472656 -82.933594 C 40.65625 -83.960938 44.628906 -83.796875 48.386719 -82.4375 L 47.699219 -80.539062 L 46.234375 -81.929688 C 49.394531 -85.257812 53.449219 -86.460938 58.40625 -85.539062 C 62.796875 -84.722656 66.515625 -82.277344 69.558594 -78.191406 L 69.78125 -77.894531 L 69.882812 -77.539062 C 69.996094 -77.140625 70.265625 -76.484375 70.6875 -75.574219 C 71.179688 -74.511719 71.652344 -73.339844 72.105469 -72.058594 L 70.203125 -71.386719 L 72.054688 -72.1875 C 75.386719 -64.464844 75.675781 -54.433594 72.925781 -42.089844 C 69.554688 -26.992188 63.566406 -14.1875 54.96875 -3.675781 C 52.25 -0.351562 49.1875 2.40625 45.777344 4.605469 L 44.683594 2.90625 L 45.910156 4.511719 C 40.34375 8.761719 33.722656 10.660156 26.042969 10.199219 C 21.238281 9.964844 17.171875 8.742188 13.847656 6.523438 L 14.964844 4.84375 L 14.066406 6.652344 C 7.5625 3.417969 3.242188 -1.574219 1.117188 -8.332031 C -0.949219 -14.882812 -0.902344 -23.054688 1.257812 -32.84375 C 4.777344 -48.679688 11.132812 -61.933594 20.328125 -72.597656 Z M 23.386719 -69.960938 C 14.636719 -59.808594 8.574219 -47.144531 5.203125 -31.972656 C 3.199219 -22.886719 3.121094 -15.410156 4.96875 -9.542969 C 6.75 -3.878906 10.382812 0.3125 15.863281 3.039062 L 15.980469 3.09375 L 16.085938 3.164062 C 18.792969 4.96875 22.191406 5.96875 26.285156 6.167969 C 32.964844 6.566406 38.6875 4.945312 43.457031 1.300781 L 43.523438 1.253906 L 43.589844 1.210938 C 46.640625 -0.757812 49.394531 -3.238281 51.84375 -6.230469 C 60.039062 -16.25 65.753906 -28.496094 68.984375 -42.96875 C 71.546875 -54.460938 71.332031 -63.664062 68.347656 -70.585938 L 68.320312 -70.648438 L 68.296875 -70.714844 C 67.886719 -71.875 67.464844 -72.925781 67.023438 -73.875 C 66.515625 -74.972656 66.171875 -75.828125 66 -76.429688 L 67.941406 -76.984375 L 66.320312 -75.777344 C 63.910156 -79.015625 61.023438 -80.945312 57.664062 -81.566406 C 54.148438 -82.222656 51.316406 -81.417969 49.164062 -79.148438 L 48.253906 -78.191406 L 47.011719 -78.640625 C 44.019531 -79.722656 40.8125 -79.84375 37.390625 -79.003906 C 32.285156 -77.808594 27.613281 -74.792969 23.375 -69.949219 Z M 25.140625 -13.773438 L 25.035156 -13.128906 L 23.042969 -13.457031 L 25.027344 -13.820312 L 25.242188 -12.636719 C 25.605469 -10.773438 26.171875 -9.382812 26.949219 -8.464844 C 27.757812 -7.515625 28.339844 -6.960938 28.707031 -6.796875 L 27.886719 -4.953125 L 26.625 -6.53125 C 27.378906 -7.128906 28.128906 -7.695312 28.882812 -8.222656 C 29.441406 -8.613281 29.949219 -9.09375 30.402344 -9.660156 C 35.113281 -15.480469 38.792969 -23.136719 41.445312 -32.628906 C 44.109375 -42.15625 45.089844 -50.960938 44.394531 -59.046875 L 46.40625 -59.21875 L 48 -57.976562 C 45.230469 -54.429688 42.320312 -50.34375 39.261719 -45.722656 C 36.207031 -41.105469 33.796875 -37.171875 32.03125 -33.921875 C 28.066406 -26.484375 25.777344 -19.808594 25.15625 -13.894531 L 25.152344 -13.832031 Z M 21.15625 -14.4375 L 23.148438 -14.105469 L 21.140625 -14.316406 C 21.816406 -20.75 24.261719 -27.925781 28.480469 -35.851562 C 30.304688 -39.203125 32.773438 -43.238281 35.894531 -47.949219 C 39.007812 -52.660156 41.984375 -56.832031 44.8125 -60.460938 L 47.976562 -64.515625 L 48.417969 -59.394531 C 49.15625 -50.824219 48.128906 -41.539062 45.335938 -31.542969 C 42.535156 -21.511719 38.605469 -13.378906 33.554688 -7.136719 C 32.859375 -6.269531 32.074219 -5.527344 31.199219 -4.914062 C 30.515625 -4.4375 29.832031 -3.921875 29.148438 -3.375 L 28.1875 -2.609375 L 27.066406 -3.109375 C 26.140625 -3.519531 25.074219 -4.433594 23.871094 -5.855469 C 22.636719 -7.308594 21.769531 -9.328125 21.269531 -11.914062 L 20.992188 -13.445312 Z M 21.15625 -14.4375 "/></g></g></g><g fill="#000000" fill-opacity="1"><g transform="translate(136.581574, 125.38898)"><g><path d="M 42.347656 -83.269531 C 53.304688 -85.476562 61.902344 -84.046875 68.136719 -78.984375 C 71.234375 -76.457031 73.28125 -72.84375 74.277344 -68.144531 C 75.253906 -63.535156 74.742188 -58.433594 72.75 -52.835938 L 70.847656 -53.511719 L 72.769531 -52.890625 C 71.828125 -49.984375 70.183594 -47.792969 67.832031 -46.3125 C 65.617188 -44.917969 63.328125 -44.117188 60.957031 -43.910156 C 58.582031 -43.703125 56.417969 -44.003906 54.464844 -44.808594 C 52.078125 -45.796875 50.769531 -47.332031 50.535156 -49.414062 L 52.542969 -49.636719 L 50.703125 -48.808594 L 49.734375 -50.960938 L 51.574219 -51.789062 L 49.894531 -50.671875 C 49.382812 -51.4375 48.695312 -51.871094 47.832031 -51.964844 C 46.710938 -52.085938 45.257812 -51.738281 43.476562 -50.921875 C 40.070312 -49.386719 36.632812 -46.679688 33.160156 -42.800781 C 29.472656 -38.632812 27.097656 -34.925781 26.039062 -31.675781 C 24.8125 -27.996094 24.199219 -25.660156 24.199219 -24.65625 L 24.199219 -24.605469 L 24.195312 -24.550781 C 24.082031 -22.40625 24.863281 -20.46875 26.539062 -18.738281 L 25.085938 -17.335938 L 26.179688 -19.035156 C 28.824219 -17.332031 31.433594 -16.558594 34.011719 -16.710938 C 36.75 -16.875 39.183594 -17.488281 41.304688 -18.546875 C 43.476562 -19.636719 45.242188 -20.855469 46.59375 -22.207031 C 47.265625 -22.878906 47.753906 -23.433594 48.0625 -23.875 C 48.175781 -24.035156 48.25 -24.160156 48.292969 -24.253906 C 48.273438 -24.210938 48.261719 -24.128906 48.261719 -24.011719 L 48.261719 -24.488281 L 49.121094 -26.207031 C 49.296875 -26.550781 49.4375 -26.894531 49.550781 -27.234375 L 51.46875 -26.59375 L 51.46875 -24.574219 C 51.339844 -24.574219 51.234375 -24.578125 51.152344 -24.585938 C 50.75 -24.621094 50.394531 -24.753906 50.082031 -24.988281 C 49.820312 -25.183594 49.617188 -25.433594 49.476562 -25.730469 C 49.246094 -26.203125 49.210938 -26.695312 49.363281 -27.199219 C 49.519531 -27.699219 49.824219 -28.082031 50.277344 -28.347656 C 50.445312 -28.445312 50.625 -28.519531 50.816406 -28.566406 C 50.957031 -28.601562 51.191406 -28.632812 51.515625 -28.660156 C 51.785156 -28.683594 51.976562 -28.695312 52.085938 -28.695312 C 52.316406 -28.695312 52.539062 -28.660156 52.75 -28.589844 C 53.222656 -28.429688 53.585938 -28.140625 53.84375 -27.710938 C 54.140625 -27.21875 54.210938 -26.695312 54.0625 -26.140625 C 53.964844 -25.796875 53.792969 -25.496094 53.539062 -25.246094 C 53.316406 -25.019531 53.050781 -24.855469 52.746094 -24.753906 C 52.632812 -24.714844 52.496094 -24.683594 52.335938 -24.65625 C 52.644531 -24.707031 52.929688 -24.84375 53.195312 -25.066406 C 53.511719 -25.328125 53.726562 -25.660156 53.839844 -26.054688 C 53.988281 -26.582031 53.933594 -27.085938 53.671875 -27.566406 C 53.472656 -27.933594 53.191406 -28.207031 52.828125 -28.386719 C 52.710938 -28.445312 52.613281 -28.484375 52.523438 -28.503906 C 52.550781 -28.496094 52.59375 -28.488281 52.660156 -28.480469 L 52.816406 -28.453125 L 56.90625 -27.089844 L 54.324219 -24.769531 C 52.285156 -22.9375 50.230469 -21.828125 48.15625 -21.433594 C 45.964844 -21.019531 43.832031 -21.402344 41.753906 -22.574219 L 41.722656 -22.59375 L 41.691406 -22.609375 C 40.296875 -23.464844 39.050781 -24.378906 37.957031 -25.359375 C 37.382812 -25.871094 36.953125 -26.113281 36.667969 -26.089844 L 36.066406 -26.039062 L 35.535156 -26.328125 C 34.199219 -27.058594 33.378906 -28.144531 33.074219 -29.59375 C 32.816406 -30.800781 32.960938 -32.210938 33.515625 -33.816406 C 33.988281 -35.148438 34.832031 -36.375 36.042969 -37.496094 C 37.273438 -38.636719 38.8125 -39.421875 40.664062 -39.863281 L 41.128906 -37.898438 L 40.332031 -39.753906 C 47.941406 -43.027344 55.023438 -43.777344 61.578125 -42.003906 C 64.902344 -41.128906 67.214844 -39.3125 68.527344 -36.558594 C 69.714844 -34.0625 70.226562 -31.28125 70.066406 -28.210938 C 69.910156 -25.277344 69.277344 -22.316406 68.164062 -19.324219 C 67.058594 -16.351562 65.84375 -13.949219 64.515625 -12.113281 C 63.242188 -10.351562 61.480469 -8.292969 59.226562 -5.929688 C 56.929688 -3.519531 54.066406 -1.195312 50.632812 1.046875 C 42.167969 6.511719 33.097656 9.132812 23.425781 8.910156 C 16.316406 8.796875 10.609375 7.25 6.308594 4.269531 C 1.910156 1.226562 -0.957031 -3.242188 -2.292969 -9.136719 C -3.117188 -12.738281 -3.492188 -16.773438 -3.417969 -21.246094 L -3.417969 -21.285156 L -3.414062 -21.328125 C -2.679688 -34.160156 1.15625 -46.140625 8.085938 -57.273438 C 11.410156 -62.59375 15.871094 -67.832031 21.457031 -72.980469 C 25.101562 -76.242188 29.195312 -78.746094 33.730469 -80.484375 C 36.082031 -81.441406 38.914062 -82.359375 42.226562 -83.242188 L 42.285156 -83.257812 Z M 43.144531 -79.3125 L 42.746094 -81.292969 L 43.265625 -79.339844 C 40.117188 -78.5 37.421875 -77.625 35.175781 -76.714844 C 31.101562 -75.152344 27.441406 -72.917969 24.195312 -70.007812 C 18.871094 -65.105469 14.644531 -60.148438 11.511719 -55.136719 C 4.945312 -44.589844 1.3125 -33.242188 0.617188 -21.09375 L -1.398438 -21.210938 L 0.617188 -21.175781 C 0.550781 -17.035156 0.890625 -13.316406 1.644531 -10.027344 C 2.75 -5.15625 5.070312 -1.496094 8.605469 0.949219 C 12.234375 3.464844 17.207031 4.769531 23.519531 4.871094 C 32.363281 5.078125 40.667969 2.675781 48.425781 -2.335938 C 51.597656 -4.40625 54.222656 -6.53125 56.304688 -8.714844 C 58.429688 -10.945312 60.078125 -12.867188 61.246094 -14.480469 C 62.355469 -16.019531 63.402344 -18.101562 64.378906 -20.730469 C 65.347656 -23.335938 65.898438 -25.902344 66.03125 -28.421875 C 66.15625 -30.8125 65.773438 -32.945312 64.878906 -34.828125 C 64.105469 -36.449219 62.65625 -37.542969 60.523438 -38.105469 C 54.875 -39.632812 48.675781 -38.945312 41.929688 -36.046875 L 41.769531 -35.976562 L 41.597656 -35.9375 C 40.433594 -35.660156 39.496094 -35.191406 38.789062 -34.535156 C 38.0625 -33.863281 37.574219 -33.1875 37.332031 -32.507812 C 37.023438 -31.605469 36.921875 -30.914062 37.023438 -30.433594 C 37.074219 -30.195312 37.222656 -30.007812 37.46875 -29.875 L 36.5 -28.101562 L 36.332031 -30.113281 C 37.769531 -30.234375 39.207031 -29.652344 40.644531 -28.371094 C 41.558594 -27.554688 42.609375 -26.78125 43.796875 -26.054688 L 42.746094 -24.332031 L 43.738281 -26.089844 C 44.960938 -25.402344 46.183594 -25.171875 47.402344 -25.402344 C 48.738281 -25.65625 50.144531 -26.445312 51.625 -27.773438 L 52.972656 -26.273438 L 52.335938 -24.355469 L 51.691406 -24.570312 L 52.328125 -26.488281 L 51.996094 -24.496094 C 51.582031 -24.566406 51.257812 -24.65625 51.023438 -24.777344 C 50.628906 -24.972656 50.332031 -25.257812 50.125 -25.632812 C 49.859375 -26.121094 49.804688 -26.632812 49.957031 -27.164062 C 50.070312 -27.566406 50.289062 -27.902344 50.613281 -28.167969 C 50.90625 -28.414062 51.257812 -28.570312 51.671875 -28.640625 L 51.675781 -28.640625 C 51.609375 -28.628906 51.539062 -28.609375 51.46875 -28.585938 C 51.167969 -28.484375 50.910156 -28.324219 50.683594 -28.097656 C 50.433594 -27.847656 50.257812 -27.546875 50.164062 -27.203125 C 50.015625 -26.648438 50.085938 -26.125 50.382812 -25.632812 C 50.636719 -25.207031 51 -24.914062 51.472656 -24.757812 C 51.675781 -24.691406 51.882812 -24.65625 52.085938 -24.65625 L 52.078125 -24.65625 C 52.023438 -24.652344 51.945312 -24.644531 51.851562 -24.636719 C 51.757812 -24.628906 51.6875 -24.621094 51.640625 -24.617188 L 51.628906 -24.617188 C 51.679688 -24.625 51.734375 -24.632812 51.796875 -24.648438 C 51.976562 -24.695312 52.148438 -24.765625 52.3125 -24.859375 C 52.765625 -25.125 53.070312 -25.507812 53.222656 -26.011719 C 53.378906 -26.511719 53.34375 -27.003906 53.113281 -27.476562 C 52.972656 -27.773438 52.769531 -28.019531 52.507812 -28.21875 C 52.199219 -28.449219 51.859375 -28.578125 51.488281 -28.609375 L 51.46875 -28.613281 L 54.269531 -28.613281 L 53.382812 -25.957031 C 53.207031 -25.433594 52.992188 -24.917969 52.734375 -24.398438 L 52.089844 -23.109375 L 50.28125 -24.011719 L 52.300781 -24.011719 C 52.300781 -23.261719 51.992188 -22.445312 51.371094 -21.5625 C 50.925781 -20.925781 50.285156 -20.191406 49.449219 -19.351562 C 47.789062 -17.691406 45.675781 -16.21875 43.109375 -14.9375 C 40.496094 -13.628906 37.542969 -12.878906 34.25 -12.683594 C 30.796875 -12.476562 27.378906 -13.460938 23.996094 -15.636719 L 23.796875 -15.761719 L 23.636719 -15.933594 C 21.148438 -18.507812 19.988281 -21.449219 20.164062 -24.761719 L 22.179688 -24.65625 L 20.160156 -24.65625 C 20.160156 -26.09375 20.839844 -28.851562 22.199219 -32.929688 C 23.433594 -36.710938 26.085938 -40.898438 30.152344 -45.492188 C 34 -49.796875 37.882812 -52.828125 41.796875 -54.59375 C 44.253906 -55.71875 46.410156 -56.179688 48.265625 -55.976562 C 50.382812 -55.75 52.042969 -54.726562 53.253906 -52.910156 L 53.347656 -52.769531 L 54.515625 -50.175781 L 54.550781 -49.859375 C 54.605469 -49.359375 55.089844 -48.917969 56.007812 -48.542969 C 57.351562 -47.984375 58.886719 -47.78125 60.605469 -47.933594 C 62.324219 -48.085938 64.019531 -48.683594 65.679688 -49.730469 C 67.207031 -50.691406 68.289062 -52.160156 68.925781 -54.132812 L 68.9375 -54.164062 L 68.945312 -54.191406 C 70.683594 -59.070312 71.144531 -63.445312 70.328125 -67.308594 C 69.527344 -71.078125 67.949219 -73.925781 65.589844 -75.847656 C 60.339844 -80.113281 52.859375 -81.269531 43.144531 -79.3125 Z M 43.144531 -79.3125 "/></g></g></g></g></g></svg>